<svg width="36" height="36" viewBox="0 0 36 36" fill="none" xmlns="http://www.w3.org/2000/svg">
<g clip-path="url(#clip0_8416_11306)">
<path fill-rule="evenodd" clip-rule="evenodd" d="M8.21991 14.481L6.38858 15.4447C4.6148 16.3795 3.30121 18.0031 2.75789 19.9336C2.02599 22.5352 0.942554 26.3862 0.250618 28.844C-0.219182 30.5123 0.416811 32.2941 1.83425 33.2912C1.83585 33.2912 1.83585 33.2912 1.83745 33.2928C2.99599 34.1062 4.38629 34.3539 5.67267 34.0918V35.1417C5.67267 35.4949 5.96031 35.7809 6.31188 35.7809H22.2263C22.5795 35.7809 22.8655 35.4949 22.8655 35.1417V28.6216L31.0809 32.2443C31.1001 32.2539 31.1193 32.2619 31.1384 32.2683C32.11 32.7109 33.2734 32.6854 34.2562 32.0989L34.2594 32.0973C35.044 31.6307 35.6033 30.8637 35.8126 29.9752C36.022 29.0867 35.8606 28.1518 35.3652 27.3832L28.906 17.3445C28.5353 16.7693 28.0095 16.3506 27.4183 16.1109V11.1907C27.4183 10.8376 27.1306 10.5515 26.7791 10.5515H22.8767C22.8847 10.4093 22.8879 10.2671 22.8879 10.1217C22.8879 5.71739 19.3116 2.14111 14.9074 2.14111C10.5015 2.14111 6.92518 5.71747 6.92518 10.1217C6.92518 11.7293 7.40173 13.2267 8.21991 14.481ZM23.4618 20.8956H16.493C16.3907 21.2727 16.2197 21.6403 15.98 21.9758C14.0975 24.603 10.9269 29.0294 8.71373 32.1233C8.2391 32.7849 7.63029 33.2947 6.95112 33.6447V34.5028H21.5872V27.6424C21.5872 27.425 21.6958 27.2253 21.8764 27.1054C22.0586 26.9888 22.2855 26.9712 22.4837 27.0575L29.0483 29.9531L23.4618 20.8987L23.4618 20.8956ZM9.016 15.5054L6.98495 16.5761C5.52118 17.3463 4.4377 18.6871 3.98869 20.2803C3.25678 22.8802 2.17334 26.7329 1.48141 29.189C1.16021 30.3348 1.59487 31.5605 2.56967 32.2445H2.57127C4.22203 33.4046 6.4992 33.0179 7.67386 31.3767L14.9418 21.2309C15.6065 20.3008 15.3956 19.008 14.4671 18.3417L14.4655 18.3401C13.641 17.7456 12.492 17.9246 11.8863 18.7412L4.95717 28.0942C4.74783 28.3771 4.34832 28.4362 4.06388 28.2269C3.78103 28.0175 3.72031 27.6164 3.93124 27.3336L10.8588 17.9805C11.0426 17.7312 11.2599 17.5171 11.4964 17.3381C10.5536 16.8907 9.71273 16.2661 9.016 15.5054ZM33.6044 30.9997L33.6012 31.0013C32.628 31.583 31.3672 31.2746 30.7711 30.3078L24.5517 20.2274C23.9668 19.2814 24.2561 18.0413 25.2005 17.45V17.4484C26.0906 16.8923 27.2635 17.1528 27.8308 18.0365C27.8324 18.0365 34.29 28.0752 34.29 28.0752C34.5968 28.5514 34.6975 29.1314 34.568 29.6828C34.4386 30.2341 34.0918 30.7105 33.6044 30.9997ZM26.1401 15.8793V11.83H14.5915V16.9546C14.8072 17.0441 15.015 17.1592 15.2115 17.3014L15.2131 17.303C16.0025 17.8719 16.4723 18.7204 16.5826 19.6169H23.0017C22.9905 19.5338 22.9825 19.4507 22.9761 19.366C22.6773 19.4475 22.3641 19.4923 22.0397 19.4923C20.0677 19.4923 18.4665 17.8895 18.4665 15.9191C18.4665 13.9456 20.0677 12.3443 22.0397 12.3443C24.0116 12.3443 25.6128 13.9456 25.6128 15.9191V15.9351C25.787 15.9015 25.9627 15.8825 26.1401 15.8793ZM24.2417 16.5617C24.2593 16.5073 24.2721 16.453 24.2849 16.3971C24.3168 16.2421 24.3344 16.0823 24.3344 15.9193C24.3344 14.652 23.3069 13.6229 22.0396 13.6229C20.7724 13.6229 19.7449 14.652 19.7449 15.9193C19.7449 17.1849 20.7724 18.214 22.0396 18.214C22.4519 18.214 22.837 18.1054 23.171 17.9136C23.1902 17.904 23.2094 17.8944 23.2302 17.8848C23.4427 17.3767 23.7847 16.9164 24.2417 16.5617ZM21.5954 10.5517C21.605 10.4095 21.6098 10.2673 21.6098 10.1218C21.6098 6.42244 18.6055 3.41971 14.9076 3.41971C11.2082 3.41971 8.20386 6.42236 8.20386 10.1218C8.20386 13.2731 10.3819 15.9195 13.3126 16.6354V11.1908C13.3126 10.8376 13.5986 10.5516 13.9518 10.5516L21.5954 10.5517Z" fill="#111111"/>
<path fill-rule="evenodd" clip-rule="evenodd" d="M25.7527 5.27527V0.858312C25.7527 0.505152 25.465 0.220703 25.1119 0.220703C24.7587 0.220703 24.4727 0.505148 24.4727 0.858312V5.27527C24.4727 5.62843 24.7587 5.91288 25.1119 5.91288C25.465 5.91288 25.7527 5.62843 25.7527 5.27527Z" fill="#111111"/>
<path fill-rule="evenodd" clip-rule="evenodd" d="M28.9944 6.70692L32.1169 3.58282C32.3662 3.33353 32.3662 2.92922 32.1153 2.67996C31.866 2.43066 31.4617 2.42907 31.2124 2.67836L28.0899 5.80246C27.839 6.05175 27.8406 6.45607 28.0899 6.70533C28.3408 6.95462 28.7435 6.95621 28.9944 6.70692Z" fill="#111111"/>
<path fill-rule="evenodd" clip-rule="evenodd" d="M29.6394 15.0804L33.4635 17.2888C33.7703 17.4662 34.1602 17.3592 34.336 17.0539C34.5134 16.7487 34.4095 16.3572 34.1043 16.1814L30.2786 13.973C29.9734 13.7956 29.5835 13.9027 29.4061 14.2079C29.2304 14.5131 29.3326 14.9046 29.6394 15.0804Z" fill="#111111"/>
<path fill-rule="evenodd" clip-rule="evenodd" d="M30.9885 11.6861L35.2537 10.5435C35.5957 10.4524 35.797 10.1009 35.7059 9.76046C35.6133 9.42008 35.2649 9.21555 34.9229 9.30821L30.6577 10.4508C30.3157 10.5419 30.1144 10.8934 30.2055 11.2338C30.2982 11.5742 30.6465 11.7788 30.9885 11.6861Z" fill="#111111"/>
</g>
<defs>
<clipPath id="clip0_8416_11306">
<rect width="36" height="36" fill="white"/>
</clipPath>
</defs>
</svg>
