<svg width="36" height="36" viewBox="0 0 36 36" fill="none" xmlns="http://www.w3.org/2000/svg">
<path d="M18 0C14.6863 0 12 2.68638 12 6V7.2H9.59996C8.61626 7.2 7.77896 7.94454 7.664 8.92146L7.16479 13.1625C6.78848 16.3611 6.59994 19.5795 6.59994 22.7997V24.922C5.92992 24.3473 5.14326 24.0314 4.33824 24.002C3.90035 23.9861 3.4644 24.0443 3.0492 24.172C1.3884 24.6825 0 26.2473 0 28.311C0 30.3413 1.15026 32.2297 2.58048 33.6313C4.0107 35.033 5.7087 35.9997 7.2 35.9997H34.2C35.187 35.9997 36 35.1867 36 34.1997V22.7997C36 19.579 35.8115 16.3611 35.4352 13.1625L34.9359 8.92146C34.821 7.94454 33.9837 7.2 33 7.2H28.8V6C28.8 2.68638 26.1136 0 22.8 0C21.9465 0 21.135 0.179124 20.4 0.500388C19.6649 0.179124 18.8535 0 18 0ZM18 1.2C18.3621 1.2 18.714 1.2404 19.0523 1.31485C17.6795 2.41441 16.8 4.10443 16.8 6.00001V7.20001H13.2V6.00001C13.2 3.33043 15.3304 1.2 18 1.2ZM22.8 1.2C25.4695 1.2 27.6 3.33042 27.6 6V7.2H24V6C24 4.10442 23.1204 2.4144 21.7476 1.31484C22.086 1.24039 22.4378 1.2 22.8 1.2ZM20.4 1.83516C21.8387 2.65992 22.8 4.20792 22.8 6V7.2H18V6C18 4.20792 18.9612 2.65992 20.4 1.83516ZM9.59996 8.39976H12V12.5998C12 12.9311 12.2686 13.1998 12.6 13.1998C12.9313 13.1998 13.2 12.9311 13.2 12.5998V8.39976H22.8V12.5998C22.8 12.9311 23.0686 13.1998 23.4 13.1998C23.7313 13.1998 24 12.9311 24 12.5998V8.39976H27.5262L26.9648 13.1623C26.5885 16.3609 26.4 19.5793 26.4 22.7995V34.7995H10.4178C10.9014 34.4631 11.3735 34.0681 11.8193 33.6311C13.2495 32.2294 14.3998 30.3411 14.3998 28.3108C14.3998 26.247 13.0114 24.6822 11.3506 24.1717C10.1706 23.809 8.84171 24.0531 7.79981 24.9311V22.7995C7.79981 19.6256 7.98562 16.4545 8.35645 13.3027L8.85566 9.06162C8.90064 8.67936 9.21509 8.39976 9.59996 8.39976ZM28.7334 8.39976H33.0001C33.385 8.39976 33.6993 8.67961 33.7443 9.06186L34.2435 13.3029C34.6143 16.455 34.8001 19.6257 34.8001 22.7997V33.9513L31.8001 30.9513V11.3997C31.8001 11.0683 31.5315 10.7997 31.2001 10.7997C30.8688 10.7997 30.6001 11.0683 30.6001 11.3997V30.9513L27.6001 33.9513V22.7997C27.6001 19.6259 27.7859 16.4547 28.1568 13.3029L28.7334 8.39976ZM4.30316 25.18C5.2043 25.1846 6.07586 25.6472 6.66446 26.8077C6.88643 27.2469 7.51358 27.2469 7.73558 26.8077C8.52044 25.2604 9.81008 24.9539 10.9993 25.3194C12.1885 25.6849 13.2001 26.7818 13.2001 28.3112C13.2001 29.8739 12.2503 31.5304 10.9806 32.7749C9.71078 34.0193 8.10878 34.7999 7.20008 34.7999C6.29138 34.7999 4.68938 34.0193 3.4196 32.7749C2.14982 31.5304 1.20008 29.874 1.20008 28.3112C1.20008 26.7818 2.21168 25.6849 3.40088 25.3194C3.69818 25.228 4.0028 25.1784 4.30316 25.18ZM31.2 32.0482L33.9515 34.7997H28.4484L31.2 32.0482Z" fill="#111111"/>
</svg>
