<svg width="31" height="36" viewBox="0 0 31 36" fill="none" xmlns="http://www.w3.org/2000/svg">
<path d="M23.7966 13.027C22.4304 13.9308 20.8542 14.4667 19.2203 14.5829C19.809 13.9415 20.1983 13.1426 20.3406 12.2836C20.483 11.4247 20.3722 10.5429 20.0219 9.74585C19.6716 8.9488 19.0968 8.27095 18.3678 7.79503C17.6387 7.3191 16.7869 7.06567 15.9162 7.06567C15.0456 7.06567 14.1938 7.3191 13.4647 7.79503C12.7357 8.27095 12.1609 8.9488 11.8106 9.74585C11.4602 10.5429 11.3495 11.4247 11.4918 12.2836C11.6342 13.1426 12.0234 13.9415 12.6122 14.5829C10.9436 14.4788 9.33087 13.9426 7.93216 13.027C7.53925 12.7558 7.06341 12.6317 6.58811 12.6763C6.11281 12.7209 5.6684 12.9315 5.33284 13.2711C5.18039 13.4441 5.06799 13.6487 5.00365 13.8702C4.93932 14.0917 4.92463 14.3246 4.96063 14.5524C5.00488 14.86 5.11571 15.1542 5.28538 15.4145C5.45505 15.6748 5.67948 15.8949 5.94301 16.0595C7.94331 17.3751 10.2629 18.1237 12.6549 18.2256V21.0202C12.6486 21.1137 12.6486 21.2074 12.6549 21.3009C12.5928 21.433 12.5477 21.5724 12.5206 21.7158L11.0684 29.5809C10.9918 29.8282 10.9685 30.0889 11 30.3458C11.0315 30.6028 11.1172 30.8501 11.2514 31.0715C11.3856 31.2929 11.5652 31.4833 11.7783 31.6302C11.9915 31.7771 12.2334 31.877 12.4881 31.9235C12.7427 31.97 13.0044 31.962 13.2557 31.8999C13.507 31.8379 13.7423 31.7232 13.9461 31.5635C14.1498 31.4038 14.3174 31.2027 14.4377 30.9735C14.558 30.7443 14.6283 30.4922 14.644 30.2338L15.7301 24.2907C15.85 24.2998 15.9703 24.2998 16.0901 24.2907L17.1762 30.2399C17.255 30.6548 17.4749 31.0297 17.7985 31.301C18.1221 31.5723 18.5295 31.7234 18.9518 31.7287C19.0624 31.7306 19.1729 31.7204 19.2813 31.6982C19.755 31.6091 20.1744 31.3368 20.4486 30.9405C20.7228 30.5441 20.8295 30.0555 20.7457 29.5809L19.2996 21.7158C19.2694 21.5579 19.2202 21.4043 19.1532 21.2582C19.1532 21.1789 19.1532 21.1056 19.1532 21.0202V18.2195C21.5109 18.1012 23.7943 17.3555 25.7674 16.0595C26.0307 15.894 26.2553 15.6737 26.4258 15.4137C26.5964 15.1536 26.709 14.8599 26.7559 14.5524C26.7894 14.3242 26.7729 14.0914 26.7076 13.8701C26.6423 13.6489 26.5297 13.4445 26.3776 13.2711C26.0438 12.9351 25.6028 12.7267 25.1312 12.6821C24.6597 12.6375 24.1875 12.7595 23.7966 13.027ZM25.6271 14.406C25.6013 14.5441 25.5466 14.6753 25.4667 14.791C25.3868 14.9066 25.2834 15.0041 25.1633 15.0772C23.205 16.3699 20.9139 17.0672 18.5674 17.0846C18.4056 17.0846 18.2504 17.1489 18.136 17.2633C18.0215 17.3778 17.9572 17.533 17.9572 17.6948V21.069C17.9635 21.1625 17.9635 21.2563 17.9572 21.3497C17.94 21.4905 17.9724 21.6329 18.0488 21.7524C18.0968 21.8193 18.1281 21.8967 18.1403 21.9782L19.5742 29.8433C19.6041 30.0086 19.5691 30.179 19.4766 30.3192C19.43 30.3886 19.3697 30.4477 19.2994 30.4928C19.2291 30.5379 19.1502 30.5682 19.0678 30.5816C18.9804 30.6043 18.8891 30.6073 18.8005 30.5905C18.7118 30.5737 18.628 30.5374 18.5551 30.4843C18.4821 30.4312 18.4219 30.3626 18.3786 30.2834C18.3354 30.2042 18.3103 30.1164 18.305 30.0263L17.1396 23.5097C17.1239 23.4305 17.0926 23.3552 17.0476 23.2881C17.0025 23.2211 16.9446 23.1637 16.8772 23.1192C16.8078 23.0762 16.7305 23.0475 16.6498 23.0349C16.5691 23.0224 16.4866 23.0261 16.4074 23.046C16.0739 23.1374 15.7219 23.1374 15.3884 23.046C15.3099 23.029 15.2288 23.0276 15.1497 23.0421C15.0707 23.0565 14.9952 23.0864 14.9278 23.13C14.8603 23.1737 14.8021 23.2302 14.7566 23.2964C14.711 23.3626 14.679 23.4372 14.6623 23.5158L13.442 30.0263C13.4298 30.1095 13.4005 30.1892 13.356 30.2606C13.3115 30.3319 13.2528 30.3932 13.1834 30.4408C13.1141 30.4883 13.0357 30.5211 12.9532 30.5369C12.8706 30.5527 12.7857 30.5513 12.7037 30.5328C12.6223 30.5186 12.5446 30.488 12.4754 30.4429C12.4062 30.3978 12.3468 30.3391 12.301 30.2704C12.2519 30.2024 12.2174 30.1251 12.1996 30.0432C12.1817 29.9613 12.1809 29.8766 12.1972 29.7944L13.6311 21.9294C13.6466 21.8555 13.6755 21.7852 13.7166 21.7219C13.7873 21.6026 13.8153 21.4627 13.7959 21.3253C13.7895 21.2237 13.7895 21.1218 13.7959 21.0202V17.646C13.7959 17.4841 13.7316 17.3289 13.6172 17.2145C13.5027 17.1001 13.3475 17.0358 13.1857 17.0358C10.8228 17.0373 8.51107 16.3481 6.53487 15.0528C6.42315 14.9779 6.32735 14.8817 6.253 14.7696C6.17865 14.6576 6.12721 14.5319 6.10165 14.3999C6.09241 14.3411 6.09522 14.281 6.1099 14.2233C6.12459 14.1656 6.15084 14.1115 6.18707 14.0643C6.25443 13.9935 6.33604 13.9379 6.4265 13.9011C6.51696 13.8643 6.61422 13.8471 6.71182 13.8507C6.90489 13.8524 7.0934 13.9096 7.25487 14.0155C9.16623 15.2759 11.4299 15.8937 13.7166 15.7789C13.8071 15.7729 13.8952 15.7467 13.9743 15.7024C14.0535 15.6581 14.1218 15.5966 14.1742 15.5226C14.2291 15.4494 14.2901 15.3761 14.3511 15.309C14.4115 15.2444 14.4562 15.1668 14.4816 15.0821C14.507 14.9974 14.5124 14.908 14.4976 14.8209C14.4836 14.7347 14.4514 14.6525 14.4029 14.5799C14.3545 14.5073 14.2911 14.4459 14.2169 14.3999C13.7208 14.1099 13.3097 13.6945 13.0248 13.1954C12.7399 12.6964 12.5913 12.1311 12.5939 11.5565C12.5932 10.9767 12.7449 10.4069 13.0339 9.90427C13.3229 9.40163 13.7389 8.98379 14.2403 8.69265C14.7417 8.4015 15.3108 8.24729 15.8906 8.24547C16.4704 8.24365 17.0404 8.39429 17.5437 8.68227C18.0469 8.97026 18.4655 9.38548 18.7576 9.8863C19.0498 10.3871 19.2051 10.9559 19.208 11.5357C19.211 12.1155 19.0615 12.6859 18.7745 13.1896C18.4875 13.6934 18.0731 14.1129 17.5728 14.406C17.4987 14.452 17.4352 14.5134 17.3868 14.586C17.3384 14.6586 17.3061 14.7408 17.2922 14.827C17.2773 14.9141 17.2828 15.0035 17.3082 15.0882C17.3336 15.1729 17.3782 15.2506 17.4386 15.3151C17.5007 15.3821 17.5578 15.4534 17.6094 15.5287C17.6625 15.6035 17.7318 15.6654 17.812 15.7098C17.8923 15.7542 17.9816 15.7798 18.0732 15.785C20.3147 15.8704 22.5275 15.2586 24.4067 14.0338C24.5638 13.9166 24.7566 13.8574 24.9524 13.8663C25.1482 13.8752 25.3348 13.9516 25.4806 14.0826C25.5205 14.1258 25.5509 14.1769 25.5698 14.2326C25.5887 14.2883 25.5958 14.3474 25.5905 14.406H25.6271Z" fill="#111111"/>
<path d="M29.4095 9.56736C24.8149 8.04194 24.7905 3.05075 24.7905 2.8555C24.7944 2.7302 24.7595 2.60675 24.6908 2.50195C24.622 2.39714 24.5226 2.31606 24.4061 2.26974L22.4169 1.65957C17.767 0.244011 12.8011 0.244011 8.15119 1.65957L6.16203 2.26974C6.03574 2.31219 5.92681 2.39482 5.85189 2.505C5.77697 2.61518 5.74017 2.74685 5.74712 2.87991C5.74712 2.92872 5.85695 7.76126 1.10373 9.59177C1.00212 9.63262 0.913381 9.70007 0.846819 9.78703C0.780256 9.87399 0.738324 9.97726 0.725422 10.086C0.664405 10.6596 -0.629154 24.3457 5.60678 31.6433C6.72466 32.961 8.10649 34.0296 9.66304 34.78C11.2196 35.5304 12.9162 35.946 14.6434 35.9999H15.9369C17.662 35.9453 19.3562 35.5288 20.9098 34.7772C22.4635 34.0256 23.8417 32.9558 24.9553 31.6372C31.1851 24.3152 29.8915 10.6535 29.8366 10.0799C29.8229 9.96223 29.7752 9.8511 29.6993 9.76009C29.6235 9.66907 29.5228 9.60211 29.4095 9.56736ZM24.04 30.8684C23.0279 32.0603 21.7776 33.0273 20.3695 33.7072C18.9614 34.3871 17.4266 34.7649 15.8637 34.8162H14.6434C13.0807 34.7641 11.5461 34.386 10.1381 33.7062C8.73011 33.0263 7.47971 32.0597 6.46712 30.8684C1.09763 24.5775 1.68339 12.728 1.82983 10.5375C3.2624 9.91617 4.49314 8.90733 5.38354 7.62455C6.27395 6.34176 6.78868 4.83593 6.86983 3.27652L8.45017 2.80058C12.8772 1.45221 17.6055 1.45221 22.0325 2.80058L23.6251 3.28262C23.741 4.67381 24.4427 8.93279 28.659 10.5558C28.8298 12.8135 29.3973 24.5958 24.04 30.8684Z" fill="#111111"/>
</svg>
