<svg width="46" height="36" viewBox="0 0 46 36" fill="none" xmlns="http://www.w3.org/2000/svg">
<g clip-path="url(#clip0_8416_11278)">
<path d="M32.5728 5.14947H32.5361L26.451 4.79791C26.2795 4.78757 26.1202 4.70692 26.0079 4.57663C25.8977 4.44428 25.8446 4.27057 25.863 4.09892L26.1774 1.03411L26.1754 1.03204C26.1794 0.99895 26.1856 0.963793 26.1937 0.930704C26.3305 0.421971 26.8573 0.43231 27.082 0.43645C27.2555 0.440586 27.4903 0.452994 27.8048 0.47781C28.3112 0.517102 29.0116 0.58328 29.8855 0.67841C31.3679 0.837646 32.8646 1.0217 32.881 1.0217V1.02377C33.2159 1.06513 33.4589 1.36706 33.4303 1.70623L33.1954 4.56421V4.56628C33.1689 4.89509 32.8995 5.14741 32.5728 5.14947ZM27.1825 3.56743L32.0014 3.84455L32.1362 2.2129C30.2229 1.98335 28.2545 1.77655 27.3724 1.72071L27.1825 3.56743Z" fill="#111111"/>
<path d="M28.8543 30.9107H28.8359L1.3457 30.0835C1.05575 30.0752 0.810739 29.8663 0.751514 29.5789L0.1716 26.783L0.169558 26.785C0.130762 26.5968 0.177726 26.4024 0.298197 26.2536C0.416626 26.1047 0.594274 26.0178 0.784171 26.0178H28.9503C29.1177 26.0178 29.2811 26.0881 29.3995 26.2101C29.5159 26.3321 29.5812 26.4997 29.5771 26.6713L29.4812 30.2924C29.473 30.6357 29.1953 30.9107 28.8543 30.9107ZM1.87687 28.8282L28.2438 29.6223L28.305 27.2938H1.55811L1.87687 28.8282ZM30.676 29.8767H30.6433L30.6413 29.8788C30.2962 29.8602 30.0307 29.5603 30.0491 29.2108C30.3044 24.2579 31.3417 22.9262 31.4601 22.7896C31.4764 22.771 31.4928 22.7523 31.5111 22.7358C32.1155 22.1857 32.6607 22.2788 32.9323 22.3822C33.6409 22.6531 34.1616 23.5734 34.574 25.2753C34.672 25.6806 34.7496 26.0756 34.8109 26.4148L40.3262 22.3552L40.3282 22.3573C40.3466 21.5694 40.4099 20.7835 40.5181 20.0039C40.6304 19.2284 40.9734 16.8729 42.4559 16.8729C43.0786 16.8729 43.9424 17.181 44.5202 18.6473C44.5447 18.7093 44.5692 18.7734 44.5896 18.8355C44.606 16.3001 44.5182 14.3355 44.3283 12.9998C44.2262 12.2883 44.1159 11.8975 44.0363 11.6886L41.8412 12.4972C41.6758 12.5592 41.4921 12.5468 41.3369 12.4641C41.1797 12.3814 41.0653 12.2366 41.0204 12.065C39.6931 7.02731 35.9544 5.73904 32.4728 5.14133C32.3053 5.11652 32.1563 5.02346 32.0583 4.88697C31.9582 4.74841 31.9194 4.5747 31.948 4.40719C31.9745 4.23968 32.0685 4.08872 32.2073 3.99152C32.3462 3.89432 32.5156 3.85709 32.681 3.88812C35.1415 4.31206 36.9751 4.98829 38.4451 6.02228C40.1583 7.22585 41.3364 8.88026 42.0368 11.0703L43.9971 10.3486C44.0093 10.3444 44.0236 10.3403 44.0359 10.3362L44.0379 10.3382C44.2748 10.2741 44.528 10.33 44.7179 10.4851C45.0915 10.7725 45.3407 11.3992 45.5265 12.5179C45.7654 13.9635 45.8716 16.17 45.845 19.0858C45.843 19.2264 45.794 19.365 45.7082 19.4746L44.7771 20.6471C44.6199 20.8477 44.3586 20.9325 44.1156 20.8622C43.8726 20.7939 43.6949 20.583 43.6643 20.3286C43.5765 19.6152 43.164 18.1386 42.4514 18.1386C42.4473 18.1386 42.0267 18.3227 41.7572 20.1736V20.1757C41.6429 21.007 41.5816 21.8445 41.5734 22.6842C41.5734 22.8868 41.4775 23.0771 41.3161 23.197L34.7125 28.0589C34.5328 28.1934 34.296 28.2182 34.0918 28.1272C33.8856 28.0362 33.7447 27.8418 33.7202 27.6164C33.6344 26.9236 33.5099 26.2349 33.3506 25.5546C32.9504 23.9126 32.5624 23.6148 32.4991 23.5755C32.4603 23.592 32.4256 23.6148 32.3929 23.6417C32.2582 23.8526 31.5108 25.2009 31.3005 29.2751H31.3026C31.2842 29.6143 31.0086 29.879 30.6757 29.879L30.676 29.8767Z" fill="#111111"/>
<path d="M28.5589 27.2895H28.5426C28.1955 27.2792 27.9219 26.9876 27.9321 26.6381L28.0893 20.5541L2.2284 20.461V26.6567C2.2284 27.0062 1.94662 27.2916 1.59951 27.2916C1.25443 27.2916 0.972656 27.0062 0.972656 26.6567V19.8263C0.972656 19.4768 1.25444 19.1914 1.59951 19.1914L28.728 19.2865H28.7301C28.8995 19.2865 29.0608 19.3568 29.1793 19.4789C29.2977 19.6009 29.361 19.7663 29.3569 19.938L29.1854 26.6715L29.1834 26.6736C29.1752 27.0148 28.8975 27.2899 28.5585 27.2899L28.5589 27.2895Z" fill="#111111"/>
<path d="M21.6742 27.2897C21.327 27.2897 21.0473 27.0043 21.0473 26.6548V23.193L7.41981 23.1909V26.6548C7.41981 27.0043 7.13803 27.2897 6.79092 27.2897C6.44583 27.2897 6.16406 27.0043 6.16406 26.6548V22.556C6.16406 22.2045 6.44584 21.9211 6.79092 21.9211H21.6745C22.0217 21.9211 22.3014 22.2045 22.3014 22.556V26.6548C22.3014 27.0043 22.0213 27.2897 21.6742 27.2897Z" fill="#111111"/>
<path d="M28.7291 20.5538C28.4739 20.5558 28.2452 20.3987 28.1492 20.1609C28.0512 19.921 28.1083 19.648 28.2901 19.466L32.0676 15.7022L11.8752 15.8056H11.8711C11.524 15.8056 11.2422 15.5223 11.2422 15.1707C11.2402 14.8212 11.5219 14.5359 11.867 14.5338L33.6031 14.4221H33.6071V14.4242C33.8603 14.4242 34.0911 14.5793 34.1871 14.8192C34.283 15.057 34.2279 15.33 34.0462 15.512L29.1681 20.3718C29.0517 20.4876 28.8945 20.5538 28.7291 20.5538Z" fill="#111111"/>
<path d="M33.6082 15.6944H33.598C33.2529 15.6902 32.9752 15.4007 32.9813 15.0512L33.0671 8.60089L16.9728 8.7229H16.9687C16.6216 8.7229 16.3399 8.43959 16.3399 8.0901C16.3378 7.73854 16.6176 7.45316 16.9647 7.4511L33.6982 7.32495H33.7023C33.8697 7.32495 34.031 7.3932 34.1495 7.51314C34.2659 7.63516 34.3312 7.79853 34.3292 7.96811L34.2352 15.0675C34.2312 15.4149 33.9512 15.6944 33.6082 15.6944Z" fill="#111111"/>
<path d="M36.5568 14.3995C36.4526 14.3995 36.3505 14.3768 36.2587 14.3313C36.0626 14.2361 35.9258 14.0459 35.9013 13.8267C35.787 12.8216 35.693 12.0751 35.6134 11.4754C35.4909 10.522 35.4051 9.8292 35.3337 8.85931V8.86138C35.3194 8.65872 35.399 8.46225 35.5501 8.33197C36.2811 7.69297 36.8998 7.71155 37.2898 7.83978C38.4884 8.23477 39.0009 10.0422 39.4624 12.0213C39.4991 12.1805 39.5318 12.3253 39.5665 12.4556C39.6339 12.7327 39.5114 13.0222 39.2663 13.1628C39.2439 13.1752 38.6987 13.4854 38.1168 13.7894C37.2428 14.2402 36.8345 14.3995 36.5568 14.3995ZM36.6119 9.11779C36.6732 9.87469 36.7508 10.4682 36.859 11.3119C36.9141 11.7483 36.9815 12.2653 37.057 12.9002C37.3899 12.7409 37.8187 12.5155 38.2352 12.2859C38.0841 11.6366 37.8963 10.8342 37.6349 10.16C37.2776 9.23564 36.9835 9.07433 36.9039 9.04743C36.8223 9.02261 36.714 9.06191 36.6119 9.12188L36.6119 9.11779Z" fill="#111111"/>
<path d="M7.46241 34.0333C6.81308 34.0333 6.24138 34.0209 6.00448 33.9795L5.9861 33.9754C5.42255 33.8699 5.08356 33.2351 4.69355 31.5496C4.47303 30.5963 4.32805 29.6781 4.32192 29.6388V29.6409C4.29334 29.4733 4.33009 29.3017 4.4281 29.1611C4.52611 29.0225 4.67517 28.9295 4.84056 28.9026C5.008 28.8757 5.17748 28.9191 5.31224 29.0205C5.447 29.1218 5.53685 29.2727 5.56135 29.4423C5.7635 30.7328 6.12083 32.2797 6.36792 32.7429C7.02133 32.7822 8.92845 32.7512 10.0985 32.7201V32.7181C10.4456 32.7098 10.7335 32.9849 10.7437 33.3364C10.7519 33.688 10.4803 33.9796 10.1332 33.9899C9.77585 34.0023 8.51602 34.0333 7.46241 34.0333Z" fill="#111111"/>
<path d="M9.94091 34.0084C9.62033 34.0064 9.30793 33.905 9.04453 33.7189C7.77242 32.8483 7.2211 30.0709 7.16188 29.7566V29.7586C7.10266 29.4154 7.32523 29.0886 7.66419 29.0224C8.0011 28.9583 8.32779 29.1817 8.39517 29.5208C8.59324 30.5797 9.14455 32.2548 9.74689 32.6663C9.80202 32.7097 9.86941 32.7345 9.94087 32.7387C10.1471 32.6249 10.9924 32.019 10.9924 29.7504C10.9924 29.4009 11.2722 29.1155 11.6193 29.1155C11.9664 29.1155 12.2461 29.4009 12.2461 29.7504C12.2461 31.1732 11.9521 32.2982 11.3702 33.0923C10.9005 33.7354 10.4064 33.9257 10.3125 33.9588C10.288 33.9671 10.2614 33.9733 10.2349 33.9795C10.1389 33.9981 10.0389 34.0084 9.94091 34.0084Z" fill="#111111"/>
<path d="M32.7614 35.5638H32.7288L28.8859 35.357C28.8103 35.3529 28.7368 35.3343 28.6674 35.3053C27.9671 34.9931 27.4729 34.0728 27.1135 32.408L27.1115 32.406C26.9624 31.7008 26.8542 30.9852 26.7888 30.2655C26.7705 30.096 26.8215 29.9243 26.9297 29.792C27.0359 29.6617 27.1911 29.579 27.3606 29.5645C27.528 29.55 27.6954 29.6058 27.8241 29.7175C27.9507 29.8292 28.0283 29.9884 28.0385 30.1601C28.1018 30.828 28.2018 31.4919 28.3407 32.1474C28.647 33.5495 28.9757 33.9755 29.1105 34.0934L32.4102 34.2734C32.7635 33.5723 33.5904 31.525 33.717 27.5212V27.5233C33.7293 27.1717 34.0192 26.8967 34.3643 26.907C34.7114 26.9194 34.983 27.2131 34.9708 27.5647C34.7932 33.1113 33.3291 35.2162 33.2679 35.3031V35.301C33.1515 35.4664 32.9615 35.5638 32.7614 35.5638Z" fill="#111111"/>
<path d="M32.7605 35.5637C32.6911 35.5637 32.6217 35.5513 32.5543 35.5286C31.464 35.146 30.7125 33.9383 30.3184 31.9343H30.3205C30.151 31.0472 30.0612 30.1455 30.0469 29.2418C30.0469 28.8923 30.3287 28.6069 30.6758 28.6069C31.0209 28.6069 31.3026 28.8923 31.3026 29.2418C31.3149 30.069 31.4006 30.8942 31.5538 31.7069C31.8458 33.1814 32.346 34.114 32.9647 34.3291C33.2567 34.4304 33.4303 34.7282 33.3813 35.0343C33.3302 35.3403 33.0668 35.5657 32.7605 35.5657L32.7605 35.5637Z" fill="#111111"/>
<path d="M41.1775 28.1934C39.305 28.1934 39.107 28.0755 38.9477 27.9824L38.9191 27.9638C38.6394 27.7756 38.4454 27.4179 38.1677 25.9909C38.0268 25.2692 37.9288 24.5868 37.9247 24.5557V24.5537C37.9002 24.3882 37.9431 24.2186 38.0431 24.0822C38.1432 23.9477 38.2902 23.8588 38.4556 23.834C38.7986 23.7844 39.1172 24.0263 39.1662 24.3717C39.301 25.3105 39.5195 26.4397 39.6705 26.876C40.1708 26.9298 41.4695 26.934 42.6578 26.9029C43.105 26.0447 44.3036 23.3687 43.6727 20.3864V20.3885C43.6359 20.223 43.6665 20.0493 43.7584 19.9087C43.8483 19.766 43.9891 19.6667 44.1525 19.6295C44.4915 19.5551 44.8263 19.7743 44.8998 20.1176C45.7738 24.2474 43.6523 27.7173 43.5624 27.8644C43.4521 28.0423 43.2602 28.154 43.0519 28.1602C43.0438 28.1602 42.178 28.1891 41.2796 28.1912L41.1775 28.1934Z" fill="#111111"/>
<path d="M43.0325 28.1643H42.9958C42.0279 28.1064 41.3071 27.1489 40.7905 25.2401H40.7884C40.5761 24.4233 40.4188 23.5919 40.3229 22.7523C40.2922 22.407 40.5393 22.1009 40.8803 22.0637C41.2193 22.0285 41.5276 22.2725 41.5684 22.6179C41.6603 23.3934 41.8053 24.1607 42.0034 24.9155C42.4219 26.4499 42.8691 26.8821 43.0693 26.8946C43.4143 26.9049 43.688 27.1986 43.6778 27.5481C43.6675 27.8996 43.3776 28.1746 43.0325 28.1643Z" fill="#111111"/>
<path d="M38.6094 16.3312C38.3297 16.3312 38.0826 16.143 38.0051 15.87C37.9275 15.597 38.0377 15.3054 38.2766 15.1565L39.2813 14.5216H39.2792C39.4201 14.4286 39.5916 14.3976 39.757 14.4348C39.9204 14.472 40.0613 14.5754 40.1511 14.7181C40.2389 14.8629 40.2675 15.0366 40.2287 15.202C40.1899 15.3675 40.0878 15.5102 39.9449 15.5991L38.9402 16.234C38.8422 16.296 38.7258 16.3312 38.6094 16.3312Z" fill="#111111"/>
<path d="M1.59978 20.459C1.30166 20.4631 1.04234 20.2522 0.979043 19.9565C0.915746 19.6628 1.06889 19.3629 1.3425 19.243L3.47423 18.2752L11.462 14.6582L16.4606 7.71181C18.7149 4.57875 22.0412 4.13209 24.9753 3.73709C25.4654 3.67091 25.9289 3.60887 26.3863 3.53443C26.7252 3.4848 27.0397 3.72055 27.0948 4.06384C27.1479 4.40506 26.9213 4.72767 26.5843 4.78972C26.1106 4.86623 25.6165 4.93241 25.1407 4.99651C22.325 5.37703 19.4132 5.76993 17.4734 8.46046L12.3768 15.5456C12.3135 15.6345 12.2257 15.7048 12.1256 15.7503L3.98675 19.4355L1.85502 20.4033C1.77539 20.4405 1.68758 20.459 1.59978 20.459Z" fill="#111111"/>
</g>
<defs>
<clipPath id="clip0_8416_11278">
<rect width="46" height="36" fill="white"/>
</clipPath>
</defs>
</svg>
