<svg width="18" height="20" viewBox="0 0 18 20" fill="none" xmlns="http://www.w3.org/2000/svg">
<path d="M16.2468 5.58095C15.7152 5.66561 15.1588 5.86782 14.8477 6.02023C14.8727 6.00927 14.9096 6.0043 14.9324 5.98836C14.1787 6.29816 13.4238 6.61193 12.7029 6.99444C12.3002 7.20862 11.8922 7.41282 11.4794 7.60507C11.3957 7.64393 11.311 7.68178 11.2261 7.71865C11.2052 7.7266 11.1763 7.73857 11.1364 7.7535C10.923 7.83818 10.7057 7.91388 10.4873 7.98461C10.4455 7.99855 10.4036 8.01051 10.3617 8.02345C10.3507 7.73657 10.3567 7.44968 10.3726 7.16279C10.3836 6.96556 10.4046 6.76833 10.4274 6.57208C10.3935 6.86695 10.4873 6.22943 10.5063 6.12782C10.5881 5.68056 10.6928 5.23727 10.8003 4.79499C10.8982 4.39355 11.0149 3.99909 11.0736 3.58968C11.1106 3.33665 11.1424 3.08263 11.1724 2.82864C11.1773 2.78281 11.1972 2.63837 11.2092 2.54672C11.2302 2.41524 11.2552 2.28374 11.2841 2.15425C11.2999 2.0915 11.3149 2.02873 11.3279 1.96498C11.2819 2.1692 11.4375 1.13919 11.3589 1.68308C11.4356 1.15115 11.8184 0.51063 11.2073 0.151037C11.1525 0.119149 11.0955 0.0932437 11.0377 0.0723337C10.7245 -0.0402317 10.3666 -0.00137445 10.0435 0.0544048C9.52101 0.144047 9.00859 0.774598 8.77118 1.20095C8.34055 1.97394 8.0074 2.84356 7.69033 3.66538C7.31145 4.64656 6.96345 5.6417 6.76203 6.67568C6.68724 7.0582 6.62941 7.44869 6.59451 7.83917C6.5616 7.82722 6.5297 7.81526 6.49679 7.80331C6.46588 7.79137 6.43497 7.7794 6.40405 7.76645C6.3552 7.74554 6.19168 7.67979 6.15279 7.66186C5.23743 7.25444 0.835103 4.67346 0.227855 5.57297C0.0633344 5.81702 -0.0184327 6.18062 0.003506 6.55615C0.0892451 8.04736 1.83124 8.94982 2.90813 9.70896C3.61211 10.205 4.33203 10.6832 5.09283 11.0855C4.92432 11.2997 4.76579 11.5188 4.61123 11.725C4.0658 12.4513 3.63804 13.2631 3.24018 14.0759C3.0587 14.4455 2.87623 14.816 2.71469 15.1945C2.63192 15.3889 2.55415 15.5752 2.48135 15.7713C2.45444 15.8441 2.31585 16.1678 2.47339 15.7982C2.34775 16.0941 2.22011 16.3889 2.10146 16.6879C1.913 17.161 1.80631 17.6371 1.87312 18.1471C1.93893 18.6482 2.28393 19.2977 2.75059 19.5427C3.5104 19.9421 3.71581 19.2 4.01894 18.715C4.01793 18.7169 4.01695 18.7179 4.01594 18.72C4.11666 18.5905 4.21736 18.4609 4.31308 18.3274C4.30711 18.3374 4.30013 18.3463 4.29414 18.3552C4.39684 18.205 4.50055 18.0546 4.60625 17.9061C4.58929 17.932 4.57035 17.9568 4.55239 17.9818C5.52062 16.5951 6.51274 14.4325 7.99248 13.538C8.20779 13.8369 8.37136 14.1945 8.56381 14.5152C9.12817 15.4565 9.85513 16.3094 10.5891 17.1221C11.1604 17.7547 11.7596 18.3694 12.3928 18.9401C12.8296 19.3336 13.2812 19.6005 13.8535 19.737C14.3014 19.8435 15.1718 19.6364 15.4479 19.2309C15.751 18.7866 15.3163 18.4071 15.0671 18.0495C14.3791 17.0623 13.8386 15.9816 13.1436 14.9943C12.6451 14.2861 12.1823 13.5529 11.8085 12.7709C11.8056 12.7651 11.8025 12.7581 11.7996 12.7521C11.7936 12.7341 11.7188 12.5599 11.6978 12.501C11.624 12.3028 11.5643 12.0987 11.5094 11.8944C11.4794 11.7808 11.4385 11.6693 11.3976 11.5587C11.5244 11.5059 11.6509 11.4511 11.7777 11.3963C12.7438 10.9791 13.6283 10.3843 14.4888 9.78467C14.9276 9.47876 15.3452 9.15407 15.765 8.82339C15.4082 9.10528 15.6834 8.88805 15.7561 8.8323C15.9086 8.71671 16.0602 8.59919 16.2117 8.48167C16.3693 8.35911 16.5239 8.23268 16.6736 8.10122C17.0654 7.75549 17.2827 7.33812 17.4602 6.85499C17.9149 5.62178 17.1152 5.44248 16.2468 5.58095Z" fill="#E47657"/>
<path d="M8.06915 9.44198C8.20889 8.80849 8.36432 8.18293 8.48506 7.54233C8.61064 6.87292 8.73933 6.20452 8.90271 5.5421C9.06434 4.88465 9.2688 4.23716 9.52308 3.60961C9.77735 2.98302 10.1962 2.46206 10.4803 1.8594C10.6328 1.53666 10.2568 1.22087 9.98065 1.47389C9.50796 1.90622 9.21783 2.62045 8.97752 3.20217C8.70328 3.86661 8.49804 4.55294 8.3304 5.25123C8.16102 5.95648 8.03427 6.6717 7.93252 7.38893C7.83794 8.05933 7.80403 8.72678 7.7362 9.39609C7.71623 9.58835 8.02826 9.62727 8.06915 9.44198Z" fill="#D96C4F"/>
<path d="M6.34716 9.78564C5.92437 9.50471 5.43079 9.32833 4.97611 9.10335C4.50247 8.86812 4.04079 8.61216 3.59808 8.32426C3.17429 8.04935 2.77645 7.73756 2.39355 7.40885C2.00964 7.07913 1.60182 6.65975 1.15411 6.42268C1.03147 6.35793 0.916796 6.48542 0.972631 6.60397C1.19 7.0602 1.63573 7.46064 2.00567 7.79634C2.41049 8.16492 2.86916 8.48864 3.32685 8.78854C4.17242 9.34227 5.25929 9.94691 6.29132 9.99183C6.40797 9.9957 6.43391 9.84237 6.34716 9.78564Z" fill="#D96C4F"/>
<path d="M3.20821 17.2356C3.40164 16.9318 3.63496 16.6679 3.81844 16.3512C3.99893 16.0402 4.18339 15.7314 4.36985 15.4238C4.67697 14.9157 4.98607 14.4087 5.29618 13.9016C5.90643 12.9035 6.56352 11.8058 7.54975 11.1353C7.39704 11.0956 7.24451 11.0557 7.09296 11.0158C7.15478 11.1343 7.21874 11.216 7.35518 11.2519C7.43502 11.2728 7.54568 11.2559 7.60053 11.1872C7.71313 11.0478 7.73019 10.9351 7.70422 10.7589C7.6734 10.5537 7.37727 10.4451 7.2137 10.5597C6.23347 11.2449 5.56341 12.2679 4.96613 13.284C4.65403 13.8129 4.3539 14.3498 4.05077 14.8848C3.84935 15.2414 3.66089 15.606 3.47343 15.9705C3.3797 16.1539 3.28697 16.3382 3.19524 16.5225C3.09952 16.7126 3.08555 16.9239 3.00378 17.1161C2.94297 17.2536 3.12344 17.3692 3.20821 17.2356Z" fill="#D96C4F"/>
<path d="M9.76126 10.2946C10.3675 10.3485 11.0487 9.91516 11.5582 9.6323C12.1255 9.31846 12.68 8.97286 13.2393 8.64411C13.8156 8.30529 14.387 7.9607 14.9364 7.58018C15.3372 7.30225 16.0822 6.85201 16.144 6.33402C16.1539 6.24835 16.0582 6.15571 15.9735 6.16368C15.7331 6.18659 15.5886 6.33203 15.4031 6.47846C15.1498 6.67768 14.8926 6.86695 14.6244 7.04725C14.0689 7.41981 13.5036 7.77143 12.9272 8.1111C12.4077 8.41797 11.8921 8.73162 11.3906 9.06831C10.8502 9.43094 10.1661 9.68496 9.69653 10.1382C9.6347 10.198 9.68548 10.2877 9.76126 10.2946Z" fill="#D96C4F"/>
<path d="M9.51396 12.5001C9.51513 13.2242 10.207 13.8668 10.5938 14.4325C10.8842 14.8559 11.1663 15.2832 11.4644 15.7006C11.7576 16.1101 13.0658 18.1363 13.6999 17.3125C13.7529 17.2447 13.7687 17.1411 13.7468 17.0604C13.7139 16.9429 13.6751 16.914 13.6342 16.8801C13.4837 16.7576 13.362 16.7475 13.2114 16.629C12.7656 16.2764 12.4026 15.8033 12.0528 15.361C11.7425 14.9696 11.4514 14.563 11.1553 14.1616C10.9857 13.9314 10.8033 13.7125 10.6268 13.4883C10.3338 13.1177 10.0934 12.6673 9.70448 12.3924C9.62366 12.3347 9.51396 12.4104 9.51396 12.5001Z" fill="#D96C4F"/>
<path d="M2.31078 5.88575C2.25196 5.78414 2.21906 5.69849 2.12134 5.62378C2.01066 5.53911 1.82819 5.5909 1.70654 5.60683C1.55995 5.62676 1.51109 5.79611 1.53103 5.91663C1.52605 5.88476 1.52506 5.88176 1.52804 5.90767C1.53204 5.94054 1.53603 5.97541 1.54301 6.00829C1.55696 6.07402 1.59586 6.12184 1.63473 6.17264C1.69656 6.25332 1.80524 6.27923 1.89998 6.29018C1.96978 6.29816 2.05153 6.2872 2.12533 6.25832C2.18117 6.25034 2.23601 6.22145 2.27191 6.1856C2.35168 6.1079 2.36763 5.98337 2.31078 5.88575Z" fill="#F9B763"/>
<path d="M3.12943 8.75466C3.07059 8.65301 3.0377 8.56743 2.93996 8.4927C2.82829 8.4079 2.64682 8.45979 2.52516 8.47566C2.3796 8.4956 2.32973 8.66501 2.34867 8.78544C2.34369 8.75369 2.3427 8.75059 2.34568 8.77653C2.34867 8.80945 2.35367 8.8443 2.36064 8.87721C2.3746 8.94285 2.41349 8.99067 2.45237 9.04159C2.5152 9.12213 2.62288 9.14807 2.71761 9.15911C2.78742 9.16705 2.86917 9.15601 2.94297 9.12716C2.9988 9.11922 3.05365 9.09038 3.08954 9.05437C3.1703 8.97673 3.18627 8.85127 3.12943 8.75466Z" fill="#F9B763"/>
<path d="M5.14662 6.82014C5.08778 6.71853 5.05487 6.63286 4.95716 6.55815C4.84647 6.47348 4.66401 6.52428 4.54236 6.54122C4.39677 6.56115 4.34692 6.73048 4.36586 6.851C4.36088 6.81814 4.35989 6.81615 4.36287 6.84204C4.36687 6.87491 4.37086 6.90978 4.37784 6.94266C4.39179 7.00841 4.43069 7.05621 4.46956 7.10701C4.53238 7.1867 4.64007 7.2136 4.73481 7.22455C4.80459 7.23253 4.88636 7.22157 4.96016 7.19269C5.016 7.18471 5.07084 7.15582 5.10674 7.11996C5.18749 7.04227 5.20245 6.91675 5.14662 6.82014Z" fill="#F9B763"/>
<path d="M4.7378 10.8176C4.67898 10.7159 4.64607 10.6304 4.54835 10.5556C4.43666 10.471 4.25419 10.5227 4.13254 10.5388C3.98696 10.5585 3.93711 10.7279 3.95705 10.8486C3.95205 10.8156 3.95107 10.8137 3.95405 10.8395C3.95804 10.8724 3.96203 10.9072 3.96901 10.9401C3.98198 11.006 4.02085 11.0536 4.06076 11.1045C4.12357 11.1852 4.23125 11.211 4.32598 11.222C4.39579 11.23 4.47755 11.2191 4.55134 11.1901C4.60717 11.1822 4.66202 11.1533 4.69791 11.1175C4.77768 11.0397 4.79363 10.9142 4.7378 10.8176Z" fill="#F9B763"/>
<path d="M7.79802 4.75814C7.87476 4.66949 7.9455 4.61071 7.98446 4.49415C8.02826 4.36167 7.92167 4.20627 7.86585 4.09671C7.79996 3.96521 7.6234 3.97319 7.51584 4.02997C7.54471 4.01503 7.54665 4.01303 7.52281 4.02498C7.49277 4.03894 7.46099 4.05487 7.43212 4.07179C7.37417 4.10567 7.34122 4.15747 7.30537 4.21226C7.24955 4.29692 7.25944 4.4085 7.2794 4.50114C7.29451 4.56988 7.33134 4.64358 7.38211 4.70434C7.40808 4.75415 7.45304 4.79698 7.49878 4.8189C7.60053 4.86871 7.72418 4.84281 7.79802 4.75814Z" fill="#F9B763"/>
<path d="M11.5361 1.65518C11.6131 1.56653 11.6838 1.50777 11.7228 1.39121C11.7666 1.25872 11.6598 1.10333 11.604 0.993749C11.5383 0.862268 11.3617 0.870244 11.2539 0.928017C11.283 0.913071 11.2859 0.911077 11.2609 0.923022C11.2301 0.936982 11.1991 0.952916 11.1702 0.969857C11.1134 1.00372 11.0805 1.05551 11.0446 1.1103C10.9888 1.19497 10.9987 1.30655 11.0187 1.39919C11.0326 1.46792 11.0706 1.54163 11.1214 1.60238C11.1474 1.6522 11.1921 1.69503 11.2381 1.71694C11.3398 1.76476 11.4634 1.73987 11.5361 1.65518Z" fill="#F9B763"/>
<path d="M10.3665 7.99655C10.4444 7.9079 10.5142 7.84914 10.5529 7.73259C10.5969 7.6001 10.4892 7.44471 10.4343 7.33413C10.3686 7.20263 10.1921 7.21061 10.0843 7.26838C10.1134 7.25344 10.1153 7.25144 10.0913 7.26341C10.0615 7.27735 10.0295 7.29328 10.0006 7.31022C9.94285 7.34409 9.9099 7.3959 9.87502 7.45067C9.8192 7.53535 9.82909 7.64691 9.84905 7.73956C9.86397 7.80829 9.90099 7.882 9.95177 7.94277C9.97774 7.99257 10.0225 8.03541 10.0684 8.05733C10.1692 8.10606 10.2929 8.08031 10.3665 7.99655Z" fill="#F9B763"/>
<path d="M11.9012 18.3872C11.979 18.2985 12.0487 18.2398 12.0877 18.1233C12.1315 17.9907 12.0249 17.8354 11.9689 17.7248C11.9032 17.5934 11.7266 17.6013 11.6189 17.659C11.6479 17.6441 11.6499 17.6422 11.626 17.654C11.596 17.6679 11.5642 17.684 11.5352 17.7008C11.4774 17.7347 11.4445 17.7866 11.4096 17.8414C11.3538 17.926 11.3636 18.0375 11.3836 18.1303C11.3985 18.199 11.4355 18.2726 11.4863 18.3334C11.5123 18.3833 11.5571 18.4261 11.603 18.448C11.7047 18.4977 11.8284 18.4718 11.9012 18.3872Z" fill="#F9B763"/>
<path d="M11.7386 12.8327C11.8164 12.7442 11.8861 12.6853 11.9251 12.5688C11.9689 12.4364 11.8623 12.2809 11.8065 12.1703C11.7406 12.0389 11.5642 12.0468 11.4565 12.1045C11.4853 12.0896 11.4883 12.0877 11.4634 12.0997C11.4336 12.1136 11.4016 12.1295 11.3727 12.1465C11.3148 12.1802 11.2818 12.2321 11.247 12.2869C11.1911 12.3715 11.2012 12.4832 11.2212 12.5758C11.2361 12.6445 11.2729 12.7183 11.3239 12.7791C11.3497 12.8288 11.3946 12.8716 11.4406 12.8935C11.5412 12.9423 11.6648 12.9175 11.7386 12.8327Z" fill="#F9B763"/>
<path d="M15.8128 6.63485C15.8907 6.5462 15.9605 6.48742 15.9994 6.37086C16.0432 6.23839 15.9365 6.08298 15.8806 5.97342C15.8149 5.84192 15.6384 5.84989 15.5306 5.90767C15.5597 5.89272 15.5616 5.89075 15.5376 5.90269C15.5078 5.91663 15.4758 5.93257 15.4469 5.94951C15.3891 5.98337 15.3562 6.03518 15.3213 6.08997C15.2655 6.17464 15.2754 6.2862 15.2953 6.37884C15.3103 6.44757 15.3473 6.5213 15.3981 6.58205C15.424 6.63187 15.4688 6.6747 15.5147 6.69661C15.6155 6.74542 15.7392 6.71952 15.8128 6.63485Z" fill="#F9B763"/>
<path d="M9.31454 0.929004C9.3595 0.877213 9.40136 0.842344 9.42423 0.7746C9.4502 0.696904 9.38741 0.605268 9.35446 0.541511C9.31551 0.463815 9.21182 0.468792 9.14903 0.502674C9.16608 0.49369 9.16802 0.492702 9.1531 0.499672C9.13507 0.507649 9.11724 0.516614 9.10019 0.527572C9.06627 0.547495 9.04728 0.578375 9.02635 0.610243C8.9936 0.660059 8.99961 0.724803 9.01143 0.779595C9.02054 0.81944 9.04244 0.863254 9.07228 0.89913C9.08721 0.928017 9.11414 0.952915 9.14108 0.966855C9.19903 0.99276 9.27171 0.977813 9.31454 0.929004Z" fill="#F9B763"/>
<path d="M10.2967 3.34663C10.3427 3.29481 10.3836 3.25996 10.4064 3.19222C10.4324 3.11452 10.3696 3.02287 10.3367 2.95913C10.2977 2.88144 10.194 2.88641 10.1312 2.92027C10.1483 2.91131 10.1502 2.91032 10.1353 2.91729C10.1173 2.92525 10.0983 2.93421 10.0824 2.94517C10.0485 2.96509 10.0295 2.99598 10.0086 3.02786C9.9756 3.07766 9.98161 3.1424 9.99363 3.1972C10.0025 3.23704 10.0246 3.28087 10.0545 3.31673C10.0694 3.34562 10.0963 3.37054 10.1223 3.38448C10.181 3.41137 10.2539 3.39642 10.2967 3.34663Z" fill="#F9B763"/>
<path d="M7.14994 7.3202C7.19567 7.26839 7.23657 7.23352 7.25943 7.16579C7.2854 7.08809 7.22261 6.99644 7.18966 6.93268C7.1509 6.85499 7.04722 6.85998 6.98423 6.89385C7.00129 6.88488 7.00322 6.88387 6.9883 6.89084C6.97036 6.89882 6.95241 6.90779 6.93545 6.91874C6.90156 6.93867 6.8826 6.96955 6.86167 7.00142C6.82876 7.05123 6.83475 7.11598 6.84671 7.17077C6.85568 7.21061 6.87663 7.25445 6.90754 7.2903C6.92251 7.31919 6.94842 7.34409 6.97534 7.35805C7.03326 7.38494 7.10594 7.36999 7.14994 7.3202Z" fill="#F9B763"/>
<path d="M8.30754 12.4412C8.35347 12.3895 8.39417 12.3547 8.41723 12.2869C8.4432 12.2093 8.38021 12.1175 8.34746 12.0538C8.30851 11.9761 8.20482 11.981 8.14203 12.0149C8.15889 12.006 8.16102 12.005 8.1459 12.012C8.12807 12.0199 8.10908 12.0288 8.09319 12.0398C8.05927 12.0598 8.04028 12.0906 8.01935 12.1225C7.9864 12.1723 7.99241 12.2371 8.00443 12.2919C8.01334 12.3318 8.03427 12.3756 8.06528 12.4114C8.0802 12.4402 8.10714 12.4652 8.13311 12.4791C8.19183 12.5061 8.26471 12.4912 8.30754 12.4412Z" fill="#F9B763"/>
<path d="M10.2967 15.6569C10.3427 15.605 10.3836 15.5701 10.4064 15.5024C10.4324 15.4247 10.3696 15.333 10.3367 15.2693C10.2977 15.1916 10.194 15.1967 10.1312 15.2306C10.1483 15.2215 10.1502 15.2205 10.1353 15.2275C10.1173 15.2354 10.0983 15.2445 10.0824 15.2553C10.0485 15.2753 10.0295 15.3063 10.0086 15.338C9.9756 15.3878 9.98161 15.4526 9.99363 15.5074C10.0025 15.5473 10.0246 15.5911 10.0545 15.6269C10.0694 15.6557 10.0963 15.6807 10.1223 15.6946C10.181 15.7215 10.2539 15.7066 10.2967 15.6569Z" fill="#F9B763"/>
<path d="M15.1638 18.6731C15.2097 18.6213 15.2506 18.5864 15.2734 18.5186C15.2994 18.441 15.2366 18.3494 15.2037 18.2855C15.1647 18.2079 15.061 18.2129 14.9982 18.2468C15.0151 18.2377 15.0172 18.2367 15.0023 18.2437C14.9843 18.2517 14.9663 18.2608 14.9494 18.2716C14.9155 18.2915 14.8965 18.3225 14.8756 18.3543C14.8426 18.4042 14.8486 18.4689 14.8606 18.5237C14.8696 18.5636 14.8905 18.6073 14.9215 18.6431C14.9364 18.6722 14.9634 18.6979 14.9903 18.7109C15.0481 18.7378 15.1209 18.7219 15.1638 18.6731Z" fill="#F9B763"/>
<path d="M13.1096 9.36318C13.1546 9.31148 13.1964 9.27663 13.2193 9.20887C13.2453 9.13123 13.1825 9.03946 13.1495 8.97576C13.1106 8.89812 13.0069 8.90296 12.9441 8.93684C12.9612 8.92794 12.9631 8.92697 12.9482 8.93394C12.9302 8.94188 12.9123 8.95079 12.8943 8.96182C12.8604 8.98176 12.8414 9.01255 12.8205 9.04449C12.7875 9.09425 12.7935 9.15911 12.8055 9.2139C12.8145 9.25359 12.8354 9.29754 12.8664 9.33336C12.8813 9.36221 12.9083 9.38719 12.9352 9.40113C12.9939 9.42804 13.0658 9.41313 13.1096 9.36318Z" fill="#F9B763"/>
<path d="M6.25941 9.36221C6.30428 9.31052 6.34616 9.27567 6.3691 9.2079C6.39502 9.13007 6.3322 9.0385 6.2993 8.9748C6.26042 8.89716 6.15671 8.902 6.09388 8.93588C6.11084 8.92697 6.11284 8.92601 6.09787 8.93298C6.07993 8.94091 6.06198 8.94982 6.04404 8.96086C6.01014 8.9808 5.99118 9.01158 5.97025 9.04353C5.93735 9.09329 5.94332 9.15814 5.95529 9.21274C5.96427 9.25263 5.9852 9.29658 6.01611 9.3324C6.03107 9.36124 6.057 9.38622 6.08491 9.40016C6.14375 9.42707 6.21553 9.41197 6.25941 9.36221Z" fill="#F9B763"/>
<path d="M15.9574 8.64605C16.0023 8.59416 16.0442 8.55931 16.0671 8.49154C16.093 8.41391 16.0303 8.32233 15.9973 8.25863C15.9585 8.1808 15.8549 8.18583 15.7919 8.21971C15.8089 8.21081 15.8109 8.20965 15.7959 8.21662C15.7779 8.22475 15.7601 8.23365 15.743 8.24469C15.7091 8.26444 15.6903 8.29541 15.6694 8.32736C15.6364 8.37712 15.6425 8.44275 15.6543 8.49658C15.6624 8.53646 15.6843 8.58022 15.7142 8.61623C15.7291 8.64508 15.756 8.66986 15.783 8.6838C15.8419 8.71071 15.9146 8.69484 15.9574 8.64605Z" fill="#F9B763"/>
<path d="M17.477 6.49438C17.522 6.44259 17.5638 6.40772 17.5867 6.34C17.6127 6.26228 17.5499 6.17065 17.5169 6.10689C17.4782 6.0292 17.3745 6.03417 17.3115 6.06805C17.3285 6.05909 17.3305 6.05808 17.3165 6.06505C17.2985 6.07303 17.2797 6.08199 17.2636 6.09295C17.2299 6.11287 17.2099 6.14376 17.19 6.17562C17.157 6.22544 17.163 6.29018 17.1751 6.34498C17.184 6.38482 17.2049 6.42865 17.2357 6.46451C17.2508 6.4934 17.2776 6.5183 17.3045 6.53226C17.3615 6.55915 17.4342 6.5442 17.477 6.49438Z" fill="#F9B763"/>
<path d="M0.736327 8.10509C0.781193 8.05334 0.823074 8.01847 0.846001 7.95073C0.871932 7.87303 0.8091 7.7814 0.776212 7.71764C0.737315 7.63994 0.63361 7.64492 0.570798 7.6788C0.587756 7.66984 0.589733 7.66883 0.574791 7.6758C0.556844 7.68378 0.538879 7.69274 0.52194 7.7037C0.488024 7.72362 0.46909 7.7545 0.44814 7.78637C0.415251 7.83619 0.42122 7.90093 0.433198 7.95572C0.442171 7.99557 0.463102 8.0394 0.494013 8.07528C0.508975 8.10413 0.535894 8.1291 0.562814 8.14304C0.620645 8.16995 0.693438 8.15485 0.736327 8.10509Z" fill="#F9B763"/>
<path d="M3.8374 13.792C3.88325 13.7403 3.92415 13.7055 3.94707 13.6377C3.973 13.5599 3.91017 13.4683 3.87728 13.4046C3.83839 13.3268 3.73468 13.3318 3.67187 13.3657C3.68883 13.3568 3.6908 13.3558 3.67586 13.3628C3.65792 13.3707 3.63997 13.3796 3.62301 13.3907C3.58912 13.4106 3.57016 13.4414 3.54923 13.4733C3.51632 13.5231 3.52229 13.5878 3.53427 13.6426C3.54324 13.6824 3.56518 13.7264 3.59508 13.7622C3.61005 13.7911 3.63697 13.816 3.66389 13.83C3.72073 13.8557 3.79352 13.8408 3.8374 13.792Z" fill="#F9B763"/>
<path d="M5.27823 15.9078C5.3231 15.8561 5.36498 15.8213 5.38792 15.7535C5.41384 15.6757 5.35102 15.5841 5.31812 15.5204C5.28023 15.4437 5.17652 15.4476 5.1127 15.4815C5.12966 15.4726 5.13166 15.4716 5.11669 15.4786C5.09875 15.4865 5.0808 15.4954 5.06384 15.5065C5.02995 15.5264 5.01101 15.5572 4.99006 15.5891C4.95716 15.6389 4.96314 15.7047 4.9751 15.7583C4.98408 15.7982 5.00601 15.8422 5.03594 15.878C5.0509 15.9068 5.07681 15.9318 5.10474 15.9458C5.16257 15.9715 5.23536 15.9566 5.27823 15.9078Z" fill="#F9B763"/>
<path d="M6.04502 12.7839C6.0909 12.7322 6.13179 12.6974 6.15472 12.6296C6.18065 12.552 6.11782 12.4602 6.08491 12.3965C6.04603 12.3188 5.94233 12.3237 5.87951 12.3576C5.89645 12.3487 5.89845 12.3477 5.88349 12.3547C5.86554 12.3626 5.8476 12.3715 5.83066 12.3825C5.79674 12.4025 5.77781 12.4333 5.75686 12.4652C5.72395 12.515 5.72994 12.5798 5.74191 12.6346C5.75089 12.6743 5.77182 12.7183 5.80273 12.7541C5.81769 12.7829 5.84461 12.8079 5.87153 12.8218C5.92936 12.8488 6.00215 12.8338 6.04502 12.7839Z" fill="#F9B763"/>
<path d="M2.24797 17.2168C2.29384 17.1649 2.33471 17.1301 2.35766 17.0623C2.38357 16.9847 2.32076 16.8931 2.28785 16.8292C2.24895 16.7516 2.14527 16.7566 2.08244 16.7905C2.0994 16.7814 2.10139 16.7804 2.08643 16.7874C2.06848 16.7953 2.05054 16.8044 2.03358 16.8153C1.99968 16.8352 1.98073 16.8662 1.9598 16.8979C1.92689 16.9479 1.93288 17.0125 1.94484 17.0673C1.95381 17.1072 1.97476 17.151 2.00466 17.1868C2.01963 17.2158 2.04654 17.2406 2.07346 17.2546C2.1323 17.2815 2.2051 17.2666 2.24797 17.2168Z" fill="#F9B763"/>
<path d="M6.78714 7.24846C6.78313 7.23152 6.76511 7.22058 6.7471 7.22556C6.72908 7.22955 6.71908 7.24747 6.72408 7.2654C6.72809 7.28232 6.7461 7.29328 6.76311 7.28831C6.78115 7.28432 6.79216 7.26639 6.78714 7.24846Z" fill="white"/>
<path d="M7.71446 7.90192C7.73236 7.89694 7.74248 7.88002 7.73742 7.86207C7.73334 7.84515 7.71544 7.83419 7.69734 7.83917C7.68041 7.84316 7.66932 7.86109 7.67438 7.87901C7.67944 7.89596 7.69734 7.90691 7.71446 7.90192Z" fill="white"/>
<path d="M8.71652 6.63983C8.71263 6.62289 8.69453 6.61193 8.67663 6.61692C8.65951 6.6219 8.64842 6.63884 8.65348 6.65677C8.65756 6.67369 8.67546 6.68465 8.69356 6.67967C8.71049 6.6747 8.72061 6.65677 8.71652 6.63983Z" fill="white"/>
<path d="M11.6191 8.60112C11.6152 8.58331 11.5971 8.57325 11.5802 8.57828C11.5631 8.58235 11.5522 8.60016 11.5571 8.61816C11.5621 8.63501 11.5792 8.64604 11.5971 8.64101C11.6143 8.63617 11.6242 8.61913 11.6191 8.60112Z" fill="white"/>
<path d="M9.15214 10.8883C9.15603 10.9053 9.17412 10.9161 9.19222 10.9113C9.20915 10.9063 9.22024 10.8894 9.21518 10.8714C9.21012 10.8544 9.19319 10.8435 9.1751 10.8486C9.15817 10.8524 9.14708 10.8704 9.15214 10.8883Z" fill="white"/>
<path d="M5.31139 8.79338C5.30739 8.77654 5.28937 8.7655 5.27135 8.77053C5.25333 8.7746 5.24331 8.79241 5.24833 8.81042C5.25232 8.82726 5.27036 8.8383 5.28838 8.83326C5.30538 8.82726 5.31639 8.81042 5.31139 8.79338Z" fill="white"/>
<path d="M6.66136 11.0687C6.64433 11.0726 6.63332 11.0906 6.63832 11.1084C6.64232 11.1254 6.66034 11.1365 6.67836 11.1314C6.69539 11.1264 6.7064 11.1095 6.7014 11.0915C6.69638 11.0747 6.67937 11.0646 6.66136 11.0687Z" fill="white"/>
<path d="M7.89679 9.54556C7.89485 9.53762 7.8859 9.53258 7.87772 9.53452C7.86975 9.53665 7.86469 9.54556 7.86683 9.5535C7.86877 9.56143 7.87773 9.56647 7.8859 9.56453C7.89388 9.5624 7.89874 9.5535 7.89679 9.54556Z" fill="white"/>
<path d="M7.9347 10.961C7.92653 10.963 7.92166 10.9721 7.92361 10.98C7.92555 10.988 7.93372 10.993 7.94268 10.9909C7.95065 10.9889 7.95571 10.98 7.95357 10.9721C7.95163 10.964 7.94365 10.9591 7.9347 10.961Z" fill="white"/>
<path d="M12.1107 10.3703C12.0926 10.3754 12.0826 10.3922 12.0865 10.4102C12.0916 10.4271 12.1087 10.4381 12.1266 10.4331C12.1437 10.428 12.1546 10.4112 12.1498 10.3932C12.1457 10.3763 12.1288 10.3653 12.1107 10.3703Z" fill="white"/>
<path d="M9.82228 7.85311C9.8394 7.84914 9.8503 7.83121 9.84544 7.81326C9.84135 7.79634 9.82325 7.78538 9.80632 7.79036C9.7892 7.79435 9.7783 7.81228 9.78336 7.83021C9.78628 7.84715 9.80438 7.8571 9.82228 7.85311Z" fill="white"/>
<path d="M16.2376 5.58194C16.2357 5.58792 16.2337 5.59388 16.2347 5.60087C16.2386 5.61779 16.2567 5.62875 16.2748 5.62378C16.2917 5.6188 16.3028 5.60186 16.2978 5.58393C16.2968 5.57994 16.2927 5.57696 16.2908 5.57396C16.2758 5.57595 16.2618 5.57795 16.2468 5.57994C16.2437 5.58095 16.2407 5.58095 16.2376 5.58194Z" fill="white"/>
<path d="M9.68564 12.6923C9.70276 12.6883 9.71366 12.6704 9.70879 12.6524C9.70471 12.6356 9.68661 12.6246 9.66968 12.6296C9.65276 12.6346 9.64167 12.6515 9.64672 12.6695C9.65062 12.6863 9.66871 12.6964 9.68564 12.6923Z" fill="white"/>
<path d="M9.85019 16.1549C9.86731 16.1498 9.87821 16.133 9.87334 16.115C9.86926 16.0981 9.85116 16.0871 9.83326 16.0921C9.81516 16.0972 9.80524 16.114 9.8101 16.132C9.81516 16.1488 9.83326 16.1589 9.85019 16.1549Z" fill="white"/>
<path d="M10.8524 14.8917C10.8484 14.8749 10.8305 14.8639 10.8124 14.8689C10.7954 14.8728 10.7843 14.8908 10.7894 14.9088C10.7945 14.9256 10.8114 14.9367 10.8295 14.9316C10.8464 14.9266 10.8575 14.9088 10.8524 14.8917Z" fill="white"/>
<path d="M13.7159 16.8302C13.699 16.8352 13.6879 16.8522 13.693 16.87C13.6971 16.8871 13.715 16.8979 13.7331 16.8931C13.7512 16.8881 13.7611 16.871 13.756 16.8532C13.7521 16.8362 13.734 16.8263 13.7159 16.8302Z" fill="white"/>
<path d="M14.2475 18.6222C14.2304 18.6263 14.2195 18.6443 14.2244 18.6621C14.2285 18.6792 14.2466 18.69 14.2645 18.685C14.2816 18.6801 14.2925 18.6631 14.2876 18.6453C14.2826 18.6282 14.2645 18.6184 14.2475 18.6222Z" fill="white"/>
<path d="M11.942 16.0424C11.9251 16.0462 11.914 16.0642 11.9191 16.0822C11.9232 16.0991 11.9411 16.1101 11.9592 16.1051C11.9761 16.101 11.9872 16.0832 11.9821 16.0652C11.9773 16.0484 11.9592 16.0383 11.942 16.0424Z" fill="white"/>
<path d="M9.8282 9.5018C9.83617 9.49967 9.84123 9.49077 9.83929 9.48283C9.83715 9.47489 9.8282 9.46985 9.82022 9.47179C9.81224 9.47373 9.80718 9.48186 9.80913 9.49077C9.81224 9.4987 9.82022 9.50374 9.8282 9.5018Z" fill="white"/>
<path d="M7.54066 8.31729L7.53677 8.31826C7.54182 8.32136 7.54182 8.32136 7.54066 8.31729Z" fill="white"/>
<path d="M10.9698 8.77751C10.9698 8.77751 10.9718 8.78545 10.9708 8.78157L10.9698 8.77751Z" fill="white"/>
<path d="M10.2669 9.12116L10.2609 9.13123C10.2708 9.1382 10.2689 9.13007 10.2669 9.12116Z" fill="white"/>
<path d="M11.9431 7.52738L11.955 7.52439C11.9489 7.52538 11.9489 7.52538 11.9431 7.52738Z" fill="white"/>
<path d="M8.44804 8.64101C8.45018 8.64701 8.45018 8.64701 8.45115 8.65301L8.44804 8.64101Z" fill="white"/>
<path d="M6.27937 11.999L6.27337 12.0009C6.26738 12.0021 6.27937 11.999 6.27937 11.999Z" fill="white"/>
<path d="M9.52 11.993L9.51203 11.9891C9.51397 11.994 9.51397 11.994 9.52 11.993Z" fill="white"/>
<path d="M12.6251 8.04438C12.6311 8.04238 12.6311 8.04238 12.6302 8.0364L12.6251 8.04438Z" fill="white"/>
<path d="M10.7793 10.2488L10.7764 10.2627C10.7824 10.2617 10.7805 10.2557 10.7793 10.2488Z" fill="white"/>
<path d="M9.16396 7.60608L9.16901 7.59811C9.16201 7.59911 9.16201 7.59911 9.16396 7.60608Z" fill="white"/>
<path d="M12.9511 7.34012L12.9472 7.34808C12.9532 7.34608 12.9532 7.34608 12.9511 7.34012Z" fill="white"/>
<path d="M5.81269 9.27664L5.8267 9.27954C5.81869 9.27451 5.8187 9.27451 5.81269 9.27664Z" fill="white"/>
<path d="M15.8508 8.25959L15.8658 8.2685C15.8628 8.2565 15.8628 8.2565 15.8508 8.25959Z" fill="white"/>
<path d="M6.88064 13.8091L6.87464 13.8369C6.88663 13.8338 6.88364 13.8218 6.88064 13.8091Z" fill="white"/>
<path d="M12.6731 15.3212L12.648 15.3272C12.661 15.3241 12.661 15.3241 12.6731 15.3212Z" fill="white"/>
<path d="M11.2481 13.9475L11.2421 13.9754C11.254 13.9723 11.2511 13.9605 11.2481 13.9475Z" fill="white"/>
<path d="M10.5123 12.3297L10.5311 12.3516C10.5282 12.3397 10.5241 12.3268 10.5123 12.3297Z" fill="white"/>
<path d="M8.90775 14.1427L8.92974 14.1237C8.9167 14.1277 8.9167 14.1277 8.90775 14.1427Z" fill="white"/>
<path d="M16.7214 7.74453L16.7183 7.73259C16.7214 7.74453 16.7272 7.76945 16.7214 7.74453Z" fill="white"/>
<path d="M9.00251 2.28374C9.00251 2.30169 9.01652 2.31661 9.03462 2.31661C9.05252 2.31661 9.0675 2.30169 9.0675 2.28374C9.0675 2.26581 9.05252 2.25088 9.03462 2.25088C9.01652 2.25088 9.00251 2.26581 9.00251 2.28374Z" fill="white"/>
<path d="M0.59186 5.49528C0.573842 5.49528 0.559832 5.50922 0.559832 5.52815C0.559832 5.54608 0.573842 5.56002 0.59186 5.56002C0.609878 5.56002 0.6249 5.54608 0.6249 5.52815C0.6249 5.51022 0.609878 5.49528 0.59186 5.49528Z" fill="white"/>
<path d="M1.85216 5.74031C1.86117 5.74031 1.86718 5.73334 1.86718 5.72538C1.86718 5.71642 1.86017 5.71044 1.85216 5.71044C1.84416 5.71044 1.83716 5.71741 1.83716 5.72538C1.83614 5.73435 1.84315 5.74031 1.85216 5.74031Z" fill="white"/>
<path d="M3.08156 7.79137C3.08156 7.80929 3.09658 7.82323 3.1136 7.82323C3.13162 7.82323 3.14664 7.80929 3.14664 7.79137C3.14664 7.77342 3.13261 7.75849 3.1136 7.75849C3.09559 7.75849 3.08156 7.77342 3.08156 7.79137Z" fill="white"/>
<path d="M15.4269 7.7266C15.4269 7.74453 15.4419 7.75849 15.46 7.75849C15.4781 7.75849 15.4921 7.74453 15.4921 7.7266C15.4921 7.70868 15.4771 7.69373 15.46 7.69373C15.4419 7.69373 15.4269 7.70868 15.4269 7.7266Z" fill="white"/>
<path d="M3.65894 10.2129C3.65493 10.2129 3.65293 10.216 3.64993 10.217C3.66394 10.2259 3.67797 10.2348 3.69198 10.2449C3.69097 10.2269 3.67696 10.2129 3.65894 10.2129Z" fill="white"/>
<path d="M6.01125 9.45398C5.99323 9.45398 5.97922 9.46792 5.97922 9.4867C5.97922 9.5047 5.99323 9.51962 6.01125 9.51962C6.02927 9.51962 6.04429 9.5047 6.04429 9.4867C6.04328 9.46792 6.02927 9.45398 6.01125 9.45398Z" fill="white"/>
<path d="M5.97834 12.9035C5.99636 12.9035 6.01039 12.8886 6.01039 12.8716C6.01039 12.8538 5.99537 12.8387 5.97834 12.8387C5.96033 12.8387 5.9453 12.8538 5.9453 12.8716C5.94632 12.8886 5.96033 12.9035 5.97834 12.9035Z" fill="white"/>
<path d="M3.08169 14.4993C3.09973 14.4993 3.11374 14.4853 3.11374 14.4673C3.11374 14.4495 3.09973 14.4346 3.08169 14.4346C3.07468 14.4346 3.06869 14.4385 3.06268 14.4426C3.05867 14.4515 3.05367 14.4604 3.04966 14.4695C3.05065 14.4863 3.06367 14.4993 3.08169 14.4993Z" fill="white"/>
<path d="M9.03559 10.7748C9.0175 10.7748 9.00349 10.7897 9.00349 10.8067C9.00349 10.8246 9.0175 10.8395 9.03559 10.8395C9.05349 10.8395 9.06867 10.8246 9.06867 10.8067C9.0675 10.7897 9.05349 10.7748 9.03559 10.7748Z" fill="white"/>
<path d="M6.04316 14.7055C6.02514 14.7055 6.01014 14.7204 6.01014 14.7384C6.01014 14.7564 6.02514 14.7713 6.04316 14.7713C6.0612 14.7713 6.07521 14.7564 6.07521 14.7384C6.0762 14.7204 6.0612 14.7055 6.04316 14.7055Z" fill="white"/>
<path d="M12.0848 9.45398C12.0848 9.43598 12.0699 9.42107 12.0518 9.42107C12.0339 9.42107 12.0199 9.43598 12.0199 9.45398C12.0199 9.47179 12.0348 9.4867 12.0518 9.4867C12.0708 9.48573 12.0848 9.47083 12.0848 9.45398Z" fill="white"/>
<path d="M11.2972 11.1194C11.2972 11.1014 11.2832 11.0875 11.2651 11.0875C11.247 11.0875 11.232 11.1026 11.232 11.1194C11.232 11.1374 11.247 11.1523 11.2651 11.1523C11.2821 11.1523 11.2972 11.1374 11.2972 11.1194Z" fill="white"/>
<path d="M3.14664 16.3152C3.14664 16.2973 3.13261 16.2834 3.1136 16.2834C3.09559 16.2834 3.08156 16.2973 3.08156 16.3152C3.08156 16.3332 3.09658 16.3481 3.1136 16.3481C3.13162 16.3481 3.14664 16.3332 3.14664 16.3152Z" fill="white"/>
<path d="M2.0356 6.32206C2.02561 6.32206 2.02561 6.337 2.0356 6.337C2.03661 6.337 2.03861 6.337 2.03961 6.337C2.0496 6.337 2.0496 6.32206 2.03961 6.32206C2.0376 6.32206 2.03661 6.32206 2.0356 6.32206Z" fill="white"/>
<path d="M0.731356 7.01437C0.721365 7.01437 0.721365 7.02931 0.731356 7.02931C0.740356 7.02931 0.740356 7.01437 0.731356 7.01437Z" fill="white"/>
<path d="M3.12949 7.09805C3.12749 7.08908 3.11348 7.08908 3.11447 7.09905C3.11548 7.10901 3.11848 7.11299 3.1285 7.11299C3.13751 7.11299 3.13751 7.09905 3.12949 7.09805Z" fill="white"/>
<path d="M0.987642 6.39578C0.987642 6.39379 0.987642 6.3918 0.987642 6.3898C0.987642 6.37985 0.972636 6.37985 0.972636 6.3898C0.972636 6.3918 0.972636 6.39379 0.972636 6.39578C0.972636 6.40573 0.987642 6.40573 0.987642 6.39578Z" fill="white"/>
<path d="M1.62578 7.66186C1.63579 7.66186 1.63579 7.64691 1.62578 7.64691C1.61578 7.64691 1.61578 7.66186 1.62578 7.66186Z" fill="white"/>
<path d="M8.76825 3.1454C8.76825 3.13644 8.76825 3.12846 8.76825 3.1195C8.76825 3.10955 8.75329 3.10955 8.75329 3.1195C8.75329 3.12846 8.75329 3.13644 8.75329 3.1454C8.75329 3.15535 8.76825 3.15535 8.76825 3.1454Z" fill="white"/>
<path d="M10.1921 5.06693C10.1822 5.06693 10.1822 5.08188 10.1921 5.08188C10.1991 5.08188 10.1972 5.07989 10.1972 5.08686C10.1972 5.09683 10.2122 5.09683 10.2122 5.08686C10.2131 5.07092 10.2081 5.06693 10.1921 5.06693Z" fill="white"/>
<path d="M9.40748 0.826409C9.41449 0.833379 9.42538 0.82242 9.41838 0.81545C9.40943 0.806486 9.40145 0.79851 9.3925 0.789546C9.3855 0.782576 9.3744 0.793534 9.38141 0.800504C9.39036 0.808481 9.39853 0.817445 9.40748 0.826409Z" fill="white"/>
<path d="M11.9371 7.61603C11.9371 7.62002 11.9371 7.625 11.9371 7.62899C11.9371 7.63896 11.9521 7.63896 11.9521 7.62899C11.9521 7.625 11.9521 7.62002 11.9521 7.61603C11.9521 7.60608 11.9371 7.60608 11.9371 7.61603Z" fill="white"/>
<path d="M14.2453 6.96955C14.2354 6.96955 14.2354 6.98449 14.2453 6.98449C14.2504 6.98449 14.2545 6.98449 14.2584 6.98449C14.2685 6.98449 14.2685 6.96955 14.2584 6.96955C14.2545 6.96955 14.2504 6.96955 14.2453 6.96955Z" fill="white"/>
<path d="M14.3153 8.47179C14.3153 8.47566 14.3153 8.47973 14.3153 8.48457C14.3153 8.49464 14.3302 8.49464 14.3302 8.48457C14.3302 8.4807 14.3302 8.47566 14.3302 8.47179C14.3302 8.46172 14.3153 8.46172 14.3153 8.47179Z" fill="white"/>
<path d="M1.91999 6.7783C1.91598 6.7783 1.91098 6.7783 1.90697 6.7783C1.89697 6.7783 1.89697 6.79323 1.90697 6.79323C1.91098 6.79323 1.91598 6.79323 1.91999 6.79323C1.92999 6.79323 1.92999 6.7783 1.91999 6.7783Z" fill="white"/>
<path d="M11.0437 3.76599C11.0417 3.76699 11.0406 3.76899 11.0406 3.77197C11.0406 3.77495 11.0406 3.77795 11.0406 3.78093C11.0427 3.77596 11.0437 3.77098 11.0437 3.76599Z" fill="white"/>
<path d="M11.0955 8.98273C11.0955 8.97286 11.0805 8.97286 11.0805 8.98273C11.0805 8.9868 11.0805 8.99164 11.0805 8.99571C11.0805 9.00558 11.0955 9.00558 11.0955 8.99571C11.0955 8.99067 11.0955 8.9868 11.0955 8.98273Z" fill="white"/>
<path d="M11.5044 10.3115C11.5044 10.3076 11.5044 10.3026 11.5044 10.2987C11.5044 10.2886 11.4894 10.2886 11.4894 10.2987C11.4894 10.3026 11.4894 10.3066 11.4894 10.3115C11.4894 10.3215 11.5044 10.3215 11.5044 10.3115Z" fill="white"/>
<path d="M10.2818 11.8486C10.2719 11.8486 10.2719 11.8635 10.2818 11.8635C10.2918 11.8646 10.2918 11.8486 10.2818 11.8486Z" fill="white"/>
<path d="M12.8833 7.08509C12.8934 7.07514 12.8985 7.06817 12.8985 7.05421C12.8985 7.04426 12.8833 7.04426 12.8833 7.05421C12.8833 7.06318 12.8794 7.06817 12.8724 7.07414C12.8654 7.08113 12.8763 7.09206 12.8833 7.08509Z" fill="white"/>
<path d="M16.1 7.12295C16.0901 7.12295 16.0901 7.13789 16.1 7.13789C16.1102 7.13789 16.1102 7.12295 16.1 7.12295Z" fill="white"/>
<path d="M14.6084 7.67979C14.6084 7.68875 14.6045 7.69373 14.5975 7.69971C14.5905 7.70668 14.6014 7.71764 14.6084 7.71067C14.6185 7.70072 14.6233 7.69373 14.6233 7.67979C14.6245 7.66984 14.6093 7.66984 14.6084 7.67979Z" fill="white"/>
<path d="M16.1051 6.14674C16.1051 6.15969 16.1041 6.16865 16.094 6.17961C16.088 6.18759 16.0981 6.19855 16.1051 6.19057C16.1172 6.17663 16.1201 6.16467 16.1201 6.14674C16.1201 6.13679 16.1051 6.13679 16.1051 6.14674Z" fill="white"/>
<path d="M14.752 9.09735C14.751 9.08728 14.737 9.08728 14.737 9.09735C14.737 9.09832 14.737 9.09928 14.737 9.10025C14.729 9.10819 14.729 9.1231 14.745 9.1231C14.76 9.1231 14.761 9.10819 14.753 9.10025C14.752 9.10025 14.752 9.09832 14.752 9.09735Z" fill="white"/>
<path d="M10.273 3.2231C10.267 3.22209 10.2619 3.2231 10.2569 3.2231C10.2419 3.22409 10.2419 3.246 10.2569 3.24701C10.2619 3.24701 10.268 3.248 10.273 3.24701C10.2839 3.24401 10.2839 3.22608 10.273 3.2231Z" fill="white"/>
<path d="M15.2437 6.55416C15.2577 6.55416 15.2577 6.53325 15.2437 6.53226C15.2416 6.53226 15.2396 6.53226 15.2377 6.53125C15.2116 6.52029 15.2116 6.56511 15.2377 6.55416C15.2386 6.55416 15.2406 6.55416 15.2437 6.55416Z" fill="white"/>
<path d="M9.94078 11.0577C9.93377 11.0548 9.92677 11.0596 9.92794 11.0677C9.93085 11.0795 9.93786 11.0906 9.93786 11.1035C9.93786 11.1175 9.95887 11.1175 9.95984 11.1035C9.96082 11.0836 9.96179 11.0666 9.94078 11.0577Z" fill="white"/>
<path d="M5.34718 11.1026C5.33817 11.1035 5.33017 11.1045 5.32117 11.1045C5.30714 11.1045 5.30714 11.1264 5.32117 11.1274C5.33017 11.1274 5.33817 11.1283 5.34718 11.1295C5.36319 11.1305 5.36319 11.1014 5.34718 11.1026Z" fill="white"/>
<path d="M4.32314 9.44004C4.32413 9.43404 4.32212 9.42901 4.31712 9.4261C4.31613 9.42494 4.31512 9.42494 4.31413 9.42397C4.31212 9.423 4.30811 9.423 4.30611 9.42397C4.30111 9.42804 4.29611 9.44585 4.2941 9.44585C4.28309 9.44895 4.2851 9.46792 4.2971 9.46579C4.31311 9.46386 4.32113 9.45495 4.32314 9.44004Z" fill="white"/>
<path d="M4.02995 7.7057C4.02995 7.69075 4.02895 7.67979 4.01695 7.66984C4.01094 7.66585 4.00292 7.66883 3.99992 7.67381C3.99391 7.68378 4.00594 7.69474 4.00594 7.70469C4.00492 7.72163 4.02995 7.72163 4.02995 7.7057Z" fill="white"/>
<path d="M2.00576 9.04256C2.01276 9.03559 2.01776 9.03462 2.02578 9.03152C2.03578 9.02765 2.03679 9.01351 2.02578 9.01061C2.00975 9.00558 1.99974 9.01468 1.98873 9.02552C1.97673 9.03655 1.99373 9.0534 2.00576 9.04256Z" fill="white"/>
<path d="M10.3846 9.72291C10.3996 9.72291 10.3996 9.6989 10.3846 9.6989C10.3696 9.6989 10.3686 9.72291 10.3846 9.72291Z" fill="white"/>
<path d="M11.7327 7.92683C11.7368 7.93181 11.7438 7.93181 11.7477 7.92683C11.7588 7.9109 11.7496 7.88898 11.7308 7.88499C11.7146 7.88199 11.7076 7.90691 11.7238 7.90989C11.7247 7.90891 11.7308 7.92484 11.7327 7.92683Z" fill="white"/>
<path d="M13.5445 8.68883C13.5445 8.69793 13.5574 8.70374 13.5634 8.69677C13.5644 8.69483 13.5665 8.69483 13.5685 8.69483C13.5764 8.69483 13.5764 8.68283 13.5685 8.68283C13.5665 8.68283 13.5644 8.68283 13.5634 8.68089C13.5564 8.67392 13.5445 8.67993 13.5445 8.68883Z" fill="white"/>
<path d="M4.82255 11.5508C4.82656 11.5676 4.84457 11.5787 4.86259 11.5736C4.87962 11.5698 4.89063 11.5518 4.88563 11.5337C4.88162 11.5169 4.8636 11.5059 4.84559 11.5109C4.82856 11.515 4.81856 11.5328 4.82255 11.5508Z" fill="white"/>
<path d="M8.62275 11.7101C8.60466 11.7142 8.59474 11.732 8.5996 11.75C8.60369 11.7669 8.62178 11.7779 8.63968 11.7729C8.6568 11.769 8.6677 11.751 8.66284 11.733C8.65778 11.7161 8.63968 11.7051 8.62275 11.7101Z" fill="white"/>
<path d="M12.3901 10.7368C12.385 10.719 12.3679 10.709 12.35 10.713C12.3319 10.7169 12.322 10.7349 12.3268 10.7529C12.3309 10.7698 12.349 10.7808 12.3669 10.7758C12.3841 10.7717 12.394 10.7539 12.3901 10.7368Z" fill="white"/>
<path d="M2.9511 16.1279C2.96812 16.1241 2.97914 16.1061 2.97414 16.0881C2.97013 16.0712 2.95211 16.0602 2.93409 16.0652C2.91707 16.0693 2.90605 16.0871 2.91105 16.1051C2.91607 16.1219 2.93409 16.132 2.9511 16.1279Z" fill="white"/>
<path d="M9.90919 9.80055C9.90511 9.7837 9.88721 9.77266 9.86911 9.7777C9.85218 9.78157 9.84109 9.79958 9.84615 9.81758C9.85004 9.83443 9.86814 9.84546 9.88604 9.84043C9.90316 9.83539 9.91425 9.81758 9.90919 9.80055Z" fill="white"/>
<path d="M7.44508 9.50761C7.4622 9.50374 7.47329 9.48573 7.46823 9.46792C7.46415 9.45088 7.44624 9.44004 7.42815 9.44488C7.41122 9.44895 7.40013 9.46676 7.40519 9.48477C7.41005 9.5018 7.42718 9.51265 7.44508 9.50761Z" fill="white"/>
<path d="M12.1805 9.03559C12.1976 9.03153 12.2085 9.01352 12.2035 8.99571C12.1996 8.97867 12.1815 8.96783 12.1636 8.97286C12.1464 8.97673 12.1355 8.99474 12.1404 9.01255C12.1445 9.02959 12.1626 9.03946 12.1805 9.03559Z" fill="white"/>
<path d="M14.3672 7.54232C14.3843 7.53834 14.3952 7.52041 14.3901 7.50248C14.3863 7.48554 14.3682 7.47458 14.3503 7.47958C14.3331 7.48455 14.3222 7.50147 14.3271 7.51942C14.3322 7.53634 14.3503 7.54631 14.3672 7.54232Z" fill="white"/>
<path d="M7.05905 11.2958C7.06314 11.3126 7.08123 11.3237 7.09913 11.3186C7.11626 11.3146 7.12715 11.2968 7.12209 11.2788C7.1182 11.2619 7.10011 11.2509 7.0822 11.2559C7.06508 11.261 7.05516 11.2778 7.05905 11.2958Z" fill="white"/>
<path d="M12.4468 15.2364C12.4637 15.2325 12.4748 15.2145 12.4697 15.1976C12.4659 15.1806 12.4478 15.1698 12.4297 15.1746C12.4127 15.1787 12.4016 15.1967 12.4067 15.2145C12.4118 15.2306 12.4297 15.2414 12.4468 15.2364Z" fill="white"/>
<path d="M3.70078 19.2737C3.70778 19.2629 3.71479 19.2519 3.72179 19.2408C3.70778 19.2458 3.69979 19.2598 3.70078 19.2737Z" fill="white"/>
<path d="M14.4628 19.0048C14.4669 19.0216 14.4848 19.0327 14.5028 19.0277C14.5198 19.0228 14.5309 19.0058 14.5258 18.988C14.5208 18.97 14.5038 18.9599 14.4869 18.9649C14.4688 18.97 14.4587 18.988 14.4628 19.0048Z" fill="white"/>
<path d="M11.9819 18.0695C11.986 18.0863 12.0039 18.0973 12.022 18.0923C12.0391 18.0884 12.05 18.0704 12.0449 18.0524C12.0401 18.0356 12.0229 18.0246 12.005 18.0296C11.9879 18.0346 11.978 18.0515 11.9819 18.0695Z" fill="white"/>
<path d="M14.3164 17.2875C14.3333 17.2824 14.3444 17.2656 14.3394 17.2476C14.3355 17.2307 14.3174 17.2197 14.2993 17.2247C14.2824 17.2286 14.2713 17.2466 14.2763 17.2646C14.2814 17.2824 14.2993 17.2925 14.3164 17.2875Z" fill="white"/>
<path d="M3.44653 13.7322C3.43752 13.7363 3.44153 13.7492 3.45153 13.7461C3.46054 13.7432 3.46356 13.7382 3.46155 13.7293C3.45955 13.7204 3.44653 13.7233 3.44653 13.7322Z" fill="white"/>
<path d="M3.78258 13.0319C3.78258 13.0309 3.78157 13.0309 3.78157 13.0309C3.77759 13.0369 3.77457 13.0429 3.77158 13.0499C3.78058 13.047 3.78458 13.042 3.78258 13.0319Z" fill="white"/>
<path d="M4.81168 12.4433C4.80968 12.4354 4.80767 12.4263 4.80466 12.4184C4.80265 12.4085 4.78765 12.4124 4.78966 12.4224C4.79164 12.4304 4.79365 12.4393 4.79565 12.4472C4.79966 12.4573 4.81468 12.4532 4.81168 12.4433Z" fill="white"/>
<path d="M6.67223 13.9475C6.66223 13.9494 6.66723 13.9643 6.67624 13.9624C6.68324 13.9605 6.68025 13.9593 6.68225 13.9665C6.68525 13.9763 6.69928 13.9713 6.69727 13.9624C6.69326 13.9465 6.68725 13.9434 6.67223 13.9475Z" fill="white"/>
<path d="M11.1334 13.8927C11.1433 13.8927 11.1433 13.8778 11.1334 13.8778C11.1233 13.8766 11.1233 13.8927 11.1334 13.8927Z" fill="white"/>
<path d="M8.94078 10.696C8.94584 10.6881 8.9328 10.6801 8.92774 10.6881C8.92483 10.6931 8.92171 10.6981 8.91879 10.7041C8.91373 10.7121 8.92677 10.72 8.93183 10.7121C8.93378 10.707 8.9367 10.702 8.94078 10.696Z" fill="white"/>
<path d="M10.8842 8.40499C10.8851 8.40596 10.8861 8.40596 10.8861 8.40693C10.8871 8.411 10.8881 8.41487 10.889 8.41893C10.889 8.4199 10.889 8.42087 10.889 8.42184C10.8931 8.42784 10.9042 8.42397 10.902 8.41584C10.9011 8.41196 10.9001 8.4079 10.8982 8.40403C10.896 8.39609 10.8851 8.39802 10.8842 8.40499Z" fill="white"/>
<path d="M4.84962 10.0387C4.85863 10.0435 4.86564 10.0307 4.85762 10.0257C4.84661 10.0197 4.8366 10.0137 4.82658 10.0067C4.81757 10.0017 4.81057 10.0147 4.81859 10.0197C4.82859 10.0257 4.83861 10.0317 4.84962 10.0387Z" fill="white"/>
<path d="M8.38624 13.4255C8.37631 13.4284 8.38137 13.4424 8.39032 13.4404C8.39421 13.4395 8.3983 13.4385 8.40336 13.4375C8.41328 13.4354 8.40842 13.4205 8.39927 13.4224C8.39421 13.4234 8.39032 13.4246 8.38624 13.4255Z" fill="white"/>
<path d="M11.0856 14.7732C11.0815 14.7742 11.0776 14.7752 11.0726 14.7761C11.0626 14.7783 11.0675 14.7932 11.0766 14.7912C11.0805 14.7901 11.0846 14.7891 11.0885 14.7882C11.0996 14.7852 11.0955 14.7703 11.0856 14.7732Z" fill="white"/>
<path d="M11.3251 12.0218C11.3351 12.0199 11.33 12.005 11.3211 12.0069C11.301 12.012 11.288 12.0129 11.272 11.9971C11.265 11.9901 11.2539 12.0009 11.2609 12.0079C11.281 12.0288 11.2991 12.0288 11.3251 12.0218Z" fill="white"/>
<path d="M9.6617 10.5237C9.66462 10.5188 9.66774 10.5138 9.67066 10.5078C9.67571 10.4989 9.66268 10.4919 9.65762 10.4999C9.6547 10.5049 9.65159 10.5097 9.64867 10.5157C9.64264 10.5237 9.65664 10.5316 9.6617 10.5237Z" fill="white"/>
<path d="M10.8861 8.40693C10.8861 8.40596 10.8842 8.405 10.883 8.405C10.8792 8.39996 10.8681 8.40306 10.8702 8.41197C10.8712 8.41584 10.8722 8.41991 10.8731 8.42397C10.8751 8.43191 10.8862 8.42998 10.8871 8.42281C10.8871 8.42184 10.8881 8.42088 10.8871 8.41991C10.8881 8.41584 10.8871 8.411 10.8861 8.40693Z" fill="white"/>
<path d="M11.3827 10.4609C11.3757 10.4629 11.3788 10.464 11.3767 10.4571C11.3738 10.447 11.3598 10.4511 11.3617 10.4609C11.3658 10.4759 11.3718 10.479 11.3868 10.4749C11.3967 10.4739 11.3928 10.459 11.3827 10.4609Z" fill="white"/>
<path d="M9.41629 14.2224C9.41941 14.2344 9.42233 14.2472 9.42641 14.2592C9.42933 14.2693 9.44334 14.2652 9.44139 14.2553C9.43828 14.2433 9.43536 14.2304 9.43128 14.2184C9.42933 14.2095 9.41435 14.2133 9.41629 14.2224Z" fill="white"/>
<path d="M11.5173 16.2137C11.5183 16.2176 11.5193 16.2216 11.5202 16.2255C11.5222 16.2356 11.5373 16.2306 11.5352 16.2216C11.5342 16.2176 11.5333 16.2137 11.5323 16.2096C11.5292 16.1998 11.5142 16.2036 11.5173 16.2137Z" fill="white"/>
<path d="M7.16971 12.4811C7.17088 12.4852 7.17185 12.489 7.17282 12.4931C7.17574 12.503 7.18973 12.4991 7.18779 12.489C7.18682 12.4852 7.18584 12.4811 7.18487 12.4772C7.18176 12.4671 7.16777 12.4712 7.16971 12.4811Z" fill="white"/>
<path d="M9.77524 15.1986C9.77738 15.2075 9.77427 15.2135 9.77038 15.2205C9.76532 15.2294 9.77835 15.2364 9.78341 15.2284C9.79042 15.2155 9.79334 15.2085 9.79042 15.1945C9.78731 15.1847 9.77232 15.1885 9.77524 15.1986Z" fill="white"/>
<path d="M7.77208 10.4311C7.76216 10.4311 7.76216 10.446 7.77208 10.446C7.78199 10.446 7.78199 10.4311 7.77208 10.4311Z" fill="white"/>
<path d="M9.63576 8.38505C9.63168 8.39202 9.62681 8.39609 9.61981 8.39609C9.60969 8.39899 9.61377 8.4139 9.6237 8.411C9.63771 8.40693 9.65288 8.4019 9.65074 8.38505C9.65074 8.37518 9.63576 8.37518 9.63576 8.38505Z" fill="white"/>
<path d="M10.4106 13.3587C10.4096 13.3547 10.4084 13.3508 10.4074 13.3467C10.4045 13.3368 10.3905 13.3407 10.3925 13.3508C10.3935 13.3547 10.3944 13.3587 10.3956 13.3628C10.3985 13.3727 10.4135 13.3686 10.4106 13.3587Z" fill="white"/>
<path d="M11.611 15.4029C11.618 15.3899 11.6211 15.3829 11.618 15.369C11.616 15.3589 11.6011 15.363 11.603 15.3729C11.605 15.382 11.602 15.3878 11.5979 15.3947C11.5931 15.4038 11.6061 15.4108 11.611 15.4029Z" fill="white"/>
<path d="M14.1347 9.45979C14.1257 9.46192 14.1298 9.47682 14.1388 9.47489C14.1467 9.47276 14.1467 9.48476 14.1477 9.49077C14.1499 9.49967 14.1648 9.4958 14.1627 9.4867C14.1588 9.46889 14.1557 9.45495 14.1347 9.45979Z" fill="white"/>
<path d="M13.8487 8.19687C13.8407 8.1808 13.8176 8.19474 13.8255 8.20965C13.8306 8.22068 13.8386 8.23172 13.8516 8.23269C13.8557 8.23269 13.8617 8.22959 13.8637 8.22571C13.8678 8.21778 13.8656 8.21178 13.8637 8.20481C13.8606 8.1988 13.8536 8.1957 13.8487 8.19687Z" fill="white"/>
<path d="M12.0976 16.7126C12.0976 16.7117 12.0967 16.7107 12.0967 16.7097C12.0938 16.7008 12.0807 16.7047 12.0817 16.7136C12.0817 16.7148 12.0817 16.7157 12.0827 16.7167C12.0766 16.7266 12.0817 16.7417 12.0967 16.7376C12.1117 16.7336 12.1078 16.7186 12.0976 16.7126Z" fill="white"/>
<path d="M6.27842 12.1694C6.28441 12.1684 6.28943 12.1674 6.29443 12.1653C6.30544 12.1593 6.30044 12.1425 6.28842 12.1425C6.28342 12.1425 6.27842 12.1444 6.2724 12.1465C6.25738 12.1514 6.26339 12.1723 6.27842 12.1694Z" fill="white"/>
<path d="M7.93167 10.3136C7.92875 10.3105 7.92369 10.3105 7.92077 10.3136C7.91163 10.3066 7.89762 10.3165 7.90268 10.3295C7.91474 10.3583 7.95268 10.3324 7.93167 10.3136Z" fill="white"/>
<path d="M11.9232 14.1039C11.8962 14.0999 11.9071 14.1436 11.9292 14.1268C11.9312 14.1258 11.9331 14.1248 11.9351 14.1248C11.9491 14.1208 11.9432 14.1008 11.9292 14.1039C11.9271 14.1039 11.9252 14.1039 11.9232 14.1039Z" fill="white"/>
<path d="M7.5327 13.4424C7.53368 13.4464 7.53465 13.4493 7.53465 13.4534C7.53873 13.4683 7.56286 13.4623 7.55878 13.4464C7.5578 13.4433 7.55683 13.4395 7.55586 13.4364C7.55469 13.4325 7.55177 13.4304 7.54983 13.4284C7.54885 13.4265 7.54769 13.4234 7.54574 13.4224C7.54282 13.4186 7.53465 13.4205 7.53368 13.4255C7.53368 13.4284 7.53368 13.4304 7.53368 13.4335C7.5327 13.4354 7.53173 13.4385 7.5327 13.4424Z" fill="white"/>
<path d="M10.8453 16.6191C10.8463 16.617 10.8472 16.616 10.8494 16.616C10.8564 16.6141 10.8533 16.6031 10.8463 16.6042C10.8443 16.6052 10.8424 16.6052 10.8412 16.6042C10.8142 16.5852 10.8303 16.6489 10.8453 16.6191Z" fill="white"/>
<path d="M2.43769 18.6741C2.43769 18.6561 2.42366 18.6422 2.40564 18.6422C2.38762 18.6422 2.3726 18.6571 2.3726 18.6741C2.3726 18.6919 2.38762 18.707 2.40564 18.707C2.42366 18.707 2.43769 18.6919 2.43769 18.6741Z" fill="white"/>
<path d="M3.08169 15.3589C3.06367 15.3589 3.04867 15.3729 3.04867 15.3909C3.04867 15.4089 3.06367 15.4238 3.08169 15.4238C3.09973 15.4238 3.11373 15.4089 3.11373 15.3909C3.11373 15.3738 3.09973 15.3589 3.08169 15.3589Z" fill="white"/>
<path d="M12.6081 17.915C12.6081 17.933 12.6232 17.9479 12.6411 17.9479C12.6592 17.9479 12.6732 17.933 12.6732 17.915C12.6732 17.8972 12.6592 17.8832 12.6411 17.8832C12.6232 17.8822 12.6081 17.8972 12.6081 17.915Z" fill="white"/>
<path d="M2.1543 17.0205C2.16331 17.0205 2.16931 17.0135 2.16931 17.0056C2.16931 16.9976 2.1623 16.9907 2.1543 16.9907C2.14629 16.9907 2.13928 16.9976 2.13928 17.0056C2.13928 17.0135 2.14629 17.0205 2.1543 17.0205Z" fill="white"/>
<path d="M6.04316 15.0881C6.02514 15.0881 6.01014 15.103 6.01014 15.1198C6.01014 15.1378 6.02514 15.1527 6.04316 15.1527C6.0612 15.1527 6.07521 15.1378 6.07521 15.1198C6.0762 15.103 6.0612 15.0881 6.04316 15.0881Z" fill="white"/>
<path d="M14.3332 19.5059C14.3513 19.5059 14.3653 19.491 14.3653 19.473C14.3653 19.4551 14.3513 19.4412 14.3332 19.4412C14.3153 19.4412 14.3002 19.4551 14.3002 19.473C14.3002 19.4919 14.3153 19.5059 14.3332 19.5059Z" fill="white"/>
<path d="M6.01125 11.8168C5.99323 11.8168 5.97922 11.8317 5.97922 11.8495C5.97922 11.8675 5.99323 11.8824 6.01125 11.8824C6.02927 11.8824 6.04429 11.8675 6.04429 11.8495C6.04328 11.8317 6.02927 11.8168 6.01125 11.8168Z" fill="white"/>
<path d="M5.97834 8.43191C5.96033 8.43191 5.9453 8.44682 5.9453 8.46482C5.9453 8.48263 5.95933 8.49754 5.97834 8.49754C5.99636 8.49754 6.01039 8.48263 6.01039 8.46482C6.01039 8.44682 5.99636 8.43191 5.97834 8.43191Z" fill="white"/>
<path d="M3.08169 6.83506C3.06367 6.83506 3.04867 6.85001 3.04867 6.86794C3.04867 6.88587 3.06367 6.90081 3.08169 6.90081C3.09973 6.90081 3.11373 6.88587 3.11373 6.86794C3.11373 6.85001 3.09973 6.83506 3.08169 6.83506Z" fill="white"/>
<path d="M9.03559 10.4948C9.0175 10.4948 9.00349 10.5088 9.00349 10.5268C9.00349 10.5446 9.0175 10.5597 9.03559 10.5597C9.05349 10.5597 9.06867 10.5446 9.06867 10.5268C9.0675 10.5097 9.05349 10.4948 9.03559 10.4948Z" fill="white"/>
<path d="M12.6411 9.35834C12.6232 9.35834 12.6081 9.37325 12.6081 9.39106C12.6081 9.40907 12.6232 9.42397 12.6411 9.42397C12.6592 9.42397 12.6732 9.40907 12.6732 9.39106C12.6732 9.37325 12.6592 9.35834 12.6411 9.35834Z" fill="white"/>
<path d="M0.6249 7.28333C0.6249 7.2654 0.609878 7.25046 0.59186 7.25046C0.573842 7.25046 0.559832 7.2654 0.559832 7.28333C0.559832 7.30126 0.573842 7.3152 0.59186 7.3152C0.609878 7.3152 0.6249 7.30126 0.6249 7.28333Z" fill="white"/>
<path d="M4.45774 9.6381C4.43973 9.6381 4.4247 9.6532 4.4247 9.67005C4.4247 9.68805 4.43973 9.70296 4.45774 9.70296C4.47576 9.70296 4.48977 9.68805 4.48977 9.67005C4.49078 9.6532 4.47576 9.6381 4.45774 9.6381Z" fill="white"/>
<path d="M15.7464 7.48554C15.7464 7.46761 15.7314 7.45267 15.7133 7.45267C15.6952 7.45267 15.6812 7.46761 15.6812 7.48554C15.6812 7.50347 15.6952 7.51842 15.7133 7.51842C15.7314 7.51743 15.7464 7.50347 15.7464 7.48554Z" fill="white"/>
<path d="M11.2641 10.2478C11.282 10.2478 11.2963 10.2329 11.2963 10.2149C11.2963 10.1971 11.282 10.1831 11.2641 10.1831C11.2461 10.1831 11.2311 10.198 11.2311 10.2149C11.232 10.2329 11.2461 10.2478 11.2641 10.2478Z" fill="white"/>
<path d="M4.03581 16.5802C4.03581 16.5882 4.04281 16.5951 4.05083 16.5951C4.05984 16.5951 4.06585 16.5882 4.06585 16.5802C4.06585 16.5713 4.05885 16.5653 4.05083 16.5653C4.04281 16.5653 4.03581 16.5713 4.03581 16.5802Z" fill="white"/>
<path d="M3.1474 16.2594C3.15741 16.2594 3.15741 16.2445 3.1474 16.2445C3.13741 16.2445 3.13741 16.2594 3.1474 16.2594Z" fill="white"/>
<path d="M3.79554 17.3752C3.80553 17.3752 3.80553 17.3603 3.79554 17.3603C3.78553 17.3603 3.78553 17.3752 3.79554 17.3752Z" fill="white"/>
<path d="M3.16933 17.137C3.17934 17.137 3.17934 17.1221 3.16933 17.1221C3.15833 17.1221 3.15833 17.137 3.16933 17.137Z" fill="white"/>
<path d="M2.12735 18.2747C2.12634 18.2757 2.12433 18.2766 2.12334 18.2776C2.11733 18.2826 2.12334 18.2906 2.12933 18.2896C2.13435 18.2915 2.14136 18.2877 2.14035 18.2807C2.14035 18.2795 2.14035 18.2786 2.13935 18.2776C2.13935 18.2716 2.13134 18.2706 2.12735 18.2747Z" fill="white"/>
<path d="M3.65395 16.7306C3.66095 16.7376 3.67197 16.7266 3.66496 16.7196C3.66296 16.7186 3.66195 16.7167 3.66095 16.7157C3.65395 16.7088 3.64294 16.7196 3.64994 16.7266C3.65095 16.7276 3.65195 16.7287 3.65395 16.7306Z" fill="white"/>
<path d="M4.56332 16.8044C4.56132 16.8054 4.56033 16.8064 4.55832 16.8083C4.55033 16.8143 4.55832 16.8273 4.56634 16.8213C4.56533 16.8222 4.56434 16.8222 4.56332 16.8232C4.56332 16.8333 4.57936 16.8333 4.57835 16.8232C4.57835 16.8153 4.57835 16.8093 4.57134 16.8054C4.57033 16.8034 4.56634 16.8023 4.56332 16.8044Z" fill="white"/>
<path d="M4.15448 15.7456C4.15448 15.7465 4.15448 15.7485 4.15448 15.7494C4.15448 15.7595 4.16949 15.7595 4.16949 15.7494C4.16949 15.7485 4.16949 15.7465 4.16949 15.7456C4.16949 15.7355 4.15448 15.7355 4.15448 15.7456Z" fill="white"/>
<path d="M4.61317 16.1837C4.62316 16.1837 4.62316 16.1688 4.61317 16.1688C4.60417 16.1678 4.60417 16.1837 4.61317 16.1837Z" fill="white"/>
<path d="M4.00892 15.072C4.01893 15.072 4.01893 15.0571 4.00892 15.0571C3.99792 15.0571 3.99792 15.072 4.00892 15.072Z" fill="white"/>
<path d="M2.92202 17.7297C2.92202 17.7338 2.92202 17.7378 2.92202 17.7427C2.92202 17.7527 2.93702 17.7527 2.93702 17.7427C2.93702 17.7388 2.93702 17.7338 2.93702 17.7297C2.93803 17.7198 2.92202 17.7198 2.92202 17.7297Z" fill="white"/>
<path d="M5.28822 16.2546C5.28822 16.2565 5.28822 16.2584 5.28822 16.2604C5.28822 16.2704 5.30321 16.2704 5.30321 16.2604C5.30321 16.2584 5.30321 16.2565 5.30321 16.2546C5.30321 16.2445 5.28822 16.2445 5.28822 16.2546Z" fill="white"/>
<path d="M4.77971 15.5831C4.7707 15.5791 4.76669 15.594 4.7757 15.598C4.7757 15.6 4.77671 15.6021 4.77671 15.6031C4.77671 15.6129 4.79273 15.6129 4.79171 15.6031C4.79171 15.592 4.78973 15.587 4.77971 15.5831Z" fill="white"/>
<path d="M3.87528 18.5665C3.87528 18.5765 3.87929 18.5804 3.88929 18.5804C3.89931 18.5814 3.89931 18.5674 3.8903 18.5655C3.8883 18.5566 3.87427 18.5566 3.87528 18.5665Z" fill="white"/>
<path d="M10.1921 16.2685C10.2081 16.2685 10.2131 16.2635 10.2131 16.2476C10.2131 16.2375 10.1982 16.2375 10.1982 16.2476C10.1982 16.2546 10.2001 16.2524 10.1931 16.2524C10.1822 16.2534 10.1822 16.2685 10.1921 16.2685Z" fill="white"/>
<path d="M13.1784 18.8464C13.1825 18.8505 13.1876 18.8553 13.1915 18.8594C13.1985 18.8664 13.2096 18.8553 13.2026 18.8484C13.1985 18.8445 13.1934 18.8395 13.1895 18.8354C13.1825 18.8284 13.1724 18.8395 13.1784 18.8464Z" fill="white"/>
<path d="M11.9371 13.7064C11.9371 13.7103 11.9371 13.7154 11.9371 13.7194C11.9371 13.7293 11.9521 13.7293 11.9521 13.7194C11.9521 13.7154 11.9521 13.7103 11.9521 13.7064C11.9521 13.6964 11.9371 13.6964 11.9371 13.7064Z" fill="white"/>
<path d="M11.9829 16.3452C11.987 16.3452 11.992 16.3452 11.9959 16.3452C12.006 16.3452 12.006 16.3303 11.9959 16.3303C11.992 16.3303 11.9879 16.3303 11.9829 16.3303C11.973 16.3303 11.973 16.3452 11.9829 16.3452Z" fill="white"/>
<path d="M11.6679 14.1277C11.6679 14.1318 11.6679 14.1357 11.6679 14.1407C11.6679 14.1506 11.6838 14.1506 11.6838 14.1407C11.6838 14.1367 11.6838 14.1318 11.6838 14.1277C11.6838 14.1179 11.6679 14.1179 11.6679 14.1277Z" fill="white"/>
<path d="M13.9444 18.8354C13.9374 18.8284 13.9263 18.8395 13.9333 18.8464C13.9374 18.8505 13.9422 18.8553 13.9463 18.8594C13.9533 18.8664 13.9644 18.8553 13.9574 18.8484C13.9524 18.8445 13.9483 18.8395 13.9444 18.8354Z" fill="white"/>
<path d="M12.7805 15.2772C12.7805 15.2902 12.7805 15.3032 12.7805 15.3152C12.7805 15.325 12.7967 15.325 12.7967 15.3152C12.7967 15.3022 12.7967 15.2892 12.7967 15.2772C12.7957 15.2673 12.7805 15.2673 12.7805 15.2772Z" fill="white"/>
<path d="M11.4375 14.1657C11.4375 14.1866 11.4375 14.2085 11.4375 14.2294C11.4375 14.2393 11.4524 14.2393 11.4524 14.2294C11.4524 14.2085 11.4524 14.1866 11.4524 14.1657C11.4534 14.1566 11.4375 14.1566 11.4375 14.1657Z" fill="white"/>
<path d="M11.9949 15.9845C11.985 15.9845 11.985 15.9994 11.9949 15.9994C12.0019 15.9984 12.0079 16.0005 12.013 16.0065C12.0149 16.0164 12.0299 16.0124 12.028 16.0025C12.0251 15.9866 12.0108 15.9845 11.9949 15.9845Z" fill="white"/>
<path d="M11.0417 17.5504C11.0417 17.5545 11.0417 17.5583 11.0417 17.5634C11.0417 17.5734 11.0567 17.5734 11.0567 17.5634C11.0567 17.5595 11.0567 17.5545 11.0567 17.5504C11.0567 17.5415 11.0417 17.5415 11.0417 17.5504Z" fill="white"/>
<path d="M11.0955 12.3397C11.0955 12.3297 11.0805 12.3297 11.0805 12.3397C11.0805 12.3436 11.0805 12.3477 11.0805 12.3527C11.0805 12.3626 11.0955 12.3626 11.0955 12.3527C11.0955 12.3477 11.0955 12.3436 11.0955 12.3397Z" fill="white"/>
<path d="M11.4894 11.0367C11.4894 11.0466 11.5044 11.0466 11.5044 11.0367C11.5044 11.0327 11.5044 11.0278 11.5044 11.0238C11.5044 11.0139 11.4894 11.0139 11.4894 11.0238C11.4894 11.0278 11.4894 11.0317 11.4894 11.0367Z" fill="white"/>
<path d="M10.2818 9.47083C10.2719 9.47083 10.2719 9.48574 10.2818 9.48574C10.2918 9.48574 10.2918 9.47083 10.2818 9.47083Z" fill="white"/>
<path d="M10.7555 15.4187C10.7725 15.4187 10.7725 15.3918 10.7555 15.3918C10.7384 15.3918 10.7374 15.4187 10.7555 15.4187Z" fill="white"/>
<path d="M9.93883 10.2319C9.93883 10.2449 9.93182 10.2557 9.9289 10.2677C9.92676 10.2757 9.93493 10.2807 9.94194 10.2778C9.96295 10.2687 9.96179 10.2509 9.96179 10.2319C9.96081 10.218 9.93883 10.218 9.93883 10.2319Z" fill="white"/>
<path d="M5.34718 10.206C5.33817 10.2069 5.33017 10.2079 5.32117 10.2079C5.30714 10.2079 5.30714 10.23 5.32117 10.2309C5.33017 10.2309 5.33817 10.2319 5.34718 10.2329C5.36319 10.2329 5.36319 10.205 5.34718 10.206Z" fill="white"/>
<path d="M4.02995 13.6296C4.02995 13.6137 4.00493 13.6137 4.00493 13.6296C4.00493 13.6397 3.99292 13.6507 3.99893 13.6606C4.00193 13.6666 4.01094 13.6695 4.01594 13.6656C4.02796 13.6555 4.02896 13.6447 4.02995 13.6296Z" fill="white"/>
<path d="M10.3846 11.6364C10.3996 11.6364 10.3996 11.6125 10.3846 11.6125C10.3696 11.6125 10.3686 11.6364 10.3846 11.6364Z" fill="white"/>
<path d="M11.7327 13.4085C11.7308 13.4106 11.7257 13.4255 11.7238 13.4265C11.7076 13.4294 11.7136 13.4544 11.7308 13.4503C11.7496 13.4464 11.7578 13.4246 11.7477 13.4085C11.7438 13.4025 11.7356 13.4025 11.7327 13.4085Z" fill="white"/>
<path d="M11.1643 16.5194C11.1582 16.5194 11.1512 16.5235 11.1524 16.5314C11.1524 16.5355 11.1524 16.5384 11.1524 16.5425C11.1524 16.5463 11.1543 16.5494 11.1563 16.5514C11.1573 16.5533 11.1573 16.5564 11.1582 16.5583C11.1604 16.5622 11.1683 16.5622 11.1703 16.5583C11.1713 16.5564 11.1713 16.5533 11.1724 16.5514C11.1744 16.5494 11.1763 16.5463 11.1763 16.5425C11.1763 16.5384 11.1763 16.5355 11.1763 16.5314C11.1773 16.5235 11.1703 16.5194 11.1643 16.5194Z" fill="white"/>
<path d="M1.97005 8.19377C2.06113 8.19377 2.06113 8.05334 1.97005 8.05334C1.87794 8.05334 1.87794 8.19377 1.97005 8.19377Z" fill="white"/>
<path d="M4.14272 8.67992C4.07065 8.67992 4.07065 8.79144 4.14272 8.79144C4.2158 8.79241 4.2158 8.67992 4.14272 8.67992Z" fill="white"/>
<path d="M14.8836 9.11923C14.8836 9.1202 14.8846 9.12117 14.8846 9.12213C14.9017 9.16008 14.9667 9.16008 14.9838 9.12213C14.9848 9.12117 14.9848 9.1202 14.9857 9.11923C15.0258 9.07644 15.0038 8.99667 14.9348 8.99667C14.8657 8.99667 14.8435 9.07644 14.8836 9.11923Z" fill="white"/>
<path d="M13.2465 15.5882C13.3196 15.5882 13.3196 15.4755 13.2465 15.4755C13.1735 15.4755 13.1735 15.5882 13.2465 15.5882Z" fill="white"/>
<path d="M8.77861 7.98262C8.78561 7.97166 8.79067 7.95871 8.79067 7.94575C8.79067 7.9079 8.75857 7.87503 8.71965 7.87503C8.68852 7.87503 8.65953 7.89596 8.65155 7.92684C8.64649 7.94477 8.64961 7.96469 8.65856 7.98062C8.65856 7.98161 8.6605 7.98262 8.66147 7.98461C8.68249 8.04438 8.76168 8.04337 8.77861 7.98262ZM8.78367 7.96966C8.78775 7.95472 8.78367 7.96469 8.78367 7.96966ZM8.67451 7.99855C8.67354 7.99756 8.67354 7.99656 8.67256 7.99557C8.68249 8.00552 8.69163 8.0135 8.67451 7.99855ZM8.65758 7.96966C8.65758 7.96469 8.6535 7.95472 8.65758 7.96966Z" fill="white"/>
<path d="M7.75414 3.53888C7.75823 3.52492 7.75725 3.51297 7.75628 3.49903C7.75628 3.49903 7.75628 3.49903 7.75628 3.49803C7.74616 3.52293 7.73624 3.54883 7.72709 3.57373C7.73916 3.56676 7.75025 3.5558 7.75414 3.53888Z" fill="white"/>
<path d="M8.5532 13.7024C8.55417 13.7034 8.55417 13.7034 8.55514 13.7043C8.54619 13.7014 8.53704 13.7014 8.52809 13.7043C8.52907 13.7034 8.52907 13.7034 8.53004 13.7024C8.52615 13.7034 8.52401 13.7043 8.52109 13.7055C8.45493 13.7264 8.46602 13.8329 8.54113 13.8329C8.62013 13.8338 8.63122 13.7154 8.5532 13.7024Z" fill="white"/>
<path d="M9.24595 4.41845C9.28798 4.41845 9.31716 4.36068 9.28214 4.3308C9.27105 4.32184 9.26112 4.31187 9.24595 4.31187C9.23096 4.31187 9.22007 4.32184 9.20995 4.3308C9.17395 4.36166 9.20392 4.41845 9.24595 4.41845Z" fill="white"/>
<path d="M11.7519 14.3299C11.6517 14.3299 11.6517 14.4844 11.7519 14.4844C11.8519 14.4853 11.8519 14.3299 11.7519 14.3299Z" fill="white"/>
<path d="M14.2328 18.9471C14.2717 18.9471 14.2988 18.9161 14.3019 18.8784C14.3028 18.8664 14.3007 18.8544 14.2988 18.8424C14.2867 18.7767 14.1787 18.7767 14.1666 18.8424C14.1647 18.8544 14.1626 18.8664 14.1637 18.8784C14.1657 18.9152 14.1927 18.9471 14.2328 18.9471Z" fill="white"/>
<path d="M10.5752 10.0913C10.5101 10.0913 10.5101 10.1911 10.5752 10.1911C10.6402 10.1911 10.6402 10.0913 10.5752 10.0913Z" fill="white"/>
<path d="M12.6473 16.9916C12.5531 16.9916 12.5531 17.1361 12.6473 17.1361C12.7403 17.137 12.7403 16.9916 12.6473 16.9916Z" fill="white"/>
<path d="M4.6174 16.6927C4.55332 16.6927 4.53731 16.7694 4.57134 16.8054C4.57134 16.8054 4.57134 16.8044 4.57233 16.8044C4.58335 16.8153 4.59738 16.8232 4.61839 16.8232C4.70249 16.8232 4.70249 16.6927 4.6174 16.6927Z" fill="white"/>
</svg>
