<svg xmlns="http://www.w3.org/2000/svg" width="1442" height="75" viewBox="0 0 1442 75" fill="none"><path d="M1 61.3097C156.031 50.4654 239.984 6.90702 423.673 17.751C607.362 28.5953 730.082 69.1618 864.933 61.3097C999.777 53.4575 1171.73 11.5685 1272.67 17.751C1353.4 22.6938 1418.55 34.2653 1441 39.4396" stroke="#111111" stroke-width="2" stroke-dasharray="20 20"></path><circle cx="901" cy="57" r="18" fill="#FFF8B8"></circle><path d="M901.783 49.2089C901.446 48.597 900.554 48.597 900.217 49.2089C900.033 49.5423 899.857 49.8801 899.689 50.2222C899.158 51.2994 898.703 52.4188 898.331 53.5738C898.204 53.9689 897.826 54.2434 897.394 54.2548C896.373 54.2819 895.354 54.3659 894.343 54.5086C894.055 54.5493 893.768 54.5946 893.482 54.6445C892.772 54.7685 892.506 55.5777 893.01 56.0709C893.125 56.1834 893.241 56.2949 893.358 56.4055C894.232 57.2326 895.16 58.0063 896.136 58.7214C896.473 58.968 896.611 59.3911 896.483 59.7772C896.079 60.9871 895.767 62.2369 895.554 63.5189C895.512 63.7761 895.473 64.0345 895.438 64.2941C895.346 64.9859 896.087 65.4744 896.73 65.1446C896.96 65.0269 897.188 64.906 897.413 64.7818C898.448 64.2123 899.438 63.5758 900.379 62.8784C900.744 62.6077 901.256 62.6077 901.621 62.8784C902.562 63.5758 903.552 64.2123 904.587 64.7818C904.812 64.906 905.04 65.0269 905.27 65.1446C905.913 65.4744 906.654 64.9859 906.562 64.2941C906.527 64.0345 906.488 63.7761 906.446 63.5189C906.233 62.2369 905.921 60.9871 905.517 59.7772C905.389 59.3911 905.527 58.968 905.864 58.7214C906.84 58.0063 907.768 57.2326 908.642 56.4055C908.759 56.2949 908.875 56.1834 908.99 56.0709C909.494 55.5777 909.228 54.7685 908.518 54.6445C908.232 54.5946 907.945 54.5493 907.657 54.5086C906.646 54.3659 905.627 54.2819 904.606 54.2548C904.174 54.2434 903.796 53.9689 903.669 53.5738C903.297 52.4188 902.842 51.2994 902.311 50.2222C902.143 49.8801 901.967 49.5423 901.783 49.2089Z" stroke="black" stroke-width="1.5" stroke-linecap="round" stroke-linejoin="round"></path><circle cx="542" cy="27" r="18" fill="#F8C1B6"></circle><path d="M542.56 35.8207C542.225 36.0598 541.775 36.0598 541.44 35.8207C536.611 32.3773 531.486 25.2971 536.667 20.1813C538.081 18.7846 540 18 542 18C544 18 545.919 18.7846 547.333 20.1813C552.514 25.2971 547.389 32.3773 542.56 35.8207Z" stroke="black" stroke-width="1.5" stroke-linecap="round" stroke-linejoin="round"></path><path d="M542 27C543.105 27 544 26.1046 544 25C544 23.8954 543.105 23 542 23C540.895 23 540 23.8954 540 25C540 26.1046 540.895 27 542 27Z" stroke="black" stroke-width="1.5" stroke-linecap="round" stroke-linejoin="round"></path><circle cx="1264" cy="18" r="18" fill="#E6F4EC"></circle><path d="M1266.13 12.9917L1269.53 9.5953C1270.32 8.80157 1271.61 8.80157 1272.4 9.5953C1273.2 10.389 1273.2 11.676 1272.4 12.4698L1269.01 15.8662L1270.85 25.0105C1271.08 26.1813 1268.81 27.8105 1268.21 26.2616L1265.52 19.357L1262.02 22.8498C1262.2 24.8912 1262.23 25.5692 1260.8 27L1258.63 23.3738L1255 21.1988C1256.43 19.7679 1257.11 19.8041 1259.15 19.9754L1262.64 16.4825L1255.74 13.7916C1254.19 13.1883 1255.82 10.9183 1256.99 11.1541L1266.13 12.9917Z" stroke="black" stroke-width="1.5" stroke-linecap="round" stroke-linejoin="round"></path><circle cx="173" cy="39" r="18" fill="#DACFDE"></circle><path d="M170 42C170.85 42.6303 171.885 43 173 43C174.115 43 175.15 42.6303 176 42" stroke="black" stroke-width="1.5" stroke-linecap="round" stroke-linejoin="round"></path><path d="M170.5 37.5V37" stroke="black" stroke-width="1.5" stroke-linecap="round" stroke-linejoin="round"></path><path d="M175.5 37.5V37" stroke="black" stroke-width="1.5" stroke-linecap="round" stroke-linejoin="round"></path><circle cx="173" cy="39" r="9" stroke="black" stroke-width="1.5" stroke-linecap="round" stroke-linejoin="round"></circle></svg>