<svg width="686" height="431" viewBox="0 0 686 431" fill="none" xmlns="http://www.w3.org/2000/svg">
<g opacity="0.05">
<mask id="mask0_8008_1305" style="mask-type:alpha" maskUnits="userSpaceOnUse" x="0" y="0" width="686" height="431">
<path d="M684.149 1.84717H1.84766V429.152H684.149V1.84717Z" fill="#ED745E" stroke="white" stroke-width="3.42857"/>
</mask>
<g mask="url(#mask0_8008_1305)">
<path d="M848.497 267.239L792.073 271.114C784.592 225.834 756.368 181.949 714.673 150.852C673.043 119.577 625.474 106.805 584.269 115.537C523.034 128.653 478.856 178.043 432.253 230.355C384.287 284.107 334.707 339.702 262.088 359.246C181.994 380.807 84.9607 351.164 8.92413 282.036C-53.0501 225.641 -101.439 144.163 -131.316 46.1518L-76.8601 33.7076C-50.6788 119.764 -8.97592 190.558 43.5447 238.389C103.157 292.565 181.054 317.109 242.006 300.686C300.285 284.952 342.913 237.227 388.145 186.668C438.099 130.623 489.723 72.8671 566.917 56.422C623.902 44.2732 688.574 61.3534 744.262 103.038C800.129 144.812 838.17 204.723 848.497 267.239Z" fill="#FF7C64"/>
</g>
</g>
</svg>
