<svg width="32" height="32" viewBox="0 0 32 32" fill="none" xmlns="http://www.w3.org/2000/svg">
<path opacity="0.2" d="M23.9826 6H5.32888C3.85714 6 2.66406 7.19391 2.66406 8.66667V26C2.66406 27.4728 3.85714 28.6667 5.32888 28.6667H23.9826C25.4543 28.6667 26.6474 27.4728 26.6474 26V8.66667C26.6474 7.19391 25.4543 6 23.9826 6Z" fill="#FD4621"/>
<path d="M27.9826 5.3335H9.32888C7.85714 5.3335 6.66406 6.5274 6.66406 8.00016V24.0002C6.66406 25.4729 7.85714 26.6668 9.32888 26.6668H27.9826C29.4543 26.6668 30.6474 25.4729 30.6474 24.0002V8.00016C30.6474 6.5274 29.4543 5.3335 27.9826 5.3335Z" stroke="#111111" stroke-width="1.25" stroke-linecap="round" stroke-linejoin="round"/>
<path d="M6.66406 12H30.6474" stroke="#111111" stroke-width="1.25" stroke-linecap="round" stroke-linejoin="round"/>
<path d="M23.9844 1.3335V8.00016" stroke="#111111" stroke-width="1.25" stroke-linecap="round" stroke-linejoin="round"/>
<path d="M13.3281 1.3335V8.00016" stroke="#111111" stroke-width="1.25" stroke-linecap="round" stroke-linejoin="round"/>
</svg>
