<svg width="32" height="32" viewBox="0 0 32 32" fill="none" xmlns="http://www.w3.org/2000/svg">
<path opacity="0.2" fill-rule="evenodd" clip-rule="evenodd" d="M18.6572 9.09681C21.0787 9.59351 22.9721 11.5841 23.4445 14.1299L18.6572 9.09681ZM18.6572 4C23.7227 4.59163 27.7233 8.79233 28.2924 14.1172L18.6572 4ZM26.6509 29.3129C26.6538 30.0664 26.3544 30.7864 25.8262 31.2958C25.298 31.8052 24.5899 32.057 23.876 31.9891C19.9592 31.5417 16.1968 30.1347 12.8912 27.8811C9.81572 25.8266 7.20826 23.0854 5.25398 19.8522C3.10281 16.3613 1.76409 12.3868 1.34628 8.2506C1.28196 7.50241 1.51973 6.76026 2.00151 6.20542C2.48328 5.65059 3.16469 5.33417 3.87929 5.3332H7.69789C8.97568 5.32024 10.0648 6.30491 10.2436 7.63506C10.4048 8.91976 10.7037 10.1812 11.1346 11.3952C11.4843 12.3732 11.2607 13.4758 10.5618 14.2187L9.88825 14.9188C11.7002 18.2689 14.3388 21.0427 17.5255 22.9476L18.1991 22.2475C18.9057 21.5128 19.9545 21.2777 20.8848 21.6453C22.0396 22.0984 23.2395 22.4126 24.4616 22.582C25.7415 22.7719 26.683 23.94 26.6509 25.2985V29.3129Z" fill="#FD4621"/>
<path d="M19.6806 7.76331C22.1021 8.26002 23.9954 10.2506 24.4679 12.7964M19.6806 2.6665C24.7461 3.25813 28.7466 7.45883 29.3158 12.7837M28.1038 22.9518V26.7744C28.1066 27.492 27.8215 28.1775 27.3185 28.6626C26.8156 29.1477 26.1414 29.3874 25.4617 29.3228C21.7323 28.8968 18.1499 27.557 15.0024 25.411C12.0741 23.4547 9.59137 20.8445 7.73059 17.7658C5.68234 14.4417 4.40767 10.657 4.00985 6.71847C3.94861 6.00603 4.175 5.29933 4.63373 4.771C5.09245 4.24268 5.74126 3.94138 6.42166 3.94058H10.0576C11.2742 3.92812 12.3112 4.86574 12.4815 6.13233C12.635 7.35565 12.9196 8.55679 13.3299 9.71284C13.6629 10.6441 13.4499 11.694 12.7845 12.4014L11.2453 14.0196C12.9706 17.2097 15.4829 19.851 18.5171 21.6649L20.0563 20.0466C20.7292 19.3471 21.7278 19.1232 22.6136 19.4732C23.7132 19.9046 24.8556 20.2038 26.0192 20.3652C27.2379 20.5459 28.1343 21.6582 28.1038 22.9518Z" stroke="#111111" stroke-width="1.25" stroke-linecap="round" stroke-linejoin="round"/>
</svg>
