<svg width="32" height="32" viewBox="0 0 32 32" fill="none" xmlns="http://www.w3.org/2000/svg">
<path opacity="0.2" fill-rule="evenodd" clip-rule="evenodd" d="M28.0026 16.5927C28.0077 18.548 27.5508 20.4769 26.6692 22.2223C24.5373 26.4879 20.1787 29.1834 15.41 29.1852C13.4546 29.1903 11.5257 28.7335 9.78037 27.8519L1.33594 30.6667L4.15075 22.2223C3.26917 20.4769 2.81232 18.548 2.81742 16.5927C2.81926 11.8239 5.5147 7.46532 9.78037 5.33341C11.5257 4.45183 13.4546 3.99499 15.41 4.00004H16.1507C22.5445 4.35282 27.6498 9.45814 28.0026 15.8519V16.5927Z" fill="#FD4621"/>
<path fill-rule="evenodd" clip-rule="evenodd" d="M30.6667 13.9262C30.6717 15.8815 30.2149 17.8104 29.3333 19.5558C27.2014 23.8214 22.8428 26.5169 18.0741 26.5187C16.1187 26.5238 14.1898 26.067 12.4444 25.1854L4 28.0002L6.81481 19.5558C5.93323 17.8104 5.47638 15.8815 5.48148 13.9262C5.48332 9.15741 8.17877 4.79882 12.4444 2.66691C14.1898 1.78533 16.1187 1.32848 18.0741 1.33354H18.8148C25.2086 1.68632 30.3139 6.79163 30.6667 13.1854V13.9262Z" stroke="#111111" stroke-width="1.25" stroke-linecap="round" stroke-linejoin="round"/>
<path d="M12.6641 14H13.3307" stroke="#111111" stroke-width="2" stroke-linecap="round" stroke-linejoin="round"/>
<path d="M17.6641 14H18.3307" stroke="#111111" stroke-width="2" stroke-linecap="round" stroke-linejoin="round"/>
<path d="M22.6641 14H23.3307" stroke="#111111" stroke-width="2" stroke-linecap="round" stroke-linejoin="round"/>
</svg>
