<svg xmlns="http://www.w3.org/2000/svg" width="103" height="102" viewBox="0 0 103 102" fill="none"><path d="M52.0337 10.0578L52.9145 0.297439L54.0858 0.402945L58.5808 8.69365L59.2867 0.871442L60.458 0.976948L59.5771 10.7373L58.4059 10.6318L53.9109 2.34107L53.2049 10.1633L52.0337 10.0578Z" fill="#FD4621"/><path d="M61.4609 11.6647C60.9099 11.5217 60.4738 11.3072 60.1528 11.0214C59.834 10.7265 59.6255 10.3975 59.527 10.0345C59.4309 9.6624 59.4322 9.28667 59.5309 8.90729C59.6507 8.44662 59.8691 8.08869 60.1862 7.83351C60.5147 7.57165 60.9169 7.4157 61.3928 7.36568C61.8801 7.30896 62.4219 7.35799 63.0181 7.51277L64.8204 7.98061C64.9308 7.55606 64.9547 7.1862 64.892 6.871C64.8407 6.54912 64.7074 6.28308 64.492 6.0729C64.2857 5.86505 63.9973 5.71306 63.6269 5.61691C63.1933 5.50435 62.7902 5.51542 62.4176 5.65013C62.0451 5.78484 61.7674 6.05509 61.5848 6.46087L60.4194 6.15836C60.6004 5.68465 60.8688 5.32039 61.2244 5.06556C61.5913 4.80404 62.0094 4.64258 62.4787 4.58117C62.9502 4.51073 63.4164 4.53531 63.8771 4.65491C64.5095 4.81907 65.0029 5.07251 65.3574 5.41524C65.7233 5.75128 65.9561 6.15402 66.0558 6.62347C66.1578 7.08388 66.136 7.59411 65.9904 8.15414L64.8909 12.3815L63.8746 12.1177L64.1205 10.8942C63.9808 11.0605 63.8164 11.2106 63.6272 11.3447C63.4494 11.4721 63.2492 11.5745 63.0266 11.6517C62.8064 11.7199 62.5649 11.7584 62.3022 11.7674C62.0485 11.7787 61.7681 11.7444 61.4609 11.6647ZM61.8873 10.7484C62.2035 10.8305 62.5045 10.8411 62.7903 10.7804C63.0876 10.7129 63.3559 10.5897 63.5953 10.4107C63.837 10.2228 64.0395 10.0005 64.2027 9.74397C64.3749 9.48974 64.5009 9.20907 64.5808 8.90196L64.5914 8.86131L62.8839 8.41809C62.4413 8.30318 62.0703 8.26475 61.7711 8.30279C61.4743 8.3318 61.2425 8.42591 61.0757 8.58511C60.9113 8.73528 60.7985 8.92779 60.7374 9.16265C60.674 9.40653 60.673 9.63287 60.7344 9.84167C60.8049 10.0528 60.9356 10.2362 61.1266 10.3919C61.3266 10.5498 61.5801 10.6687 61.8873 10.7484Z" fill="#FD4621"/><path d="M67.6895 13.6546C67.3009 13.4951 66.989 13.2965 66.7538 13.0588C66.5185 12.821 66.3817 12.5278 66.3434 12.1791C66.3173 11.8254 66.4054 11.4025 66.6077 10.9105L68.1036 7.27197L66.9638 6.80427L67.3418 5.88493L68.4816 6.35264L69.2735 4.8314L70.219 5.21938L69.5695 6.79909L71.4605 7.57506L71.0825 8.49439L69.1916 7.71842L67.6957 11.3569C67.5289 11.7626 67.4973 12.0725 67.601 12.2866C67.7083 12.492 67.9692 12.6798 68.3836 12.8499L69.083 13.1369L68.6998 14.0692L67.6895 13.6546Z" fill="#FD4621"/><path d="M71.8104 15.9875C71.3431 15.7143 70.9864 15.3814 70.7404 14.9889C70.5025 14.6011 70.4 14.1574 70.4331 13.6578C70.4742 13.1628 70.6646 12.6255 71.0043 12.0456L73.1413 8.3975L74.1565 8.99108L72.0832 12.5305C71.7293 13.1345 71.5957 13.6672 71.6824 14.1287C71.769 14.5902 72.054 14.9623 72.5374 15.2449C72.8758 15.4428 73.2292 15.5413 73.5975 15.5404C73.9705 15.5314 74.3232 15.4187 74.6555 15.2022C75.0007 14.9823 75.3053 14.6469 75.5695 14.1959L77.4801 10.9343L78.4953 11.5279L74.9288 17.6162L74.0103 17.0792L74.5726 15.9808C74.1656 16.2509 73.7171 16.3887 73.2271 16.3942C72.7419 16.3916 72.2697 16.256 71.8104 15.9875Z" fill="#FD4621"/><path d="M75.1436 17.9541L79.495 12.3996L80.3332 13.055L79.5705 14.1647C79.8912 14.0127 80.2162 13.9232 80.5455 13.8963C80.8822 13.8752 81.2239 13.9233 81.5708 14.0405C81.925 14.1634 82.2786 14.3629 82.6315 14.6389L81.8718 15.6087L81.5299 15.3413C81.2946 15.1574 81.0444 15.0151 80.7794 14.9145C80.5201 14.8065 80.2513 14.7563 79.9728 14.7636C79.7017 14.7767 79.4234 14.8672 79.1378 15.0349C78.8654 15.201 78.5911 15.4604 78.3148 15.8131L76.07 18.6785L75.1436 17.9541Z" fill="#FD4621"/><path d="M80.7814 23.1734C80.3184 22.6993 80.0178 22.1711 79.8797 21.5889C79.7481 21.0133 79.7784 20.4299 79.9706 19.8385C80.1694 19.2406 80.5329 18.6843 81.0609 18.1697C81.5955 17.6485 82.1579 17.2959 82.7478 17.1118C83.3443 16.9344 83.9321 16.9219 84.5114 17.0742C85.0971 17.2331 85.6247 17.553 86.0942 18.0337C86.5768 18.5278 86.8741 19.0527 86.9861 19.6082C87.1047 20.1704 87.0715 20.7176 86.8867 21.2496C86.715 21.7819 86.4153 22.2565 85.9876 22.6734C85.9208 22.7386 85.8506 22.807 85.7771 22.8786C85.7036 22.9503 85.6167 23.0284 85.5167 23.1129L81.4866 18.9863L82.1383 18.3512L85.376 21.6664C85.8176 21.1969 86.0285 20.6915 86.0088 20.1503C85.9955 19.6158 85.7802 19.1349 85.3629 18.7075C85.0825 18.4204 84.7548 18.2184 84.3799 18.1017C84.0181 17.9851 83.6385 17.9771 83.2411 18.0778C82.8503 18.1719 82.4678 18.4014 82.0935 18.7662L81.8128 19.0398C81.3985 19.4438 81.1226 19.856 80.9854 20.2765C80.8547 20.7037 80.8365 21.1059 80.9309 21.4831C81.0319 21.867 81.2193 22.1991 81.4932 22.4796C81.8388 22.8335 82.1993 23.049 82.5747 23.1262C82.9634 23.2035 83.3403 23.162 83.7054 23.0016L84.5173 23.8329C84.1383 24.0459 83.7307 24.1696 83.2944 24.2038C82.8582 24.238 82.4232 24.1733 81.9894 24.0096C81.5688 23.8461 81.1661 23.5673 80.7814 23.1734Z" fill="#FD4621"/><path d="M85.5396 29.1607C85.4159 28.9628 85.3754 28.7571 85.418 28.5435C85.4734 28.3329 85.5961 28.1683 85.7862 28.0497C85.9762 27.9311 86.1742 27.8956 86.38 27.9431C86.5987 27.9937 86.7699 28.1179 86.8936 28.3157C87.0173 28.5136 87.0515 28.7178 86.996 28.9284C86.9485 29.1341 86.8297 29.2962 86.6397 29.4148C86.4496 29.5334 86.2477 29.5714 86.034 29.5288C85.8281 29.4812 85.6633 29.3585 85.5396 29.1607Z" fill="#FD4621"/><path d="M88.673 34.6504L99.1177 34.8414L99.5278 36.018L91.4559 42.6354L91.0459 41.4588L97.932 35.9061L89.0785 35.8138L88.673 34.6504ZM91.5968 35.3825L92.6065 35.387L94.0671 39.5777L93.2785 40.2078L91.5968 35.3825Z" fill="#FD4621"/><path d="M91.3415 44.8761C91.2292 44.2041 91.2873 43.5888 91.5157 43.0303C91.7533 42.4702 92.1252 42.0061 92.6315 41.6378C93.1377 41.2695 93.7407 41.027 94.4403 40.9103C95.14 40.7937 95.7845 40.8281 96.3738 41.0137C96.9723 41.1978 97.4704 41.5169 97.868 41.971C98.2671 42.4343 98.5228 43.002 98.6351 43.674C98.7305 44.2447 98.6985 44.761 98.539 45.2229C98.3812 45.6939 98.1143 46.0791 97.7385 46.3783L101.867 45.6898L102.061 46.8497L92.1186 48.5077L91.9432 47.4583L93.0733 47.1705C92.8185 47.0616 92.5706 46.9089 92.3296 46.7126C92.0979 46.5147 91.8906 46.2654 91.7079 45.9647C91.5344 45.6624 91.4122 45.2996 91.3415 44.8761ZM92.3726 44.8461C92.4495 45.3064 92.6277 45.693 92.9071 46.006C93.1865 46.3189 93.5357 46.5398 93.9546 46.6687C94.3828 46.796 94.8639 46.8151 95.3978 46.7261C95.9226 46.6386 96.3667 46.4651 96.7303 46.2058C97.0939 45.9465 97.3569 45.6235 97.5194 45.2368C97.6819 44.8501 97.7247 44.4267 97.6478 43.9664C97.5724 43.5153 97.3951 43.1333 97.1157 42.8203C96.8363 42.5073 96.4825 42.2872 96.0543 42.1599C95.6261 42.0326 95.1497 42.0127 94.6249 42.1002C94.091 42.1892 93.6422 42.3634 93.2786 42.6228C92.9243 42.8806 92.6659 43.2028 92.5033 43.5895C92.3408 43.9761 92.2973 44.395 92.3726 44.8461Z" fill="#FD4621"/><path d="M91.9705 50.6302L98.9972 47.8803L99.0105 49.1123L93.1118 51.3039L99.0566 53.382L99.0696 54.586L91.9851 51.9881L91.9705 50.6302Z" fill="#FD4621"/><path d="M91.2949 57.5543C91.3863 56.8979 91.6199 56.3368 91.9958 55.8707C92.3704 55.4139 92.8503 55.0802 93.4357 54.8694C94.0302 54.6599 94.6927 54.6059 95.423 54.7074C96.1625 54.8102 96.7857 55.0382 97.2925 55.3913C97.7981 55.7537 98.168 56.2103 98.4022 56.7611C98.6352 57.3212 98.7054 57.934 98.6127 58.5996C98.5174 59.2836 98.2845 59.8402 97.9137 60.2693C97.5417 60.7075 97.0888 61.0168 96.5548 61.197C96.0288 61.3878 95.47 61.442 94.8783 61.3598C94.7859 61.3469 94.6888 61.3335 94.5871 61.3193C94.4854 61.3052 94.3705 61.2845 94.2424 61.2573L95.0379 55.5444L95.9392 55.6697L95.3001 60.2594C95.9419 60.3203 96.4707 60.1771 96.8865 59.8297C97.3011 59.4915 97.5496 59.0266 97.632 58.435C97.6874 58.0375 97.6464 57.6549 97.5091 57.2872C97.3798 56.93 97.1537 56.6253 96.8307 56.3731C96.517 56.1222 96.1013 55.9607 95.5836 55.8888L95.1953 55.8348C94.6222 55.7552 94.1273 55.79 93.7107 55.9395C93.2928 56.0981 92.9637 56.3303 92.7232 56.6361C92.4814 56.9512 92.3335 57.3029 92.2795 57.6911C92.2112 58.181 92.2616 58.5979 92.4304 58.9418C92.6072 59.2962 92.8709 59.5684 93.2213 59.7584L93.0611 60.9093C92.6605 60.7406 92.3132 60.4944 92.019 60.1709C91.7248 59.8473 91.5096 59.464 91.3734 59.021C91.2451 58.5886 91.219 58.0997 91.2949 57.5543Z" fill="#FD4621"/><path d="M90.8692 60.7886L97.6201 62.8408L97.3101 63.8587L96.1151 63.5539C96.4695 63.8958 96.703 64.2984 96.8155 64.7619C96.9343 65.2369 96.9162 65.7289 96.7612 66.2379C96.6007 66.7646 96.3549 67.1874 96.0236 67.5062C95.7013 67.8277 95.2932 68.0304 94.7993 68.1144C94.3144 68.2011 93.7459 68.1454 93.0941 67.9472L89.0622 66.7216L89.4049 65.5966L93.3161 66.7856C93.9948 66.9919 94.55 66.9948 94.9818 66.7944C95.4109 66.6029 95.7084 66.2349 95.8742 65.6902C95.9884 65.3152 95.9967 64.9519 95.8989 64.6003C95.81 64.2513 95.6186 63.9347 95.3247 63.6502C95.0371 63.3774 94.6387 63.1637 94.1297 63.0089L90.5265 61.9136L90.8692 60.7886Z" fill="#FD4621"/><path d="M87.649 69.4002C87.8262 69.0194 88.039 68.7169 88.2874 68.4927C88.5359 68.2685 88.8352 68.145 89.1854 68.1225C89.5402 68.1123 89.9588 68.2192 90.4413 68.4433L94.0093 70.1002L94.529 68.9832L95.4306 69.4018L94.9109 70.5189L96.395 71.3779L95.9639 72.3045L94.4148 71.5851L93.5525 73.4383L92.651 73.0197L93.5132 71.1664L89.9452 69.5095C89.5474 69.3247 89.2391 69.2793 89.0204 69.3733C88.8101 69.4712 88.6105 69.7232 88.4215 70.1294L88.1026 70.8148L87.1884 70.3903L87.649 69.4002Z" fill="#FD4621"/><path d="M85.1293 73.409C85.4236 72.9546 85.7725 72.6134 86.1761 72.3853C86.5745 72.165 87.0228 72.0825 87.5208 72.1377C88.0137 72.2008 88.5423 72.4148 89.1066 72.7797L92.6571 75.0753L92.0177 76.0623L88.573 73.8351C87.9852 73.455 87.4587 73.2979 86.9934 73.3639C86.5281 73.4298 86.1432 73.6978 85.8387 74.1678C85.6256 74.4968 85.5112 74.8451 85.4954 75.2128C85.4875 75.5855 85.5842 75.9426 85.7856 76.284C85.9898 76.6383 86.3113 76.9574 86.7503 77.2412L89.9245 79.2936L89.2852 80.2806L83.3598 76.4494L83.9383 75.5564L85.011 76.1666C84.7593 75.7483 84.6418 75.2944 84.6586 74.8051C84.6831 74.3208 84.84 73.8555 85.1293 73.409Z" fill="#FD4621"/><path d="M83.0037 76.6301L88.362 81.221L87.669 82.0283L86.5936 81.2176C86.7313 81.5444 86.8061 81.8728 86.8181 82.2027C86.8241 82.5396 86.7607 82.8786 86.6279 83.2196C86.489 83.5676 86.2737 83.9116 85.9819 84.2516L85.0463 83.45L85.329 83.1207C85.5235 82.894 85.6771 82.6507 85.7896 82.3907C85.9092 82.1367 85.9715 81.8706 85.9767 81.5924C85.9758 81.3212 85.8979 81.0393 85.743 80.7469C85.5892 80.4676 85.3421 80.1822 85.0019 79.8907L82.2378 77.5224L83.0037 76.6301Z" fill="#FD4621"/><path d="M77.5322 82.0356C78.027 81.5947 78.5685 81.3184 79.1569 81.2067C79.7383 81.1011 80.3204 81.1575 80.9031 81.3757C81.4921 81.601 82.0321 81.9886 82.5232 82.5386C83.0205 83.0956 83.348 83.6726 83.5057 84.2697C83.6564 84.8729 83.6427 85.4602 83.4646 86.0315C83.2795 86.6089 82.9361 87.1212 82.4344 87.5683C81.9188 88.0278 81.3807 88.301 80.8202 88.388C80.2527 88.4811 79.7071 88.4235 79.1833 88.2152C78.6588 88.0201 78.1976 87.6997 77.7997 87.2541C77.7376 87.1845 77.6723 87.1114 77.6039 87.0348C77.5356 86.9582 77.4613 86.8681 77.3813 86.7644L81.6875 82.927L82.2936 83.6058L78.834 86.6888C79.2838 87.1506 79.7797 87.3837 80.3218 87.3882C80.8568 87.399 81.3474 87.2056 81.7933 86.8082C82.0929 86.5412 82.3095 86.2232 82.443 85.8542C82.5757 85.4984 82.6007 85.1199 82.5177 84.7187C82.4411 84.3245 82.2287 83.9325 81.8806 83.5426L81.6195 83.2502C81.2341 82.8185 80.8342 82.5248 80.4198 82.369C79.9985 82.2194 79.5971 82.1832 79.2158 82.2606C78.8274 82.3441 78.4869 82.5163 78.1942 82.7771C77.8249 83.1062 77.5933 83.4564 77.4994 83.8276C77.4047 84.212 77.4294 84.5901 77.5735 84.9617L76.706 85.7348C76.5099 85.347 76.4045 84.9346 76.3897 84.4977C76.375 84.0608 76.4591 83.6295 76.6422 83.2038C76.8244 82.7914 77.1211 82.402 77.5322 82.0356Z" fill="#FD4621"/><path d="M71.3382 86.4989C71.5415 86.3844 71.749 86.3533 71.9607 86.4055C72.1687 86.4704 72.3278 86.6003 72.4379 86.7954C72.548 86.9905 72.5747 87.1897 72.518 87.3931C72.4577 87.6091 72.3259 87.7744 72.1226 87.8889C71.9193 88.0034 71.7136 88.0282 71.5055 87.9633C71.302 87.9066 71.1452 87.7806 71.0351 87.5855C70.925 87.3905 70.8961 87.1872 70.9482 86.9757C71.0049 86.7724 71.1349 86.6135 71.3382 86.4989Z" fill="#FD4621"/><path d="M65.0947 89.5452L67.9645 98.9156L62.1673 100.688L61.8844 99.7641L66.557 98.3358L65.5567 95.0695L61.2858 96.3751L61.007 95.4648L65.2779 94.1592L64.253 90.8127L59.5804 92.241L59.2975 91.3173L65.0947 89.5452Z" fill="#FD4621"/><path d="M59.7255 91.1471L57.8772 94.9886L60.7648 98.1262L59.4908 98.3155L57.1827 95.7429L55.6965 98.8795L54.4502 99.0648L56.2985 95.2233L53.4109 92.0857L54.6572 91.9005L56.9951 94.4828L58.4515 91.3365L59.7255 91.1471Z" fill="#FD4621"/><path d="M53.2617 88.914L53.1966 99.0498L52.1326 99.0429L52.042 97.8943C51.8912 98.1174 51.6985 98.3261 51.4639 98.5206C51.2293 98.7245 50.9483 98.886 50.6208 99.0052C50.2933 99.1338 49.9196 99.1967 49.4996 99.194C48.8089 99.1896 48.2127 99.0224 47.7108 98.6925C47.1995 98.3626 46.8057 97.9167 46.5293 97.3549C46.2435 96.8024 46.1029 96.1715 46.1075 95.4622C46.1121 94.7529 46.2608 94.1192 46.5537 93.561C46.8373 93.0122 47.2367 92.5807 47.7521 92.2667C48.2674 91.9526 48.8704 91.7978 49.5611 91.8023C50.1304 91.8059 50.6337 91.9258 51.0708 92.162C51.4986 92.3981 51.8279 92.7268 52.0585 93.1483L52.0858 88.9064L53.2617 88.914ZM49.6805 92.8251C49.2232 92.8221 48.8165 92.9315 48.4604 93.1532C48.1043 93.375 47.827 93.6812 47.6285 94.0719C47.4206 94.4719 47.3149 94.9426 47.3114 95.4839C47.308 96.0159 47.4076 96.4832 47.6104 96.8859C47.8038 97.2885 48.0771 97.6029 48.4303 97.8291C48.7835 98.0554 49.1888 98.17 49.6461 98.173C50.1128 98.1759 50.5242 98.0666 50.8803 97.8449C51.2364 97.6231 51.5137 97.3123 51.7123 96.9122C51.9109 96.5121 52.0119 96.0461 52.0153 95.5141C52.0188 94.9728 51.9238 94.5008 51.7304 94.0982C51.5369 93.705 51.2636 93.3952 50.9103 93.169C50.5571 92.9427 50.1472 92.8281 49.6805 92.8251Z" fill="#FD4621"/><path d="M46.3275 91.7312L44.9823 101.721L43.8167 101.564L45.162 91.5746L46.3275 91.7312Z" fill="#FD4621"/><path d="M39.8002 90.2623C40.4319 90.4291 40.9622 90.7235 41.3912 91.1457C41.8178 91.5768 42.1051 92.0967 42.2531 92.7053C42.3987 93.3229 42.3772 93.9881 42.1887 94.701C41.9954 95.4318 41.6839 96.0253 41.2544 96.4815C40.8134 96.9442 40.302 97.2533 39.7203 97.4086C39.1272 97.5706 38.5147 97.5682 37.8831 97.4014C37.2333 97.2299 36.6996 96.9298 36.2821 96.501C35.8531 96.0788 35.5658 95.559 35.4202 94.9413C35.2632 94.3304 35.2802 93.6639 35.4711 92.9421C35.662 92.2203 35.978 91.6279 36.4189 91.1652C36.8575 90.7114 37.3689 90.4024 37.953 90.238C38.5347 90.0827 39.1505 90.0908 39.8002 90.2623ZM39.5289 91.2332C39.1409 91.1308 38.7549 91.1302 38.3709 91.2316C37.9845 91.3419 37.6362 91.5637 37.326 91.8969C37.0158 92.2301 36.7856 92.681 36.6352 93.2494C36.4825 93.8269 36.4598 94.3325 36.5671 94.7663C36.663 95.2067 36.8529 95.5657 37.1366 95.8433C37.409 96.1276 37.7437 96.3221 38.1408 96.4269C38.5198 96.527 38.907 96.523 39.3024 96.4151C39.6865 96.3137 40.0335 96.0964 40.3437 95.7632C40.6425 95.4367 40.8682 94.9847 41.021 94.4072C41.1713 93.8387 41.1985 93.3343 41.1026 92.8939C40.9977 92.4511 40.809 92.0876 40.5367 91.8033C40.2529 91.5257 39.917 91.3357 39.5289 91.2332Z" fill="#FD4621"/><path d="M36.4834 89.3666L33.7601 95.8759L32.7782 95.4659L33.2194 94.1936C32.9505 94.4252 32.6609 94.5976 32.3505 94.7108C32.0315 94.8203 31.6893 94.8645 31.3238 94.8433C30.9497 94.8186 30.5559 94.7199 30.1425 94.5473L30.618 93.4108L31.0185 93.578C31.2941 93.6931 31.573 93.764 31.8552 93.7908C32.1338 93.8263 32.4063 93.8035 32.6729 93.7227C32.9308 93.6382 33.1752 93.4773 33.406 93.2399C33.6246 93.0075 33.8204 92.6847 33.9933 92.2714L35.3982 88.9134L36.4834 89.3666Z" fill="#FD4621"/><path d="M29.6525 85.8083C30.224 86.1437 30.6531 86.574 30.9397 87.0993C31.2183 87.6199 31.3428 88.1908 31.3133 88.8119C31.279 89.4411 31.075 90.0735 30.7013 90.7091C30.3228 91.3528 29.8733 91.8411 29.3527 92.1741C28.8241 92.5024 28.2604 92.6693 27.6615 92.675C27.0546 92.676 26.4614 92.5065 25.8818 92.1663C25.2862 91.8168 24.8611 91.3888 24.6067 90.8824C24.3442 90.3712 24.232 89.8346 24.2701 89.2726C24.2954 88.7139 24.4595 88.1771 24.7622 87.6622C24.8095 87.5817 24.8592 87.4973 24.9112 87.4088C24.9633 87.3203 25.0264 87.222 25.1007 87.1141L30.0754 90.0334L29.6142 90.8179L25.6175 88.4725C25.3153 89.0419 25.245 89.585 25.4066 90.1019C25.5602 90.6141 25.8946 91.0213 26.4098 91.3236C26.7559 91.5268 27.1252 91.6353 27.5177 91.6491C27.8973 91.6663 28.2656 91.574 28.6224 91.3722C28.9745 91.1784 29.2831 90.8562 29.548 90.4057L29.7466 90.0678C30.0399 89.5689 30.1974 89.0986 30.2189 88.6567C30.2325 88.2102 30.144 87.8174 29.9536 87.4784C29.7551 87.1346 29.4868 86.8636 29.1487 86.6652C28.7221 86.4148 28.3175 86.3018 27.935 86.3263C27.5398 86.354 27.1871 86.4934 26.8772 86.7444L25.875 86.1563C26.1845 85.8509 26.5451 85.6242 26.9569 85.4763C27.3687 85.3284 27.8053 85.2762 28.2669 85.3198C28.7157 85.3668 29.1776 85.5296 29.6525 85.8083Z" fill="#FD4621"/><path d="M23.4936 81.2905C23.665 81.4488 23.7583 81.6365 23.7735 81.8538C23.7755 82.0716 23.7004 82.2627 23.5483 82.4271C23.3962 82.5915 23.2146 82.6779 23.0034 82.6862C22.7791 82.6951 22.5812 82.6204 22.4098 82.4621C22.2384 82.3038 22.1517 82.1158 22.1497 81.898C22.1414 81.6871 22.2133 81.4994 22.3654 81.335C22.5175 81.1705 22.7023 81.0807 22.9197 81.0655C23.1308 81.0572 23.3221 81.1322 23.4936 81.2905Z" fill="#FD4621"/><path d="M17.4874 74.6859L10.6926 82.239L10.0113 81.1791L15.9381 74.8648L7.57368 77.387L6.86208 76.28L12.6914 69.7621L4.43962 72.5114L3.75831 71.4515L13.4904 68.4677L14.2171 69.5983L8.6588 75.9423L16.7758 73.5788L17.4874 74.6859Z" fill="#FD4621"/><path d="M13.6914 67.9975L7.21166 70.7905L6.74543 69.7109L13.2251 66.9179L13.6914 67.9975ZM5.6029 70.8436C5.6954 71.0578 5.70454 71.2673 5.63031 71.4721C5.54381 71.672 5.39342 71.8181 5.17914 71.9105C4.96486 72.0029 4.76384 72.0082 4.57607 71.9265C4.37603 71.84 4.22976 71.6896 4.13725 71.4754C4.04844 71.2697 4.04115 71.0645 4.11538 70.8597C4.18105 70.6587 4.32101 70.5119 4.53529 70.4196C4.74957 70.3272 4.96101 70.3225 5.16962 70.4053C5.36966 70.4919 5.51409 70.638 5.6029 70.8436Z" fill="#FD4621"/><path d="M12.3419 64.6435L2.76525 67.7889L2.39765 66.6719L11.9743 63.5264L12.3419 64.6435Z" fill="#FD4621"/><path d="M10.8162 58.165C10.9441 58.8342 10.9004 59.4507 10.6851 60.0143C10.4606 60.5798 10.0996 61.0525 9.60204 61.4324C9.10453 61.8124 8.50739 62.0688 7.81063 62.2018C7.11386 62.3347 6.46874 62.3153 5.87526 62.1434C5.27261 61.9734 4.76724 61.666 4.35916 61.2212C3.94932 60.7673 3.68044 60.2058 3.55252 59.5366C3.44387 58.9682 3.46385 58.4513 3.61244 57.9858C3.75928 57.5113 4.01708 57.12 4.38583 56.8121L0.273992 57.5966L0.0532007 56.4415L9.95461 54.5525L10.1544 55.5975L9.03136 55.9116C9.2886 56.0145 9.53997 56.1613 9.78547 56.352C10.0218 56.5445 10.2348 56.7889 10.4245 57.0853C10.605 57.3834 10.7356 57.7433 10.8162 58.165ZM9.786 58.219C9.69839 57.7607 9.51127 57.3783 9.22465 57.0719C8.93803 56.7655 8.58379 56.5528 8.16194 56.4337C7.73092 56.3164 7.24954 56.3085 6.71779 56.41C6.19522 56.5097 5.75522 56.6934 5.3978 56.9611C5.04037 57.2288 4.78494 57.5579 4.63149 57.9482C4.47805 58.3385 4.44514 58.7629 4.53275 59.2213C4.61862 59.6705 4.80486 60.0483 5.09148 60.3546C5.3781 60.661 5.73692 60.8729 6.16794 60.9902C6.59896 61.1075 7.07576 61.1163 7.59833 61.0166C8.13007 60.9151 8.57466 60.7305 8.93208 60.4628C9.28034 60.1968 9.53119 59.8687 9.68463 59.4783C9.83808 59.088 9.87187 58.6682 9.786 58.219Z" fill="#FD4621"/><path d="M10.1102 50.0547C10.1027 50.2879 10.0218 50.4814 9.86748 50.6352C9.70412 50.7794 9.51049 50.8479 9.2866 50.8408C9.06272 50.8336 8.87854 50.753 8.73406 50.599C8.58056 50.4353 8.50754 50.2369 8.51501 50.0037C8.52249 49.7705 8.60791 49.5818 8.77127 49.4376C8.92531 49.2931 9.11428 49.2244 9.33816 49.2316C9.56205 49.2387 9.75089 49.3195 9.90469 49.4738C10.0492 49.6278 10.1177 49.8215 10.1102 50.0547Z" fill="#FD4621"/><path d="M11.4376 41.0441C11.2973 41.6151 11.0671 42.0823 10.747 42.4459C10.4292 42.8004 10.0385 43.0409 9.57493 43.1674C9.11355 43.2848 8.60187 43.2746 8.03987 43.1367L8.32393 41.9811C8.64119 42.059 8.94351 42.0803 9.23088 42.0451C9.51142 41.9986 9.75659 41.8809 9.96639 41.6922C10.1693 41.4921 10.3187 41.1972 10.4145 40.8075C10.5081 40.4268 10.5091 40.1099 10.4175 39.8568C10.3282 39.5946 10.1723 39.3882 9.94985 39.2375C9.72055 39.0755 9.44728 38.9556 9.13002 38.8778L2.12769 37.1598L2.40841 36.0178L9.41074 37.7358C10.2628 37.9449 10.8666 38.3429 11.2221 38.9298C11.5707 39.5055 11.6426 40.2102 11.4376 41.0441Z" fill="#FD4621"/><path d="M13.6041 34.7217C13.3534 35.325 12.9898 35.8108 12.5134 36.179C12.0284 36.5437 11.4742 36.7585 10.8509 36.8233C10.2191 36.8846 9.56258 36.774 8.88149 36.4915C8.18317 36.2019 7.63697 35.8137 7.24291 35.327C6.84381 34.828 6.6066 34.28 6.53126 33.683C6.45089 33.0737 6.53605 32.4674 6.78673 31.8641C7.04458 31.2435 7.41424 30.7552 7.89571 30.3991C8.37214 30.0309 8.9263 29.8161 9.55817 29.7549C10.185 29.6814 10.8433 29.7877 11.533 30.0737C12.2227 30.3597 12.7671 30.7522 13.1662 31.2512C13.5567 31.7466 13.7939 32.2946 13.8779 32.8952C13.9532 33.4923 13.8619 34.1011 13.6041 34.7217ZM12.6783 34.3226C12.8323 33.952 12.8851 33.5697 12.8365 33.1757C12.7794 32.7781 12.6066 32.4034 12.3183 32.0514C12.0299 31.6994 11.6142 31.4108 11.071 31.1855C10.5192 30.9567 10.0211 30.8663 9.57667 30.9144C9.12717 30.9503 8.74564 31.0901 8.43209 31.3339C8.11349 31.5655 7.87541 31.871 7.71783 32.2502C7.56742 32.6122 7.51901 32.9963 7.57259 33.4025C7.62113 33.7965 7.78958 34.1694 8.07793 34.5214C8.36124 34.8612 8.77878 35.1455 9.33054 35.3743C9.87368 35.5996 10.37 35.6943 10.8195 35.6584C11.2726 35.6139 11.6584 35.4759 11.977 35.2442C12.2906 35.0004 12.5244 34.6932 12.6783 34.3226Z" fill="#FD4621"/><path d="M16.3996 29.4475C16.115 29.908 15.7735 30.2566 15.3749 30.4933C14.9813 30.7221 14.5349 30.8141 14.0358 30.7695C13.5417 30.717 13.0086 30.5144 12.4366 30.1616L8.83792 27.9423L9.45605 26.9419L12.9475 29.095C13.5433 29.4625 14.0731 29.6083 14.5369 29.5324C15.0007 29.4566 15.3797 29.1804 15.6741 28.704C15.8801 28.3705 15.9871 28.0198 15.995 27.6519C15.995 27.2791 15.8906 26.9241 15.682 26.5871C15.4703 26.2372 15.142 25.9251 14.6971 25.6508L11.4797 23.6666L12.0978 22.6662L18.1036 26.3699L17.5444 27.2751L16.4589 26.6879C16.7195 27.1008 16.8466 27.552 16.8404 28.0416C16.8261 28.5263 16.6792 28.9949 16.3996 29.4475Z" fill="#FD4621"/><path d="M18.4497 26.1612L13.0032 21.6753L13.6804 20.8547L14.7713 21.6443C14.6273 21.3202 14.5461 20.9933 14.5277 20.6638C14.5152 20.327 14.572 19.9868 14.6981 19.6433C14.8302 19.2927 15.0388 18.9445 15.3239 18.599L16.2749 19.3822L15.9987 19.717C15.8086 19.9473 15.6598 20.1936 15.5524 20.4558C15.4378 20.712 15.3806 20.9793 15.3808 21.2576C15.387 21.5287 15.4704 21.809 15.6309 22.0984C15.7901 22.3746 16.0427 22.6552 16.3885 22.94L19.1982 25.2541L18.4497 26.1612Z" fill="#FD4621"/><path d="M21.5424 22.5325L16.7545 17.3496L17.5367 16.6283L18.4138 17.4953C18.2809 17.0212 18.283 16.5559 18.4202 16.0993C18.558 15.6295 18.8225 15.2142 19.2136 14.8536C19.6184 14.4803 20.0444 14.2399 20.4914 14.1324C20.9321 14.018 21.3868 14.0495 21.8555 14.2267C22.3179 14.3971 22.7802 14.7325 23.2425 15.233L26.102 18.3283L25.2374 19.1255L22.4634 16.1227C21.9821 15.6017 21.5045 15.3184 21.0305 15.273C20.5634 15.2213 20.1206 15.3884 19.702 15.7743C19.4138 16.0401 19.223 16.3493 19.1296 16.7021C19.0298 17.048 19.0348 17.4179 19.1446 17.8118C19.2549 18.1925 19.4905 18.5782 19.8515 18.969L22.407 21.7353L21.5424 22.5325Z" fill="#FD4621"/><path d="M29.0409 16.6902C28.4906 17.0594 27.9164 17.2592 27.3183 17.2896C26.728 17.3148 26.159 17.1795 25.6116 16.8837C25.0589 16.5802 24.5769 16.1225 24.1655 15.5106C23.7489 14.8909 23.5033 14.2746 23.4286 13.6616C23.3616 13.0433 23.4553 12.4634 23.7098 11.9218C23.972 11.375 24.3821 10.9143 24.9401 10.5399C25.5136 10.1551 26.0839 9.95787 26.651 9.94827C27.2259 9.93346 27.7585 10.065 28.249 10.3428C28.7419 10.6078 29.1551 10.9881 29.4883 11.4838C29.5404 11.5613 29.5951 11.6426 29.6524 11.7278C29.7096 11.813 29.7708 11.9124 29.836 12.0261L25.0463 15.2399L24.5386 14.4847L28.3866 11.9027C28.0041 11.3838 27.5446 11.0852 27.0083 11.0067C26.4797 10.923 25.9674 11.0476 25.4714 11.3804C25.1381 11.6041 24.8802 11.8895 24.6976 12.2369C24.5175 12.5712 24.4411 12.9428 24.4685 13.3515C24.4907 13.7526 24.6475 14.1699 24.9391 14.6037L25.1578 14.929C25.4807 15.4093 25.8367 15.7548 26.2259 15.9657C26.6229 16.1715 27.0155 16.262 27.4039 16.2375C27.8 16.2077 28.1608 16.0837 28.4863 15.8652C28.8971 15.5896 29.1743 15.2743 29.3181 14.9194C29.4644 14.5515 29.4915 14.1736 29.3995 13.7857L30.3644 13.1383C30.5057 13.5493 30.5538 13.9722 30.5088 14.407C30.4637 14.8419 30.3215 15.2577 30.0821 15.6543C29.8452 16.0381 29.4981 16.3833 29.0409 16.6902Z" fill="#FD4621"/><path d="M33.6249 17.3953L33.542 13.1669L33.1743 13.3392L27.9987 8.83806L29.1523 8.29745L33.5221 12.2022L33.4118 6.30135L34.5147 5.7845L34.7405 16.8725L33.6249 17.3953Z" fill="#FD4621"/><path d="M41.615 11.2873C41.3874 11.3388 41.1797 11.3092 40.9919 11.1985C40.8112 11.0767 40.6962 10.9065 40.6467 10.6881C40.5972 10.4696 40.6288 10.2711 40.7415 10.0925C40.8612 9.90278 41.0348 9.78219 41.2624 9.73075C41.49 9.6793 41.6942 9.71449 41.8749 9.83632C42.0535 9.94904 42.1676 10.1146 42.2171 10.3331C42.2665 10.5516 42.236 10.7546 42.1254 10.9423C42.0127 11.1209 41.8425 11.2359 41.615 11.2873Z" fill="#FD4621"/></svg>