<svg xmlns="http://www.w3.org/2000/svg" width="47" height="36" viewBox="0 0 47 36" fill="none"><path d="M15.5072 35.2227H14.732V32.8967L15.5072 35.2227Z" stroke="#FD4621" stroke-width="1.3"/><path d="M8.85437 15.6814L8.90494 15.5608V15.4301V2.26189C8.90494 1.84702 9.22803 1.57187 9.55998 1.57187C9.67224 1.57187 9.78026 1.59888 9.88395 1.66307C9.88402 1.66311 9.88408 1.66315 9.88414 1.66319L16.3869 5.69978C16.387 5.69979 16.387 5.6998 16.387 5.69982C16.8079 5.96221 16.8175 6.61322 16.4031 6.88787L16.4025 6.88827L10.4925 10.8151L10.2022 11.0079V11.3565V35.2193H1.66676C1.22877 35.2193 0.866727 34.7259 1.07104 34.2431L1.07185 34.2411L8.85437 15.6814Z" stroke="#FD4621" stroke-width="1.3"/><path d="M21.3263 15.8878L21.3262 15.888C19.7836 17.6727 19.873 20.3257 21.5367 21.9975L20.0261 23.7719C20.0259 23.7721 20.0258 23.7723 20.0256 23.7724C17.4426 26.7907 19.7278 31.2708 23.6718 31.2708H29.7405V35.2178H20.6485L14.732 21.9218V15.5484H21.6198L21.3263 15.8878Z" stroke="#FD4621" stroke-width="1.3"/><path d="M45.1389 35.2183H39.2008V31.8609H44.4556L45.7462 34.522C45.7464 34.5223 45.7465 34.5226 45.7467 34.5229C45.8186 34.6733 45.7991 34.8253 45.7008 34.9592C45.5984 35.0988 45.4042 35.2183 45.1389 35.2183Z" stroke="#FD4621" stroke-width="1.3"/><path d="M33.2813 1.82168L33.2824 1.82034C33.4257 1.65222 33.6338 1.56406 33.8457 1.56406C34.0631 1.56406 34.2715 1.65291 34.4156 1.82137L34.4158 1.82151L41.3195 9.88579C41.686 10.3143 41.3993 11.0203 40.7554 11.0203H39.5599H38.1483L39.066 12.0928L44.0811 17.9539L44.0821 17.9551C44.4473 18.3797 44.1642 19.0883 43.517 19.0883H40.9407H39.5273L40.4472 20.1613L45.4647 26.0137C45.4652 26.0143 45.4657 26.0149 45.4662 26.0154C45.8278 26.447 45.5377 27.1528 44.8931 27.1528H35.2323H34.5823V27.8028V35.2161H33.1196V27.8028V27.1528H32.4696H22.8751C22.2372 27.1528 21.9439 26.455 22.3085 26.018C22.3088 26.0176 22.3092 26.0172 22.3095 26.0168L27.2756 20.1586L28.1829 19.0883H26.7798H24.1848C23.5361 19.0883 23.2505 18.38 23.6112 17.9527C23.6115 17.9524 23.6118 17.952 23.6121 17.9516L28.6309 12.0931L29.55 11.0203H28.1373H26.9464C26.2987 11.0203 26.0109 10.3169 26.3745 9.88415L33.2813 1.82168Z" stroke="#FD4621" stroke-width="1.3"/></svg>