<svg width="92" height="32" viewBox="0 0 92 32" fill="none" xmlns="http://www.w3.org/2000/svg">
<g clip-path="url(#clip0_8312_6275)">
<path d="M88.3591 19.3343L90.8891 21.0251C90.0679 22.2377 88.1039 24.3179 84.7084 24.3179C80.4918 24.3179 77.3516 21.0474 77.3516 16.887C77.3516 12.4596 80.5251 9.45605 84.3533 9.45605C88.2038 9.45605 90.0901 12.5263 90.7004 14.1838L91.0333 15.0292L81.1132 19.1452C81.8678 20.6358 83.044 21.3922 84.7084 21.3922C86.3729 21.3922 87.5269 20.5691 88.3591 19.3343ZM80.5806 16.6534L87.2051 13.8946C86.8389 12.9713 85.7515 12.315 84.4532 12.315C82.7999 12.315 80.5029 13.7833 80.5806 16.6534Z" fill="#FF302F"/>
<path d="M72.5703 1.88037H75.7661V23.6392H72.5703V1.88037Z" fill="#20B15A"/>
<path d="M67.5326 10.0344H70.6173V23.2499C70.6173 28.7341 67.3883 30.9923 63.5712 30.9923C59.976 30.9923 57.8122 28.5672 57.0022 26.5982L59.8317 25.4191C60.3422 26.6316 61.5738 28.0666 63.5712 28.0666C66.0235 28.0666 67.5326 26.5426 67.5326 23.6948V22.6269H67.4216C66.6893 23.5168 65.2911 24.3178 63.5157 24.3178C59.8095 24.3178 56.4141 21.0807 56.4141 16.9091C56.4141 12.7153 59.8095 9.44482 63.5157 9.44482C65.28 9.44482 66.6893 10.2346 67.4216 11.1023H67.5326V10.0344ZM67.7545 16.9091C67.7545 14.2838 66.0124 12.3705 63.7931 12.3705C61.5517 12.3705 59.6653 14.2838 59.6653 16.9091C59.6653 19.501 61.5517 21.381 63.7931 21.381C66.0124 21.3921 67.7545 19.501 67.7545 16.9091Z" fill="#3686F7"/>
<path d="M38.8716 16.8534C38.8716 21.1362 35.5427 24.2843 31.4592 24.2843C27.3758 24.2843 24.0469 21.1251 24.0469 16.8534C24.0469 12.5484 27.3758 9.41138 31.4592 9.41138C35.5427 9.41138 38.8716 12.5484 38.8716 16.8534ZM35.6314 16.8534C35.6314 14.1836 33.7007 12.3481 31.4592 12.3481C29.2178 12.3481 27.287 14.1836 27.287 16.8534C27.287 19.501 29.2178 21.3587 31.4592 21.3587C33.7007 21.3587 35.6314 19.501 35.6314 16.8534Z" fill="#FF302F"/>
<path d="M55.059 16.887C55.059 21.1698 51.7302 24.3179 47.6467 24.3179C43.5633 24.3179 40.2344 21.1698 40.2344 16.887C40.2344 12.5819 43.5633 9.45605 47.6467 9.45605C51.7302 9.45605 55.059 12.5708 55.059 16.887ZM51.8078 16.887C51.8078 14.2172 49.8771 12.3817 47.6356 12.3817C45.3942 12.3817 43.4634 14.2172 43.4634 16.887C43.4634 19.5345 45.3942 21.3922 47.6356 21.3922C49.8882 21.3922 51.8078 19.5234 51.8078 16.887Z" fill="#FFBA40"/>
<path d="M11.8616 21.0584C7.21226 21.0584 3.57267 17.2985 3.57267 12.6375C3.57267 7.97647 7.21226 4.21652 11.8616 4.21652C14.3694 4.21652 16.2003 5.20657 17.554 6.47472L19.7844 4.23877C17.898 2.42553 15.3791 1.04614 11.8616 1.04614C5.49233 1.04614 0.132812 6.25223 0.132812 12.6375C0.132812 19.0227 5.49233 24.2288 11.8616 24.2288C15.3015 24.2288 17.898 23.0942 19.9286 20.9806C22.0147 18.8892 22.6583 15.9525 22.6583 13.5719C22.6583 12.8266 22.5696 12.059 22.4697 11.4917H11.8616V14.5842H19.4182C19.1963 16.5198 18.586 17.8436 17.6872 18.7446C16.5997 19.8459 14.8798 21.0584 11.8616 21.0584Z" fill="#3686F7"/>
</g>
<defs>
<clipPath id="clip0_8312_6275">
<rect width="91.2" height="32" fill="white"/>
</clipPath>
</defs>
</svg>
