<svg width="130" height="32" viewBox="0 0 130 32" fill="none" xmlns="http://www.w3.org/2000/svg">
<g clip-path="url(#clip0_8146_2955)">
<path d="M34.1638 11.3413H47.3268V13.8028H42.1511V27.6404H39.3051V13.8028H34.1523V11.3413H34.1638ZM46.7645 15.8388H49.1974V18.1163H49.2433C49.3236 17.7942 49.4728 17.4837 49.6908 17.1846C49.9089 16.8855 50.1728 16.598 50.4827 16.3564C50.7925 16.1034 51.1368 15.9078 51.5155 15.7468C51.8942 15.5972 52.2844 15.5167 52.6746 15.5167C52.973 15.5167 53.191 15.5282 53.3058 15.5397C53.4205 15.5512 53.5353 15.5742 53.6615 15.5857V18.0933C53.4779 18.0588 53.2943 18.0358 53.0992 18.0128C52.9041 17.9898 52.7205 17.9783 52.5369 17.9783C52.1008 17.9783 51.6877 18.0703 51.2975 18.2428C50.9073 18.4154 50.5745 18.6799 50.2876 19.0135C50.0007 19.3586 49.7712 19.7727 49.599 20.2788C49.4269 20.7849 49.3466 21.36 49.3466 22.0156V27.6289H46.753V15.8388H46.7645ZM65.5851 27.6404H63.0374V25.9955H62.9915C62.6702 26.5936 62.1997 27.0652 61.5685 27.4218C60.9373 27.7784 60.2946 27.9624 59.6405 27.9624C58.0913 27.9624 56.9666 27.5829 56.278 26.8122C55.5895 26.0415 55.2452 24.8798 55.2452 23.3269V15.8388H57.8388V23.0739C57.8388 24.1091 58.0339 24.8453 58.4355 25.2709C58.8257 25.6964 59.388 25.915 60.0996 25.915C60.6504 25.915 61.098 25.8345 61.4652 25.6619C61.8324 25.4894 62.1308 25.2709 62.3488 24.9833C62.5784 24.7072 62.739 24.3622 62.8423 23.9711C62.9456 23.58 62.9915 23.1544 62.9915 22.6943V15.8503H65.5851V27.6404ZM70.0033 23.856C70.0837 24.6152 70.3706 25.1443 70.864 25.4549C71.369 25.754 71.9657 25.915 72.6658 25.915C72.9068 25.915 73.1822 25.892 73.492 25.8575C73.8019 25.823 74.1003 25.7425 74.3642 25.6389C74.6396 25.5354 74.8577 25.3744 75.0413 25.1673C75.2134 24.9603 75.2938 24.6957 75.2823 24.3622C75.2708 24.0286 75.1446 23.7525 74.9151 23.5455C74.6855 23.3269 74.3986 23.1659 74.0429 23.0279C73.6871 22.9013 73.2855 22.7863 72.8264 22.6943C72.3674 22.6023 71.9083 22.4987 71.4378 22.3952C70.9558 22.2917 70.4853 22.1537 70.0378 22.0041C69.5902 21.8546 69.1885 21.6476 68.8328 21.383C68.477 21.1299 68.1901 20.7964 67.9836 20.3938C67.7655 19.9912 67.6622 19.4966 67.6622 18.8985C67.6622 18.2543 67.8229 17.7252 68.1327 17.2881C68.4426 16.851 68.8443 16.5059 69.3148 16.2414C69.7968 15.9768 70.3247 15.7928 70.9099 15.6778C71.4952 15.5742 72.0575 15.5167 72.5854 15.5167C73.1937 15.5167 73.7789 15.5857 74.3298 15.7123C74.8806 15.8388 75.3856 16.0458 75.8331 16.3449C76.2807 16.6325 76.6479 17.012 76.9463 17.4721C77.2447 17.9323 77.4283 18.4959 77.5086 19.1515H74.8003C74.6741 18.5304 74.3986 18.1048 73.9511 17.8977C73.5035 17.6792 72.9871 17.5757 72.4133 17.5757C72.2297 17.5757 72.0116 17.5872 71.7592 17.6217C71.5067 17.6562 71.2772 17.7137 71.0476 17.7942C70.8296 17.8747 70.646 18.0013 70.4853 18.1623C70.3361 18.3233 70.2558 18.5304 70.2558 18.7949C70.2558 19.117 70.3706 19.3701 70.5886 19.5656C70.8066 19.7612 71.0935 19.9222 71.4493 20.0602C71.8051 20.1867 72.2067 20.3018 72.6658 20.3938C73.1248 20.4858 73.5953 20.5893 74.0773 20.6929C74.5478 20.7964 75.0069 20.9344 75.4659 21.0839C75.9249 21.2335 76.3266 21.4405 76.6824 21.7051C77.0381 21.9696 77.325 22.2917 77.5431 22.6828C77.7611 23.0739 77.8759 23.5685 77.8759 24.1436C77.8759 24.8453 77.7152 25.4319 77.3939 25.9265C77.0725 26.4096 76.6594 26.8122 76.1545 27.1113C75.6495 27.4103 75.0757 27.6404 74.456 27.7784C73.8363 27.9164 73.2166 27.9855 72.6084 27.9855C71.8624 27.9855 71.1739 27.9049 70.5427 27.7324C69.9115 27.5599 69.3607 27.3068 68.9016 26.9732C68.4426 26.6282 68.0754 26.2026 67.8114 25.6964C67.5475 25.1903 67.4098 24.5807 67.3868 23.8791H70.0033V23.856ZM78.5644 15.8388H80.5268V12.296H83.1204V15.8388H85.4615V17.7827H83.1204V24.0861C83.1204 24.3622 83.1319 24.5922 83.1548 24.7993C83.1778 24.9948 83.2351 25.1673 83.3155 25.3054C83.3958 25.4434 83.522 25.5469 83.6942 25.6159C83.8663 25.6849 84.0844 25.7195 84.3827 25.7195C84.5664 25.7195 84.75 25.7195 84.9336 25.708C85.1172 25.6964 85.3008 25.6734 85.4844 25.6274V27.6404C85.1975 27.6749 84.9106 27.6979 84.6467 27.7324C84.3713 27.7669 84.0958 27.7784 83.8089 27.7784C83.1204 27.7784 82.5695 27.7094 82.1564 27.5829C81.7433 27.4563 81.4105 27.2608 81.1809 27.0077C80.9399 26.7547 80.7908 26.4441 80.699 26.0645C80.6186 25.6849 80.5612 25.2479 80.5498 24.7647V17.8057H78.5874V15.8388H78.5644ZM87.2976 15.8388H89.7535V17.4376H89.7994C90.1666 16.7475 90.6716 16.2644 91.3257 15.9653C91.9798 15.6663 92.6799 15.5167 93.4488 15.5167C94.3783 15.5167 95.1817 15.6778 95.8702 16.0113C96.5588 16.3334 97.1326 16.782 97.5916 17.3571C98.0506 17.9323 98.3834 18.5994 98.613 19.3586C98.8425 20.1177 98.9572 20.9344 98.9572 21.7971C98.9572 22.5908 98.854 23.3614 98.6474 24.0976C98.4408 24.8453 98.131 25.5009 97.7178 26.076C97.3047 26.6512 96.7768 27.0998 96.1342 27.4448C95.4915 27.7899 94.7456 27.9624 93.8734 27.9624C93.4947 27.9624 93.116 27.9279 92.7373 27.8589C92.3586 27.7899 91.9913 27.6749 91.647 27.5254C91.3028 27.3758 90.97 27.1803 90.6831 26.9387C90.3847 26.6972 90.1437 26.4211 89.9371 26.1105H89.8912V31.9998H87.2976V15.8388ZM96.3637 21.7511C96.3637 21.222 96.2948 20.7044 96.1571 20.1982C96.0194 19.6921 95.8128 19.255 95.5374 18.864C95.262 18.4729 94.9177 18.1623 94.516 17.9323C94.1029 17.7022 93.6324 17.5757 93.1045 17.5757C92.0143 17.5757 91.188 17.9553 90.6372 18.7144C90.0863 19.4736 89.8109 20.4858 89.8109 21.7511C89.8109 22.3492 89.8797 22.9013 90.0289 23.4074C90.1781 23.9136 90.3847 24.3507 90.6831 24.7187C90.97 25.0868 91.3142 25.3744 91.7159 25.5814C92.1176 25.8 92.5881 25.9035 93.116 25.9035C93.7127 25.9035 94.2062 25.777 94.6193 25.5354C95.0325 25.2939 95.3653 24.9718 95.6292 24.5922C95.8932 24.2011 96.0882 23.764 96.203 23.2694C96.3063 22.7748 96.3637 22.2687 96.3637 21.7511ZM100.943 11.3413H103.536V13.8028H100.943V11.3413ZM100.943 15.8388H103.536V27.6404H100.943V15.8388ZM105.854 11.3413H108.448V27.6404H105.854V11.3413ZM116.401 27.9624C115.46 27.9624 114.622 27.8014 113.888 27.4908C113.153 27.1803 112.533 26.7432 112.017 26.2026C111.512 25.6504 111.122 24.9948 110.858 24.2356C110.594 23.4765 110.456 22.6368 110.456 21.7281C110.456 20.8309 110.594 20.0027 110.858 19.2435C111.122 18.4844 111.512 17.8287 112.017 17.2766C112.522 16.7245 113.153 16.2989 113.888 15.9883C114.622 15.6778 115.46 15.5167 116.401 15.5167C117.342 15.5167 118.18 15.6778 118.914 15.9883C119.648 16.2989 120.268 16.736 120.785 17.2766C121.29 17.8287 121.68 18.4844 121.944 19.2435C122.208 20.0027 122.345 20.8309 122.345 21.7281C122.345 22.6368 122.208 23.4765 121.944 24.2356C121.68 24.9948 121.29 25.6504 120.785 26.2026C120.28 26.7547 119.648 27.1803 118.914 27.4908C118.18 27.8014 117.342 27.9624 116.401 27.9624ZM116.401 25.9035C116.975 25.9035 117.479 25.777 117.904 25.5354C118.329 25.2939 118.673 24.9718 118.948 24.5807C119.224 24.1896 119.419 23.741 119.557 23.2464C119.683 22.7518 119.752 22.2457 119.752 21.7281C119.752 21.222 119.683 20.7274 119.557 20.2213C119.43 19.7151 119.224 19.278 118.948 18.887C118.673 18.4959 118.329 18.1853 117.904 17.9438C117.479 17.7022 116.975 17.5757 116.401 17.5757C115.827 17.5757 115.322 17.7022 114.897 17.9438C114.473 18.1853 114.129 18.5074 113.853 18.887C113.578 19.278 113.383 19.7151 113.245 20.2213C113.119 20.7274 113.05 21.222 113.05 21.7281C113.05 22.2457 113.119 22.7518 113.245 23.2464C113.371 23.741 113.578 24.1896 113.853 24.5807C114.129 24.9718 114.473 25.2939 114.897 25.5354C115.322 25.7885 115.827 25.9035 116.401 25.9035ZM123.103 15.8388H125.065V12.296H127.659V15.8388H130V17.7827H127.659V24.0861C127.659 24.3622 127.67 24.5922 127.693 24.7993C127.716 24.9948 127.773 25.1673 127.854 25.3054C127.934 25.4434 128.06 25.5469 128.232 25.6159C128.405 25.6849 128.623 25.7195 128.921 25.7195C129.105 25.7195 129.288 25.7195 129.472 25.708C129.656 25.6964 129.839 25.6734 130.023 25.6274V27.6404C129.736 27.6749 129.449 27.6979 129.185 27.7324C128.91 27.7669 128.634 27.7784 128.347 27.7784C127.659 27.7784 127.108 27.7094 126.695 27.5829C126.282 27.4563 125.949 27.2608 125.719 27.0077C125.478 26.7547 125.329 26.4441 125.237 26.0645C125.157 25.6849 125.1 25.2479 125.088 24.7647V17.8057H123.126V15.8388H123.103Z" fill="#191919"/>
<path d="M31.1343 11.3415H19.2452L15.5729 0L11.8891 11.3415L0 11.33L9.62835 18.3465L5.94456 29.6765L15.5729 22.6715L25.1898 29.6765L21.5175 18.3465L31.1343 11.3415Z" fill="#00B67A"/>
<path d="M22.3451 20.9117L21.5188 18.3467L15.5742 22.6716L22.3451 20.9117Z" fill="#005128"/>
</g>
<defs>
<clipPath id="clip0_8146_2955">
<rect width="130" height="32" fill="white"/>
</clipPath>
</defs>
</svg>
