<svg width="30" height="30" viewBox="0 0 30 30" fill="none" xmlns="http://www.w3.org/2000/svg">
<path d="M15 30C23.2706 30 30 23.2706 30 15C30 6.72938 23.2706 0 15 0C6.72938 0 0 6.72938 0 15C0 23.2706 6.72938 30 15 30ZM15 0.9375C22.7541 0.9375 29.0625 7.24594 29.0625 15C29.0625 22.7541 22.7541 29.0625 15 29.0625C7.24594 29.0625 0.9375 22.7541 0.9375 15C0.9375 7.24594 7.24594 0.9375 15 0.9375Z" fill="#FD4621"/>
<path d="M10.0636 12.794C10.5389 12.9487 11.033 12.8774 11.4989 12.5859C11.7174 12.449 11.7849 12.1593 11.6471 11.9399C11.5102 11.7215 11.2214 11.654 11.0011 11.7918C10.7752 11.9324 10.5577 11.9681 10.3561 11.9034C10.1414 11.8331 9.93894 11.6521 9.76925 11.3803C9.61737 11.1384 9.56862 10.8515 9.63237 10.5731C9.69706 10.2937 9.86581 10.0574 10.1086 9.90557C10.688 9.53995 11.4417 9.74901 11.9302 10.1156C12.7561 10.7334 13.1255 11.8078 13.1255 13.5946C13.1255 16.2328 11.9255 19.5131 9.63144 20.6765C9.40081 20.7937 9.308 21.0759 9.42519 21.3074C9.50956 21.4696 9.67362 21.5634 9.84425 21.5634C9.9155 21.5634 9.98769 21.5465 10.0571 21.5128C12.8086 20.1168 14.063 16.4287 14.063 13.5946C14.063 11.5115 13.5642 10.1681 12.4927 9.36463C11.6002 8.69245 10.4414 8.59213 9.61175 9.11057C9.15706 9.39463 8.84019 9.83901 8.72019 10.3621C8.59925 10.8853 8.69019 11.4234 8.97425 11.8771C9.26206 12.3365 9.638 12.6534 10.0636 12.794Z" fill="#FD4621"/>
<path d="M17.5636 12.794C18.038 12.9487 18.533 12.8774 18.9989 12.5859C19.2174 12.449 19.2849 12.1593 19.1471 11.9399C19.0102 11.7215 18.7214 11.654 18.5011 11.7918C18.2761 11.9324 18.0577 11.9681 17.8561 11.9034C17.6414 11.8331 17.4389 11.6521 17.2692 11.3803C17.1174 11.1384 17.0686 10.8515 17.1324 10.5731C17.1971 10.2937 17.3658 10.0574 17.6086 9.90557C18.1889 9.53995 18.9427 9.74901 19.4302 10.1156C20.2561 10.7334 20.6255 11.8078 20.6255 13.5946C20.6255 16.2328 19.4255 19.5131 17.1314 20.6765C16.9008 20.7937 16.808 21.0759 16.9252 21.3074C17.0096 21.4696 17.1736 21.5634 17.3442 21.5634C17.4155 21.5634 17.4877 21.5465 17.5571 21.5128C20.3086 20.1168 21.563 16.4287 21.563 13.5946C21.563 11.5115 21.0642 10.1681 19.9927 9.36463C19.1002 8.69245 17.9414 8.59213 17.1117 9.11057C16.6571 9.39463 16.3402 9.83901 16.2202 10.3621C16.0992 10.8853 16.1902 11.4234 16.4742 11.8771C16.7621 12.3365 17.138 12.6534 17.5636 12.794Z" fill="#FD4621"/>
</svg>
