<svg width="270" height="18" viewBox="0 0 270 18" fill="none" xmlns="http://www.w3.org/2000/svg">
<g clip-path="url(#clip0_8217_4357)">
<path d="M3.1334 5.66763V7.77483H6.5364V9.61157H3.1334V11.8479H6.9643V13.7977H0.699219V3.72998H6.96834V5.66763H3.1334Z" fill="#111111"/>
<path d="M13.3178 13.8018L11.695 11.5371L10.3709 13.8018H7.69454L10.3306 9.65598L7.59766 5.85333H10.3306L11.9412 8.08971L13.2653 5.85333H15.9417L13.2491 9.89819L16.0547 13.8018H13.3218H13.3178Z" fill="#111111"/>
<path d="M23.1307 6.60012C23.8251 7.16527 24.261 7.94033 24.4427 8.92934H21.8632C21.7865 8.58622 21.6291 8.32383 21.3909 8.13006C21.1527 7.93629 20.854 7.84345 20.4947 7.84345C20.0668 7.84345 19.7156 8.01299 19.4411 8.34805C19.1666 8.6831 19.0294 9.17559 19.0294 9.82147C19.0294 10.4674 19.1666 10.9598 19.4411 11.2949C19.7156 11.6299 20.0668 11.7995 20.4947 11.7995C20.854 11.7995 21.1527 11.7066 21.3909 11.5129C21.6291 11.3191 21.7865 11.0567 21.8632 10.7136H24.4427C24.261 11.7026 23.8251 12.4777 23.1307 13.0428C22.4364 13.608 21.5766 13.8905 20.5512 13.8905C19.7721 13.8905 19.0818 13.725 18.4804 13.3981C17.8789 13.0711 17.4066 12.5988 17.0635 11.9811C16.7203 11.3635 16.5508 10.6409 16.5508 9.81743C16.5508 8.99393 16.7203 8.25924 17.0554 7.64565C17.3904 7.03206 17.8627 6.56379 18.4723 6.23681C19.0778 5.90983 19.7721 5.74432 20.5512 5.74432C21.5766 5.74432 22.4364 6.0269 23.1307 6.59205V6.60012Z" fill="#111111"/>
<path d="M33.1888 10.2656H27.6745C27.7028 10.863 27.8562 11.2949 28.1307 11.5533C28.4052 11.8157 28.7564 11.9449 29.1843 11.9449C29.5436 11.9449 29.8423 11.8561 30.0805 11.6744C30.3186 11.4927 30.4761 11.2626 30.5487 10.976H33.1282C33.0233 11.5371 32.7972 12.0377 32.446 12.4777C32.0948 12.9177 31.6467 13.2649 31.1058 13.5192C30.5649 13.7695 29.9594 13.8987 29.2973 13.8987C28.5182 13.8987 27.8279 13.7332 27.2265 13.4062C26.625 13.0792 26.1527 12.6069 25.8095 11.9893C25.4664 11.3716 25.2969 10.6491 25.2969 9.82555C25.2969 9.00205 25.4664 8.26735 25.8015 7.65376C26.1365 7.04017 26.6088 6.57191 27.2184 6.24493C27.8239 5.91795 28.5182 5.75244 29.2973 5.75244C30.0764 5.75244 30.7788 5.91391 31.3763 6.23685C31.9737 6.5598 32.4379 7.01192 32.7649 7.59725C33.0919 8.18258 33.2574 8.85269 33.2574 9.6116C33.2574 9.8094 33.2332 10.0314 33.1847 10.2656H33.1888ZM30.3751 8.06552C30.0845 7.80313 29.7252 7.67395 29.3014 7.67395C28.8775 7.67395 28.4859 7.80716 28.1912 8.07359C27.8966 8.34002 27.7311 8.72755 27.6907 9.24022H30.795C30.803 8.71947 30.6658 8.32791 30.3751 8.06552Z" fill="#111111"/>
<path d="M36.9654 3.25769V13.7977H34.5312V3.25769H36.9654Z" fill="#111111"/>
<path d="M41.0787 3.25769V13.7977H38.6445V3.25769H41.0787Z" fill="#111111"/>
<path d="M50.2396 10.2656H44.7253C44.7536 10.863 44.907 11.2949 45.1815 11.5533C45.456 11.8157 45.8072 11.9449 46.2351 11.9449C46.5943 11.9449 46.8931 11.8561 47.1312 11.6744C47.3694 11.4927 47.5268 11.2626 47.5995 10.976H50.179C50.0741 11.5371 49.848 12.0377 49.4968 12.4777C49.1456 12.9177 48.6975 13.2649 48.1566 13.5192C47.6157 13.7695 47.0101 13.8987 46.3481 13.8987C45.569 13.8987 44.8787 13.7332 44.2772 13.4062C43.6758 13.0792 43.2035 12.6069 42.8603 11.9893C42.5172 11.3716 42.3477 10.6491 42.3477 9.82555C42.3477 9.00205 42.5172 8.26735 42.8523 7.65376C43.1873 7.04017 43.6596 6.57191 44.2692 6.24493C44.8747 5.91795 45.569 5.75244 46.3481 5.75244C47.1272 5.75244 47.8296 5.91391 48.427 6.23685C49.0245 6.5598 49.4887 7.01192 49.8157 7.59725C50.1427 8.18258 50.3082 8.85269 50.3082 9.6116C50.3082 9.8094 50.284 10.0314 50.2355 10.2656H50.2396ZM47.4259 8.06552C47.1353 7.80313 46.776 7.67395 46.3521 7.67395C45.9283 7.67395 45.5367 7.80716 45.242 8.07359C44.9473 8.34002 44.7818 8.72755 44.7415 9.24022H47.8457C47.8538 8.71947 47.7166 8.32791 47.4259 8.06552Z" fill="#111111"/>
<path d="M58.7919 6.67683C59.3287 7.28638 59.5952 8.122 59.5952 9.18367V13.7977H57.161V9.46624C57.161 8.93339 57.0197 8.5176 56.7412 8.21888C56.4626 7.92016 56.0872 7.7708 55.623 7.7708C55.1305 7.7708 54.7389 7.92823 54.4483 8.2431C54.1576 8.55797 54.0123 9.00201 54.0123 9.58331V13.8017H51.5781V5.85333H54.0123V7.30657C54.2384 6.83023 54.5815 6.45481 55.0296 6.18031C55.4817 5.90581 56.0105 5.76855 56.616 5.76855C57.5283 5.76855 58.2509 6.07131 58.7878 6.68087L58.7919 6.67683Z" fill="#111111"/>
<path d="M65.7083 11.7067V13.8017H64.6103C63.6778 13.8017 62.9553 13.5716 62.4386 13.1114C61.9218 12.6513 61.6635 11.8883 61.6635 10.8266V7.90804H60.5938V5.85736H61.6635V3.90759H64.0977V5.85736H65.6922V7.90804H64.0977V10.871C64.0977 11.1859 64.1623 11.4039 64.2914 11.525C64.4206 11.6461 64.6346 11.7107 64.9414 11.7107H65.7124L65.7083 11.7067Z" fill="#111111"/>
<path d="M91.668 0H73.668V18H91.668V0Z" fill="#00B67A"/>
<path d="M111.164 0H93.1641V18H111.164V0Z" fill="#00B67A"/>
<path d="M130.668 0H112.668V18H130.668V0Z" fill="#00B67A"/>
<path d="M150.164 0H132.164V18H150.164V0Z" fill="#00B67A"/>
<path d="M169.662 0H160.664V18H169.662V0Z" fill="#DCDCE6"/>
<path d="M169.668 0H151.668V18H169.668V0Z" fill="#00B67A"/>
<path d="M82.6647 12.1305L85.4016 11.4362L86.544 14.9603L82.6647 12.1305ZM88.9661 7.57701H84.1462L82.6647 3.03967L81.1832 7.57701H76.3633L80.2628 10.3906L78.7813 14.928L82.6808 12.1144L85.0827 10.3906L88.9621 7.57701H88.9661Z" fill="white"/>
<path d="M102.169 12.1305L104.906 11.4362L106.048 14.9603L102.169 12.1305ZM108.466 7.57701H103.646L102.165 3.03967L100.683 7.57701H95.8633L99.7628 10.3906L98.2813 14.928L102.181 12.1144L104.583 10.3906L108.462 7.57701H108.466Z" fill="white"/>
<path d="M121.665 12.1305L124.402 11.4362L125.544 14.9603L121.665 12.1305ZM127.966 7.57701H123.146L121.665 3.03967L120.183 7.57701H115.363L119.263 10.3906L117.781 14.928L121.681 12.1144L124.083 10.3906L127.962 7.57701H127.966Z" fill="white"/>
<path d="M141.169 12.1305L143.906 11.4362L145.048 14.9603L141.169 12.1305ZM147.466 7.57701H142.646L141.165 3.03967L139.683 7.57701H134.863L138.763 10.3906L137.281 14.928L141.181 12.1144L143.583 10.3906L147.462 7.57701H147.466Z" fill="white"/>
<path d="M160.665 12.1305L163.402 11.4362L164.544 14.9603L160.665 12.1305ZM166.966 7.57701H162.146L160.665 3.03967L159.183 7.57701H154.363L158.263 10.3906L156.781 14.928L160.681 12.1144L163.083 10.3906L166.962 7.57701H166.966Z" fill="white"/>
<path d="M215.817 6.37811H223.236V7.76273H220.318V15.5456H218.715V7.76273H215.809V6.37811H215.817ZM222.921 8.90917H224.294V10.1888H224.318C224.363 10.0072 224.447 9.8336 224.572 9.66405C224.698 9.49451 224.843 9.33304 225.021 9.19982C225.194 9.05853 225.388 8.9455 225.602 8.8567C225.816 8.77192 226.034 8.72752 226.256 8.72752C226.425 8.72752 226.546 8.73559 226.611 8.73963C226.676 8.7477 226.74 8.75981 226.813 8.76385V10.1727C226.708 10.1525 226.607 10.1404 226.494 10.1283C226.385 10.1162 226.28 10.1081 226.175 10.1081C225.929 10.1081 225.695 10.1606 225.477 10.2575C225.259 10.3543 225.069 10.5037 224.908 10.6894C224.746 10.8832 224.617 11.1173 224.52 11.3999C224.423 11.6865 224.379 12.0094 224.379 12.3768V15.5335H222.917V8.9011H222.925L222.921 8.90917ZM233.53 15.5497H232.093V14.6253H232.069C231.887 14.9603 231.621 15.2267 231.265 15.4286C230.91 15.6304 230.547 15.7313 230.18 15.7313C229.308 15.7313 228.674 15.5174 228.282 15.0854C227.891 14.6535 227.701 13.9996 227.701 13.1236V8.91321H229.162V12.9823C229.162 13.5636 229.271 13.9794 229.497 14.2175C229.715 14.4557 230.034 14.5808 230.434 14.5808C230.745 14.5808 230.995 14.5364 231.205 14.4396C231.415 14.3427 231.58 14.2216 231.701 14.0561C231.831 13.9027 231.919 13.7049 231.98 13.4869C232.036 13.2689 232.065 13.0267 232.065 12.7683V8.91725H233.526V15.5497H233.53ZM236.021 13.4183C236.065 13.8462 236.227 14.1449 236.505 14.3185C236.792 14.488 237.127 14.5768 237.522 14.5768C237.66 14.5768 237.813 14.5647 237.987 14.5445C238.16 14.5243 238.33 14.4799 238.479 14.4234C238.633 14.3669 238.758 14.2741 238.863 14.157C238.96 14.0399 239.004 13.8906 239 13.7049C238.992 13.5192 238.923 13.3617 238.794 13.2447C238.665 13.1236 238.503 13.0307 238.302 12.954C238.1 12.8814 237.874 12.8168 237.615 12.7683C237.357 12.7159 237.099 12.6593 236.832 12.5988C236.562 12.5423 236.295 12.4615 236.041 12.3808C235.787 12.296 235.561 12.179 235.363 12.0296C235.161 11.8883 234.999 11.6986 234.882 11.4725C234.761 11.2465 234.701 10.9679 234.701 10.6329C234.701 10.2696 234.79 9.97488 234.967 9.72864C235.141 9.4824 235.367 9.28863 235.633 9.13927C235.904 8.98991 236.202 8.88495 236.533 8.82036C236.864 8.76385 237.179 8.73155 237.478 8.73155C237.821 8.73155 238.152 8.77192 238.463 8.84055C238.774 8.91321 239.056 9.02624 239.311 9.19579C239.565 9.35726 239.771 9.57121 239.936 9.82956C240.106 10.0879 240.207 10.4068 240.255 10.7742H238.729C238.657 10.423 238.503 10.1848 238.249 10.0677C237.995 9.94663 237.704 9.88607 237.381 9.88607C237.276 9.88607 237.155 9.89415 237.014 9.91029C236.873 9.93048 236.743 9.96277 236.614 10.0072C236.493 10.0516 236.388 10.1242 236.295 10.2131C236.21 10.3019 236.166 10.4189 236.166 10.5683C236.166 10.7499 236.231 10.8912 236.352 11.0002C236.473 11.1092 236.638 11.2021 236.836 11.2788C237.038 11.3514 237.264 11.416 237.522 11.4645C237.781 11.5169 238.047 11.5734 238.318 11.634C238.584 11.6905 238.842 11.7713 239.101 11.852C239.359 11.9368 239.585 12.0538 239.787 12.2032C239.989 12.3525 240.15 12.5342 240.271 12.7522C240.393 12.9702 240.457 13.2487 240.457 13.5757C240.457 13.9713 240.368 14.3023 240.187 14.5768C240.005 14.8473 239.771 15.0733 239.488 15.2429C239.202 15.4124 238.879 15.5416 238.532 15.6183C238.18 15.695 237.833 15.7354 237.49 15.7354C237.07 15.7354 236.683 15.691 236.324 15.5941C235.964 15.4972 235.657 15.3559 235.399 15.1662C235.141 14.9724 234.935 14.7342 234.785 14.4476C234.636 14.161 234.559 13.8219 234.547 13.4263H236.021V13.4142V13.4183ZM240.849 8.90917H241.955V6.915H243.416V8.90917H244.736V10.0031H243.416V13.5474C243.416 13.7008 243.424 13.834 243.436 13.9471C243.448 14.0561 243.481 14.153 243.525 14.2337C243.57 14.3144 243.642 14.3709 243.739 14.4073C243.836 14.4476 243.957 14.4638 244.127 14.4638C244.232 14.4638 244.332 14.4638 244.437 14.4557C244.542 14.4476 244.643 14.4355 244.748 14.4113V15.5416C244.587 15.5618 244.425 15.5739 244.276 15.5941C244.123 15.6143 243.965 15.6183 243.804 15.6183C243.416 15.6183 243.105 15.5779 242.871 15.5093C242.637 15.4366 242.451 15.3277 242.322 15.1864C242.185 15.0451 242.104 14.8675 242.052 14.6575C242.007 14.4436 241.975 14.1974 241.967 13.9269V10.0112H240.861V8.90514H240.849V8.90917ZM245.774 8.90917H247.158V9.80938H247.182C247.388 9.42184 247.675 9.15138 248.042 8.98184C248.41 8.81229 248.805 8.72752 249.241 8.72752C249.766 8.72752 250.218 8.81633 250.606 9.00606C250.993 9.18771 251.316 9.43799 251.574 9.76497C251.833 10.092 252.023 10.4633 252.152 10.8912C252.281 11.3191 252.345 11.7793 252.345 12.2637C252.345 12.7118 252.289 13.1438 252.172 13.5595C252.055 13.9794 251.881 14.3508 251.647 14.6737C251.413 14.9966 251.118 15.251 250.755 15.4447C250.392 15.6385 249.972 15.7354 249.479 15.7354C249.265 15.7354 249.051 15.7152 248.838 15.6789C248.624 15.6385 248.418 15.5739 248.224 15.4932C248.03 15.4084 247.84 15.2994 247.679 15.1621C247.509 15.0249 247.376 14.8715 247.259 14.6979H247.235V18.0121H245.774V8.92128V8.90917ZM250.884 12.2355C250.884 11.9368 250.844 11.6461 250.767 11.3635C250.69 11.081 250.573 10.8347 250.416 10.6127C250.263 10.3947 250.065 10.2171 249.839 10.0879C249.605 9.95874 249.342 9.88607 249.043 9.88607C248.43 9.88607 247.962 10.1 247.651 10.5279C247.34 10.9558 247.186 11.525 247.186 12.2355C247.186 12.5705 247.227 12.8814 247.308 13.168C247.392 13.4546 247.509 13.6968 247.675 13.9067C247.836 14.1126 248.03 14.2741 248.256 14.3911C248.482 14.5122 248.749 14.5728 249.047 14.5728C249.382 14.5728 249.661 14.5001 249.895 14.3669C250.129 14.2296 250.315 14.048 250.464 13.8381C250.614 13.6201 250.723 13.3739 250.787 13.0953C250.844 12.8168 250.876 12.5342 250.876 12.2395L250.884 12.2355ZM253.464 6.37811H254.925V7.76273H253.464V6.37811ZM253.464 8.90917H254.925V15.5456H253.464V8.90917ZM256.233 6.37811H257.694V15.5456H256.233V6.37811ZM262.179 15.7273C261.65 15.7273 261.178 15.6385 260.762 15.4609C260.346 15.2873 259.999 15.041 259.709 14.7342C259.422 14.4234 259.204 14.0561 259.055 13.6282C258.905 13.2003 258.829 12.728 258.829 12.2193C258.829 11.7107 258.905 11.2505 259.055 10.8226C259.204 10.3947 259.422 10.0274 259.709 9.71653C259.995 9.4057 260.35 9.16753 260.762 8.98991C261.178 8.81633 261.65 8.72348 262.179 8.72348C262.708 8.72348 263.18 8.81229 263.596 8.98991C264.012 9.16349 264.359 9.40973 264.65 9.71653C264.936 10.0274 265.154 10.3947 265.304 10.8226C265.453 11.2505 265.53 11.7147 265.53 12.2193C265.53 12.7239 265.453 13.2043 265.304 13.6282C265.154 14.052 264.936 14.4234 264.65 14.7342C264.363 15.0451 264.008 15.2832 263.596 15.4609C263.18 15.6344 262.708 15.7273 262.179 15.7273ZM262.179 14.5728C262.502 14.5728 262.789 14.5001 263.027 14.3669C263.265 14.2296 263.459 14.048 263.616 13.83C263.77 13.612 263.883 13.3577 263.959 13.0792C264.032 12.8006 264.068 12.5181 264.068 12.2234C264.068 11.9287 264.028 11.6623 263.959 11.3756C263.887 11.089 263.774 10.8468 263.616 10.6248C263.463 10.4068 263.265 10.2292 263.027 10.096C262.789 9.95874 262.502 9.89011 262.179 9.89011C261.856 9.89011 261.57 9.96277 261.331 10.096C261.093 10.2332 260.899 10.4149 260.742 10.6248C260.589 10.8428 260.476 11.089 260.399 11.3756C260.326 11.6623 260.29 11.9368 260.29 12.2234C260.29 12.51 260.33 12.8006 260.399 13.0792C260.472 13.3577 260.585 13.608 260.742 13.83C260.895 14.048 261.093 14.2296 261.331 14.3669C261.57 14.5082 261.856 14.5728 262.179 14.5728ZM265.958 8.90917H267.064V6.915H268.525V8.90917H269.845V10.0031H268.525V13.5474C268.525 13.7008 268.533 13.834 268.545 13.9471C268.557 14.0561 268.589 14.153 268.634 14.2337C268.678 14.3104 268.751 14.3709 268.848 14.4073C268.945 14.4476 269.066 14.4638 269.235 14.4638C269.34 14.4638 269.441 14.4638 269.546 14.4557C269.651 14.4476 269.752 14.4355 269.857 14.4113V15.5416C269.696 15.5618 269.534 15.5739 269.385 15.5941C269.231 15.6143 269.074 15.6183 268.912 15.6183C268.525 15.6183 268.214 15.5779 267.98 15.5093C267.746 15.4366 267.56 15.3277 267.431 15.1864C267.294 15.0451 267.213 14.8675 267.16 14.6575C267.116 14.4436 267.084 14.1974 267.076 13.9269V10.0112H265.97V8.90514H265.958V8.90917Z" fill="#111111"/>
<path d="M214.111 6.37811H207.406L205.335 0L203.26 6.37811L196.555 6.37407L201.984 10.322L199.905 16.6921L205.335 12.7522L210.756 16.6921L208.685 10.322L214.111 6.37811Z" fill="#00B67A"/>
<path d="M209.155 11.7632L208.686 10.322L205.336 12.7522L209.155 11.7632Z" fill="#005128"/>
<path d="M175.5 11.5775V10.2534L179.319 5.11053H181.026V10.1969H182.068V11.5775H181.026V13.1841H179.42V11.5775H175.496H175.5ZM179.545 6.97956L177.127 10.2009H179.545V6.97956Z" fill="#111111"/>
<path d="M184.474 11.521V13.1841H182.754V11.521H184.474Z" fill="#111111"/>
<path d="M188.248 11.9852C188.777 11.9852 189.156 11.7551 189.39 11.2909C189.625 10.8266 189.725 10.1041 189.697 9.11505C189.576 9.47836 189.342 9.76497 188.991 9.97892C188.64 10.1929 188.232 10.3019 187.764 10.3019C186.997 10.3019 186.391 10.0718 185.951 9.60754C185.511 9.14331 185.289 8.48531 185.289 7.63355C185.289 7.11281 185.394 6.64858 185.604 6.23683C185.814 5.82508 186.129 5.50213 186.549 5.27204C186.968 5.0379 187.473 4.92084 188.07 4.92084C189.229 4.92084 190.028 5.27204 190.468 5.97847C190.904 6.68491 191.122 7.66181 191.122 8.91321C191.122 10.3382 190.9 11.4201 190.46 12.1588C190.02 12.8975 189.281 13.2649 188.252 13.2649C187.703 13.2649 187.231 13.1559 186.835 12.9379C186.44 12.7199 186.133 12.4252 185.919 12.0498C185.705 11.6784 185.576 11.2626 185.539 10.8105H187.033C187.154 11.5936 187.562 11.9852 188.252 11.9852H188.248ZM189.193 6.70106C188.946 6.42656 188.587 6.28931 188.115 6.28931C187.707 6.28931 187.384 6.41041 187.142 6.65262C186.9 6.89482 186.779 7.22988 186.779 7.65777C186.779 8.10989 186.9 8.45706 187.146 8.7033C187.392 8.94954 187.719 9.07065 188.135 9.07065C188.518 9.07065 188.854 8.95762 189.136 8.72752C189.419 8.49742 189.56 8.17045 189.56 7.75062C189.56 7.3308 189.439 6.9796 189.193 6.70509V6.70106Z" fill="#111111"/>
</g>
<defs>
<clipPath id="clip0_8217_4357">
<rect width="269.851" height="18" fill="white"/>
</clipPath>
</defs>
</svg>
