<svg width="129" height="15" viewBox="0 0 129 15" fill="none" xmlns="http://www.w3.org/2000/svg">
<path d="M21.7715 3.46729C24.1237 0.695439 27.4346 -0.0398678 30.2666 1.65576C31.4331 2.35423 32.3559 3.45915 33.168 4.604C33.5771 5.18088 33.9731 5.78989 34.3604 6.38037C34.7511 6.97619 35.1355 7.55686 35.5361 8.10303L35.7197 8.34521C36.6452 9.52255 37.6931 10.2388 38.7178 10.5034C39.7888 10.7799 40.9079 10.5844 41.9727 9.78369L42.1318 9.65771C42.9239 9.00669 43.6274 8.02631 44.3662 6.89014C45.1255 5.72248 45.9281 4.37836 46.8486 3.32959L47.0547 3.10303C49.2018 0.815888 52.0053 0.182351 54.5557 1.30811C55.7421 1.83216 56.705 2.77841 57.543 3.82861C58.3786 4.8759 59.1532 6.11096 59.9072 7.24658C60.9066 8.75163 61.9797 9.77465 63.0566 10.269C64.0322 10.7169 65.0513 10.7523 66.1348 10.2515L66.3525 10.144C67.2262 9.68514 67.9996 8.7914 68.8008 7.63721C69.1968 7.06672 69.5783 6.46551 69.9805 5.84717C70.3776 5.23657 70.7907 4.61534 71.2305 4.0415C73.2206 1.4449 75.7435 0.345999 78.4072 0.95166L78.6582 1.01514C79.8959 1.36087 80.9262 2.12817 81.8281 3.07861C82.7861 4.08814 83.6447 5.35295 84.4805 6.64795C85.4428 8.13814 86.4116 9.25598 87.416 9.91553C88.3909 10.5555 89.3982 10.7667 90.5303 10.4565C91.5118 10.1874 92.3605 9.42525 93.2305 8.30225C93.6601 7.7476 94.0759 7.13151 94.5068 6.48096C94.933 5.83762 95.3759 5.15713 95.8428 4.50928L96.2041 4.03076C98.0358 1.71078 100.262 0.502501 102.785 0.841309C105.343 1.18512 107.225 3.23156 108.854 5.72607C109.852 7.25607 110.742 8.52499 111.703 9.39209C112.638 10.2356 113.592 10.6569 114.745 10.5728C115.763 10.4981 116.649 9.95653 117.537 9.02197C118.437 8.07584 119.26 6.81485 120.183 5.41943C122.017 2.64476 124.106 0.876549 126.875 0.786621L126.876 0.785645C127.483 0.76579 127.85 1.18011 128.02 1.51514C128.188 1.84843 128.25 2.23982 128.25 2.58447C128.25 2.93072 128.187 3.32064 128.022 3.65479C127.871 3.96251 127.559 4.35147 127.032 4.41455L126.925 4.42236C125.643 4.46482 124.637 5.11631 123.631 6.23193C122.592 7.38449 121.692 8.8629 120.513 10.4976C118.368 13.4692 115.597 14.8444 112.604 13.9624V13.9614C111.169 13.5375 110.036 12.5206 109.065 11.3511C108.1 10.1882 107.209 8.76492 106.33 7.46729C105.266 5.89722 104.04 4.90632 102.844 4.54346C101.762 4.21536 100.624 4.37364 99.501 5.22803L99.2764 5.40869C98.4051 6.14516 97.6544 7.2564 96.8496 8.51025C96.1212 9.64513 95.345 10.9029 94.4346 11.8901L94.251 12.0845C92.0469 14.3361 89.11 14.8599 86.5732 13.5347C85.3958 12.9193 84.4542 11.8946 83.6309 10.7954C82.8243 9.71861 82.0272 8.41717 81.2715 7.32373C80.2962 5.91254 79.2066 5.00673 78.1299 4.61572C77.0822 4.23539 75.9846 4.31678 74.875 4.99854L74.876 4.99951C74.0108 5.53188 73.2489 6.4858 72.4551 7.66748C71.6978 8.79487 70.8908 10.1656 70.0146 11.2544C67.939 13.8365 65.2265 14.776 62.5703 13.9302L62.3135 13.8423C61.088 13.3989 60.0865 12.5068 59.2188 11.4819C58.3517 10.4579 57.5618 9.2316 56.7969 8.06006V8.05908C55.8325 6.5807 54.8379 5.51868 53.8203 4.93311C52.8351 4.36627 51.8095 4.23231 50.6719 4.63818H50.6709C49.7107 4.98047 48.8751 5.81737 48.0127 6.98877C47.5875 7.56642 47.1771 8.1954 46.748 8.84912C46.4297 9.33425 46.1011 9.83221 45.7588 10.3159L45.4121 10.7935C43.4544 13.4076 40.9727 14.6301 38.291 14.0991H38.29C36.962 13.8347 35.8537 13.0986 34.8848 12.1353C33.9209 11.1769 33.0589 9.95785 32.2275 8.6665V8.66553C31.2775 7.1878 30.372 6.04231 29.4189 5.31299C28.4927 4.60419 27.5365 4.29742 26.4209 4.46436C25.4253 4.61386 24.5646 5.23375 23.6934 6.23389C22.8115 7.24622 22.0197 8.52424 21.0928 9.89307C19.2222 12.6547 16.9623 14.4049 14.1445 14.2085C11.5447 14.0279 9.54746 12.126 7.86328 9.58838V9.5874C6.86345 8.08236 6.00497 6.80125 5.06836 5.87451C4.21057 5.02586 3.33643 4.52509 2.28711 4.43506L2.0752 4.42236C1.48308 4.40313 1.13782 3.98342 0.976562 3.65479C0.812619 3.32052 0.750027 2.93058 0.75 2.58447C0.75 2.2398 0.811701 1.84823 0.980469 1.51514C1.14981 1.18103 1.51633 0.767041 2.12305 0.786621L2.12402 0.785645C5.29809 0.890181 7.42191 3.24972 9.40918 6.34326C10.4932 8.02921 11.5821 9.3045 12.708 10.0063C13.7853 10.6779 14.9001 10.8318 16.1826 10.2661C17.1878 9.82249 18.0544 8.82162 18.9648 7.50146C19.8264 6.25211 20.7498 4.67354 21.7715 3.46826V3.46729Z" fill="#E0F0FE" stroke="#E0F0FE" stroke-width="1.5"/>
</svg>
