<svg width="262" height="244" viewBox="0 0 262 244" fill="none" xmlns="http://www.w3.org/2000/svg">
<g clip-path="url(#clip0_7934_5305)">
<path fill-rule="evenodd" clip-rule="evenodd" d="M101.109 99.159C100.63 98.9221 99.9844 98.743 99.3639 98.7783C98.137 98.8528 83.864 104.223 83.864 104.223C83.864 104.223 80.9506 100.45 78.6128 99.1184C78.4443 99.022 78.2756 98.932 78.1122 98.8513C76.029 97.8215 74.4595 98.059 74.0401 98.4902C73.5879 98.9538 73.3878 100.738 74.7817 103.03C76.1717 105.317 80.0278 108.132 80.0278 108.132C80.0278 108.132 80.0213 108.144 80.0162 108.162C80.0109 108.172 80.0085 108.19 80.0007 108.206C79.993 108.228 79.984 108.247 79.9733 108.274C79.9683 108.284 79.9656 108.29 79.9644 108.299C79.9502 108.347 79.9284 108.405 79.9039 108.474C79.8989 108.485 79.8989 108.491 79.8937 108.502C79.8705 108.569 79.8487 108.639 79.8204 108.716C79.8127 108.739 79.8037 108.763 79.7921 108.787C79.7252 108.976 79.6468 109.201 79.5578 109.46L79.5565 109.462C79.518 109.573 79.4781 109.687 79.4331 109.812C79.4113 109.876 79.3855 109.948 79.3598 110.02C79.3225 110.128 79.2865 110.241 79.2463 110.348C79.2271 110.401 79.2117 110.451 79.191 110.5C79.1627 110.584 79.1332 110.664 79.1035 110.75C79.0175 111.004 78.9263 111.268 78.827 111.548C78.7936 111.642 78.7653 111.739 78.7319 111.834C78.6804 111.978 78.6328 112.114 78.5788 112.263C78.5647 112.311 78.5467 112.354 78.5313 112.405C78.5197 112.436 78.5105 112.467 78.5002 112.494C78.387 112.816 78.2713 113.15 78.1594 113.489C78.1439 113.54 78.1247 113.592 78.1092 113.643C77.64 115.011 77.1447 116.476 76.6834 117.861C76.6423 117.984 76.5998 118.103 76.5601 118.23C76.5212 118.341 76.4892 118.452 76.4507 118.563C76.4287 118.621 76.4147 118.669 76.3941 118.731C76.3594 118.835 76.3273 118.939 76.294 119.04C76.2734 119.101 76.2553 119.164 76.2334 119.222C76.1974 119.328 76.1654 119.432 76.1333 119.537C76.0705 119.731 76.0075 119.918 75.9482 120.104C75.9368 120.153 75.9226 120.195 75.9098 120.241C75.8636 120.381 75.8201 120.522 75.7737 120.656L75.7353 120.787C75.626 121.127 75.5272 121.446 75.4373 121.747L75.395 121.879C75.3695 121.984 75.3362 122.085 75.3093 122.179C75.2965 122.218 75.2837 122.264 75.2708 122.303C75.2337 122.432 75.1976 122.557 75.167 122.672C75.025 123.179 74.9421 123.538 74.9351 123.691C74.9295 123.816 74.9344 123.939 74.9496 124.067C74.9485 124.082 74.9525 124.101 74.9541 124.118C74.9665 124.238 74.9858 124.352 75.0102 124.468C75.0169 124.494 75.0211 124.512 75.0277 124.532C75.0563 124.647 75.0845 124.756 75.1232 124.869C75.126 124.883 75.1353 124.898 75.1419 124.918C75.1781 125.03 75.2197 125.138 75.2663 125.243C75.3583 125.441 75.462 125.623 75.5627 125.764C75.5745 125.779 75.5825 125.797 75.5957 125.81C75.621 125.845 75.6436 125.879 75.6739 125.91C75.6871 125.923 75.6964 125.938 75.7096 125.951C75.7349 125.979 75.7624 126.003 75.7862 126.028C75.7968 126.039 75.8115 126.05 75.8207 126.058C75.8538 126.084 75.8839 126.102 75.9155 126.118C75.9736 126.146 76.0259 126.153 76.0718 126.133C76.0757 126.132 76.0902 126.122 76.0992 126.111C76.1137 126.101 76.1279 126.086 76.1463 126.062L76.1501 126.054C76.1684 126.037 76.1866 126.014 76.2127 125.981C76.2593 125.919 76.3178 125.841 76.3841 125.746C76.4139 125.706 76.4518 125.656 76.4908 125.604C76.4947 125.596 76.5011 125.589 76.5037 125.584C76.5427 125.532 76.5792 125.478 76.6169 125.422L76.6195 125.416C76.704 125.299 76.7959 125.158 76.9013 125.012C76.9065 125.001 76.9142 124.992 76.9168 124.987C76.9611 124.924 77.0053 124.861 77.0533 124.791C77.0625 124.779 77.0703 124.763 77.0806 124.749C77.2431 124.513 77.4196 124.255 77.6041 123.968C77.6197 123.956 77.6275 123.941 77.6378 123.926C77.6912 123.845 77.7458 123.768 77.7952 123.688C77.8121 123.667 77.8237 123.65 77.8381 123.628C77.8937 123.541 77.9495 123.461 78.0067 123.372C78.0171 123.358 78.0235 123.345 78.0353 123.328C78.173 123.122 78.3158 122.906 78.4664 122.681C78.469 122.676 78.4716 122.67 78.4794 122.668C78.5457 122.567 78.612 122.466 78.6807 122.36C78.6938 122.34 78.7081 122.318 78.7171 122.3C78.7742 122.211 78.834 122.123 78.8911 122.034C78.9093 122.004 78.9275 121.974 78.9484 121.951C79.0198 121.84 79.0936 121.73 79.1651 121.619C79.1728 121.603 79.1807 121.594 79.1871 121.581C79.2547 121.477 79.3222 121.374 79.3963 121.264C79.4132 121.237 79.434 121.208 79.4535 121.175C79.5041 121.099 79.5483 121.03 79.5989 120.954L79.7052 120.791C79.7507 120.719 79.7948 120.65 79.8429 120.586C79.8716 120.541 79.8961 120.498 79.9274 120.455C79.9988 120.344 80.0715 120.23 80.1457 120.12C80.1625 120.092 80.1794 120.071 80.195 120.046C80.2521 119.957 80.3156 119.868 80.3714 119.775C80.409 119.719 80.4416 119.666 80.4767 119.615C80.5156 119.55 80.5598 119.487 80.6027 119.42C80.6312 119.376 80.6572 119.33 80.6857 119.292C80.9155 118.94 81.1427 118.586 81.3648 118.243C81.3961 118.2 81.4272 118.15 81.4571 118.103C81.5814 117.904 81.7114 117.707 81.836 117.515C81.8581 117.477 81.8763 117.447 81.9037 117.412C83.4787 114.975 84.7575 112.984 84.7575 112.984L93.52 119.883C93.52 119.883 93.5059 119.938 93.4857 120.039L93.4818 120.047C93.2454 120.943 92.1327 125.309 92.2305 126.171C92.3218 127.015 92.6001 127.765 92.8896 127.908C92.9319 127.929 92.9741 127.936 93.0131 127.93C93.3423 127.887 96.5245 122.02 96.5245 122.02C96.5245 122.02 98.0305 123.217 99.1368 123.764C99.6241 124.005 100.035 124.12 100.202 123.948C100.76 123.397 98.1875 120.34 98.1875 120.34C98.1875 120.34 104.003 117.155 104.039 116.704C104.051 116.521 103.921 116.378 103.698 116.268C103.368 116.105 102.832 116.009 102.253 115.961C102.204 115.96 102.139 115.96 102.069 115.961C101.984 115.968 101.887 115.972 101.783 115.989C100.817 116.114 98.9212 116.594 97.5602 116.961C97.5523 116.957 97.551 116.96 97.5483 116.958C97.403 117 97.2616 117.035 97.1319 117.072C97.1227 117.07 97.1163 117.077 97.107 117.076C96.98 117.114 96.8581 117.148 96.7455 117.177C96.7416 117.178 96.7323 117.177 96.7284 117.178C96.6184 117.209 96.5148 117.239 96.4312 117.263C96.4246 117.263 96.4167 117.265 96.4114 117.269C96.3302 117.294 96.2569 117.31 96.1979 117.33C96.1783 117.336 96.1638 117.339 96.1454 117.343C96.1074 117.354 96.0802 117.363 96.0565 117.371C96.004 117.384 95.9765 117.393 95.9765 117.393L88.8427 108.83C88.8427 108.83 101.748 100.227 101.837 99.861C101.882 99.6778 101.578 99.3907 101.109 99.159Z" fill="#664117"/>
</g>
<path fill-rule="evenodd" clip-rule="evenodd" d="M469.24 202.98C468.804 202.718 468.08 202.85 467.622 203.294C466.012 204.928 464.366 206.54 462.729 208.129C462.264 208.583 462.232 209.215 462.668 209.505L462.711 209.531C463.137 209.788 463.837 209.655 464.277 209.242C465.922 207.615 467.567 205.989 469.204 204.358C469.669 203.904 469.675 203.284 469.256 202.99C469.247 202.985 469.24 202.98 469.24 202.98ZM453.918 217.556C453.499 217.304 452.826 217.411 452.376 217.819C448.748 221.076 445.11 224.202 441.552 227.141C441.028 227.573 440.936 228.183 441.314 228.535C441.349 228.57 441.392 228.596 441.434 228.621C441.835 228.863 442.459 228.782 442.917 228.421C446.525 225.456 450.205 222.286 453.841 219.005C454.34 218.545 454.406 217.933 453.986 217.611C453.969 217.587 453.943 217.572 453.918 217.556ZM431.656 235.818C431.288 235.596 430.689 235.651 430.23 235.984C426.284 238.883 422.301 241.663 418.375 244.228C417.823 244.575 417.606 245.205 417.908 245.609C417.951 245.704 418.02 245.76 418.114 245.816C418.464 246.027 419.021 245.988 419.463 245.687C423.449 243.089 427.498 240.279 431.462 237.349C431.996 236.951 432.154 236.326 431.818 235.943C431.766 235.898 431.715 235.853 431.656 235.818ZM407.257 251.657C406.94 251.466 406.45 251.476 406.007 251.721C401.765 254.096 397.443 256.312 393.16 258.302C392.565 258.58 392.22 259.19 392.397 259.656C392.459 259.805 392.563 259.922 392.699 260.004C392.989 260.179 393.429 260.181 393.822 259.989C398.181 257.975 402.569 255.716 406.896 253.295C407.49 252.96 407.758 252.346 407.515 251.909C407.454 251.803 407.359 251.718 407.257 251.657ZM380.929 263.868C380.665 263.709 380.292 263.679 379.906 263.82C375.414 265.463 370.861 266.93 366.344 268.17C365.722 268.35 365.242 268.905 365.293 269.421C365.315 269.669 365.436 269.853 365.641 269.976C365.871 270.115 366.167 270.155 366.545 270.05C371.145 268.805 375.8 267.302 380.342 265.62C380.963 265.385 381.383 264.793 381.257 264.288C381.212 264.108 381.091 263.966 380.929 263.868ZM212.117 185.231C211.665 184.958 210.933 185.127 210.501 185.587C210.062 186.056 210.063 186.667 210.516 186.939C211.745 187.693 212.958 188.479 214.121 189.291C216.001 190.575 217.867 191.99 219.683 193.486C219.709 193.515 219.743 193.536 219.778 193.556C220.187 193.803 220.844 193.7 221.294 193.292C221.784 192.84 221.859 192.234 221.456 191.909C219.614 190.383 217.697 188.938 215.808 187.634C214.611 186.802 213.372 186.001 212.117 185.231ZM201.694 179.839C201.668 179.823 201.634 179.803 201.608 179.787C197.957 178.211 194.081 176.804 190.091 175.647C189.556 175.491 188.851 175.787 188.514 176.304C188.226 176.753 188.318 177.225 188.694 177.451C188.762 177.492 188.83 177.519 188.898 177.532C192.82 178.662 196.628 180.042 200.203 181.6C200.697 181.814 201.436 181.581 201.808 181.084C202.163 180.62 202.112 180.091 201.694 179.839ZM229.55 199.401C229.174 199.175 228.576 199.244 228.101 199.608C227.575 200.012 227.434 200.633 227.795 201.003C230.168 203.457 232.563 206.146 235.098 209.196C235.15 209.269 235.201 209.314 235.278 209.36C235.645 209.581 236.218 209.525 236.67 209.201C237.221 208.827 237.396 208.198 237.068 207.807C234.523 204.709 232.103 202.019 229.713 199.527C229.661 199.482 229.61 199.437 229.55 199.401ZM353.449 271.399C353.253 271.28 352.981 271.228 352.67 271.289C349.233 271.892 345.711 272.416 342.237 272.802C341.234 272.917 340.187 272.993 339.115 273.054C338.491 273.079 337.898 273.54 337.773 274.101C337.72 274.443 337.844 274.739 338.107 274.898C338.261 274.991 338.465 275.044 338.693 275.029C339.815 274.971 340.92 274.875 341.975 274.776C345.525 274.367 349.08 273.849 352.601 273.214C353.241 273.101 353.765 272.586 353.79 272.047C353.802 271.763 353.67 271.532 353.449 271.399ZM108.061 132.511C107.618 132.244 106.885 132.37 106.445 132.825C105.979 133.293 105.99 133.909 106.426 134.185C109.56 136.198 112.447 138.546 115.001 141.178C115.061 141.228 115.112 141.273 115.164 141.304C115.531 141.525 116.146 141.466 116.605 141.106C117.139 140.693 117.272 140.081 116.919 139.716C114.296 137.001 111.307 134.577 108.061 132.511ZM178.091 172.948C177.997 172.891 177.895 172.843 177.768 172.822C173.54 172.118 169.164 171.628 164.75 171.365C164.158 171.327 163.497 171.746 163.304 172.294C163.159 172.692 163.3 173.026 163.607 173.211C163.718 173.278 163.871 173.328 164.065 173.335C168.386 173.583 172.678 174.077 176.813 174.781C177.405 174.875 178.083 174.508 178.337 173.982C178.549 173.556 178.432 173.153 178.091 172.948ZM243.666 216.268C243.308 216.052 242.768 216.087 242.308 216.392C241.749 216.775 241.549 217.402 241.851 217.806C243.303 219.705 244.738 221.636 246.173 223.553L248.412 226.563C248.472 226.641 248.549 226.701 248.635 226.753C248.985 226.964 249.524 226.914 249.967 226.613C250.527 226.258 250.744 225.613 250.433 225.205L248.194 222.208C246.759 220.291 245.341 218.357 243.881 216.452C243.821 216.375 243.751 216.319 243.666 216.268ZM123.443 148.285C123.11 148.084 122.612 148.103 122.16 148.357C121.566 148.706 121.332 149.312 121.576 149.75C123.394 152.811 124.877 156.114 125.984 159.564C126.037 159.721 126.149 159.858 126.294 159.945C126.567 160.11 126.965 160.128 127.384 159.951C127.988 159.705 128.367 159.102 128.215 158.623C127.098 155.07 125.554 151.675 123.684 148.527C123.623 148.421 123.537 148.342 123.443 148.285ZM326.512 272.608C326.409 272.546 326.273 272.506 326.13 272.489C322.15 271.989 317.973 271.245 313.723 270.251C313.147 270.125 312.468 270.436 312.164 270.973C311.918 271.421 312.019 271.855 312.378 272.071C312.454 272.117 312.54 272.155 312.633 272.183C316.966 273.187 321.212 273.944 325.276 274.439C325.877 274.524 326.538 274.133 326.765 273.606C326.944 273.187 326.828 272.798 326.512 272.608ZM256.906 233.743C256.548 233.527 255.991 233.579 255.541 233.889C254.964 234.262 254.788 234.876 255.1 235.286C257.628 238.457 259.956 241.216 262.221 243.73C262.264 243.769 262.316 243.828 262.375 243.864C262.76 244.096 263.332 244.025 263.817 243.694C264.342 243.29 264.501 242.679 264.165 242.297C261.909 239.817 259.598 237.067 257.103 233.917C257.043 233.853 256.983 233.789 256.906 233.743ZM302.061 266.993C302.01 266.962 301.941 266.934 301.882 266.912C297.923 265.608 294.155 264.142 290.725 262.588C290.24 262.365 289.516 262.594 289.127 263.08C288.755 263.548 288.807 264.091 289.225 264.344C289.251 264.359 289.268 264.369 289.285 264.38C289.293 264.384 289.302 264.39 289.302 264.39C292.793 265.966 296.602 267.444 300.629 268.789C301.165 268.973 301.87 268.692 302.216 268.166C302.52 267.712 302.453 267.229 302.061 266.993ZM271.781 250.014C271.38 249.772 270.765 249.873 270.307 250.248C269.782 250.68 269.699 251.294 270.061 251.651C272.754 254.076 275.546 256.312 278.343 258.301L278.975 258.737L279.01 258.758C279.445 259.02 280.152 258.879 280.601 258.442C281.05 257.993 281.064 257.378 280.628 257.088L280.046 256.668C277.294 254.733 274.56 252.519 271.909 250.119C271.867 250.079 271.832 250.045 271.781 250.014ZM151.842 171.4C151.688 171.308 151.493 171.26 151.265 171.275C146.681 171.477 142.051 171.915 137.449 172.578C136.809 172.676 136.243 173.18 136.193 173.718C136.173 174.024 136.304 174.269 136.551 174.418C136.731 174.526 136.985 174.569 137.272 174.534C141.788 173.876 146.335 173.443 150.809 173.257C151.442 173.223 152.042 172.768 152.16 172.215C152.238 171.861 152.115 171.565 151.842 171.4ZM130.092 169.143C129.862 169.004 129.531 168.971 129.195 169.06C128.564 169.22 128.092 169.78 128.135 170.304C128.452 174.04 128.382 177.862 127.915 181.679C127.869 181.998 128 182.257 128.248 182.406C128.419 182.509 128.664 182.56 128.943 182.534C129.575 182.458 130.124 181.972 130.208 181.413C130.698 177.471 130.767 173.537 130.422 169.688C130.401 169.454 130.288 169.261 130.092 169.143ZM124.353 175.435C124.131 175.302 123.835 175.262 123.498 175.35C118.165 176.707 113.639 178.301 109.626 180.26C109.031 180.566 108.703 181.159 108.905 181.627C108.975 181.752 109.061 181.859 109.198 181.942C109.497 182.122 109.936 182.123 110.355 181.932C114.159 180.083 118.5 178.544 123.615 177.234C124.237 177.083 124.735 176.524 124.701 176.005C124.679 175.757 124.558 175.559 124.353 175.435ZM127.077 192.53C126.958 192.458 126.804 192.408 126.643 192.395C126.035 192.373 125.383 192.785 125.181 193.327C123.616 197.703 121.54 201.299 118.846 204.301C118.415 204.775 118.441 205.36 118.894 205.632L118.911 205.642C119.372 205.906 120.104 205.723 120.535 205.249C123.471 202.004 125.719 198.138 127.388 193.452C127.517 193.058 127.384 192.715 127.077 192.53ZM99.0461 188.539C98.6022 188.271 97.8702 188.44 97.4296 188.895L97.1146 189.231C93.9613 192.595 91.835 196.23 91.0164 199.725C90.9295 200.102 90.8524 200.484 90.7826 200.857C90.7287 201.185 90.8762 201.441 91.1322 201.595C91.303 201.698 91.5322 201.753 91.7677 201.715C92.4008 201.653 92.9842 201.159 93.059 200.623C93.1043 200.29 93.1657 199.968 93.2451 199.641C94.0037 196.538 95.9077 193.268 98.7619 190.224L99.061 189.905C99.5006 189.45 99.4985 188.84 99.0632 188.549L99.0461 188.539ZM108.486 211.633C108.256 211.494 107.934 211.453 107.573 211.553C105.429 212.187 103.405 212.394 101.535 212.181C100.062 212.015 98.7116 211.56 97.5337 210.851C97.1325 210.609 96.7557 210.341 96.396 210.041C96.3534 210.015 96.3193 209.995 96.2765 209.969C95.8669 209.722 95.2179 209.831 94.7772 210.229C94.2769 210.649 94.1872 211.286 94.5895 211.612C95.009 211.962 95.4626 212.276 95.9234 212.554C97.3318 213.402 98.9295 213.935 100.69 214.151C102.899 214.402 105.277 214.172 107.808 213.425C108.438 213.238 108.902 212.672 108.825 212.155C108.805 211.92 108.674 211.746 108.486 211.633Z" fill="#664117" fill-opacity="0.5"/>
<defs>
<clipPath id="clip0_7934_5305">
<rect width="35.3342" height="35.6287" fill="white" transform="translate(79.0423 87.9219) rotate(26.3036)"/>
</clipPath>
</defs>
</svg>
