<svg width="64" height="64" viewBox="0 0 64 64" fill="none" xmlns="http://www.w3.org/2000/svg">
<g clip-path="url(#clip0_8470_13902)">
<path d="M31.6026 7.64805C32.039 7.64805 32.3927 7.28984 32.3927 6.84805V0.8C32.3927 0.358203 32.039 0 31.6026 0C31.1663 0 30.8125 0.358203 30.8125 0.8V6.84805C30.8125 7.28984 31.1663 7.64805 31.6026 7.64805Z" fill="#111111"/>
<path d="M43.5466 9.41184C43.662 9.472 43.7854 9.50012 43.9066 9.50012C44.1936 9.50012 44.4702 9.34153 44.6103 9.06536L47.3371 3.68411C47.5362 3.29114 47.3831 2.80872 46.9949 2.60715C46.6064 2.40481 46.1311 2.56106 45.9313 2.95364L43.2044 8.33489C43.0053 8.72786 43.1585 9.21028 43.5466 9.41184Z" fill="#111111"/>
<path d="M18.5953 9.06521C18.7354 9.34138 19.012 9.49998 19.299 9.49998C19.4202 9.49998 19.5436 9.47185 19.659 9.4117C20.0471 9.21013 20.2003 8.72771 20.0012 8.33474L17.2744 2.95349C17.0753 2.56052 16.5988 2.40349 16.2107 2.60701C15.8226 2.80857 15.6694 3.29099 15.8685 3.68396L18.5953 9.06521Z" fill="#111111"/>
<path d="M32.3927 63.2001V57.1521C32.3927 56.7103 32.039 56.3521 31.6026 56.3521C31.1663 56.3521 30.8125 56.7103 30.8125 57.1521V63.2001C30.8125 63.6419 31.1663 64.0001 31.6026 64.0001C32.039 64.0001 32.3927 63.6419 32.3927 63.2001Z" fill="#111111"/>
<path d="M16.5706 61.4813C16.8577 61.4813 17.1343 61.3227 17.2744 61.0466L20.0012 55.6653C20.2003 55.2723 20.0471 54.7899 19.659 54.5884C19.2713 54.386 18.7948 54.5423 18.5953 54.9348L15.8685 60.3161C15.6694 60.7091 15.8226 61.1915 16.2107 61.393C16.326 61.4532 16.4495 61.4813 16.5706 61.4813Z" fill="#111111"/>
<path d="M46.635 61.4812C46.7561 61.4812 46.8796 61.4531 46.9949 61.3929C47.3831 61.1913 47.5362 60.7089 47.3371 60.3159L44.6103 54.9347C44.4112 54.5417 43.9351 54.3847 43.5466 54.5882C43.1585 54.7898 43.0053 55.2722 43.2044 55.6652L45.9313 61.0464C46.0713 61.3226 46.3479 61.4812 46.635 61.4812Z" fill="#111111"/>
<path d="M17.4958 49.7146C22.2098 49.7146 26.4911 47.8139 29.6403 44.7337C29.6723 44.7061 29.7026 44.6797 29.7294 44.6477C30.4105 43.9721 31.0375 43.2414 31.6031 42.4616C34.8976 47.0208 40.1011 49.7146 45.7203 49.7146C50.4344 49.7146 54.7157 47.8139 57.8649 44.7337C57.8968 44.7061 57.9272 44.6797 57.9539 44.6477C61.198 41.4303 63.2161 36.9503 63.2161 32.0001C63.2161 22.2321 55.3677 14.2856 45.7203 14.2856C40.1009 14.2856 34.8976 16.9796 31.603 21.5385C28.4161 17.1447 23.2805 14.2856 17.4958 14.2856C7.84838 14.2856 0 22.2321 0 32.0001C0 41.7681 7.84838 49.7146 17.4958 49.7146ZM6.8288 43.9249C8.80261 39.793 12.9379 37.1431 17.4958 37.1431C22.0667 37.1431 26.1893 39.7888 28.1634 43.9242C25.3374 46.5185 21.6019 48.1146 17.4958 48.1146C13.39 48.1146 9.65471 46.5188 6.8288 43.9249ZM35.0417 43.9493C37.0108 39.8034 41.1534 37.1431 45.7203 37.1431C50.2913 37.1431 54.4138 39.7888 56.3879 43.9242C53.5619 46.5185 49.8264 48.1146 45.7203 48.1146C41.709 48.1146 37.9316 46.6029 35.0417 43.9493ZM45.7203 15.8856C54.4961 15.8856 61.6358 23.1146 61.6358 32.0001C61.6358 36.1226 60.0859 39.8762 57.5619 42.729C55.239 38.3291 50.715 35.5431 45.7203 35.5431C40.7334 35.5431 36.1871 38.3379 33.8658 42.7444C33.3911 42.2063 32.9484 41.6335 32.542 41.0259C34.0957 38.3807 34.9915 35.2949 34.9915 32.0001C34.9915 28.7052 34.0957 25.6195 32.5419 22.9742C35.5136 18.532 40.4116 15.8856 45.7203 15.8856ZM17.4958 15.8856C26.2716 15.8856 33.4113 23.1146 33.4113 32.0001C33.4113 36.1226 31.8614 39.8762 29.3373 42.729C27.0145 38.3291 22.4905 35.5431 17.4958 35.5431C12.5158 35.5431 7.97589 38.3306 5.65167 42.7263C3.1291 39.8738 1.58025 36.1212 1.58025 32.0001C1.58025 23.1146 8.71991 15.8856 17.4958 15.8856Z" fill="#111111"/>
<path d="M17.4928 32.8C21.1718 32.8 24.1652 29.7692 24.1652 26.0442C24.1652 22.3192 21.1718 19.2883 17.4928 19.2883C13.8138 19.2883 10.8203 22.3192 10.8203 26.0442C10.8203 29.7692 13.8138 32.8 17.4928 32.8ZM17.4928 20.8883C20.3006 20.8883 22.585 23.2012 22.585 26.0442C22.585 28.8872 20.3006 31.2 17.4928 31.2C14.6849 31.2 12.4006 28.8872 12.4006 26.0442C12.4006 23.2012 14.6849 20.8883 17.4928 20.8883Z" fill="#111111"/>
<path d="M45.7193 32.8C49.3983 32.8 52.3918 29.7692 52.3918 26.0442C52.3918 22.3192 49.3983 19.2883 45.7193 19.2883C42.0403 19.2883 39.0469 22.3192 39.0469 26.0442C39.0469 29.7692 42.0403 32.8 45.7193 32.8ZM45.7193 20.8883C48.5272 20.8883 50.8115 23.2012 50.8115 26.0442C50.8115 28.8872 48.5272 31.2 45.7193 31.2C42.9115 31.2 40.6271 28.8872 40.6271 26.0442C40.6271 23.2012 42.9115 20.8883 45.7193 20.8883Z" fill="#111111"/>
</g>
<defs>
<clipPath id="clip0_8470_13902">
<rect width="64" height="64" fill="white"/>
</clipPath>
</defs>
</svg>
