<svg width="72" height="64" viewBox="0 0 72 64" fill="none" xmlns="http://www.w3.org/2000/svg">
<g clip-path="url(#clip0_8470_13871)">
<path d="M9.93556 36.3637C9.93556 35.6365 9.79156 34.9092 9.79156 34.3274C9.79156 28.9456 11.8076 23.8547 15.5516 20.0728C16.1276 19.491 16.7036 18.9092 17.2796 18.4728C17.4236 18.3274 17.5676 18.1819 17.5676 18.0365C17.5676 17.891 17.5676 17.6001 17.4236 17.4547C17.1356 17.1638 16.7036 17.0183 16.4156 17.3092C15.8396 17.891 15.1196 18.4728 14.5436 19.0547C10.5116 23.1274 8.35156 28.5092 8.35156 34.3274C8.35156 35.0547 8.35156 35.7819 8.49556 36.5092C8.92756 41.4547 11.2316 45.9637 14.6876 49.6001C18.1436 53.2365 22.7516 55.2728 27.6476 55.8547C28.3676 55.8547 29.0876 56.0001 29.8076 56.0001C33.8396 56.0001 37.7276 54.8365 41.0396 52.8001C41.3276 52.5092 41.4716 52.0728 41.3276 51.7819C41.1836 51.491 40.6076 51.3456 40.3196 51.491C37.1516 53.5274 33.5516 54.5456 29.8076 54.5456C29.0876 54.5456 28.5116 54.5456 27.7916 54.4001C18.2876 53.3819 10.7996 45.8183 9.93556 36.3637Z" fill="black"/>
<path d="M42.9153 51.0545C43.0593 51.0545 43.2033 51.0545 43.3473 50.9091C43.6353 50.6182 43.6353 50.1818 43.4913 49.8909C43.2033 49.6 42.7713 49.6 42.4833 49.7454C42.3393 49.8909 42.1953 50.0364 42.1953 50.1818C42.1953 50.3273 42.1953 50.6182 42.3393 50.7636C42.4833 50.9091 42.7713 51.0545 42.9153 51.0545Z" fill="black"/>
<path d="M45.0682 49.0183C45.2122 49.0183 45.5002 48.8728 45.6442 48.7274C45.9322 48.291 46.3642 48.0001 46.6522 47.5637C46.9402 47.2728 46.7962 46.8364 46.5082 46.5455C46.2202 46.2546 45.7882 46.4001 45.5002 46.691C45.2122 47.1273 44.9242 47.4183 44.6362 47.7092C44.4922 47.8546 44.4922 48.0001 44.4922 48.291C44.4922 48.4364 44.6362 48.7274 44.7802 48.7274C44.6362 49.0183 44.7802 49.0183 45.0682 49.0183Z" fill="black"/>
<path d="M34.5606 16.7273C38.8806 16.7273 42.4806 13.0909 42.4806 8.72729C42.4806 4.36366 38.8806 0.727295 34.5606 0.727295C30.2406 0.727295 26.6406 4.36366 26.6406 8.72729C26.6406 13.0909 30.2406 16.7273 34.5606 16.7273ZM34.5606 2.18184C38.1606 2.18184 41.0406 5.09093 41.0406 8.72729C41.0406 12.3637 38.1606 15.2727 34.5606 15.2727C30.9606 15.2727 28.0806 12.3637 28.0806 8.72729C28.0806 5.09093 30.9606 2.18184 34.5606 2.18184Z" fill="black"/>
<path d="M60.4778 44.2183C60.1898 44.2183 60.0458 44.3637 59.9018 44.5092C59.7578 44.6546 59.7578 44.8001 59.7578 45.091C59.7578 45.5274 60.0458 45.8183 60.4778 45.8183C60.9098 45.8183 61.1978 45.5274 61.1978 45.091C61.1978 44.5092 60.9098 44.2183 60.4778 44.2183Z" fill="black"/>
<path d="M53.2791 37.0908H42.4791V30.8362L44.0631 32.4362C44.2071 32.5817 44.3511 32.5817 44.6391 32.5817H53.9991C55.5831 32.5817 56.8791 31.2726 56.8791 29.6726C56.8791 28.0726 55.5831 26.7635 53.9991 26.7635H46.3671L42.3351 22.6908C38.1591 18.3272 37.8711 17.8908 37.2951 18.0362H28.7991C26.3511 18.0362 24.3351 19.7817 23.9031 22.109C23.3271 20.509 22.8951 18.909 22.7511 17.309C22.6071 16.4362 22.4631 15.4181 22.4631 14.5453C22.3191 12.0726 20.8791 10.0362 18.7191 9.01807C16.5591 7.99989 14.1111 8.29079 12.2391 9.74534C11.3751 10.4726 10.3671 11.3453 9.64715 12.0726C3.02315 18.7635 -0.000852406 27.4908 0.863148 36.509C2.30315 50.4726 13.3911 61.6726 27.2151 63.1272C28.2231 63.2726 29.2311 63.2726 30.2391 63.2726C38.0151 63.2726 45.5031 60.2181 51.1191 54.5453C51.5511 54.109 52.1271 53.5272 52.5591 52.9453V58.909C52.5591 61.2362 54.4311 63.2726 56.8791 63.2726C59.1831 63.2726 61.1991 61.2362 61.1991 58.909V47.8544C61.1991 47.4181 60.9111 47.1272 60.4791 47.1272C60.0471 47.1272 59.7591 47.4181 59.7591 47.8544V58.909C59.7591 60.509 58.4631 61.8181 56.8791 61.8181C55.2951 61.8181 53.9991 60.509 53.9991 58.909V51.0544C55.0071 49.309 55.1511 47.1272 54.2871 45.2362C53.2791 43.0544 51.2631 41.5999 48.8151 41.4544C47.9511 41.4544 46.9431 41.309 46.0791 41.1635C36.8631 39.709 29.0871 33.5999 25.0551 25.309C25.1991 25.1635 25.1991 25.0181 25.1991 24.8726V23.4181C25.1991 21.3817 26.7831 19.7817 28.7991 19.7817H37.1511C37.7271 20.3635 39.5991 22.2544 41.1831 23.8544L45.5031 28.2181C45.6471 28.3635 45.7911 28.3635 46.0791 28.3635H53.9991C54.8631 28.3635 55.4391 28.9453 55.4391 29.8181C55.4391 30.6908 54.8631 31.2726 53.9991 31.2726H44.9271L37.8711 24.1453C37.5831 23.8544 37.1511 23.8544 36.8631 24.1453C36.5751 24.4362 36.5751 24.8726 36.8631 25.1635L41.0391 29.3817V37.8181C41.0391 37.9635 41.0391 38.2544 41.1831 38.2544C41.3271 38.3999 41.4711 38.5453 41.7591 38.5453H53.2791C55.8711 38.5453 58.1751 39.9999 59.1831 42.3272C59.3271 42.6181 59.6151 42.7635 59.9031 42.7635C60.0471 42.7635 60.0471 42.7635 60.1911 42.7635C60.6231 42.6181 60.7671 42.1817 60.4791 41.7453C59.1831 38.9817 56.3031 37.0908 53.2791 37.0908ZM45.7911 42.6181C46.7991 42.7635 47.6631 42.909 48.6711 42.909C50.5431 43.0544 52.1271 44.0726 52.9911 45.9635C53.7111 47.709 53.5671 49.5999 52.4151 51.0544C51.6951 51.9272 50.9751 52.7999 50.2551 53.5272C44.2071 59.6362 35.9991 62.5453 27.5031 61.6726C14.1111 60.3635 3.59915 49.7453 2.30315 36.3635C1.43915 27.7817 4.46315 19.4908 10.3671 13.3817C11.0871 12.6544 11.9511 11.7817 12.8151 11.1999C13.6791 10.4726 14.6871 10.1817 15.8391 10.1817C16.5591 10.1817 17.2791 10.3272 17.8551 10.6181C19.5831 11.3453 20.7351 12.9453 20.8791 14.9817C20.8791 15.9999 21.0231 16.8726 21.1671 17.8908C23.1831 30.3999 33.2631 40.5817 45.7911 42.6181Z" fill="black"/>
<path d="M69.9859 22.691L58.6099 34.1819H44.6419C44.2099 34.1819 43.9219 34.4728 43.9219 34.9092C43.9219 35.3455 44.2099 35.6365 44.6419 35.6365H59.0419C59.1859 35.6365 59.1859 35.6365 59.3299 35.6365C59.4739 35.6365 59.4739 35.491 59.6179 35.491L71.1379 23.8546C71.4259 23.5637 71.4259 23.1274 71.1379 22.8365C70.8499 22.5455 70.2739 22.5455 69.9859 22.691Z" fill="black"/>
</g>
<defs>
<clipPath id="clip0_8470_13871">
<rect width="72" height="64" fill="white"/>
</clipPath>
</defs>
</svg>
