<svg width="64" height="64" viewBox="0 0 64 64" fill="none" xmlns="http://www.w3.org/2000/svg">
<g clip-path="url(#clip0_8470_13865)">
<path d="M0.249631 22.1603C0.395139 22.3109 0.597239 22.4062 0.823264 22.4062H6.99084C7.43264 22.4062 7.79084 22.0484 7.79084 21.6063C7.79084 21.1641 7.43264 20.8062 6.99084 20.8062H2.82058C5.7989 18.2045 9.22922 16.2778 12.928 15.1059C10.8009 24.839 13.5027 35.4263 21.0506 42.9789C26.7561 48.6875 34.3416 51.832 42.41 51.832C44.5922 51.832 46.7367 51.5943 48.8206 51.1458C47.6715 54.7454 45.7949 58.1585 43.1901 61.1563V57.0281C43.1901 56.5859 42.8319 56.2281 42.3901 56.2281C41.9483 56.2281 41.5901 56.5859 41.5901 57.0281V63.2C41.5901 63.3043 41.6114 63.4083 41.6519 63.5062C41.733 63.7017 41.8889 63.8574 42.0844 63.9383C42.1822 63.9788 42.2859 64 42.3901 64H48.558C48.9998 64 49.358 63.6422 49.358 63.2C49.358 62.7578 48.9998 62.4 48.558 62.4H44.2312C47.2981 58.9302 49.4306 54.9202 50.6293 50.6964C54.9523 49.4803 58.9567 47.3048 62.3834 44.2735V48.5648C62.3834 49.007 62.7416 49.3648 63.1834 49.3648C63.6252 49.3648 63.9834 49.007 63.9834 48.5648V42.5158C64.0146 42.2777 63.9519 42.0301 63.769 41.8477C63.7655 41.8441 63.7606 41.8432 63.7571 41.8397C63.6115 41.6891 63.4095 41.5938 63.1834 41.5938H57.0158C56.574 41.5938 56.2158 41.9516 56.2158 42.3937C56.2158 42.8359 56.574 43.1938 57.0158 43.1938H61.1861C58.2078 45.7955 54.7775 47.7222 51.0787 48.8941C53.2058 39.161 50.504 28.5737 42.9561 21.0211C37.2506 15.3125 29.6651 12.168 21.5967 12.168C19.4145 12.168 17.2699 12.4057 15.1861 12.8542C16.3352 9.25459 18.2118 5.8415 20.8166 2.84365V6.97188C20.8166 7.41406 21.1748 7.77187 21.6166 7.77187C22.0584 7.77187 22.4166 7.41406 22.4166 6.97188V0.8C22.4166 0.695654 22.3954 0.591748 22.3549 0.493896C22.2737 0.298242 22.1177 0.142578 21.9221 0.0616211C21.8261 0.0219727 21.7242 0.00180662 21.622 0.00107422C21.6201 0.00107422 21.6185 0 21.6166 0H15.4487C15.0069 0 14.6487 0.357812 14.6487 0.8C14.6487 1.24219 15.0069 1.6 15.4487 1.6H19.7755C16.7086 5.06982 14.576 9.07979 13.3774 13.3036C9.05437 14.5197 5.05002 16.6952 1.62326 19.7265V15.4352C1.62326 14.993 1.26506 14.6352 0.823264 14.6352C0.381467 14.6352 0.0232641 14.993 0.0232641 15.4352V21.4842C-0.00788818 21.7223 0.0548071 21.9699 0.237717 22.1523C0.241233 22.1559 0.246067 22.1568 0.249631 22.1603ZM21.5967 13.768C29.2377 13.768 36.4213 16.7453 41.824 22.1523C49.1911 29.524 51.6884 39.9483 49.3238 49.3934C47.0887 49.9459 44.7715 50.232 42.41 50.232C34.769 50.232 27.5854 47.2547 22.1826 41.8477C14.8156 34.476 12.3183 24.0517 14.6829 14.6066C16.9179 14.0541 19.2352 13.768 21.5967 13.768Z" fill="#111111"/>
</g>
<defs>
<clipPath id="clip0_8470_13865">
<rect width="64" height="64" fill="white"/>
</clipPath>
</defs>
</svg>
