<svg width="64" height="64" viewBox="0 0 64 64" fill="none" xmlns="http://www.w3.org/2000/svg">
<g clip-path="url(#clip0_8470_13882)">
<path fill-rule="evenodd" clip-rule="evenodd" d="M12.8159 32.513C13.6278 39.0125 18.1449 44.5286 24.9027 47.2697C32.6047 50.394 42.224 48.0413 47.0724 43.961C49.0058 42.3347 49.8997 40.6568 49.5914 39.2362C49.2548 37.6843 47.4812 36.4187 44.4621 35.5755C43.7063 35.3645 42.9697 35.164 42.2503 34.9679C36.0578 33.2809 31.1659 31.9486 25.7671 27.3488C25.5651 27.1768 25.4862 26.9005 25.5673 26.6479C25.6062 26.5273 25.6415 26.4077 25.6723 26.2922C26.1989 24.3274 25.9281 22.2753 24.9118 20.5137C23.8945 18.7521 22.2524 17.492 20.2872 16.9655C16.2313 15.8789 12.0473 18.2945 10.9603 22.3504C10.2855 24.8691 10.9329 27.5254 12.6914 29.4561C12.8183 29.5951 12.8787 29.7819 12.8592 29.969C12.7679 30.8252 12.7529 31.681 12.8159 32.513ZM32.6492 50.0389C30.1269 50.0389 27.2766 49.6518 24.4082 48.4887C21.0113 47.111 18.0342 44.9825 15.7972 42.3334C13.4292 39.528 11.9456 36.183 11.5083 32.6598C11.5074 32.6495 11.506 32.6395 11.506 32.6294C11.4421 31.8068 11.4477 30.9639 11.5231 30.1194C9.60946 27.8769 8.92417 24.8682 9.69041 22.0099C10.965 17.2532 15.8715 14.4205 20.6274 15.6949C22.9318 16.3124 24.8581 17.7902 26.0502 19.856C27.2414 21.9183 27.5587 24.3205 26.9454 26.6211C31.9961 30.8113 36.688 32.0895 42.5962 33.6987C43.3179 33.8954 44.0566 34.0968 44.8148 34.3086C49.2614 35.5499 50.5654 37.5218 50.8771 38.9573C51.2939 40.8776 50.2434 43.0121 47.9196 44.9675C45.3574 47.124 41.573 48.8018 37.5399 49.5707C36.1675 49.8322 34.4968 50.039 32.6492 50.0389Z" fill="#111111"/>
<path fill-rule="evenodd" clip-rule="evenodd" d="M18.4161 20.2739C18.1821 20.2739 17.9672 20.43 17.9044 20.666C17.8681 20.8025 17.8861 20.9451 17.9569 21.0674C18.0279 21.1897 18.1419 21.2774 18.279 21.3139C18.56 21.3893 18.851 21.2215 18.9264 20.9397C19.0019 20.6581 18.8339 20.3675 18.5519 20.2919C18.5063 20.2797 18.4605 20.2739 18.4161 20.2739ZM18.4151 22.6475C18.2573 22.6475 18.0974 22.6272 17.9375 22.5845C17.4627 22.4568 17.064 22.1517 16.8185 21.7251C16.5719 21.2984 16.5067 20.8013 16.6335 20.3255C16.7615 19.8495 17.0663 19.452 17.4933 19.2057C17.9195 18.9592 18.4171 18.894 18.8921 19.0213C19.8743 19.2844 20.4599 20.298 20.1973 21.2802C19.9759 22.1033 19.229 22.6475 18.4151 22.6475Z" fill="#111111"/>
<path fill-rule="evenodd" clip-rule="evenodd" d="M10.4011 27.3975C10.3073 27.3975 10.2125 27.3776 10.1223 27.3352L3.66038 24.3035C3.42992 24.1951 3.28125 23.9631 3.28125 23.708C3.28143 23.4528 3.4297 23.2209 3.66035 23.1125L10.7618 19.7811C11.0906 19.627 11.4823 19.7684 11.6364 20.0972C11.7908 20.426 11.649 20.8178 11.3201 20.9721L5.48865 23.7079L10.6809 26.1441C11.0097 26.2984 11.1511 26.6902 10.997 27.019C10.8851 27.2576 10.6487 27.3975 10.4011 27.3975Z" fill="#111111"/>
<path fill-rule="evenodd" clip-rule="evenodd" d="M25.9085 54.8129C25.8514 54.8129 25.7942 54.8062 25.7372 54.7913C25.3866 54.6965 25.1788 54.3369 25.2724 53.9852L26.7203 48.5813C26.8141 48.2305 27.1748 48.0223 27.5254 48.1163C27.8773 48.2104 28.0849 48.571 27.9913 48.9219L26.5436 54.3254C26.4647 54.62 26.1985 54.813 25.9085 54.8129Z" fill="#111111"/>
<path fill-rule="evenodd" clip-rule="evenodd" d="M22.3371 55.8726C22.047 55.8726 21.7809 55.6786 21.7022 55.3852C21.6085 55.0334 21.8163 54.6738 22.1669 54.579L24.492 53.9566L22.9424 52.4071C22.6855 52.1513 22.6853 51.7345 22.9422 51.4776C23.1994 51.2207 23.6159 51.2207 23.8729 51.4776L26.2275 53.8321C26.3932 53.9977 26.4581 54.2399 26.3976 54.4671C26.3372 54.6942 26.1589 54.8713 25.9316 54.933L22.5072 55.8499C22.4502 55.8647 22.393 55.8727 22.3371 55.8726Z" fill="#111111"/>
<path fill-rule="evenodd" clip-rule="evenodd" d="M30.8695 55.4387C30.8135 55.4387 30.7552 55.4308 30.6981 55.4159C30.3478 55.3222 30.1397 54.9615 30.2334 54.6109L31.6814 49.2063C31.7762 48.8553 32.1358 48.647 32.4875 48.7411C32.8381 48.8351 33.0458 49.196 32.9522 49.5466L31.5044 54.9511C31.4255 55.2445 31.1594 55.4387 30.8695 55.4387Z" fill="#111111"/>
<path fill-rule="evenodd" clip-rule="evenodd" d="M27.3057 56.4973C27.0159 56.4973 26.7496 56.3032 26.6708 56.0097C26.5773 55.659 26.785 55.2983 27.1367 55.2035L29.4605 54.5811L27.911 53.0328C27.6551 52.7758 27.6551 52.3591 27.9109 52.1022C28.1679 51.8452 28.5846 51.8452 28.8416 52.1022L31.1963 54.4566C31.3631 54.6234 31.4268 54.8655 31.3663 55.0916C31.3057 55.3188 31.1287 55.4958 30.9015 55.5575L27.477 56.4744C27.42 56.4903 27.3628 56.4973 27.3057 56.4973Z" fill="#111111"/>
<path fill-rule="evenodd" clip-rule="evenodd" d="M35.3756 43.3101C35.2055 43.3103 35.0342 43.2441 34.9051 43.1123C34.7934 42.9987 32.063 40.3036 27.1277 40.7986C24.6693 41.0447 22.7064 40.0412 21.4468 37.8959C20.5333 36.3388 20.3267 34.729 20.3175 34.6612C20.2731 34.3006 20.5299 33.9723 20.8907 33.9278C21.2527 33.8837 21.5781 34.1393 21.6238 34.4993C21.6525 34.7269 22.3706 39.9527 26.9964 39.4897C32.5859 38.9302 35.7158 42.0593 35.846 42.1928C36.0996 42.4525 36.095 42.8689 35.8358 43.1228C35.708 43.248 35.5412 43.3102 35.3756 43.3101Z" fill="#111111"/>
<path fill-rule="evenodd" clip-rule="evenodd" d="M50.1349 41.5441C49.8187 41.5441 49.54 41.3154 49.4863 40.993C49.4281 40.6347 49.6701 40.2963 50.0286 40.2374C51.2392 40.038 52.9302 39.2659 54.5528 38.1716C55.9083 37.2577 57.0581 36.2321 57.7935 35.2836C58.5428 34.3149 58.5277 33.8427 58.4843 33.7778C58.441 33.7127 58.0081 33.5221 56.8297 33.8547C55.6742 34.1801 54.2925 34.8627 52.9371 35.7767C51.8114 36.5363 50.828 37.3712 50.0937 38.1914C49.8507 38.462 49.4349 38.485 49.1643 38.2426C48.8937 38.0002 48.8708 37.5845 49.1128 37.3139C49.9191 36.4139 50.9867 35.5054 52.2017 34.6861C53.6702 33.6959 55.1866 32.9511 56.4723 32.5885C58.4148 32.0406 59.2323 32.533 59.5748 33.0423C60.6357 34.6143 58.0961 37.3686 55.2882 39.2623C53.4898 40.4751 51.6513 41.3035 50.2422 41.5354C50.2069 41.5412 50.1703 41.5441 50.1349 41.5441Z" fill="#111111"/>
<path fill-rule="evenodd" clip-rule="evenodd" d="M50.1322 41.5437C50.1459 41.5591 50.1596 41.5753 50.1732 41.5923C50.4588 41.9669 51.161 42.5608 52.2755 43.1044C53.4745 43.6891 54.4074 43.8549 54.8287 43.8325C54.5868 43.4873 53.8821 42.8533 52.6831 42.2685C51.7367 41.8066 50.7431 41.5206 50.1573 41.5434C50.1481 41.5436 50.1424 41.5434 50.1322 41.5437ZM54.7376 45.1457C54.5775 45.1457 54.4005 45.1337 54.2064 45.1072C53.4676 45.0065 52.5769 44.7153 51.6988 44.2867C50.5605 43.7312 49.6229 43.04 49.1273 42.3899C48.907 42.1011 48.9617 41.6883 49.2506 41.4681C49.3707 41.3768 49.5075 41.331 49.6503 41.3333C49.5477 41.2217 49.4813 41.074 49.4756 40.9099C49.4632 40.5468 49.7462 40.2419 50.1093 40.2288C50.9202 40.1986 52.0985 40.5199 53.2598 41.0862C54.138 41.5146 54.9155 42.0371 55.4499 42.5572C56.3534 43.4373 56.3178 44.0818 56.1305 44.4675C55.9719 44.7928 55.5995 45.1458 54.7376 45.1457Z" fill="#111111"/>
<path fill-rule="evenodd" clip-rule="evenodd" d="M54.5978 42.3984C53.9231 42.3984 53.2811 42.3488 52.7045 42.251C52.3461 42.1901 52.105 41.8506 52.1656 41.4924C52.2261 41.1343 52.5663 40.8934 52.9238 40.954C53.6821 41.0827 54.5783 41.116 55.5158 41.0504C57.8615 40.8865 59.1642 40.2104 59.3845 39.9122C59.1242 39.6477 57.7402 39.1593 55.3948 39.3232C55.2637 39.3324 55.1333 39.3435 55.0054 39.3562C54.6425 39.3913 54.3214 39.1279 54.286 38.7664C54.2496 38.4048 54.5144 38.0828 54.8752 38.0471C55.0171 38.0331 55.1595 38.021 55.3034 38.0109C57.9231 37.8281 60.6143 38.3159 60.7194 39.819C60.7549 40.3224 60.4922 41.0477 59.0385 41.6424C58.1251 42.0161 56.9066 42.2719 55.6072 42.3626C55.2658 42.3866 54.9278 42.3985 54.5978 42.3984Z" fill="#111111"/>
<path fill-rule="evenodd" clip-rule="evenodd" d="M43.153 8.81864C41.3419 8.81864 39.5548 9.29363 37.9448 10.2233C35.5275 11.6191 33.7974 13.8728 33.0757 16.5693C32.3532 19.2657 32.724 22.0821 34.1194 24.4997C35.5149 26.9172 37.7689 28.6466 40.4649 29.369C43.1623 30.0916 45.9779 29.7209 48.3953 28.325C50.8127 26.9293 52.5426 24.6755 53.2654 21.9792C53.9872 19.2827 53.6171 16.4663 52.2206 14.0487C50.8252 11.6311 48.5711 9.90183 45.8751 9.17932C44.9741 8.93819 44.0607 8.81868 43.153 8.81864ZM43.1894 31.0456C42.1674 31.0457 41.1386 30.9114 40.1246 30.6397C37.0885 29.8262 34.551 27.8793 32.9798 25.1574C31.4087 22.4355 30.9906 19.2647 31.8048 16.2289C32.6181 13.193 34.5647 10.6557 37.287 9.0842C40.0082 7.51256 43.1791 7.09526 46.2154 7.90874C49.2518 8.72204 51.789 10.6691 53.3602 13.3911C54.9317 16.1128 55.3494 19.2838 54.5352 22.3196C53.7223 25.3553 51.7753 27.8928 49.053 29.4643C47.2409 30.5109 45.2277 31.0456 43.1894 31.0456Z" fill="#111111"/>
<path fill-rule="evenodd" clip-rule="evenodd" d="M38.2737 21.2433C37.9837 21.2433 37.7176 21.0496 37.64 20.7558C37.5454 20.4048 37.7541 20.0443 38.1047 19.9502L42.6325 18.737L44.1684 13.0037C44.2629 12.6528 44.6226 12.4447 44.9743 12.5387C45.325 12.6328 45.5327 12.9934 45.439 13.3443L43.804 19.4443C43.7434 19.6713 43.5664 19.8486 43.3391 19.9094L38.4451 21.2208C38.3881 21.2361 38.3308 21.2434 38.2737 21.2433Z" fill="#111111"/>
</g>
<defs>
<clipPath id="clip0_8470_13882">
<rect width="64" height="64" fill="white"/>
</clipPath>
</defs>
</svg>
