<svg width="64" height="64" viewBox="0 0 64 64" fill="none" xmlns="http://www.w3.org/2000/svg">
<g clip-path="url(#clip0_8470_13915)">
<path d="M22.75 34.4195C23.4452 34.9866 25.0679 36.0456 27.4938 36.0456C28.3487 36.0456 29.3058 35.9089 30.3548 35.5776C26.1894 42.2573 26.9478 50.9979 32.6913 56.9121C32.8001 57.0236 32.9112 57.1347 33.0231 57.2443C33.4297 57.747 33.5771 58.2061 33.473 58.6459C33.2384 59.6386 31.8233 60.4584 31.2986 60.6899C31.0146 60.8138 30.8294 61.0919 30.8248 61.4017C30.8202 61.7111 30.9961 61.9951 31.2762 62.1278C32.9676 62.9307 34.4568 63.2208 35.726 63.2208C38.1512 63.2204 39.7747 62.1614 40.4699 61.5946C46.7747 63.433 53.5084 61.715 58.1342 57.053C61.4552 53.7057 63.2615 49.2779 63.2191 44.585C63.1774 39.8913 61.2909 35.4951 57.9089 32.2065C50.9313 25.4225 39.6813 25.5248 32.8302 32.4291C32.4904 32.7716 32.18 33.1306 31.874 33.4918C31.3178 33.2361 29.9754 32.4376 29.7469 31.4708C29.6427 31.031 29.7901 30.5722 30.1967 30.0692C30.3086 29.9596 30.4197 29.8485 30.5293 29.7362C37.2284 22.8381 37.1666 12.0842 30.3896 5.25396C23.5362 -1.65152 12.2862 -1.75222 5.31092 5.03135C1.92897 8.31993 0.0423977 12.7161 0.00073113 17.4098C-0.0417071 22.1027 1.76462 26.5306 5.08561 29.8782C9.71215 34.5402 16.4421 36.259 22.75 34.4195ZM33.9521 33.5421C40.1952 27.2501 50.4483 27.1575 56.8071 33.3392C59.885 36.3315 61.601 40.3303 61.6389 44.5992C61.6774 48.867 60.0339 52.8944 57.0123 55.9399C52.6998 60.2856 46.3788 61.8249 40.5139 59.9561C40.2245 59.8635 39.9081 59.9457 39.699 60.1668C39.6751 60.1934 37.4359 62.4986 33.3904 61.2624C34.0717 60.737 34.7793 59.9835 35.01 59.0151C35.1659 58.3604 35.1551 57.3415 34.2152 56.2057C34.1967 56.1834 34.1774 56.1621 34.1566 56.1421C34.0439 56.0329 33.9328 55.9218 33.8248 55.8103C27.7314 49.536 27.7878 39.7547 33.9521 33.5421ZM6.41277 6.16406C12.7693 -0.0172632 23.0231 0.074172 29.2677 6.36738C35.4321 12.5796 35.4884 22.3608 29.3958 28.6344C29.287 28.7466 29.1759 28.8577 29.0632 28.9669C29.0424 28.987 29.0231 29.0082 29.0046 29.0306C28.0648 30.1664 28.054 31.1853 28.2098 31.84C28.4413 32.8087 29.1489 33.5626 29.8302 34.0881C25.8348 35.3168 23.6203 33.0946 23.5208 32.9916C23.3688 32.8307 23.1605 32.7435 22.9459 32.7435C22.8657 32.7435 22.7847 32.7559 22.706 32.781C16.8426 34.6498 10.5193 33.1108 6.20752 28.7648C3.18592 25.7192 1.5424 21.6918 1.58098 17.4241C1.61879 13.1552 3.33484 9.15635 6.41277 6.16406Z" fill="#111111"/>
<path d="M7.55491 14.7145C7.99859 14.7762 8.3867 14.4741 8.44766 14.042C8.59504 12.9969 9.50167 12.2087 10.5565 12.2087C11.6112 12.2087 12.5179 12.9969 12.6653 14.042C12.7208 14.4371 13.0588 14.7222 13.4469 14.7222C13.4832 14.7222 13.5202 14.7199 13.558 14.7145C13.9901 14.6535 14.291 14.2542 14.2301 13.8221C13.9739 12.0015 12.3944 10.6284 10.5565 10.6284C8.71849 10.6284 7.13902 12.0015 6.88284 13.8221C6.82189 14.2542 7.12281 14.6535 7.55491 14.7145Z" fill="#111111"/>
<path d="M21.8127 14.7145C22.2549 14.7762 22.6445 14.4741 22.7055 14.042C22.8528 12.9969 23.7587 12.2087 24.8135 12.2087C25.8683 12.2087 26.7749 12.9969 26.9223 14.042C26.9778 14.4371 27.3158 14.7222 27.7039 14.7222C27.7402 14.7222 27.7772 14.7199 27.815 14.7145C28.2471 14.6535 28.5481 14.2542 28.4871 13.8221C28.2309 12.0015 26.6515 10.6284 24.8135 10.6284C22.9755 10.6284 21.3968 12.0015 21.1407 13.8221C21.0797 14.2542 21.3806 14.6535 21.8127 14.7145Z" fill="#111111"/>
<path d="M49.6643 41.8897C50.108 41.9503 50.4961 41.649 50.557 41.2173C50.7044 40.1722 51.611 39.384 52.6658 39.384C53.7206 39.384 54.6273 40.1722 54.7746 41.2173C54.8302 41.6124 55.1681 41.8975 55.5563 41.8975C55.5925 41.8975 55.6296 41.8951 55.6674 41.8897C56.0995 41.8288 56.4004 41.4295 56.3394 40.9974C56.0833 39.1768 54.5038 37.8037 52.6658 37.8037C50.8279 37.8037 49.2484 39.1768 48.9922 40.9974C48.9313 41.4295 49.2322 41.8288 49.6643 41.8897Z" fill="#111111"/>
<path d="M35.3987 41.8897C35.8392 41.9503 36.2305 41.649 36.2914 41.2173C36.4388 40.1722 37.3454 39.384 38.4002 39.384C39.455 39.384 40.3609 40.1722 40.5082 41.2173C40.5638 41.6124 40.9017 41.8975 41.2899 41.8975C41.3261 41.8975 41.3632 41.8951 41.401 41.8897C41.8331 41.8288 42.134 41.4295 42.073 40.9974C41.8169 39.1768 40.2382 37.8037 38.4002 37.8037C36.5622 37.8037 34.9828 39.1768 34.7266 40.9974C34.6656 41.4295 34.9666 41.8288 35.3987 41.8897Z" fill="#111111"/>
<path d="M39.3226 52.0954C38.9993 52.3882 38.9738 52.8878 39.2663 53.2115C40.8704 54.985 43.1528 56.002 45.5301 56.002C47.9075 56.002 50.1906 54.985 51.7948 53.2115C52.0872 52.8878 52.0618 52.3882 51.7385 52.0954C51.4144 51.8033 50.9167 51.828 50.622 52.1513C49.318 53.5942 47.4615 54.4218 45.5301 54.4218C43.5988 54.4218 41.7431 53.5942 40.4391 52.1513C40.1443 51.828 39.6459 51.8033 39.3226 52.0954Z" fill="#111111"/>
</g>
<defs>
<clipPath id="clip0_8470_13915">
<rect width="64" height="64" fill="white"/>
</clipPath>
</defs>
</svg>
