<svg width="64" height="64" viewBox="0 0 64 64" fill="none" xmlns="http://www.w3.org/2000/svg">
<g clip-path="url(#clip0_8470_13855)">
<path d="M1.3432 61.416L22.5805 63.9947C22.6129 63.9985 22.6449 64.0001 22.6765 64.0001C23.0643 64.0001 23.4015 63.7153 23.4578 63.3218L28.6583 26.9964L30.0924 27.1706C30.1245 27.1744 30.1561 27.176 30.1877 27.176C30.3694 27.176 30.5469 27.1135 30.6889 26.997C30.8555 26.8596 30.9593 26.6606 30.9755 26.446L31.3563 21.446C31.3883 21.0248 31.0832 20.6521 30.6638 20.6011L29.7678 20.4923L29.4408 15.8496C29.4142 15.4723 29.1237 15.1667 28.7479 15.1204L6.77221 12.4522C6.39798 12.4106 6.0415 12.6351 5.92499 12.9947L4.49627 17.4237L3.59976 17.3149C3.17962 17.2678 2.79497 17.5533 2.72514 17.9692L1.89875 22.9152C1.86326 23.1281 1.91612 23.3457 2.04536 23.5186C2.1746 23.6914 2.36866 23.8041 2.58278 23.8303L4.0211 24.0049L0.651841 60.5587C0.612489 60.9846 0.918816 61.3643 1.3432 61.416ZM7.22862 14.0996L27.9103 16.6112L28.1699 20.2983L6.09383 17.6177L7.22862 14.0996ZM4.15917 18.9754L29.7232 22.0795L29.4628 25.5016L3.59358 22.3612L4.15917 18.9754ZM5.59026 24.1955L27.0895 26.806L22.0033 62.3326L2.29575 59.9391L5.59026 24.1955Z" fill="#111111"/>
<path d="M15.4498 6.4791C17.0327 6.66815 18.471 5.5416 18.6631 3.96136C18.8545 2.38188 17.7252 0.940522 16.1458 0.748392C15.7167 0.695151 15.3186 1.00456 15.2661 1.43744C15.2137 1.87108 15.5219 2.2646 15.9552 2.31784C16.6701 2.40426 17.1809 3.05626 17.0944 3.77077C17.0076 4.48605 16.3545 5.00379 15.64 4.90966C14.0547 4.72139 12.6187 5.8487 12.4274 7.42818C12.236 9.00765 13.3653 10.449 14.9448 10.6411C14.9772 10.645 15.0092 10.6465 15.0412 10.6465C15.4347 10.6465 15.7758 10.3526 15.8244 9.9521C15.8768 9.51845 15.5686 9.12494 15.1353 9.0717C14.4204 8.98528 13.9096 8.33327 13.9961 7.61799C14.0825 6.90426 14.7322 6.38342 15.4498 6.4791Z" fill="#111111"/>
<path d="M20.7917 7.51301C21.0663 7.2985 21.4074 7.19973 21.7546 7.24526C23.336 7.4343 24.7758 6.30776 24.9676 4.72751C25.1597 3.14804 24.0305 1.70591 22.4506 1.51378C22.0216 1.46439 21.6234 1.76995 21.571 2.20282C21.5181 2.63646 21.8268 3.02998 22.26 3.08322C22.9749 3.16964 23.4857 3.82242 23.3989 4.53693C23.3125 5.2522 22.6605 5.76918 21.9452 5.67581C21.1786 5.58554 20.4244 5.79387 19.8171 6.26918C19.2102 6.74449 18.8248 7.42813 18.7322 8.19279C18.5401 9.77304 19.6694 11.2144 21.2492 11.4065C21.2816 11.4104 21.3136 11.4119 21.3457 11.4119C21.7392 11.4119 22.0802 11.1179 22.1288 10.7175C22.1817 10.2838 21.8731 9.89032 21.4398 9.83708C20.7249 9.75066 20.2141 9.09865 20.3009 8.38338C20.343 8.0377 20.5173 7.72828 20.7917 7.51301Z" fill="#111111"/>
<path d="M33.9592 26.9969C34.1012 27.1134 34.2786 27.1759 34.4603 27.1759C34.492 27.1759 34.524 27.1744 34.5556 27.1705L35.9898 26.9964L41.1899 63.3217C41.2462 63.7153 41.5834 64 41.9712 64C42.0028 64 42.0348 63.9984 42.0672 63.9946L63.3049 61.4159C63.7293 61.3642 64.0356 60.9845 63.9962 60.5586L60.627 24.0048L62.0653 23.8302C62.2794 23.804 62.4735 23.6913 62.6027 23.5185C62.732 23.3457 62.7848 23.1281 62.7493 22.9151L61.9225 17.9691C61.8527 17.5532 61.4688 17.2639 61.0479 17.3148L60.1518 17.4236L58.7231 12.9946C58.6073 12.635 58.2536 12.4097 57.8759 12.4521L35.9002 15.1203C35.5244 15.1666 35.2339 15.4722 35.2073 15.8495L34.88 20.4923L33.9839 20.6011C33.5645 20.652 33.2593 21.0247 33.2914 21.446L33.6725 26.446C33.6887 26.6612 33.7925 26.8595 33.9592 26.9969ZM62.3523 59.939L42.6444 62.3325L37.5586 26.8059L59.0578 24.1954L62.3523 59.939ZM61.0545 22.3611L35.1853 25.5015L34.9245 22.0794L60.4885 18.9753L61.0545 22.3611ZM36.7377 16.6111L57.4195 14.0995L58.5542 17.6176L36.4779 20.2982L36.7377 16.6111Z" fill="#111111"/>
<path d="M49.5178 9.0717C49.0846 9.12494 48.7763 9.51845 48.8288 9.9521C48.8774 10.3526 49.2184 10.6465 49.612 10.6465C49.644 10.6465 49.676 10.645 49.7084 10.6411C50.4738 10.5478 51.1571 10.162 51.6324 9.55549C52.1077 8.94824 52.3184 8.19284 52.2254 7.42818C52.034 5.8487 50.5892 4.72139 49.0124 4.90966C48.2968 5.00071 47.6455 4.48605 47.5587 3.77077C47.4719 3.05626 47.9827 2.40426 48.6976 2.31784C49.1309 2.2646 49.4395 1.87108 49.3867 1.43744C49.3342 1.00456 48.9353 0.695151 48.507 0.748392C46.9272 0.940522 45.7979 2.38188 45.99 3.96213C46.1822 5.5416 47.6185 6.66506 49.2026 6.4791C49.9171 6.38574 50.5703 6.90349 50.6567 7.61876C50.6988 7.96444 50.6035 8.30626 50.3886 8.58095C50.1733 8.85565 49.8643 9.03003 49.5178 9.0717Z" fill="#111111"/>
<path d="M43.2128 9.83708C42.7795 9.89032 42.4712 10.2838 42.5237 10.7175C42.5723 11.1179 42.9134 11.4119 43.3069 11.4119C43.3389 11.4119 43.3709 11.4104 43.4033 11.4065C44.1688 11.3132 44.852 10.9281 45.3273 10.3209C45.803 9.71439 46.0137 8.95822 45.9207 8.19279C45.7286 6.61254 44.2864 5.49217 42.7077 5.67581C42.359 5.71902 42.0191 5.62257 41.7448 5.40807C41.4705 5.19279 41.2961 4.88338 41.254 4.5377C41.1672 3.82242 41.678 3.16964 42.3929 3.08322C42.8262 3.02998 43.1344 2.63646 43.082 2.20282C43.0295 1.76995 42.6302 1.46439 42.2023 1.51378C40.6225 1.70591 39.4932 3.14804 39.6854 4.72751C39.778 5.49294 40.1634 6.17659 40.7702 6.65189C41.3767 7.1272 42.1302 7.33322 42.8983 7.24526C43.6074 7.14958 44.2652 7.66887 44.352 8.38415C44.3941 8.72983 44.2988 9.07165 44.0835 9.34634C43.8686 9.62103 43.5592 9.79541 43.2128 9.83708Z" fill="#111111"/>
</g>
<defs>
<clipPath id="clip0_8470_13855">
<rect width="64" height="64" fill="white"/>
</clipPath>
</defs>
</svg>
