<svg width="644" height="159" viewBox="0 0 644 159" fill="none" xmlns="http://www.w3.org/2000/svg">
<path d="M15 86.4942C36.4896 75.0346 83.6613 60.3919 148.194 108.777C204.867 151.27 255.979 148.504 331.944 115.144C426.901 73.4431 395.143 5.63973 360.844 4.04808C326.546 2.45645 292.247 40.3372 339.884 124.375C377.994 191.605 486.839 142.891 532.337 108.777C574.321 77.2981 628.434 28.3473 631 25.2718" stroke="#333333" stroke-width="1.5" stroke-linejoin="round" stroke-dasharray="10 10"/>
<path d="M15.6999 80.0259C15.2809 80.3247 14.7191 80.3247 14.3001 80.0259C8.26422 75.7216 1.85697 66.8714 8.33338 60.4766C10.1015 58.7308 12.4995 57.75 15 57.75C17.5005 57.75 19.8985 58.7308 21.6666 60.4766C28.143 66.8714 21.7358 75.7216 15.6999 80.0259Z" stroke="#C51309" stroke-width="1.5" stroke-linecap="round" stroke-linejoin="round"/>
<path d="M15 69C16.3807 69 17.5 67.8807 17.5 66.5C17.5 65.1193 16.3807 64 15 64C13.6193 64 12.5 65.1193 12.5 66.5C12.5 67.8807 13.6193 69 15 69Z" stroke="#C51309" stroke-width="1.5" stroke-linecap="round" stroke-linejoin="round"/>
<path d="M633.513 19.0857C633.206 19.3048 632.794 19.3048 632.487 19.0857C628.06 15.9292 623.362 9.43901 628.111 4.74951C629.408 3.46924 631.166 2.75 633 2.75C634.834 2.75 636.592 3.46924 637.889 4.74951C642.638 9.43901 637.94 15.9292 633.513 19.0857Z" stroke="#C51309" stroke-width="1.5" stroke-linecap="round" stroke-linejoin="round"/>
<path d="M633.001 10.9999C634.014 10.9999 634.835 10.1791 634.835 9.16659C634.835 8.15406 634.014 7.33325 633.001 7.33325C631.989 7.33325 631.168 8.15406 631.168 9.16659C631.168 10.1791 631.989 10.9999 633.001 10.9999Z" stroke="#C51309" stroke-width="1.5" stroke-linecap="round" stroke-linejoin="round"/>
</svg>
