<svg width="96" height="18" viewBox="0 0 96 18" fill="none" xmlns="http://www.w3.org/2000/svg">
<path d="M0 0H18V18H0V0ZM19.5 0H37.5V18H19.5V0ZM39 0H57V18H39V0ZM58.5 0H76.5V18H58.5V0ZM78 0H96V18H78V0Z" fill="#00B67A"/>
<path d="M8.99922 12.1313L11.7367 11.4376L12.8805 14.9626L8.99922 12.1313ZM15.2992 7.5751H10.4805L8.99922 3.0376L7.51797 7.5751H2.69922L6.59922 10.3876L5.11797 14.9251L9.01797 12.1126L11.418 10.3876L15.2992 7.5751ZM28.4992 12.1313L31.2367 11.4376L32.3805 14.9626L28.4992 12.1313ZM34.7992 7.5751H29.9805L28.4992 3.0376L27.018 7.5751H22.1992L26.0992 10.3876L24.618 14.9251L28.518 12.1126L30.918 10.3876L34.7992 7.5751ZM47.9992 12.1313L50.7367 11.4376L51.8805 14.9626L47.9992 12.1313ZM54.2992 7.5751H49.4805L47.9992 3.0376L46.518 7.5751H41.6992L45.5992 10.3876L44.118 14.9251L48.018 12.1126L50.418 10.3876L54.2992 7.5751ZM67.4992 12.1313L70.2367 11.4376L71.3805 14.9626L67.4992 12.1313ZM73.7992 7.5751H68.9805L67.4992 3.0376L66.018 7.5751H61.1992L65.0992 10.3876L63.618 14.9251L67.518 12.1126L69.918 10.3876L73.7992 7.5751ZM86.9992 12.1313L89.7367 11.4376L90.8805 14.9626L86.9992 12.1313ZM93.2992 7.5751H88.4805L86.9992 3.0376L85.518 7.5751H80.6992L84.5992 10.3876L83.118 14.9251L87.018 12.1126L89.418 10.3876L93.2992 7.5751Z" fill="white"/>
</svg>
