<svg width="128" height="24" viewBox="0 0 128 24" fill="none" xmlns="http://www.w3.org/2000/svg">
<g clip-path="url(#clip0_8308_4968)">
<path d="M0 0H23.9062V24H0V0ZM25.8984 0H49.8047V24H25.8984V0ZM51.7969 0H75.7031V24H51.7969V0ZM77.6953 0H101.602V24H77.6953V0Z" fill="#00B67A"/>
<path d="M115.547 0H127.5V24H115.547V0Z" fill="#DCDCE6"/>
<path d="M103.594 0H115.547V24H103.594V0Z" fill="#00B67A"/>
<path d="M11.9531 16.1738L15.5889 15.2488L17.1079 19.9488L11.9531 16.1738ZM20.3203 10.0988H13.9204L11.9531 4.04883L9.98584 10.0988H3.58594L8.76563 13.8488L6.79834 19.8988L11.978 16.1488L15.1655 13.8488L20.3203 10.0988ZM37.8516 16.1738L41.4873 15.2488L43.0064 19.9488L37.8516 16.1738ZM46.2188 10.0988H39.8189L37.8516 4.04883L35.8843 10.0988H29.4844L34.6641 13.8488L32.6968 19.8988L37.8765 16.1488L41.064 13.8488L46.2188 10.0988ZM63.75 16.1738L67.3858 15.2488L68.9048 19.9488L63.75 16.1738ZM72.1172 10.0988H65.7173L63.75 4.04883L61.7827 10.0988H55.3828L60.5625 13.8488L58.5952 19.8988L63.7749 16.1488L66.9624 13.8488L72.1172 10.0988ZM89.6485 16.1738L93.2842 15.2488L94.8032 19.9488L89.6485 16.1738ZM98.0156 10.0988H91.6157L89.6485 4.04883L87.6812 10.0988H81.2813L86.461 13.8488L84.4937 19.8988L89.6734 16.1488L92.8608 13.8488L98.0156 10.0988ZM115.547 16.1738L119.183 15.2488L120.702 19.9488L115.547 16.1738ZM123.914 10.0988H117.514L115.547 4.04883L113.58 10.0988H107.18L112.359 13.8488L110.392 19.8988L115.572 16.1488L118.759 13.8488L123.914 10.0988Z" fill="white"/>
</g>
<defs>
<clipPath id="clip0_8308_4968">
<rect width="128" height="24" fill="white"/>
</clipPath>
</defs>
</svg>
