<svg width="167" height="209" viewBox="0 0 167 209" fill="none" xmlns="http://www.w3.org/2000/svg">
<g clip-path="url(#clip0_7934_4791)">
<path fill-rule="evenodd" clip-rule="evenodd" d="M103.473 80.7228C98.4529 86.4933 92.3554 90.5397 85.086 92.992C79.2108 94.9748 73.2915 95.5472 67.1919 94.7527C64.6191 94.4178 62.046 94.0749 59.4744 93.7206C59.3365 93.7043 59.2033 93.5957 59.0827 93.5178C58.4401 93.1067 57.8518 92.5665 57.1597 92.2829C42.5564 86.2961 33.9495 75.4471 30.9212 60.0054C30.7902 59.3458 30.1778 58.7868 29.7876 58.1736C29.7111 58.0485 29.6565 57.9069 29.5411 57.6705C29.9109 57.5243 30.2438 57.3978 30.5693 57.2764C29.148 40.5624 37.5689 21.8347 58.466 13.7879C58.3296 13.2573 58.1917 12.7168 57.9433 11.7519C57.0748 12.2618 56.0982 12.5087 55.7383 13.1156C54.8827 14.555 53.8197 15.2035 52.2316 14.7732C51.1387 14.4806 50.2241 15.0441 50.0822 16.0921C49.9183 17.3083 48.2408 18.4069 47.0443 18.0817C46.0411 17.7961 44.9331 18.492 44.8821 19.4309C44.794 20.9881 43.7059 22.0404 42.1835 22.0554C40.8354 22.0641 40.2148 22.7135 40.3568 23.972C40.4982 25.2063 39.3356 26.5475 38.0516 26.6382C36.8678 26.7244 36.1672 27.6462 36.4388 28.7686C36.7691 30.1429 35.8821 31.5839 34.508 31.8925C33.303 32.1732 32.8188 33.1252 33.3132 34.2513C33.7737 35.2654 33.1461 37.0824 32.1887 37.528C30.2728 38.4195 30.1423 38.9997 31.6633 40.6319C31.1982 41.5474 30.9101 42.7931 30.1316 43.4842C28.9996 44.487 28.6836 45.0181 29.5476 46.218C30.2338 47.1733 29.9876 49.0469 29.0877 49.7376C28.0508 50.5217 27.9824 51.5915 28.92 52.4476C29.8635 53.309 29.8643 54.9782 28.9293 55.9489C28.0942 56.8091 28.2299 58.0258 29.2301 58.6844C30.2052 59.3182 30.5501 61.2339 29.8629 62.1496C28.9354 63.3716 29.1039 64.1469 30.462 64.8483C31.5243 65.403 32.09 67.1579 31.535 68.1824C30.8217 69.5163 31.1313 70.2737 32.5721 70.7207C33.6611 71.0628 34.4954 72.9246 34.0455 73.9916C33.5987 75.052 34.0862 76.0285 35.1803 76.2528C36.6933 76.568 37.5877 77.801 37.3897 79.3042C37.2193 80.5803 37.8098 81.2597 39.1239 81.2968C40.009 81.3209 41.6858 82.87 41.6701 83.6612C41.6337 85.8378 42.3489 86.2717 44.2866 85.2589C44.6335 85.7034 44.9879 86.1428 45.3316 86.5939C45.6594 87.026 46.2084 87.4518 46.2442 87.9158C46.3699 89.4852 47.0665 89.9443 48.5529 89.5406C49.5757 89.2614 51.2997 90.4117 51.5536 91.4349C51.882 92.7687 52.5738 93.1471 53.8231 92.6695C55.2884 92.1153 58.1953 93.6783 58.5396 95.2378C58.7358 95.2343 58.9651 95.2962 59.1493 95.2323C61.5748 94.3755 61.7761 94.5036 63.5896 96.2605C63.9863 96.6417 65.2035 96.6168 65.763 96.292C66.8407 95.6667 68.5151 95.618 69.3412 96.5334C70.2673 97.553 71.1918 97.6028 72.0961 96.6662C72.8926 95.8412 74.6811 95.7716 75.5898 96.5282C76.5866 97.3644 77.5697 97.2376 78.3266 96.1721C78.8867 95.382 80.9925 94.8584 81.7087 95.4713C83.0375 96.6026 83.7668 95.8679 84.4525 94.7691C85.1245 93.6948 86.6988 93.2161 87.819 93.7694C89.042 94.3706 89.8455 93.9731 90.1758 92.5929C90.401 91.6395 92.5072 90.6018 93.3964 90.9989C94.5848 91.5238 95.4724 91.0192 95.7047 89.6932C95.9376 88.3019 97.356 87.3332 98.6957 87.6413C99.7144 87.8798 100.78 87.1179 100.673 86.0476C100.506 84.3968 101.653 83.7754 102.771 83.3652C105.111 82.5027 105.143 82.5927 104.606 79.9144C104.179 80.2197 103.753 80.4067 103.473 80.7228Z" fill="#664117" fill-opacity="0.2"/>
<path fill-rule="evenodd" clip-rule="evenodd" d="M107.607 28.4746C108.225 27.5323 107.97 27.1191 106.856 27.0758C105.393 27.022 104.332 25.721 104.45 24.2134C104.537 23.0208 103.87 22.3944 102.743 22.3531C100.967 22.2896 99.9781 21.4339 99.8063 19.7868C99.6874 18.6286 98.883 18.1295 97.7812 18.288C96.083 18.5275 94.8793 17.788 94.4928 16.136C94.2683 15.1746 93.1008 14.4593 92.335 14.8085C90.9542 15.4378 89.4872 14.7514 88.8241 13.5108C88.5066 12.9062 87.6105 12.5315 86.8961 12.242C86.7693 12.1905 86.2554 13.0796 85.8846 13.5711C85.2164 13.2076 84.3451 12.7661 83.5162 12.2594C83.1862 12.0608 82.8862 11.7539 82.6836 11.4244C82.0252 10.3673 80.9956 10.1243 79.9882 10.8461C78.9386 11.5853 77.1657 11.3401 76.4146 10.3455C75.564 9.2088 74.6451 9.15611 73.6971 10.1765C72.8366 11.1067 70.8652 11.0903 69.9947 10.1499C69.1331 9.21541 68.1011 9.23847 67.3138 10.2087C66.3475 11.4089 64.7694 11.6683 63.5837 10.7745C62.6927 10.1029 61.9252 10.261 61.1808 10.9623C60.3989 11.7139 59.6251 12.4714 58.3012 13.7621C64.32 11.979 70.187 11.3013 76.1642 11.9286C82.3447 12.5809 88.107 14.4452 93.4188 17.5527C98.6607 20.6145 103.068 24.6575 106.868 29.9741C107.224 29.2375 107.374 28.8276 107.607 28.4746Z" fill="#664117" fill-opacity="0.2"/>
<path fill-rule="evenodd" clip-rule="evenodd" d="M114.734 49.5334C115.413 48.7664 114.945 45.4418 114.07 44.8461C112.703 43.9099 112.433 42.5624 112.934 41.0225C113.133 40.4273 112.731 39.0207 112.447 38.9762C111.239 38.7829 111.107 37.8405 110.649 37.0652C110.361 36.5602 109.939 36.1471 109.568 35.6908C109.427 36.3845 109.555 36.9173 109.78 37.3991C112.731 43.7582 113.817 50.4433 113.246 57.4119C112.658 64.5162 110.358 71.0201 106.446 76.9548C106.088 77.5044 105.876 78.1515 105.597 78.7516C105.735 78.8207 105.867 78.8919 106.007 78.9648C106.355 78.8555 106.698 78.6897 107.062 78.6574C108.154 78.5543 108.927 77.5139 108.638 76.4796C108.279 75.2073 109.103 73.796 110.438 73.3973C111.447 73.0967 111.993 71.9708 111.554 71.1032C110.953 69.9164 111.501 68.3005 112.672 67.7897C113.828 67.2873 114.122 66.2534 113.431 65.1553C112.811 64.1769 113.18 62.4439 114.13 61.9067C115.193 61.3111 115.417 60.1176 114.641 59.1979C113.918 58.3397 114.013 56.4414 114.815 55.6991C115.902 54.7142 115.914 54.0456 114.875 53.061C114.032 52.2591 113.959 50.4072 114.734 49.5334Z" fill="#664117" fill-opacity="0.2"/>
<path fill-rule="evenodd" clip-rule="evenodd" d="M59.2643 56.3487C59.2055 56.3574 59.1151 56.4145 58.9887 56.5319C58.8741 56.7219 58.688 56.9733 58.5941 57.207L59.1289 57.3785C59.3432 56.8552 59.4768 56.3174 59.2643 56.3487Z" fill="#664117" fill-opacity="0.2"/>
<path fill-rule="evenodd" clip-rule="evenodd" d="M59.6043 57.3229L58.7475 58.2434L59.7758 58.3053L59.6043 57.3229Z" fill="#664117" fill-opacity="0.2"/>
<path fill-rule="evenodd" clip-rule="evenodd" d="M50.2332 52.1563C50.2596 52.5627 50.093 52.5944 49.865 52.9965L49.9008 52.7561C50.0689 52.203 49.9933 52.6783 50.2332 52.1563ZM51.4164 50.3815L50.3818 50.6635C49.9001 50.7835 49.543 51.0642 49.2988 51.4046C49.3057 51.4036 49.3137 51.4024 49.3247 51.4008C49.594 51.361 49.6912 52.0195 49.7897 52.1831C49.724 52.1175 49.6438 52.0988 49.556 52.1118C49.3555 52.1413 49.1215 52.3235 48.9396 52.3544C48.8366 53.2175 49.2262 54.1443 50.1871 54.5227L54.1283 56.0847C54.0976 55.4276 53.2928 56.1551 53.3254 55.1883C53.3123 55.2513 53.3276 55.2796 53.2888 55.3688L53.3231 55.1245C53.32 55.1515 53.3286 55.1614 53.3244 55.1814C53.4894 54.5595 52.9312 54.8933 52.8395 54.4997L53.4655 53.541C53.607 52.9806 53.4067 52.7629 53.1444 52.8016C53.0386 52.8172 52.9235 52.8729 52.8153 52.9682C52.7842 53.1856 53.0405 53.334 52.8869 53.3567C52.8729 53.3587 52.858 53.3609 52.8394 53.3596L52.476 53.0448L52.9236 52.77C53.5117 50.3949 51.2582 52.4377 51.2457 50.8892L51.1334 51.088C51.212 50.5369 51.3017 50.5919 51.4164 50.3815Z" fill="#664117" fill-opacity="0.2"/>
<path fill-rule="evenodd" clip-rule="evenodd" d="M68.9797 34.2382C68.9877 34.237 68.9906 34.2366 68.9986 34.2354C68.9188 34.3092 68.8283 34.4071 68.744 34.5264C68.812 34.3729 68.8879 34.2517 68.9797 34.2382ZM68.744 34.5264C68.6278 34.7818 68.5348 35.1182 68.428 35.1339C68.3911 35.1394 68.3529 35.1084 68.3112 35.026L68.3849 35.0701C68.515 34.8534 68.6309 34.6714 68.744 34.5264ZM71.8681 39.3697C71.8523 39.3934 71.8415 39.4174 71.8308 39.4485C71.8419 39.4204 71.8529 39.3974 71.8681 39.3697ZM70.0261 41.8107L70.0925 42.1094C70.0217 42.1127 69.9712 42.0468 70.0261 41.8107ZM70.4257 41.9981C70.5254 41.9834 70.5224 42.0937 70.2268 42.6321L70.0925 42.1094C70.1041 42.1117 70.1121 42.1105 70.1231 42.1089C70.2218 42.0943 70.3529 42.0088 70.4257 41.9981ZM69.4631 41.9121C69.4693 42.3886 69.2156 42.6307 69.0666 43.0232L69.4631 41.9121ZM76.0425 43.0084C75.9751 43.166 75.8989 43.3126 75.8959 43.313C75.8919 43.3136 75.9226 43.2388 76.0232 43.0296C76.0302 43.0285 76.0385 43.009 76.0425 43.0084ZM68.9154 43.98L68.6871 44.9817L68.6915 44.3764L68.9154 43.98ZM74.6586 43.8652L74.3218 44.718C74.3942 44.4213 74.4327 44.0675 74.6586 43.8652ZM74.7289 44.5002L74.2714 44.9087C74.2887 44.8735 74.2934 44.8291 74.3054 44.7866L74.2885 44.7962L74.3218 44.718C74.3215 44.7435 74.3108 44.7675 74.3054 44.7866L74.7289 44.5002ZM81.791 42.7289L82.0353 42.9341L81.4141 44.118C81.5327 43.727 81.9169 42.919 81.791 42.7289ZM70.661 45.0425C70.7677 45.0268 70.818 45.1395 70.7651 45.5402L70.3948 45.8626C70.3866 45.3721 69.4247 45.9325 69.675 45.3082C69.7184 45.4779 69.7973 45.5294 69.897 45.5146C70.1354 45.4794 70.4775 45.0696 70.661 45.0425ZM82.8432 44.0028C82.9479 44.1523 83.0674 44.2232 83.1841 44.2751C83.1732 44.2768 83.1582 44.279 83.1472 44.2806C83.0514 44.2947 82.9287 44.3536 82.8449 44.3659C82.7412 44.3812 82.6987 44.3214 82.8432 44.0028ZM72.9415 45.8827C72.9784 45.8772 72.9765 45.9396 72.9118 46.1364C72.5188 46.6851 72.4016 46.395 72.126 46.6402L72.3754 46.0171C72.3453 46.2414 72.3779 46.3099 72.4397 46.3008C72.5793 46.2802 72.8578 45.895 72.9415 45.8827ZM66.2479 49.1284L66.1683 49.7081C66.0572 49.7978 65.8912 49.9434 65.8134 49.9549C65.7546 49.9636 65.745 49.8989 65.845 49.6785C65.9508 49.4837 66.2148 49.3603 66.2479 49.1284ZM65.1834 49.2489L65.0663 50.0581L64.9732 50.138L65.0872 49.3363L65.1834 49.2489ZM75.9642 47.111C75.975 47.4392 76.0506 47.5237 76.1573 47.508C76.3049 47.4862 76.5093 47.2687 76.6599 47.2465C76.7227 47.2372 76.7755 47.263 76.81 47.3455C76.5806 47.8557 76.2931 48.2208 76.1003 48.4956C75.9525 48.4329 75.7664 47.9871 75.9642 47.111ZM87.1165 46.3779C87.2658 46.4435 87.6807 46.2509 87.4757 46.6435L87.4032 46.6145L86.9559 47.7545C87.1016 47.2159 86.4678 47.9141 86.8742 47.1252C86.8975 47.1035 86.9103 47.0934 86.9253 47.0912C86.9472 47.088 86.9614 47.1083 86.9873 47.1045C86.9983 47.1029 87.0166 47.0961 87.0385 47.0715L87.1165 46.3779ZM73.7122 49.3428C73.789 49.3315 73.8275 49.4133 73.8054 49.5672C73.6761 49.6851 73.4465 49.9388 73.3398 49.9546C73.2999 49.9605 73.2756 49.9274 73.2877 49.8299C73.4624 49.5079 73.6164 49.3569 73.7122 49.3428ZM87.8307 47.039L88.0997 47.3841C87.7953 47.766 87.4942 48.0669 87.2728 48.0996C87.2329 48.1055 87.1944 48.1 87.1588 48.0869L87.8307 47.039ZM82.5843 48.7112C82.635 48.9786 83.347 48.9142 82.6421 49.5862C82.8584 49.0698 82.5488 49.0575 82.5843 48.7112ZM74.522 50.7074C74.5066 50.783 74.4892 50.8446 74.4819 50.919C74.4693 50.8618 74.4753 50.7988 74.522 50.7074ZM78.2616 50.1778C78.2905 50.1736 78.318 50.1807 78.3441 50.2054C78.2384 50.4011 77.9669 50.6539 77.7364 50.9221C77.9212 50.62 78.103 50.2012 78.2616 50.1778ZM77.7364 50.9221C77.7307 50.9382 77.7182 50.9502 77.7118 50.9623C77.7148 50.9548 77.7277 50.9386 77.7364 50.9221ZM74.4819 50.919C74.5385 51.1233 74.8591 51.134 74.4116 51.5411C74.4118 51.3833 74.4454 51.1554 74.4819 50.919ZM58.2166 53.9315C58.2508 53.956 58.2468 54.0044 58.2194 54.0746C58.2165 54.0272 58.2299 53.9662 58.2166 53.9315ZM82.1997 49.9997L82.0015 51.0041C81.7598 51.0173 81.5058 51.1536 81.6612 50.5006C81.6341 50.7244 81.6493 50.8067 81.6901 50.8006C81.7929 50.7855 82.056 50.2 82.1997 49.9997ZM78.5116 51.7686C78.4992 51.9679 78.4568 52.2123 78.4773 52.3304C78.349 52.2761 78.3892 52.0096 78.5116 51.7686ZM81.0031 52.0014C81.0206 52.0436 81.0395 52.0958 81.0567 52.1849C81.0166 52.1684 81.0054 52.0927 81.0031 52.0014ZM64.2961 54.3615C64.2825 54.4694 64.2415 54.5782 64.1702 54.7028C64.2068 54.5986 64.2468 54.4828 64.2961 54.3615ZM66.0039 52.951C65.9041 53.0615 65.7062 53.6546 65.7633 53.7856C65.6973 54.0773 65.804 54.1166 65.9556 54.0942C66.0473 54.0806 66.1579 54.0429 66.2497 54.0294C66.4452 54.0005 66.5489 54.0952 66.188 54.8335C65.697 54.8622 65.0508 54.2063 65.1613 53.4011L66.0039 52.951ZM80.1351 52.8665C80.1685 52.9135 80.1962 52.9491 80.1579 53.0209C80.158 52.9731 80.1431 52.9203 80.1351 52.8665ZM79.8114 52.0195C79.4096 52.6875 79.6928 53.0529 79.3486 53.2686C79.3881 52.9218 79.4242 52.5795 79.8114 52.0195ZM78.1997 52.7898L78.5614 53.1761C78.4007 53.4889 78.2853 53.5976 78.1975 53.6105C78.0609 53.6307 77.9852 53.422 77.8924 53.3807L78.1997 52.7898ZM63.0486 55.5829C63.1074 55.5742 63.0607 55.7134 63.0204 55.979L62.7142 55.8379C62.908 55.6729 63.0047 55.5894 63.0486 55.5829ZM78.8876 53.073L78.8066 53.767C78.7138 53.9049 78.6712 53.9478 78.6423 53.9521C78.6084 53.9571 78.5955 53.9182 78.5519 53.8992C78.4854 53.7594 78.6836 53.4726 78.8876 53.073ZM84.1382 49.0061L84.2866 49.7832C83.9593 50.4179 83.8282 50.4963 83.6696 50.5197C83.6297 50.5255 83.5883 50.5276 83.5404 50.5347C83.4785 50.5438 83.4093 50.5581 83.3218 50.6005C83.254 51.1633 83.1429 51.481 82.6584 52.2446L83.3052 52.8566C82.9786 52.9639 82.8068 53.0218 82.4982 53.728C82.3243 53.0605 82.0372 52.8209 81.5546 52.8585C81.7865 52.1168 82.2073 51.3289 82.2954 50.524C82.9357 49.8218 83.5399 49.358 84.1382 49.0061ZM78.0405 54.1763C78.0663 54.2753 78.0255 54.4065 77.9621 54.536C78.011 54.4117 78.0484 54.285 78.0405 54.1763ZM65.8825 55.7947C65.9124 55.7903 65.9446 55.8008 65.9748 55.833C65.7904 56.2338 65.5811 56.4733 65.3866 56.5021C65.3348 56.5097 65.2848 56.5028 65.2366 56.4804C65.5281 56.3977 65.703 55.8212 65.8825 55.7947ZM77.9621 54.536C77.8074 54.966 77.4693 55.4302 77.6248 55.6892C77.1202 55.6608 77.7378 55.0536 77.9621 54.536ZM64.1702 54.7028C64.0235 55.1387 63.9738 55.4646 64.2022 55.4309C64.2132 55.4293 64.2242 55.4277 64.2385 55.4215L64.3447 55.2226C64.2944 56.1798 64.1477 56.7185 64.4631 57.3499C64.2753 57.6311 63.7496 57.8878 63.8524 58.3012C63.5892 57.8158 63.0067 57.3083 63.0967 56.6202C62.973 56.9285 62.7832 57.0919 62.5872 57.3662C62.4065 56.6528 63.7427 55.5212 64.1702 54.7028ZM74.9384 58.7689L74.998 58.8415C74.9915 58.7977 74.9754 58.7716 74.9384 58.7689ZM76.8977 58.3515C76.8663 58.4151 76.8366 58.4969 76.8173 58.5944C76.849 58.5052 76.8749 58.4251 76.8977 58.3515ZM80.4455 56.93C80.7397 56.8866 81.0294 57.0678 80.8678 57.6301C80.8568 57.6317 80.8458 57.6333 80.8348 57.635C80.6583 57.661 80.5574 57.4051 80.3988 57.4285C80.2851 57.4453 80.1454 57.5972 79.9323 58.0868C79.9642 58.1228 79.9922 58.1329 80.0171 58.1292C80.1168 58.1145 80.207 57.9108 80.3098 57.8957C80.3247 57.8935 80.3407 57.8982 80.3559 57.9041L79.7816 58.7432C79.6219 58.6833 79.3843 58.7031 79.4098 58.4683C79.4543 58.4871 79.4924 58.5446 79.5552 58.5353C79.6031 58.5283 79.6611 58.4861 79.7405 58.3685C80.0816 57.9518 80.1285 57.1234 80.0617 57.1332C80.1586 57.0232 80.3018 56.9512 80.4455 56.93ZM78.6287 58.2649C78.5499 58.698 78.6216 58.776 78.7353 58.7592C78.8161 58.7473 78.9228 58.6837 79.0116 58.6705C79.1183 58.6548 79.1977 58.7093 79.1935 58.9847C79.0741 59.0939 78.9592 59.1577 78.8634 59.1719C78.5921 59.2119 78.4433 58.8939 78.6287 58.2649ZM77.1297 59.9235L77.1447 60.0526C77.0336 60.011 77.0536 59.9673 77.1297 59.9235ZM75.9541 59.7957C75.8614 59.9824 75.7701 60.7654 75.5198 60.8024C75.4939 60.8062 75.4709 60.8025 75.4427 60.7914L75.9541 59.7957ZM77.8908 59.8875L77.9541 60.0329L77.4189 60.5292L77.8908 59.8875ZM72.6028 50.7413C72.7394 51.5355 73.0768 52.0394 73.5417 52.2344L73.2486 52.5963C73.2453 52.8502 73.3702 52.8603 73.5138 52.8391C73.5617 52.832 73.6131 52.8214 73.661 52.8143C73.8854 52.7812 74.0725 52.8269 73.8367 53.7015C73.9039 53.7496 73.9661 53.7628 74.0209 53.7547C74.3231 53.7101 74.4601 52.96 74.7434 52.8704C74.4094 53.5833 73.9519 54.1018 73.9531 54.7175C74.2406 54.3524 74.4444 54.2276 74.6129 54.2027C74.8593 54.1664 75.03 54.3498 75.2724 54.3141C75.3532 54.3021 75.4417 54.2667 75.5435 54.1896L75.5075 55.1405L74.786 55.8038L74.9424 55.8693C74.66 56.2479 74.5269 56.3887 74.4641 56.398C74.3135 56.4202 74.6053 55.6768 74.3809 55.7099C74.315 55.7196 74.2098 55.7942 74.0435 55.9653L73.3286 57.2323L73.1126 57.0189C72.815 57.4954 72.5675 58.2353 72.6298 58.3808C72.7991 58.3335 73.4585 57.5256 73.8372 57.088C73.8439 56.9812 73.9441 56.7974 73.8155 56.8164C73.8045 56.818 73.7975 56.819 73.7825 56.8212C73.9678 56.6544 74.0637 56.5853 74.1036 56.5794C74.2542 56.5572 73.5423 57.5133 73.8734 57.4644C74.0231 56.9252 74.4485 56.7484 74.715 56.4963C74.4558 57.129 74.6583 57.5348 74.9705 57.4887C75.0623 57.4752 75.1597 57.4241 75.2628 57.3285L75.1548 58.2535L75.7094 57.6545C75.6058 57.9742 75.6988 58.0449 75.8713 58.0194C76.0848 57.9879 76.4199 57.8143 76.6593 57.779C76.8987 57.7436 77.0407 57.8428 76.8977 58.3515C77.0778 57.9696 77.3955 58.0581 77.627 57.8448C77.7397 58.2496 77.119 58.8288 77.4101 59.0749C77.5363 58.756 77.6138 58.6458 77.6726 58.6371C77.7903 58.6198 77.8325 59.0095 78.028 58.9806C78.0869 58.9719 78.1548 58.9283 78.2425 58.8319C77.872 59.6083 77.3124 59.808 77.1297 59.9235L77.0635 59.295C76.8302 59.9311 76.7223 59.4004 76.483 60.1472C76.2298 59.5504 75.9932 59.453 75.6975 58.492C75.5818 58.8063 75.3905 59.0839 75.3644 59.3147L74.998 58.8415C75.0394 59.2049 74.2832 60.7722 74.8018 60.6956C74.8128 60.694 74.8198 60.693 74.8307 60.6914L74.2166 60.8807L74.2072 60.9961L72.3828 62.0238C72.2295 61.9589 72.4519 61.4497 72.7364 61.085C72.7179 61.0908 72.7 61.0934 72.681 61.0962C72.295 61.1532 72.5196 60.4309 72.1077 60.4917C72.0708 60.4972 72.031 60.5112 71.9886 60.5276L72.5322 60.0331C72.5134 59.8088 72.459 59.7436 72.3822 59.7549C72.2425 59.7755 72.0295 60.0381 71.853 60.0641C71.7462 60.0799 71.6532 60.0091 71.5912 59.7475L71.267 60.4509L71.3256 59.8814C71.0675 60.1139 70.643 60.7048 70.4595 60.7319C70.3817 60.7434 70.3476 60.664 70.3736 60.4331L69.8296 61.5323C69.6868 61.3519 70.2909 60.4046 70.0523 60.2932C69.7979 60.4265 69.3995 60.9871 69.368 61.3328C69.0577 61.1913 69.2521 59.8362 68.8262 59.8991C68.7115 59.916 68.5601 60.03 68.346 60.2845C68.7409 59.7285 68.3345 59.6744 68.6106 59.4321L68.6907 59.4641C69.0524 58.5312 69.0744 58.301 68.686 58.1344L68.4053 58.6013C68.5655 58.2366 68.5368 57.738 68.3961 57.2682L68.2893 57.4631L69.0091 55.5938C68.5858 55.7774 68.4419 55.59 68.0166 56.3745C67.8079 56.7972 67.8493 56.843 67.933 56.8306C67.963 56.8262 67.9949 56.8144 68.0278 56.8095C68.0976 56.7992 68.1496 56.82 68.0964 57.0192C68.0779 57.0179 68.0629 57.0201 68.044 57.0229C67.4964 57.1037 66.9849 58.6236 66.3418 59.2865L66.9759 57.4992L67.2852 57.6337C67.4815 57.3553 67.4303 57.0911 67.4489 56.9825C67.4044 56.9636 67.3588 56.9591 67.307 56.9668C66.9758 57.0156 66.4598 57.5865 66.2613 58.0301L66.682 56.6264C66.5621 56.6777 66.469 56.7098 66.3992 56.7201C66.2187 56.7467 66.196 56.6137 66.2504 56.1954L66.6133 55.8782C66.4273 55.7916 66.5994 54.9967 66.4159 55.0238C66.371 55.0304 66.3075 55.0836 66.2136 55.2073C66.4136 54.9325 66.5373 54.6242 66.7016 54.5704L66.7827 54.0016C67.1622 54.0525 67.1497 54.831 67.5986 54.7647C67.6165 54.7621 67.6354 54.7593 67.6568 54.7521C67.8121 54.1469 68.9074 54.3659 68.9815 53.4938L68.9828 53.8825C69.5007 53.0141 69.4879 53.7418 69.9928 52.9852C69.6967 52.7399 69.3513 52.9476 69.1191 52.2378C69.3796 51.9174 69.5194 51.7939 69.5932 51.783C69.7877 51.7543 69.5544 52.4596 69.8407 52.4173C69.9324 52.4038 70.0811 52.3126 70.3119 52.0953C69.9857 52.4326 69.975 53.1202 69.9985 53.4862C70.3976 52.3168 70.3643 53.1615 70.8929 52.1857C70.8962 52.2839 70.9663 52.3031 71.066 52.2884C71.2276 52.2645 71.4634 52.1564 71.6509 52.1287C71.9192 52.0891 72.0776 52.2235 71.748 53.0417C72.5636 52.3055 72.169 51.641 72.6028 50.7413ZM79.978 59.1835L80.0273 59.8002C80.0679 59.8196 80.0808 59.8798 80.0504 60.0604L80.0277 59.8032C80.0208 59.8042 80.0127 59.8054 80.0058 59.8064C79.903 59.8216 79.6784 60.0603 79.5428 60.0803C79.4989 60.0868 79.4657 60.0693 79.4449 60.0246C79.4262 60.0568 79.4009 60.086 79.3649 60.1249L79.1167 61.2395L79.0218 60.597C79.2006 60.3579 79.2973 60.2265 79.3643 60.1209L79.4136 59.9162C79.4175 59.9706 79.4322 59.9939 79.4444 60.0216C79.5422 59.8972 79.5965 59.8851 79.8275 59.848C80.0159 59.5708 79.9685 59.2989 79.978 59.1835ZM82.0145 60.5105C81.9255 60.7222 81.848 60.8323 81.7837 60.908C81.8341 60.7865 81.8846 60.6732 82.0145 60.5105ZM72.238 62.5765L71.927 63.1619L71.98 62.7062L72.238 62.5765ZM71.4235 62.2498C71.8464 62.1874 71.2922 62.9624 71.0414 63.6591L71.2188 62.9763L71.1227 63.0638C71.1527 62.8324 71.268 62.5222 71.294 62.2842C71.3433 62.2658 71.3866 62.2553 71.4235 62.2498ZM81.2559 60.9156C81.3846 60.8966 81.4936 61.0271 81.6222 61.0081C81.6701 61.0011 81.7258 60.9715 81.7837 60.908C81.5929 61.3688 81.8714 61.5506 81.6339 62.0264C81.6097 62.0147 81.5857 62.0111 81.5608 62.0148C81.3912 62.0398 81.2298 62.368 81.0642 62.3924C81.0273 62.3979 80.9882 62.3884 80.9495 62.3544C80.9062 62.1368 81.2606 61.1827 81.0811 61.2092C81.0402 61.2152 80.9803 61.2648 80.8828 61.3708C81.0363 61.0366 81.1522 60.9309 81.2559 60.9156ZM71.0414 63.6591L70.9294 64.0675C70.9398 63.9377 70.9877 63.7993 71.0414 63.6591ZM71.5624 63.4946L71.4577 64.415L71.368 64.4975L71.4686 63.5706L71.5624 63.4946ZM70.9031 64.9111C70.9361 64.9063 70.964 64.9164 70.9948 64.9455C70.9635 64.9613 70.931 64.9691 70.9011 64.9735C70.8612 64.9794 70.8193 64.9785 70.7818 64.98C70.5915 65.1404 70.3843 65.5669 70.2693 65.6022C70.369 65.1111 70.4994 65.0003 70.6391 64.9797C70.6869 64.9726 70.7325 64.9771 70.7818 64.98C70.8216 64.9456 70.8632 64.917 70.9031 64.9111ZM75.4993 64.4821C75.621 64.4642 75.7263 64.5148 75.7183 64.516C75.7183 64.516 75.7107 64.513 75.6947 64.5083L75.1081 65.4703L75.1591 65.0016C75.1958 64.6145 75.3597 64.5028 75.4993 64.4821ZM66.9948 66.3828C67.0866 66.3692 66.9455 66.6354 66.8862 66.8202C66.8971 66.8665 66.905 66.9202 66.9089 66.9746C66.9174 66.9764 66.9213 66.9759 66.9283 66.9748C66.9612 66.97 67.0065 66.945 67.0809 66.8902L67.1882 66.6983C67.2445 66.6238 67.2737 66.594 67.2856 66.5923C67.3215 66.587 67.0306 67.0809 66.8635 67.3987C66.9088 67.2017 66.9212 67.0787 66.9089 66.9746C66.8529 66.9748 66.8555 66.9164 66.8862 66.8202C66.8568 66.7177 66.8152 66.6434 66.7973 66.5219C66.9008 66.4292 66.9619 66.3876 66.9948 66.3828ZM73.2993 61.8193C73.2189 62.1172 73.2495 62.2002 73.3273 62.1887C73.448 62.1709 73.6862 61.9199 73.7889 61.9048C73.8587 61.8945 73.8666 61.9961 73.7264 62.3721L73.0655 62.4513L72.9814 63.2557C72.9844 63.2552 72.9844 63.2552 72.9844 63.2552C73.2567 63.215 73.6456 63.6818 74.245 63.5934C74.5642 63.5463 74.9404 63.3401 75.3924 62.8184L75.5107 63.945C75.5021 63.9422 75.4952 63.9432 75.4872 63.9444C75.3037 63.9715 74.7593 64.9649 74.9045 65.1338C74.4506 66.1322 74.1589 66.2964 73.8906 66.336C73.7988 66.3496 73.7078 66.3477 73.6161 66.3613C73.3478 66.4009 73.0557 66.5621 72.6041 67.5489C72.6544 67.1231 73.5185 65.4932 73.0368 65.5643C72.9999 65.5697 72.9495 65.5873 72.8938 65.6179L73.5582 64.6984C73.693 64.3894 73.614 64.3858 73.5142 64.4005C73.5033 64.4022 73.4923 64.4038 73.4783 64.4058C73.4264 64.4135 73.3711 64.4186 73.3487 64.37C72.8458 65.2443 72.6409 65.6369 72.3828 65.7666C73.0642 64.7347 72.1563 65.5578 72.4895 64.736C72.6025 64.583 72.665 64.5228 72.6979 64.518C72.7857 64.505 72.6714 64.87 72.7881 64.8528C72.814 64.849 72.8458 64.83 72.8954 64.7861C73.0151 64.3541 73.1444 63.9319 73.1699 63.6971L73.0851 63.7788C72.7979 63.4141 72.863 62.8405 73.2993 61.8193ZM84.5133 64.8597C84.7556 64.8718 84.5244 65.5218 84.6421 65.5044C84.682 65.4985 84.7513 65.4292 84.8831 65.252L84.4774 66.17C84.4899 65.9992 84.5104 65.758 84.4435 65.7678C84.4186 65.7715 84.3854 65.8019 84.3401 65.8747L84.5133 64.8597ZM70.0928 67.3618C69.8848 67.9137 69.9733 67.926 70.1388 67.9016C70.1568 67.899 70.1788 67.8957 70.2007 67.8925C70.3264 67.8739 70.4791 67.8657 70.5799 68.0381C70.0453 68.4142 70.0548 68.2988 69.3278 68.9527L69.5497 68.4395C69.4449 68.2198 69.8924 67.6815 70.0928 67.3618ZM71.4633 67.9402L72.1628 68.35L71.6094 68.8541C71.6052 68.9016 71.6167 68.9518 71.6251 69.0086C71.6842 69.0294 71.7181 69.0793 71.6918 69.2115C71.6549 69.162 71.6355 69.1068 71.6287 69.0121C71.5691 68.9883 71.4838 68.9969 71.392 69.0104C71.3701 69.0137 71.3481 69.0169 71.3222 69.0207C71.0499 69.0609 70.7739 69.0762 71.0071 68.3638C71.057 68.4735 71.1034 68.5329 71.1553 68.5252C71.2321 68.5139 71.3184 68.3322 71.4633 67.9402ZM69.8153 66.0133C70.2996 66.8294 68.823 67.6449 68.9218 68.9017L68.6142 69.4896C68.833 68.9555 68.7261 68.5906 68.4868 68.6259C68.3511 68.6459 68.1765 68.7888 67.9974 69.1012L68.038 69.48L67.5074 69.8556L67.773 69.6179C68.4637 67.8557 67.1028 68.2327 66.9808 67.814C67.0792 67.3893 67.3637 67.1488 67.5433 67.1223C67.643 67.1075 67.7114 67.1636 67.696 67.287L67.9599 66.4307L67.8819 67.1242C68.3192 66.6484 68.547 66.4865 68.6687 66.4686C68.8851 66.4366 68.7907 66.8394 68.9742 66.8123C69.0919 66.7949 69.3234 66.603 69.8153 66.0133ZM63.5731 69.3695L63.9824 69.4221C63.7506 70.1159 63.3973 69.9115 63.2046 70.6148L63.3256 70.1094L63.4094 70.1449C63.6011 69.8631 63.721 69.5563 63.5731 69.3695ZM64.4254 69.1368C64.4294 69.1362 64.4295 69.1362 64.4324 69.1358L64.383 70.3269C64.2415 70.5901 64.1011 70.7095 63.9834 70.7269C63.8408 70.7479 63.7338 70.61 63.7147 70.4042C63.9917 70.0437 64.1791 69.1732 64.4254 69.1368ZM69.0307 69.4322L69.0619 69.9264L68.7738 70.2875L69.0307 69.4322ZM64.3315 70.7926C64.7189 70.8423 64.0563 71.7249 64.0424 71.8654L63.8635 71.3095L64.3315 70.7926ZM89.5633 68.4028L89.4315 69.0636C89.4246 69.0646 89.4141 69.0702 89.4072 69.0712C89.3034 69.0865 89.2812 68.984 89.2114 68.9943L89.2074 68.9949C89.3252 68.8747 89.4159 68.6261 89.5633 68.4028ZM90.3869 68.8391C90.4388 68.8314 90.4746 68.873 90.492 68.9915C90.2111 69.4768 90.149 69.2152 89.8905 69.4732C90.0819 69.1406 90.2692 68.8564 90.3869 68.8391ZM92.0132 69.3686C92.0099 69.3945 92.0121 69.4094 92.0053 69.439C91.9886 69.4781 91.9828 69.4942 91.9828 69.4942C91.9788 69.4948 91.9943 69.4406 92.0132 69.3686ZM65.6803 75.3736L65.694 76.1015L65.3687 75.9622L65.2195 76.6296C65.2349 76.5061 65.2214 75.7793 65.6803 75.3736ZM67.9153 30.6382C67.9156 30.6676 67.9196 30.667 67.9123 30.6936C67.342 31.2836 67.3904 31.9219 67.3693 32.0349C66.7995 32.628 66.6444 33.5385 66.057 33.7565C66.0565 33.27 66.5053 32.4922 66.3979 32.1997C66.2241 32.4167 66.1049 32.4994 66.0121 32.5131C65.7737 32.5483 65.7418 32.0766 65.4026 32.1267C65.3588 32.1332 65.3121 32.1482 65.2559 32.1748C65.2433 32.2418 65.209 32.3131 65.2097 32.3934L64.8942 37.6161C64.9747 37.4433 65.0386 37.269 65.0782 37.2336L64.8617 38.1562L64.4586 45.0012L64.4095 45.7597C64.3606 46.6026 63.7546 47.3303 62.9115 47.5494L56.7805 49.1659C56.6724 49.6765 56.5409 50.1876 56.7094 50.3897C57.0921 49.468 57.2045 49.7669 57.4664 49.1522C57.4882 49.1204 57.5045 49.1068 57.5125 49.1056C57.5713 49.097 57.1824 49.928 57.0467 50.3063C57.2425 50.0799 57.3745 49.98 57.4623 49.9671C57.8084 49.916 57.4228 51.2738 57.5143 51.5138L57.0307 52.0279L57.095 52.6709C57.4046 51.7091 57.4699 52.3591 57.8942 51.6918C57.8677 51.9197 57.7329 52.2286 57.8864 52.3017C58.2917 51.7614 58.0441 51.7684 58.2521 51.4924C58.2737 51.874 58.076 52.6473 57.5523 52.8895C57.4848 53.3504 57.3036 54.0082 57.4439 54.1921C57.5172 53.9981 57.5734 53.9236 57.6213 53.9165C57.739 53.8992 57.8138 54.3024 58.0232 54.2715C58.0452 54.2683 58.0707 54.2614 58.094 54.2468C58.1342 54.2083 58.1909 54.1368 58.2194 54.0746C58.2036 54.4027 57.8824 54.898 58.2095 55.153L57.5971 55.9692C57.6266 55.9618 57.6595 55.9569 57.6885 55.9526C57.8211 55.9331 57.9459 55.936 58.0636 55.9186C58.2172 55.896 58.3551 55.8359 58.4682 55.636L58.127 56.3276C58.7686 56.3938 58.8282 57.7642 59.3941 57.7795C59.6515 57.2865 59.6967 57.1851 59.9551 56.692C59.7511 57.5537 60.772 57.4692 60.3214 58.8488L62.2027 59.5534C63.0131 59.8512 63.527 60.6334 63.4796 61.4792L63.0545 68.6317C63.2558 68.6977 63.5821 68.5396 63.3719 69.4358C63.2446 69.6155 63.1352 69.6611 63.039 69.7486L62.9867 69.8296L62.6835 74.852C62.602 76.2056 63.8343 77.0427 64.9884 76.8723C65.1729 76.8451 65.3527 76.7931 65.5259 76.7167C65.5766 76.5768 65.6611 76.4107 65.8176 76.2003C65.9578 76.3078 65.9243 76.4125 65.8594 76.532C65.9938 76.4277 66.1327 76.3258 66.252 76.1881L66.7328 75.6071C66.7119 75.6173 66.6946 75.624 66.6756 75.6268C66.5799 75.6409 66.5724 75.5351 66.7579 75.1413L66.8832 75.4241L66.9182 75.3853C67.1374 74.7779 67.5273 73.7044 67.4205 73.7202C67.4165 73.7208 67.4062 73.7264 67.3962 73.735L68.0208 72.5465C68.1368 72.9253 67.8694 73.6539 67.9162 74.1784L68.4432 73.5438L68.4099 73.5528L68.5293 73.4435L70.0512 71.6096C70.045 71.5952 70.0275 71.5795 70.023 71.57C69.8262 71.6937 69.6924 71.7541 69.6047 71.7671C68.9903 71.8578 70.6815 69.5408 70.0691 69.2861L70.8082 69.4885C70.2837 69.7532 70.3729 70.5096 70.623 70.4981L70.9541 69.6614C70.8481 70.0068 70.921 70.1213 71.0497 70.1023C71.2003 70.08 71.4229 69.8823 71.5308 69.6679C71.6326 69.4666 71.6793 69.3273 71.6969 69.2189C71.7256 69.2615 71.7515 69.3055 71.7993 69.2984C71.8023 69.298 71.8064 69.2974 71.8099 69.2938C72.143 68.471 72.319 69.1525 72.4912 68.2618C72.5741 68.2639 72.6851 68.277 72.7888 68.3167L74.9272 65.7504C75.2524 65.3573 75.7059 65.1153 76.1946 65.0432C76.5298 64.9937 76.8799 65.0255 77.2131 65.1494L89.9772 69.9297C90.2787 70.0389 90.5664 70.0544 90.8465 70.0396C90.9781 69.7921 91.0364 69.6003 90.9636 69.611C90.9596 69.6116 90.9556 69.6122 90.9516 69.6128C91.1494 69.4961 91.7488 68.6197 92.1465 68.5386C92.1794 68.7129 92.0689 69.1588 92.0132 69.3686C92.0599 69.153 92.0368 69.0933 91.9809 69.1016C91.8891 69.1151 91.7035 69.3074 91.5708 69.327C91.516 69.3351 91.468 69.3137 91.4409 69.2332C91.4554 69.4835 91.3901 69.7313 91.3143 69.9776C92.4937 69.6203 93.2259 68.2144 92.4409 67.0182L90.8294 64.58C90.8012 64.8997 90.973 65.0209 90.7489 65.6362C90.9222 65.464 91.1729 65.3324 91.0305 65.1549C91.4629 65.6886 92.0725 66.1524 91.7314 67.5627L91.3466 67.2968C91.3466 67.2968 91.2514 67.4941 91.2429 67.6093C90.9013 66.7721 90.4153 66.8143 89.8052 66.3476C89.5909 66.9808 89.7346 67.271 89.2577 68.1619C88.7718 68.2051 89.2217 66.4958 88.8247 66.5544C88.8208 66.555 88.8207 66.555 88.8177 66.5554C88.6419 66.8419 88.5183 67.2745 88.6771 67.3355C88.615 67.3702 88.5114 67.4078 88.4047 67.4236C88.0955 67.4692 87.7477 67.3292 88.1895 66.4212C88.2065 66.3637 88.2408 66.3403 88.2817 66.3342C88.3585 66.3229 88.4691 66.3616 88.5798 66.3452C88.7304 66.323 88.8877 66.1939 88.971 65.6604C89.1543 65.8319 89.2136 66.1855 89.457 66.1496C89.5159 66.1409 89.5826 66.1097 89.6634 66.0499C89.7736 65.6224 90.2415 64.85 89.9214 64.8422C89.749 64.9522 89.5815 65.039 89.4678 65.0558C89.3581 65.0719 89.3046 65.0208 89.3568 64.8635C89.3898 64.9349 89.4246 64.9634 89.4575 64.9585C89.5602 64.9434 89.6789 64.6286 89.8892 64.3482C89.831 64.3609 89.7805 64.3714 89.7327 64.3784C89.4165 64.4251 89.3244 64.3399 89.1409 64.367C89.0781 64.3763 89.0028 64.3986 88.9074 64.4422C89.0646 63.5467 88.2732 64.316 88.6168 63.1364L89.0647 62.601L88.6743 63.3946C88.7847 64.0389 89.9368 63.649 90.0185 64.6375C90.1514 64.4673 90.3052 64.239 90.4628 64.0294L85.0368 55.8055C84.5674 55.0971 84.6216 54.1658 85.1697 53.5016L89.7828 47.9673C90.1476 47.4076 89.4191 47.8235 89.8632 47.0139L89.9584 47.7551L90.3251 47.3193L90.3156 47.1995C90.3586 47.0833 90.5374 46.9693 90.7304 46.8268L91.2535 46.1999C91.3061 46.0456 91.3266 45.8807 91.2695 45.6662C91.23 46.0131 91.052 46.1818 90.9194 46.2014C90.7947 46.2198 90.7123 46.0966 90.8506 45.8594C91.3539 45.555 91.8427 45.1521 92.126 45.1102C92.137 45.1086 92.148 45.107 92.1589 45.1054L93.8448 43.0833C95.0261 41.6691 93.7853 39.6495 92.0279 39.9089C91.9461 39.921 91.8659 39.9369 91.7836 39.9592L81.5316 42.6492C81.3892 42.9827 81.048 43.4463 81.2454 43.4579C80.6827 44.1822 80.6827 44.1822 80.2763 44.2534C80.2785 44.8547 79.8051 46.1013 79.3202 46.862L79.2213 46.3442L79.7264 46.0793C79.8835 45.7416 79.8251 45.6983 79.7104 45.7152C79.6556 45.7233 79.5838 45.7481 79.5249 45.7568C79.4591 45.7665 79.4046 45.7563 79.394 45.6845L80.0595 44.7659C80.2217 43.5031 79.8915 43.6068 79.3697 43.3795C79.264 43.5814 79.1403 43.8897 79.0556 43.9715L79.4316 44.7374C79.3531 44.7928 79.278 44.8222 79.2082 44.8325C78.885 44.8802 78.6719 44.479 78.7675 43.732C78.5485 44.2295 78.4177 44.6417 78.2703 45.1694C78.279 45.1315 78.2764 45.1136 78.2654 45.1152C78.1736 45.1287 77.6066 45.9962 77.1648 46.3108C77.2079 45.9675 77.3262 45.6498 77.5295 45.3704L76.8982 45.9542L77.1401 45.3281C77.1321 45.3293 77.1291 45.3297 77.1211 45.3309C76.4887 45.4242 76.9034 44.4907 76.5174 44.5476C76.4296 44.5606 76.2999 44.6276 76.1023 44.7667C77.779 42.6829 75.8921 44.0058 76.0887 42.969C76.0724 42.9826 76.0565 43.0063 76.0425 43.0084C76.0687 42.9577 76.0901 42.9026 76.1067 42.8564C76.1 42.8941 76.0944 42.9315 76.0887 42.969C76.1556 42.9113 76.235 42.7866 76.315 42.617L76.1263 42.3334C75.8923 42.7089 75.7013 43.2166 75.4359 43.2557C75.378 42.8836 75.0899 42.7205 74.7119 42.7763C74.5573 42.7991 74.3856 42.858 74.2087 42.9574C74.0548 43.4962 73.4046 44.1795 73.5825 44.6185C73.855 44.3797 73.9021 44.0359 73.9146 43.92C74.4123 44.1367 73.256 46.4806 74.0061 46.3699C74.046 46.364 74.0899 46.3504 74.1431 46.3313C75.2517 46.3367 75.1804 48.7261 75.7457 49.3246C75.2187 50.3114 76.1387 49.9781 75.4809 50.7898L76.1103 50.2134C76.1344 49.9971 76.2271 49.8104 76.1024 49.8288C76.0944 49.8299 76.0874 49.831 76.077 49.8366C76.5277 49.2235 76.7115 49.0945 76.8322 49.0767C76.91 49.0652 76.9557 49.0982 77.0335 49.0867C77.1442 49.0704 77.3071 48.9588 77.6858 48.4662L77.0737 49.5388L77.5835 49.886L77.9972 48.4905C78.0658 48.52 78.1418 48.5241 78.2256 48.5117C78.6156 48.4542 79.1622 48.0355 79.5601 47.9768C79.7616 47.9471 79.926 48.0113 80.008 48.2629C80.1161 48.0566 80.3051 47.7834 80.335 47.5509L80.511 48.1082L80.0777 48.4033C80.0684 49.7422 81.5908 49.037 81.2633 50.4565L80.5145 51.363L80.6182 51.8862L80.818 51.4862C80.8489 51.4674 80.8778 51.456 80.8997 51.4527C81.0543 51.4299 81.0027 51.7704 81.0031 52.0014C80.9746 51.9394 80.946 51.9182 80.9121 51.9232C80.7724 51.9438 80.5843 52.3747 80.4158 52.3996C80.3569 52.4082 80.2971 52.3621 80.2496 52.2195C80.157 52.3797 80.1095 52.4926 80.0934 52.5836L80.1351 52.8665C80.0968 52.8141 80.0567 52.7427 80.0934 52.5836C80.0283 52.0944 80.0104 51.5657 80.3515 50.6939C80.2894 50.6806 80.2371 50.6782 80.1922 50.6848C79.8731 50.7319 80.0708 51.2636 79.5915 51.7038C79.5405 51.5098 79.4636 51.452 79.3798 51.4643C79.1953 51.4916 78.9627 51.8486 78.7791 51.8757C78.6944 51.8882 78.6184 51.8292 78.5659 51.6323C78.5393 51.68 78.5342 51.7215 78.5116 51.7686C78.5241 51.5978 78.5175 51.4562 78.4367 51.4681C78.3968 51.474 78.3353 51.5198 78.2452 51.6206L78.7942 50.4036C78.8832 49.7084 78.4649 49.8984 78.0694 49.8428L77.3451 51.2262C77.3691 51.2369 77.3961 51.24 77.426 51.2356C77.4739 51.2285 77.5251 51.1955 77.5736 51.1446C77.4186 51.365 77.3133 51.5973 77.3457 51.8378C77.3594 51.8542 77.379 51.8625 77.4009 51.8592C77.5266 51.8407 77.7439 51.5114 77.8287 51.4988C77.8696 51.4928 77.8802 51.5645 77.8278 51.7962L77.5538 52.0525C76.1834 53.5119 78.1068 52.1612 77.5584 53.3822C77.6189 53.2603 77.6792 53.1852 77.6982 53.1346C77.7248 53.3912 77.4896 54.0896 77.4647 54.0933C77.4567 54.0945 77.4617 54.053 77.4888 53.9533C77.503 53.4423 77.381 53.2984 77.1895 53.3267C76.8364 53.3788 76.2477 54.0235 75.8727 54.0789C75.6921 54.1055 75.5587 53.9888 75.528 53.6015C76.3681 52.6234 75.368 52.9248 75.6049 52.2923C75.6211 52.3265 75.6463 52.3381 75.6822 52.3328C75.8218 52.3122 76.1192 52.0555 76.4682 51.8238C76.414 50.9524 76.1896 50.8542 75.6262 50.8559L75.2942 51.5615C75.2646 51.6646 75.2848 51.6982 75.3247 51.6923C75.4314 51.6766 75.6973 51.4134 75.8 51.3982C75.8768 51.3869 75.8654 51.5097 75.642 51.957C75.4792 52.1245 75.3695 52.1957 75.2996 52.206C75.0493 52.243 75.2268 51.5602 75.0785 51.5017L74.7911 51.7161C74.9227 51.5654 74.9966 51.5066 75.0485 51.499C75.0595 51.4974 75.0709 51.4987 75.0785 51.5017L75.3167 51.3271C75.5179 50.3293 74.834 50.757 74.6174 50.5396C74.5671 50.6061 74.5406 50.6538 74.522 50.7074C74.58 50.3619 74.6185 50.0631 74.4938 50.0815C74.4748 50.0843 74.4533 50.0905 74.433 50.1047C74.2402 50.3795 74.2998 50.5275 74.1765 50.8388L73.9946 50.3933L73.8854 50.5927L74.0045 49.6732L73.7029 50.1504C73.7759 49.5746 74.7876 48.557 74.2278 48.5623C74.1931 48.5827 74.1612 48.5945 74.1243 48.6C73.849 48.6406 73.4781 48.2953 73.0591 48.3572C72.9524 48.3729 72.8385 48.4162 72.7238 48.5023L73.1492 47.7178C73.0911 47.759 73.0453 47.78 73.0054 47.7859C72.6154 47.8435 73.0613 46.2314 73.4745 45.3164C73.2233 44.8364 72.3443 45.4201 72.6244 44.5695L72.9192 44.7092C73.134 44.307 72.9259 44.0924 73.2151 43.7382C73.2391 43.749 73.2661 43.7521 73.292 43.7483C73.5753 43.7065 73.9209 42.8167 74.1511 42.6982C73.6392 42.6893 74.7818 41.289 74.1634 41.3802C74.1375 41.3841 74.1126 41.3877 74.0831 41.3951C74.3457 41.2617 74.7599 40.5328 74.5584 40.4384C74.3426 40.8336 74.1 40.847 73.8725 41.3428C73.462 40.93 73.475 40.811 73.2244 40.335C72.9343 40.6893 72.573 41.0175 72.3265 41.6402C72.4992 41.1525 72.416 40.7688 72.1667 40.8056C72.038 40.8246 71.8683 40.9525 71.669 41.2313C71.7387 41.2689 71.915 41.2133 71.874 41.4464C71.8709 41.3776 71.8308 41.3611 71.769 41.3703C71.6034 41.3947 71.2897 41.61 71.1052 41.6372C70.9655 41.6578 70.8988 41.5648 71.043 41.1883C71.574 41.0916 71.6434 39.9118 71.8308 39.4485C71.6207 39.8826 71.5044 40.0127 71.4166 40.0257C71.3019 40.0426 71.2421 39.8652 71.1065 39.8852C71.0137 39.8989 70.8897 39.9976 70.698 40.3007C70.4471 40.921 71.1566 40.3837 70.5062 41.066C70.0339 40.4903 71.3184 39.8498 70.8587 39.2764C70.8547 39.277 70.8506 39.2776 70.8476 39.278C70.6123 39.3128 70.2484 40.1065 70.1522 40.2968L70.2119 40.4458C69.617 40.669 69.4563 41.2098 68.9662 41.8318C68.9562 41.8954 68.9724 41.9296 69.0064 41.9246C69.0353 41.9203 69.0791 41.8854 69.1268 41.801L68.8009 42.3692C68.6167 42.0116 68.2963 41.7261 67.8843 41.7869C67.7447 41.8075 67.5889 41.8702 67.4296 41.9853C67.0519 42.9134 67.9092 41.9552 67.6223 42.8078L67.345 43.0422C67.2795 43.3094 67.3184 43.3728 67.3992 43.3609C67.502 43.3458 67.674 43.2064 67.7767 43.1912C67.8276 43.1837 67.8643 43.2047 67.869 43.2845C67.4282 44.0682 67.2059 43.4739 66.8237 44.3986C67.2703 44.6004 66.7716 44.7361 67.0335 45.1087L67.3048 44.3714L67.1018 45.7511C67.4589 44.9319 67.9567 43.8029 68.3898 43.5262C68.6035 44.2357 67.3989 45.3958 67.4376 45.6578C66.9318 46.3809 66.6142 46.6181 66.3788 46.6528C66.0476 46.7017 65.8814 46.3415 65.5842 46.3853C65.4216 46.4093 65.218 46.5564 64.9214 46.9636C65.0755 45.922 65.2125 45.0141 64.7605 44.8029C65.6086 43.4715 66.1681 43.9824 66.9922 42.7644C66.9882 42.765 66.9848 42.7696 66.9818 42.7701C66.9189 42.7793 66.7739 42.5076 66.5824 42.5358C66.4497 42.5554 66.2908 42.7214 66.1202 43.2229C65.8095 43.0785 65.9901 41.9341 65.7477 41.9699C65.7038 41.9764 65.6463 42.0215 65.5698 42.1173C65.6179 41.7254 65.5889 41.4803 65.6371 41.1719C65.5382 41.3443 65.4399 41.5135 65.366 41.5244C65.3591 41.5254 65.3511 41.5266 65.3435 41.5237C65.619 40.7939 66.4643 39.9545 66.166 39.3349L65.945 39.7156L66.2409 38.8688C66.2641 38.902 66.2887 38.9167 66.3106 38.9135C66.4064 38.8994 66.5021 38.5809 66.7736 38.5082C66.8031 38.2799 66.9519 37.8589 66.8061 37.7889C66.7819 37.7772 66.759 37.7734 66.729 37.7778C66.5166 37.8092 66.2346 38.2946 66.0489 38.5419C66.4346 37.6126 65.9604 37.6317 65.9287 37.3687L66.271 37.1675C66.2199 37.0213 66.4603 36.5166 66.2187 36.5299C66.1115 36.7218 65.9797 37.0232 65.8003 37.182C65.4469 36.9003 65.8876 35.6402 65.7071 35.3075C65.7627 35.3808 65.817 35.4379 65.8829 35.4282C65.9826 35.4134 66.0987 35.2609 66.2633 34.8224L66.2024 35.6599C66.3533 35.2529 66.4653 35.1488 66.5651 35.1341C66.6458 35.1221 66.7207 35.1732 66.8015 35.1613C66.9012 35.1466 67.0091 35.0421 67.16 34.635C67.5269 34.8079 67.2042 36.2602 67.8488 36.1946C67.8973 36.2679 67.9459 36.2933 67.9937 36.2862C68.291 36.2423 68.6555 34.9904 69.0706 34.5434L68.881 35.6829L68.668 35.5861C68.7612 35.9897 68.1329 36.4418 68.4102 36.6909C68.8531 36.4047 69.014 36.3555 69.4002 35.9137L69.3702 36.1451L69.6843 35.6773C69.1498 36.537 69.8093 36.345 69.3263 36.8631C70.1615 37.6122 71.0766 37.2939 72.032 37.7321C72.6956 37.795 72.043 39.0283 72.815 38.9144C72.8598 38.9077 72.9061 38.8968 72.957 38.8822C73.1854 38.6764 73.2831 38.2406 73.2901 38.2396C73.2901 38.2396 73.2898 38.2579 73.2841 38.2954C73.3291 38.2481 73.3614 38.2392 73.3933 38.2203L71.8779 35.9216C71.8748 36.0319 71.848 36.154 71.7901 36.2725C71.7134 36.2359 71.488 36.3384 71.8334 35.8548L71.8194 35.8355L71.4372 35.9947C71.5688 35.788 71.6536 35.7277 71.7334 35.7088L68.9014 31.4158C68.6476 31.0217 68.2989 30.7719 67.9153 30.6382Z" fill="#664117" fill-opacity="0.2"/>
<path fill-rule="evenodd" clip-rule="evenodd" d="M59.4479 57.3409C58.7464 58.1876 58.9607 57.9269 58.7606 58.0837L59.7758 58.3054C59.4832 58.0839 59.258 57.8219 59.4479 57.3409Z" fill="#664117" fill-opacity="0.2"/>
<path fill-rule="evenodd" clip-rule="evenodd" d="M63.6928 68.9242L63.5416 69.9645C63.5825 69.931 63.6189 69.9154 63.6518 69.8831L64.418 69.0462L63.6928 68.9242Z" fill="#664117" fill-opacity="0.2"/>
<path fill-rule="evenodd" clip-rule="evenodd" d="M73.5545 37.9549L73.2487 39.073C73.3935 38.8867 73.5023 38.8024 73.5841 38.7904C73.8763 38.7472 73.8387 39.618 74.0871 39.9061C74.1598 39.5767 74.2155 39.3537 74.2698 39.1553L73.5545 37.9549Z" fill="#664117" fill-opacity="0.2"/>
<path fill-rule="evenodd" clip-rule="evenodd" d="M76.448 40.6292C76.1996 40.8797 76.0467 41.2239 75.7341 41.5917C76.0222 41.3344 76.2461 41.1945 76.5266 40.8853L76.448 40.6292Z" fill="#664117" fill-opacity="0.2"/>
<path fill-rule="evenodd" clip-rule="evenodd" d="M52.4666 50.2224L52.291 50.2758L52.0927 50.7764C52.0676 50.606 52.1358 50.4535 52.2114 50.3029L51.8704 50.402C51.8433 50.4814 51.8137 50.5499 51.7759 50.6735C51.7996 50.5855 51.7951 50.5068 51.8074 50.4174L51.5883 50.4793C51.6648 50.8457 51.6182 51.3656 51.8585 51.3301C51.9184 51.3213 51.9993 51.2757 52.1037 51.1819C52.1774 50.8178 52.4176 50.4363 52.4666 50.2224Z" fill="#664117" fill-opacity="0.2"/>
<path fill-rule="evenodd" clip-rule="evenodd" d="M90.0095 64.025C89.7315 64.3581 89.477 64.7255 89.3181 65.0849C89.3672 65.1143 89.4166 65.1243 89.4645 65.1172C89.7018 65.0822 89.9601 64.6776 90.2125 64.2678L90.0095 64.025Z" fill="#664117" fill-opacity="0.2"/>
<path fill-rule="evenodd" clip-rule="evenodd" d="M74.9265 39.7822C74.8759 39.8466 74.8413 39.8813 74.8317 39.9539C74.4887 40.6062 74.5849 40.8505 74.8581 40.8102C75.0147 40.7871 75.2366 40.6678 75.4903 40.4878L74.9265 39.7822Z" fill="#664117" fill-opacity="0.2"/>
<path fill-rule="evenodd" clip-rule="evenodd" d="M74.7296 38.7987C74.3676 39.75 74.5498 39.8381 74.856 39.7929C74.9627 39.7771 75.0823 39.7452 75.199 39.728C75.2578 39.7193 75.3164 39.7158 75.3716 39.7168L74.7541 38.7992L74.7296 38.7987Z" fill="#664117" fill-opacity="0.2"/>
<path fill-rule="evenodd" clip-rule="evenodd" d="M73.4449 37.9752C73.3319 38.5009 73.2354 39.0139 73.6922 38.9465C73.8269 38.9266 73.9903 38.8597 74.2144 38.7421L73.4449 37.9752Z" fill="#664117" fill-opacity="0.2"/>
<path fill-rule="evenodd" clip-rule="evenodd" d="M42.5072 34.5561L46.2972 35.722L44.8037 37.8592L42.5072 34.5561ZM41.3595 31.5038L40.6801 32.4723L46.6253 41.2314L46.2325 41.7872L46.4564 41.9445L47.7245 40.1368L47.4964 39.9801L46.8789 40.8642L44.9843 38.1501L46.622 35.8095L49.7612 36.757L49.1771 37.5985L49.3933 37.7579L52.0969 33.8969L51.8739 33.7395L51.4973 34.2816L41.3595 31.5038Z" fill="#664117" fill-opacity="0.2"/>
<path fill-rule="evenodd" clip-rule="evenodd" d="M50.5183 24.1599C50.6221 24.1446 50.7203 24.1403 50.8164 24.1495C51.1703 24.1859 51.5775 24.479 52.0227 25.0301L52.2727 25.3363C52.7134 25.885 52.9341 26.3512 52.9126 26.7442C52.8901 27.1303 52.6574 27.4802 52.2055 27.781L51.823 28.0411L49.199 24.826L49.5956 24.5577C49.9331 24.3308 50.2401 24.201 50.5183 24.1599ZM52.718 22.7054C52.4766 22.741 52.1863 22.8246 51.845 22.9564C51.336 23.1537 50.5646 23.5963 49.534 24.292L45.9449 26.7039L46.1069 26.9039L46.8829 26.3822L52.5153 33.2982L51.7393 33.8199L51.9009 34.017L55.77 31.4172L55.608 31.2171L54.8365 31.7412L51.9845 28.2381L52.6147 27.8123C52.777 27.7038 52.9347 27.6398 53.0864 27.6174C53.224 27.5971 53.3511 27.6089 53.4755 27.6577C53.7374 27.7616 54.028 28.0108 54.3461 28.3985L54.9698 29.1574C55.5685 29.8997 56.1184 30.3112 56.6077 30.3947C56.7637 30.4226 56.9266 30.4219 57.0972 30.3968C57.4712 30.3416 57.881 30.163 58.3224 29.8668C58.978 29.427 59.3291 29.0362 59.3804 28.6866C59.4311 28.3391 59.2584 27.8394 58.8666 27.1877L58.649 27.3013C58.8769 27.7196 59.0001 28.0159 59.0111 28.1873C59.0212 28.3589 58.9531 28.4911 58.8123 28.5872C58.7523 28.6225 58.696 28.6482 58.6401 28.6564C58.5513 28.6695 58.4641 28.6447 58.3716 28.5841C58.2293 28.4901 58.01 28.2608 57.7134 27.8944L57.26 27.3434C56.7651 26.7385 56.283 26.3923 55.8226 26.3046C55.6467 26.2725 55.4537 26.2704 55.2423 26.3016C54.8972 26.3526 54.5045 26.4889 54.0672 26.7092L54.0434 26.6791C54.6847 26.1702 55.0664 25.6761 55.1927 25.1994C55.3156 24.7202 55.1425 24.19 54.6599 23.5924C54.1759 23.0063 53.6308 22.703 53.0292 22.6869C52.9379 22.6831 52.8327 22.6885 52.718 22.7054Z" fill="#664117" fill-opacity="0.2"/>
<path fill-rule="evenodd" clip-rule="evenodd" d="M60.6302 17.9764C60.9533 17.9287 61.2271 17.9606 61.4458 18.0678C61.7686 18.2247 62.0444 18.6716 62.2776 19.4088L62.4082 19.817C62.6407 20.5502 62.6799 21.1195 62.5326 21.523C62.3798 21.9313 62.0472 22.2186 61.5177 22.3874L61.0773 22.5318L59.7127 18.2371L60.1664 18.0866C60.3306 18.0319 60.4875 17.9975 60.6302 17.9764ZM62.5045 17.1898C61.9619 17.2699 61.1924 17.47 60.2016 17.7862L56.0315 19.1204L56.1238 19.3867L57.0175 19.096L59.9542 28.3246L59.0525 28.6165L59.1363 28.88L63.6203 27.4425L63.5401 27.1754L62.6384 27.4673L61.1581 22.7957L61.8922 22.5632C61.9708 22.5363 62.0464 22.517 62.1192 22.5063C62.3765 22.4683 62.5841 22.5282 62.7415 22.6831C62.9474 22.8838 63.1348 23.2419 63.3021 23.7608L63.6288 24.7794C63.9425 25.7652 64.3111 26.3847 64.74 26.6461C65.0475 26.8236 65.434 26.8806 65.8998 26.8118C66.0903 26.7837 66.301 26.7333 66.5229 26.6629C67.2778 26.4191 67.7437 26.1233 67.9086 25.7702C68.074 25.4201 68.0813 24.8337 67.9345 24.0115L67.6893 24.0559C67.7668 24.5809 67.7742 24.935 67.7295 25.1157C67.6848 25.2963 67.5749 25.4143 67.4067 25.4697C67.3824 25.4774 67.3608 25.4836 67.3389 25.4868C67.2023 25.507 67.0978 25.4552 67.0071 25.3241C66.8978 25.1702 66.7729 24.8558 66.619 24.3726L66.3823 23.6319C66.1249 22.8271 65.7953 22.2924 65.3916 22.0497C65.0124 21.8146 64.4676 21.7555 63.7594 21.86C63.7155 21.8665 63.6677 21.8736 63.6198 21.8806L63.6062 21.8369C64.3837 21.5185 64.9044 21.1312 65.1843 20.6664C65.4647 20.2046 65.4774 19.5798 65.2251 18.7884C64.9697 17.9975 64.5693 17.4937 64.0114 17.2697C63.7557 17.1598 63.3484 17.1212 62.8103 17.1559C62.7173 17.1614 62.6142 17.1736 62.5045 17.1898Z" fill="#664117" fill-opacity="0.2"/>
<path fill-rule="evenodd" clip-rule="evenodd" d="M68.6462 16.2795L68.6648 16.5505L69.4322 16.4953L70.0299 25.7027L69.2657 25.7514L69.2827 26.0115L73.5292 25.7338L73.5122 25.4737L72.7444 25.526L72.1465 16.3176L72.9109 16.2699L72.8927 16.0018L68.6462 16.2795Z" fill="#664117" fill-opacity="0.2"/>
<path fill-rule="evenodd" clip-rule="evenodd" d="M74.9256 15.3526L74.8801 15.6382L75.5228 15.7601L77.5338 26.7815L78.7049 27.0097L83.5816 17.3435L84.2353 17.4709L84.2766 17.1849L82.1533 16.7674L82.1084 17.057L83.1955 17.262L79.6683 24.2637L78.4407 16.3403L79.4287 16.5364L79.4686 16.2476L74.9256 15.3526Z" fill="#664117" fill-opacity="0.2"/>
<path fill-rule="evenodd" clip-rule="evenodd" d="M87.0275 21.5628L86.6236 25.3724L84.254 24.3704L87.0275 21.5628ZM88.6955 19.4274L81.3239 26.7451L80.7092 26.4887L80.5972 26.7312L82.6013 27.5765L82.7138 27.3308L81.7322 26.922L84.0091 24.603L86.6038 25.694L86.2886 28.8401L85.3602 28.4468L85.2482 28.6893L89.5344 30.4966L89.643 30.2515L89.0419 30.0043L89.7693 19.8806L88.6955 19.4274Z" fill="#664117" fill-opacity="0.2"/>
<path fill-rule="evenodd" clip-rule="evenodd" d="M95.1853 22.541L94.997 22.7836L95.588 23.3285L90.0049 30.2529L89.4139 29.708L89.2223 29.9358L94.5624 34.8439L96.7515 32.5511L96.5424 32.356C95.6934 32.7429 94.9693 32.9811 94.3789 33.0682C94.2991 33.08 94.2193 33.0918 94.1444 33.0957C93.5083 33.1499 92.9074 32.9108 92.337 32.3883L91.9737 32.0531L97.5567 25.1287L98.6277 26.1086L98.8112 25.8739L95.1853 22.541Z" fill="#664117" fill-opacity="0.2"/>
<path fill-rule="evenodd" clip-rule="evenodd" d="M58.8443 73.7156L58.6603 73.9331L59.9762 74.8453L53.1977 81.5279L52.0765 80.5258L51.8791 80.7209L55.9026 84.3249L56.1006 84.1267L55.267 83.3814L62.4329 76.3272L61.5773 75.5567L58.8443 73.7156Z" fill="#664117" fill-opacity="0.2"/>
<path fill-rule="evenodd" clip-rule="evenodd" d="M63.1606 78.1683C63.1297 78.1728 63.1028 78.1768 63.0718 78.1814C62.3548 78.3015 61.8376 78.6577 61.5297 79.2366C61.349 79.5798 61.2988 79.9028 61.3801 80.2185C61.4586 80.5367 61.69 80.7713 62.0562 80.9392C62.3762 81.0843 62.6821 81.1339 62.9674 81.0918C63.0133 81.085 63.0547 81.0758 63.097 81.0655C63.4224 80.9849 63.6498 80.82 63.7864 80.5718C63.9219 80.3228 63.9976 80.0897 64.0256 79.879L63.6173 79.6949C63.6371 79.5322 63.6954 79.3678 63.79 79.1869C63.886 79.0089 64.0681 78.8619 64.3329 78.7363C64.403 78.7076 64.4742 78.6859 64.555 78.674C64.7784 78.641 65.0445 78.6893 65.3479 78.8257C65.7556 79.0057 65.9677 79.2757 65.9923 79.6284C66.0208 79.9804 65.827 80.5322 65.42 81.2825C65.018 82.0248 64.4547 82.6271 63.7311 83.0759C63.0068 83.5198 61.961 83.9398 60.6063 84.3179L58.5994 84.8828L57.8077 86.3617L64.1661 89.2129L66.198 85.7594L65.9712 85.6586C65.5719 86.1501 65.1702 86.4598 64.7743 86.6017C64.7036 86.6264 64.6318 86.6441 64.558 86.655C64.1969 86.7083 63.7595 86.6171 63.2411 86.3852L59.9931 84.9275L61.1194 84.7358C61.2576 84.7124 61.7333 84.635 62.543 84.5003C63.3519 84.3666 64.1431 84.2173 64.9048 84.054C65.4058 83.9546 65.7761 83.8602 66.0055 83.7642C66.2475 83.6705 66.4978 83.5572 66.7683 83.4155C67.0385 83.2779 67.2476 83.1269 67.3956 82.9565C67.5466 82.7845 67.6853 82.5788 67.8115 82.3424C68.1992 81.6133 68.2133 80.9353 67.844 80.3251C67.4775 79.7064 66.7653 79.1621 65.7209 78.6943C64.7146 78.2361 63.8638 78.0645 63.1606 78.1683Z" fill="#664117" fill-opacity="0.2"/>
<path fill-rule="evenodd" clip-rule="evenodd" d="M70.5861 81.1438C70.1552 81.2074 69.7854 81.319 69.4749 81.487C68.8258 81.8393 68.4562 82.3183 68.3964 82.9216C68.3496 83.2878 68.4275 83.6082 68.6191 83.871C68.806 84.1356 69.1084 84.2854 69.5153 84.322C69.6856 84.3366 69.8413 84.335 69.9859 84.3136C70.1963 84.2826 70.3813 84.2166 70.5414 84.1135C70.8183 83.9322 70.9692 83.7114 71.007 83.4361C71.0398 83.1615 71.028 82.922 70.9747 82.7202L70.5402 82.6835C70.4979 82.5279 70.4889 82.3562 70.5142 82.1621C70.5446 81.9673 70.6482 81.7718 70.8361 81.567C70.9641 81.4331 71.1354 81.3508 71.3488 81.3193C71.4595 81.303 71.5803 81.2994 71.7107 81.3127C72.0971 81.3412 72.3513 81.5378 72.4743 81.8942C72.5968 82.2477 72.6089 82.8068 72.5114 83.5958C72.4082 84.3745 72.2023 84.9057 71.8894 85.189C71.6904 85.3731 71.3611 85.497 70.9073 85.564C70.6669 85.5995 70.3966 85.618 70.0896 85.6236L70.0959 85.9291C70.6105 85.9285 71.0517 85.9071 71.4192 85.8631C71.7959 86.0884 72.0577 86.3847 72.2183 86.761C72.3756 87.1368 72.4061 87.7156 72.3039 88.5012C72.2054 89.2904 72.0212 89.8866 71.7555 90.2821C71.56 90.5664 71.2817 90.7378 70.9186 90.7914C70.782 90.8116 70.6297 90.8157 70.4688 90.8028C69.6313 90.7289 69.2529 90.3603 69.3398 89.7062C69.3597 89.5516 69.4073 89.397 69.4873 89.2559L69.9504 89.2995C70.0555 89.114 70.1266 88.8847 70.1602 88.6089C70.1975 88.3367 70.1028 88.0881 69.8909 87.868C69.6789 87.6468 69.3636 87.5203 68.9567 87.4837C68.8193 87.4714 68.69 87.4721 68.5643 87.4907C68.3279 87.5256 68.1233 87.6168 67.9471 87.7691C67.6809 88.0028 67.5167 88.3405 67.4586 88.796C67.4013 89.2503 67.5386 89.6555 67.8581 90.0186C68.1803 90.3782 68.5691 90.6374 69.0168 90.7912C69.4633 90.937 69.9581 91.0441 70.4944 91.0871C71.1782 91.149 71.796 91.1362 72.3456 91.0551C72.9022 90.973 73.3905 90.8225 73.8134 90.5942C74.6513 90.1468 75.1294 89.4777 75.2399 88.59C75.3325 87.8638 75.1128 87.2519 74.5787 86.7475C74.056 86.2444 73.1774 85.8916 71.9489 85.7024L71.9522 85.6694C72.1996 85.6542 72.4297 85.6315 72.6511 85.5988C73.3413 85.4969 73.9112 85.312 74.3553 85.048C74.9394 84.7032 75.2665 84.2264 75.3422 83.6279C75.5261 82.1533 74.4869 81.3203 72.2161 81.119C71.5998 81.0654 71.0559 81.0745 70.5861 81.1438Z" fill="#664117" fill-opacity="0.2"/>
<path fill-rule="evenodd" clip-rule="evenodd" d="M78.5014 81.3239L80.0181 86.9531L76.8095 87.8135L78.5014 81.3239ZM80.6884 79.6524L78.3678 80.2738L76.3877 88.001L76.4573 88.2513L80.0981 87.2742L80.6769 89.4139L79.414 89.7509L79.4871 90.0048L84.1347 88.7569L84.0721 88.5056L83.1456 88.7533L82.5707 86.612L83.8945 86.2527L84.163 87.2432L84.4146 87.1735L83.7523 84.702L83.5002 84.7759L83.808 85.9356L82.4807 86.2924L80.6884 79.6524Z" fill="#664117" fill-opacity="0.2"/>
<path fill-rule="evenodd" clip-rule="evenodd" d="M87.7367 75.5544L87.5522 75.6509C87.6312 75.8611 87.6664 76.0239 87.6509 76.1463C87.6427 76.2635 87.5562 76.375 87.4102 76.4841C87.2561 76.5863 86.6661 76.9319 85.637 77.5134C84.6115 78.0984 83.8303 78.516 83.31 78.7821L83.2207 79.0467L85.8438 82.7048L86.1056 82.656C86.4063 81.952 86.7804 81.4417 87.2274 81.1284C87.4533 80.9668 87.6649 80.8745 87.8594 80.8458C88.0569 80.8166 88.2393 80.8508 88.4084 80.9541C88.7478 81.1544 89.1757 81.6165 89.6958 82.3439C90.2165 83.0752 90.5812 83.626 90.7848 84.0113C90.9246 84.2818 90.9936 84.5006 91.0098 84.6662C91.0241 84.832 90.9924 84.9965 90.9193 85.1712C90.8442 85.3391 90.6803 85.52 90.423 85.6964C90.266 85.8061 90.1137 85.8724 89.9621 85.8947C89.8683 85.9086 89.7719 85.9045 89.681 85.8823C89.4404 85.8262 89.2664 85.7175 89.1463 85.553C89.0262 85.3885 88.9471 85.2251 88.9021 85.072L89.2859 84.8005C89.2309 84.5796 89.1118 84.3458 88.9345 84.091C88.7609 83.8397 88.5198 83.7043 88.2291 83.675C88.1431 83.6653 88.0548 83.6681 87.968 83.6809C87.7516 83.7129 87.5346 83.81 87.3046 83.9712C86.9842 84.1966 86.8087 84.4781 86.7692 84.8116C86.7412 85.1466 86.8371 85.4714 87.0617 85.7915C87.2916 86.1067 87.5709 86.3281 87.9035 86.4612C88.2344 86.5834 88.5722 86.6282 88.9223 86.5765C89.5587 86.4755 90.1548 86.2266 90.7115 85.835C91.7481 85.1039 92.3979 84.2934 92.6504 83.4082C92.9014 82.5191 92.7362 81.6691 92.151 80.8455C91.6884 80.2114 91.0962 79.8102 90.361 79.6418C90.1065 79.5888 89.8299 79.5859 89.5307 79.63C89.3721 79.6534 89.2051 79.6893 89.0327 79.7432C88.5316 79.8905 87.9851 80.1788 87.3788 80.6073C86.7749 81.0313 86.2948 81.5969 85.9446 82.2898L84.4068 80.026L87.4098 78.8977C87.9988 78.6764 88.3651 78.5134 88.5185 78.4063C88.6825 78.2955 88.7637 78.1482 88.7843 77.9629C88.812 77.6056 88.4661 76.8087 87.7367 75.5544Z" fill="#664117" fill-opacity="0.2"/>
<path fill-rule="evenodd" clip-rule="evenodd" d="M46.4009 57.4921C44.3075 57.512 42.3364 57.1525 40.3434 57.2522C37.477 57.4004 34.7433 58.0676 32.0031 58.87C30.9208 59.1947 29.7544 59.1226 28.7713 59.8917C27.4307 60.9385 25.9222 61.4685 24.1705 61.6151C22.8484 61.7237 21.7896 62.8155 20.345 63.047C16.4638 63.6799 12.7687 63.0191 9.09388 61.9023C8.92282 61.8482 8.74434 61.7503 8.61105 61.6275C8.48618 61.5065 8.40324 61.3243 8.20065 61.0081C10.6017 61.4843 12.7777 62.2035 15.0837 62.3324C16.9798 62.4393 18.9017 62.4864 20.7705 62.4285C22.2946 62.3837 23.8111 61.4727 25.2931 60.859C28.3413 59.6019 31.2753 58.0685 34.4606 57.1881C35.8036 56.8138 37.2029 56.5512 38.5927 56.4733C40.8678 56.3442 43.1544 56.2245 45.4104 56.6987C45.787 56.7785 46.165 56.7981 46.4009 57.4921Z" fill="#664117" fill-opacity="0.2"/>
<path fill-rule="evenodd" clip-rule="evenodd" d="M10.7708 71.5339C11.5925 71.0452 12.2293 71.0581 12.8541 71.2447C15.9138 72.1368 19.0443 72.1348 22.1791 72.0172C23.8762 71.956 25.4905 71.4175 27.0281 70.8566C30.0347 69.7665 32.9182 68.3392 35.8934 67.1611C36.8735 66.7792 37.9711 66.7099 39.0209 66.5173C39.3265 66.461 39.5769 66.6103 39.6361 66.9354C39.6942 67.2536 39.5121 67.4698 39.2306 67.5857C39.059 67.6517 38.8757 67.7083 38.6925 67.717C34.5994 67.7979 31.3201 70.2445 27.6723 71.5891C24.8738 72.618 22.0095 72.9186 19.118 72.9586C16.6832 72.9994 14.2521 72.5826 11.888 71.9217C11.5835 71.8405 11.2845 71.7136 10.7708 71.5339Z" fill="#664117" fill-opacity="0.2"/>
<path fill-rule="evenodd" clip-rule="evenodd" d="M35.8479 61.9141C35.7938 62.8321 35.3213 63.0209 34.8146 63.1578C32.0631 63.8774 29.6197 65.3995 26.9869 66.4192C23.6594 67.7033 20.2917 68.1699 16.7365 67.8701C14.0646 67.6374 11.5086 67.0436 8.98177 66.1849C8.61049 66.0585 7.92547 66.0436 8.04117 65.5501C8.19854 64.9039 8.83828 65.2889 9.22825 65.4177C13.6373 66.9106 18.1173 67.593 22.6952 66.7778C25.7274 66.2336 28.5251 64.8954 31.2767 63.5487C32.7257 62.836 34.2287 62.4818 35.8479 61.9141Z" fill="#664117" fill-opacity="0.2"/>
<path fill-rule="evenodd" clip-rule="evenodd" d="M32.7132 47.5715C32.654 48.5239 31.7639 48.4863 31.1888 48.6984C27.628 49.9762 24.3383 51.8757 20.5503 52.6435C15.9696 53.571 11.5372 53.2735 7.09679 52.12C6.49198 51.965 6.49813 51.1019 5.75133 51.3038C5.82513 51.0028 6.05926 51.0079 6.28239 51.0696C10.2375 52.2143 14.3063 52.7558 18.428 52.2747C20.5517 52.0244 22.6862 51.4406 24.692 50.5368C26.7502 49.6152 28.8615 48.8048 30.9477 47.9421C31.5093 47.7146 32.0833 47.5159 32.7132 47.5715Z" fill="#664117" fill-opacity="0.2"/>
<path fill-rule="evenodd" clip-rule="evenodd" d="M29.7318 55.0289C22.856 58.615 15.9456 59.6808 8.66409 57.7497C7.90551 57.5471 7.15202 57.3305 6.39654 57.1214C6.03976 57.0173 5.55877 56.9417 5.8079 56.4408C5.99286 56.0643 6.40483 56.2387 6.68687 56.368C8.30619 57.1062 10.0768 57.3019 11.8216 57.5442C15.9518 58.1215 20.0004 57.87 24.0462 56.5562C25.8182 55.9883 27.3856 54.6006 29.7318 55.0289Z" fill="#664117" fill-opacity="0.2"/>
<path fill-rule="evenodd" clip-rule="evenodd" d="M40.5214 51.1976C42.1332 51.4493 43.9444 50.9814 45.5237 52.0767C45.8864 52.3245 46.3412 52.0639 46.7522 52.0104C47.1238 51.9667 47.6103 51.8725 47.6147 52.4063C47.613 52.9746 47.0428 52.8399 46.7479 52.7684C45.0705 52.3482 43.3617 52.2737 41.6483 52.1479C41.2359 52.1161 40.8133 52.1113 40.4015 52.0835C40.0607 52.0596 39.5302 52.3119 39.4844 51.7741C39.4265 51.1332 40.0631 51.365 40.5214 51.1976Z" fill="#664117" fill-opacity="0.2"/>
<path fill-rule="evenodd" clip-rule="evenodd" d="M36.8102 48.2858C36.0442 48.3989 35.2761 48.5051 34.5112 48.6252C34.2438 48.6646 33.9494 48.7895 33.8235 48.061C33.7066 47.3932 33.9922 47.2085 34.2447 47.1173C35.8683 46.5651 37.5897 46.7589 39.268 46.6262C39.5093 46.611 39.747 46.8884 39.7995 47.3896C39.8649 47.9571 39.6124 48.028 39.395 48.0601C38.5421 48.1992 37.6895 48.3189 36.8337 48.4452L36.8102 48.2858Z" fill="#664117" fill-opacity="0.2"/>
<path fill-rule="evenodd" clip-rule="evenodd" d="M33.5149 53.0168C33.6992 52.0836 34.5334 52.0867 35.1041 51.9139C36.0279 51.6341 37.0101 51.5634 37.9847 51.6486C38.2791 51.6682 38.4329 51.8125 38.458 52.052C38.4745 52.2532 38.2659 52.2901 38.1092 52.2847C36.5692 52.2015 35.116 52.7061 33.5149 53.0168Z" fill="#664117" fill-opacity="0.2"/>
<path fill-rule="evenodd" clip-rule="evenodd" d="M44.9962 65.7675C46.0294 65.7178 47.0845 65.9957 48.159 66.1985C48.409 66.2491 48.7148 66.2559 48.6784 66.6033C48.6459 66.8666 48.5036 67.0902 48.1702 67.0682C46.8797 66.9838 45.598 66.9033 44.3132 66.7743C44.0007 66.7492 43.6622 66.4927 43.8064 66.165C43.9961 65.7238 44.5246 65.8799 44.9962 65.7675Z" fill="#664117" fill-opacity="0.2"/>
<path fill-rule="evenodd" clip-rule="evenodd" d="M45.822 61.409C46.5431 61.5305 47.4164 61.3365 48.0061 61.734C48.0531 61.7698 47.9902 61.9654 47.9351 61.9786C47.0339 62.2185 46.1744 62.0156 45.2939 62.0295C45.0957 62.0333 45.0166 61.8841 45.1243 61.7298C45.2573 61.5188 45.5154 61.4308 45.822 61.409Z" fill="#664117" fill-opacity="0.2"/>
<path fill-rule="evenodd" clip-rule="evenodd" d="M41.5377 61.1102C41.9516 61.27 42.7368 60.9627 42.8821 61.4981C42.963 61.8047 42.4753 61.7872 42.1967 61.7499C41.7068 61.6899 40.9545 61.9648 40.8636 61.3491C40.8272 61.1021 41.2504 61.1526 41.5377 61.1102Z" fill="#664117" fill-opacity="0.2"/>
<path fill-rule="evenodd" clip-rule="evenodd" d="M41.6091 66.5033C41.6503 66.9685 41.4645 67.112 41.1902 67.1453C40.9185 67.1753 40.6878 67.0902 40.645 66.7036C40.5912 66.3044 40.8123 66.1934 41.0776 66.1542C41.3379 66.1229 41.5696 66.1803 41.6091 66.5033Z" fill="#664117" fill-opacity="0.2"/>
<path fill-rule="evenodd" clip-rule="evenodd" d="M134.174 44.5365C132.081 44.5564 130.11 44.1969 128.114 44.2971C125.25 44.4449 122.517 45.112 119.777 45.9145C118.694 46.2391 117.524 46.1676 116.541 46.9367C115.201 47.9833 113.692 48.5136 111.944 48.6596C110.618 48.7688 109.56 49.8603 108.114 50.092C104.234 50.7248 100.542 50.0636 96.8673 48.9468C96.6923 48.8932 96.5178 48.7948 96.3845 48.6719C96.2556 48.5515 96.1767 48.3687 95.9741 48.0525C98.3712 48.5294 100.551 49.2479 102.857 49.3768C104.753 49.4837 106.671 49.5315 108.544 49.4729C110.068 49.4281 111.581 48.5177 113.067 47.9035C116.112 46.6468 119.049 45.1129 122.234 44.2325C123.577 43.8582 124.976 43.5957 126.366 43.5178C128.637 43.3892 130.925 43.2694 133.184 43.7432C133.556 43.8235 133.931 43.8435 134.174 44.5365Z" fill="#664117" fill-opacity="0.2"/>
<path fill-rule="evenodd" clip-rule="evenodd" d="M98.5482 58.5779C99.3688 58.0893 100.006 58.1021 100.631 58.2887C103.69 59.1809 106.817 59.1795 109.954 59.0614C111.651 59.0003 113.266 58.4617 114.803 57.9009C117.809 56.8109 120.692 55.3836 123.667 54.2056C124.644 53.8242 125.741 53.7549 126.794 53.5618C127.096 53.5061 127.35 53.6548 127.409 53.98C127.468 54.2981 127.285 54.5143 127.004 54.6302C126.832 54.6963 126.645 54.7534 126.466 54.7615C122.373 54.8425 119.094 57.2889 115.44 58.6345C112.642 59.6633 109.782 59.9633 106.89 60.0033C104.452 60.0445 102.024 59.6273 99.6573 58.9669C99.3539 58.8854 99.0619 58.7575 98.5482 58.5779Z" fill="#664117" fill-opacity="0.2"/>
<path fill-rule="evenodd" clip-rule="evenodd" d="M123.622 48.9588C123.568 49.8768 123.096 50.0656 122.589 50.2026C119.838 50.9222 117.394 52.4443 114.758 53.4644C111.434 54.7481 108.066 55.2146 104.511 54.9149C101.839 54.6822 99.2831 54.0884 96.7563 53.2297C96.385 53.1033 95.696 53.0889 95.8157 52.5949C95.9731 51.9487 96.6128 52.3337 97.0028 52.4624C101.412 53.9554 105.892 54.6378 110.47 53.8226C113.499 53.2788 116.3 51.9401 119.051 50.5934C120.493 49.8818 122.003 49.5266 123.622 48.9588Z" fill="#664117" fill-opacity="0.2"/>
<path fill-rule="evenodd" clip-rule="evenodd" d="M120.483 34.6169C120.428 35.5687 119.533 35.5317 118.954 35.7444C115.402 37.0211 112.112 38.9205 108.321 39.6887C103.743 40.6158 99.3108 40.3183 94.8664 39.1655C94.2656 39.0098 94.2717 38.1467 93.5209 38.3492C93.5947 38.0482 93.8288 38.0533 94.053 38.1149C98.011 39.2591 102.076 39.8012 106.198 39.3201C108.325 39.0692 110.456 38.486 112.462 37.5822C114.52 36.6606 116.628 35.8506 118.717 34.9875C119.279 34.76 119.85 34.5617 120.483 34.6169Z" fill="#664117" fill-opacity="0.2"/>
<path fill-rule="evenodd" clip-rule="evenodd" d="M117.509 42.0728C110.633 45.6591 103.722 46.7249 96.4406 44.7937C95.6821 44.5912 94.9256 44.375 94.1701 44.1659C93.8163 44.0614 93.3363 43.9856 93.5854 43.4847C93.7664 43.1088 94.1823 43.2826 94.4644 43.412C96.0827 44.1503 97.8543 44.3458 99.5952 44.5887C103.728 45.1655 107.778 44.9139 111.824 43.6001C113.584 43.0339 115.159 41.6451 117.509 42.0728Z" fill="#664117" fill-opacity="0.2"/>
<path fill-rule="evenodd" clip-rule="evenodd" d="M128.296 38.2423C129.902 38.4949 131.719 38.0261 133.303 39.1207C133.658 39.3696 134.117 39.1085 134.533 39.0542C134.901 39.0112 135.388 38.9168 135.388 39.4512C135.394 40.0184 134.824 39.8837 134.529 39.8122C132.849 39.3923 131.135 39.3185 129.424 39.1925C129.008 39.1613 128.588 39.1561 128.176 39.1283C127.831 39.1049 127.3 39.3574 127.258 38.819C127.2 38.1781 127.838 38.4097 128.296 38.2423Z" fill="#664117" fill-opacity="0.2"/>
<path fill-rule="evenodd" clip-rule="evenodd" d="M124.579 35.331C123.817 35.4435 123.047 35.55 122.285 35.6696C122.017 35.7091 121.723 35.834 121.597 35.1054C121.481 34.4375 121.763 34.2534 122.018 34.1617C123.641 33.6097 125.362 33.8035 127.038 33.6711C127.28 33.6559 127.513 33.9339 127.57 34.4345C127.635 35.002 127.384 35.0727 127.166 35.1048C126.314 35.2439 125.461 35.3637 124.602 35.4904C124.592 35.444 124.583 35.3843 124.579 35.331Z" fill="#664117" fill-opacity="0.2"/>
<path fill-rule="evenodd" clip-rule="evenodd" d="M121.288 40.0612C121.476 39.1276 122.303 39.1318 122.879 38.9581C123.799 38.6788 124.785 38.6077 125.759 38.6928C126.053 38.7127 126.203 38.8574 126.224 39.0975C126.244 39.2982 126.033 39.3354 125.884 39.329C124.341 39.2463 122.894 39.7498 121.288 40.0612Z" fill="#664117" fill-opacity="0.2"/>
<path fill-rule="evenodd" clip-rule="evenodd" d="M132.771 52.8122C133.799 52.7632 134.86 53.0404 135.934 53.2432C136.184 53.2938 136.49 53.3006 136.449 53.6486C136.421 53.9113 136.275 54.1355 135.941 54.1134C134.655 54.0285 133.369 53.9485 132.088 53.819C131.776 53.7938 131.433 53.538 131.581 53.2097C131.767 52.769 132.3 52.9246 132.771 52.8122Z" fill="#664117" fill-opacity="0.2"/>
<path fill-rule="evenodd" clip-rule="evenodd" d="M133.593 48.4537C134.315 48.5753 135.188 48.3812 135.782 48.7781C135.829 48.8139 135.762 49.0101 135.707 49.0233C134.805 49.2632 133.95 49.0597 133.069 49.0736C132.867 49.078 132.792 48.9283 132.896 48.7745C133.036 48.5625 133.291 48.475 133.593 48.4537Z" fill="#664117" fill-opacity="0.2"/>
<path fill-rule="evenodd" clip-rule="evenodd" d="M129.313 48.1544C129.727 48.3142 130.507 48.0077 130.655 48.5426C130.736 48.8493 130.249 48.8317 129.972 48.7941C129.478 48.7347 128.732 49.0087 128.641 48.3931C128.601 48.1466 129.023 48.1973 129.313 48.1544Z" fill="#664117" fill-opacity="0.2"/>
<path fill-rule="evenodd" clip-rule="evenodd" d="M130.364 53.403C130.377 53.8724 129.98 54.047 129.439 54.1197C128.898 54.1894 128.461 54.1348 128.426 53.747C128.379 53.3469 128.836 53.201 129.359 53.1239C129.888 53.0528 130.339 53.078 130.364 53.403Z" fill="#664117" fill-opacity="0.2"/>
</g>
<mask id="mask0_7934_4791" style="mask-type:luminance" maskUnits="userSpaceOnUse" x="0" y="0" width="167" height="209">
<path d="M0 30.6294L121.672 0.000474984L166.455 177.897L44.7825 208.526L0 30.6294Z" fill="white"/>
</mask>
<g mask="url(#mask0_7934_4791)">
<path d="M126.948 186.311C124.253 181.283 122.33 175.888 119.741 170.811C117.654 166.722 115.217 162.871 111.26 160.383C104.516 156.141 96.0637 156.151 89.1732 152.239C87.6058 151.349 86.0751 150.24 85.2358 148.602C84.6008 147.241 84.3837 145.817 84.5845 144.332C84.8922 141.17 86.1358 138.176 86.5084 135.025C86.7003 133.751 86.6758 132.48 86.4366 131.216C86.1996 129.949 85.762 128.758 85.1228 127.641C83.7385 125.326 82.1142 123.193 80.2477 121.245C82.6595 120.713 84.9486 119.851 87.1168 118.665C89.2818 117.479 91.2386 116.015 92.9872 114.27C94.6099 112.614 96.0083 110.784 97.1793 108.781C98.3472 106.779 99.2569 104.664 99.9023 102.439C100.302 102.24 100.697 102.032 101.083 101.807C105.441 99.2581 108.376 95.0638 109.984 90.3463C110.143 89.8725 110.289 89.3956 110.429 88.9172C114.6 88.2908 118.653 87.2212 122.592 85.7075C129.583 82.9489 135.959 77.9773 137.275 70.1832C137.6 68.1733 137.641 66.1561 137.397 64.1317C137.005 60.7092 135.654 57.571 133.968 54.5824C131.791 50.8376 129.071 47.5378 125.815 44.6754C124.326 43.3259 123.01 41.7652 121.555 40.3708C120.036 38.9139 118.463 37.5097 116.837 36.1619C110.819 31.1108 104.221 26.9776 97.0407 23.7693C90.7324 21.061 84.1774 19.2392 77.3736 18.3078C70.7143 17.3368 63.9794 17.0186 57.2648 16.7283C56.6799 16.7014 56.7301 17.6052 57.308 17.6306C70.701 18.2105 84.1958 19.1295 96.628 24.5959C103.676 27.7518 110.161 31.8118 116.074 36.7743C119.087 39.3334 121.948 42.0489 124.659 44.9238C126.165 46.4826 127.825 47.845 129.233 49.5106C130.56 51.0783 131.743 52.7481 132.78 54.5202C134.531 57.5087 135.971 60.7232 136.353 64.1844C136.589 66.1679 136.539 68.148 136.201 70.1185C135.882 71.8248 135.309 73.4404 134.482 74.9691C133.658 76.4969 132.616 77.863 131.365 79.0648C125.988 84.3106 118.067 86.4851 110.762 87.6443C111.222 85.794 111.426 83.9164 111.374 82.0114C111.239 79.2567 110.67 76.5947 109.675 74.0237C107.566 68.3729 104.045 63.3107 100.121 58.7738C95.9636 53.9375 91.2596 49.7085 86.0058 46.0876C80.7512 42.4637 75.1246 39.5673 69.1223 37.3962C64.5824 35.7504 59.9183 34.6022 55.1305 33.9549C49.8838 31.8629 44.4766 30.3467 38.9066 29.4102C35.4709 28.8364 32.0284 28.7964 28.5774 29.2841C25.685 29.7593 22.906 30.6067 20.2396 31.8232C15.4325 33.9825 10.9416 37.2415 8.16552 41.7932C7.48292 42.9439 6.93407 44.1561 6.52515 45.4284C6.11314 46.7015 5.84951 48.0029 5.73502 49.3357C5.62054 50.6685 5.65284 51.9973 5.83809 53.3203C6.02411 54.6465 6.35763 55.9322 6.83324 57.1822C7.55613 58.9448 8.47815 60.598 9.59931 62.1421C11.9218 65.614 14.6355 68.7476 17.7403 71.5431C19.2838 72.9249 20.9776 74.1212 22.4756 75.5441C32.0754 84.6862 43.446 91.4545 55.5442 96.7553C65.5017 101.12 76.4148 104.962 87.4198 105.007C91.1683 105.088 94.7967 104.47 98.3081 103.153C97.1364 106.627 95.3314 109.739 92.8954 112.484C91.1279 114.426 89.1026 116.05 86.8149 117.348C84.5303 118.646 82.099 119.557 79.5211 120.081C79.4122 120.105 79.3018 120.123 79.196 120.147C75.905 116.859 69.41 111.531 65.8721 116.475C65.7819 116.586 65.7288 116.714 65.7197 116.861C65.7099 117.005 65.7403 117.139 65.8146 117.264C68.5065 121.734 74.0065 122.327 78.7386 121.539L78.8005 121.603C80.7467 123.579 82.4428 125.751 83.886 128.117C84.5243 129.204 84.9519 130.368 85.1694 131.611C85.387 132.853 85.3782 134.097 85.1446 135.335C84.6861 138.394 83.5181 141.322 83.2651 144.414C83.1814 145.151 83.1918 145.884 83.3043 146.618C83.4128 147.349 83.6141 148.058 83.9103 148.738C84.2057 149.416 84.5876 150.046 85.049 150.626C85.5096 151.203 86.0389 151.714 86.636 152.155C92.807 156.809 101.087 156.991 107.964 160.115C109.957 160.986 111.748 162.165 113.339 163.646C115.3 165.524 116.722 167.948 117.999 170.32C120.921 175.744 122.947 181.589 125.857 187.015C126.254 187.756 127.342 187.042 126.948 186.311ZM101.081 100.273C100.85 100.424 100.611 100.569 100.373 100.708C101.222 97.1374 101.565 93.5167 101.404 89.852C103.94 89.7065 106.484 89.4798 109.011 89.1296C107.638 93.6072 105.076 97.6912 101.081 100.273ZM85.842 47.4986C90.2251 50.6094 94.2187 54.1566 97.8222 58.1371C101.766 62.4523 105.369 67.2903 107.721 72.6665C108.866 75.18 109.612 77.8039 109.96 80.5443C110.208 83.0176 110.01 85.4553 109.364 87.8582L109.253 87.8762C106.63 88.2474 103.989 88.5051 101.34 88.6693C101.143 85.6838 100.665 82.7396 99.9125 79.8415C96.4399 66.5161 87.2862 54.8277 76.747 46.2341C71.8518 42.1978 66.5158 38.8637 60.7367 36.2356C65.2478 37.2843 69.6128 38.7574 73.8378 40.6533C78.0621 42.5461 82.063 44.8302 85.842 47.4986ZM57.3893 36.2341C70.0941 41.1786 81.3249 50.3535 89.3309 61.306C95.2014 69.334 99.4072 78.8256 100.074 88.7417C93.7626 89.0363 87.46 88.9083 81.1659 88.3577C73.8852 87.7499 66.4781 86.8226 59.4262 84.8533C55.3769 83.7212 51.3713 82.3186 47.4313 80.8633C41.8804 78.907 36.5675 76.4474 31.4909 73.4783C27.0699 70.804 22.5812 67.3781 20.2257 62.6532C18.023 58.2347 18.6679 53.4246 21.1603 49.2727C23.7652 44.9283 27.8735 41.5062 32.2126 38.9752C34.3335 37.6924 36.5792 36.6968 38.9528 35.9876C41.3257 35.2753 43.7501 34.8719 46.2259 34.7775C49.024 34.6972 51.8092 34.8271 54.5847 35.1664C55.524 35.5179 56.4578 35.8741 57.3893 36.2341ZM72.6321 101.483C62.9193 98.8994 53.5965 94.7854 44.764 90.0355C37.9372 86.377 31.6237 81.9784 25.8267 76.8388C24.3923 75.5641 23.0604 74.1618 21.5405 72.9908C19.8983 71.7257 18.3409 70.367 16.8676 68.9116C13.9829 66.051 11.5017 62.8752 9.41869 59.389C8.68592 58.2005 8.11527 56.9383 7.70751 55.6056C7.29589 54.2705 7.06113 52.9073 7.00246 51.513C6.94379 50.1186 7.05974 48.7395 7.3534 47.3747C7.64397 46.0106 8.10692 44.7051 8.73219 43.4572C11.0842 38.9301 15.3417 35.6182 19.8691 33.4307C22.6697 32.0687 25.61 31.1446 28.6878 30.6622C31.7649 30.1766 34.8426 30.1507 37.9274 30.583C42.0128 31.1805 46.0022 32.1535 49.9027 33.5038C49.1927 33.4756 48.4804 33.4512 47.7673 33.4501C45.0509 33.385 42.3738 33.6845 39.7343 34.3423C37.2926 35.0292 34.9603 35.981 32.7366 37.1944C24.5123 41.6067 14.8959 50.7708 18.2122 61.0743C19.8444 66.1488 24.0472 70.0047 28.3287 72.9342C33.3636 76.3769 38.9649 78.938 44.6413 81.1321C52.1127 84.0239 59.7348 86.523 67.6433 87.876C76.6838 89.4203 85.7879 90.1471 94.9594 90.0587C96.6729 90.0413 98.4025 89.9967 100.137 89.9182C100.222 92.0974 100.132 94.2684 99.8616 96.432C99.6426 98.159 99.2955 99.8591 98.8192 101.529C90.8357 105.306 80.793 103.656 72.6321 101.483ZM67.1746 116.938C69.97 113.834 74.8388 117.752 77.5988 120.404C73.7252 120.883 69.4799 120.303 67.1746 116.938Z" fill="#664117"/>
</g>
<defs>
<clipPath id="clip0_7934_4791">
<rect width="132.077" height="89.6236" fill="white" transform="translate(0 19.2856) rotate(-8.39629)"/>
</clipPath>
</defs>
</svg>
