<svg width="54" height="64" viewBox="0 0 54 64" fill="none" xmlns="http://www.w3.org/2000/svg">
<g clip-path="url(#clip0_8055_2135)">
<path d="M35.7758 35.9232C38.507 30.5142 38.1851 26.9014 37.9358 23.9905C37.6762 20.9764 37.4789 18.7984 40.8539 15.5262C41.1239 15.2578 41.2381 14.8656 41.1239 14.5043C41.0201 14.143 40.7189 13.8643 40.3451 13.7817C40.1581 13.7404 21.6424 9.99342 14.072 25.3324C11.1331 31.2781 13.6151 38.4934 19.607 41.4146C19.7004 41.4559 19.7939 41.4869 19.8874 41.5282C19.8458 44.4907 20.3131 47.4119 21.4554 50.0545C21.6216 50.4467 22.0058 50.6841 22.4108 50.6841C22.5458 50.6841 22.6912 50.6531 22.8158 50.6015C23.3454 50.3744 23.5843 49.7654 23.3662 49.2493C22.442 47.1126 22.037 44.7281 22.0058 42.2714C22.9093 42.4882 23.8335 42.6017 24.7578 42.6017C29.2439 42.6017 33.6781 40.1244 35.7862 35.9335L35.7758 35.9232ZM22.0681 40.145C22.1824 38.6792 22.4212 37.2134 22.7535 35.7683L26.0766 35.3451C26.6478 35.2728 27.0528 34.7567 26.9801 34.189C26.9074 33.6213 26.3881 33.229 25.817 33.291L23.3454 33.6006C25.1524 27.7788 28.4962 22.7931 31.7051 21.2654C32.2243 21.0177 32.4424 20.3983 32.1931 19.8925C31.9439 19.3868 31.3312 19.1597 30.812 19.4074C29.057 20.2435 27.302 21.8744 25.7235 24.0215L25.547 22.628C25.4743 22.0602 24.9551 21.668 24.3839 21.7299C23.8128 21.8022 23.4078 22.3183 23.4804 22.886L23.9685 26.7363C21.9435 30.3388 20.4377 34.7877 20.0016 39.2779C15.422 36.7077 13.5839 30.9891 15.9308 26.2408C20.5104 16.961 29.3789 15.3507 34.9554 15.3507C36.1601 15.3507 37.2193 15.423 38.0397 15.5159C35.3812 18.7674 35.6201 21.3996 35.8589 24.166C36.1081 26.953 36.3781 30.1117 33.917 34.9941C31.7362 39.3192 26.5854 41.4353 22.0681 40.1347V40.145Z" fill="#FD4621"/>
<path d="M23.0136 56.4544C10.8844 54.5241 2.07826 44.2327 2.07826 32.0007C2.07826 19.7687 11.6113 8.95091 23.8963 7.4232L20.106 10.5612C19.6698 10.9225 19.6075 11.5728 19.9709 12.0166C20.1786 12.2644 20.4694 12.3883 20.7706 12.3883C21.0094 12.3883 21.2379 12.3057 21.4352 12.1508L27.6659 6.98967C27.9048 6.79354 28.0398 6.50452 28.0398 6.19485C28.0398 5.88517 27.9048 5.59615 27.6659 5.40002L21.4352 0.238849C20.9886 -0.122433 20.3448 -0.0708212 19.9709 0.37304C19.6075 0.806579 19.6594 1.45689 20.106 1.82849L24.3013 5.2968C10.6767 6.64903 0.0117188 18.1068 0.0117188 32.0007C0.0117188 45.8946 9.55518 56.4028 22.6917 58.4982C22.7436 58.4982 22.8059 58.5085 22.8579 58.5085C23.3563 58.5085 23.8029 58.1472 23.886 57.6414C23.9794 57.084 23.5952 56.5473 23.024 56.4544H23.0136Z" fill="#FD4621"/>
<path d="M53.9994 32.0008C53.9994 18.7469 44.4559 7.59873 31.3194 5.5033C30.7482 5.41039 30.2186 5.79232 30.1252 6.36005C30.0317 6.91746 30.4159 7.45422 30.9871 7.54712C43.1163 9.4774 51.9225 19.7688 51.9225 32.0008C51.9225 44.2327 42.3894 55.0506 30.1044 56.5783L33.8948 53.4403C34.3309 53.079 34.3932 52.4287 34.0298 51.9848C33.6663 51.5513 33.0121 51.4894 32.5656 51.8506L26.3348 57.0118C26.0959 57.2079 25.9609 57.497 25.9609 57.8066C25.9609 58.1163 26.0959 58.4053 26.3348 58.6015L32.5656 63.7626C32.7629 63.9278 32.9913 64 33.2302 64C33.5313 64 33.8221 63.8762 34.0298 63.6284C34.3932 63.1949 34.3413 62.5446 33.8948 62.173L29.6994 58.7047C43.324 57.3525 53.989 45.8946 53.989 32.0008H53.9994Z" fill="#FD4621"/>
</g>
<defs>
<clipPath id="clip0_8055_2135">
<rect width="54" height="64" fill="white"/>
</clipPath>
</defs>
</svg>
