<svg width="74" height="64" viewBox="0 0 74 64" fill="none" xmlns="http://www.w3.org/2000/svg">
<g clip-path="url(#clip0_8055_2123)">
<path fill-rule="evenodd" clip-rule="evenodd" d="M20.1609 45.1072C18.7431 43.0215 17.4599 40.8511 16.3114 38.6231L6.70867 49.3351C6.63231 49.4199 6.54257 49.4944 6.43944 49.5551L2.46942 51.8847C1.93016 52.2023 1.23818 52.0151 0.92565 51.4671C0.613118 50.9191 0.797331 50.2168 1.33659 49.8983L5.15388 47.6591L15.2273 36.4216C12.5869 30.7903 10.7464 24.7847 9.77101 18.8207C9.42463 16.7047 10.5118 14.6663 12.4429 13.8031C19.9389 10.4511 28.3568 6.58955 34.4823 1.36555C36.2284 -0.124053 38.7696 -0.0832532 40.47 1.45595C46.9757 7.34715 54.1135 10.5559 62.0827 13.7511C64.2279 14.6111 65.4088 16.9391 64.8467 19.2119C63.3533 25.2567 61.3411 31.0463 58.7677 36.4216L68.8419 47.6591L72.6592 49.8983C73.1985 50.216 73.3827 50.9184 73.0701 51.4671C72.7576 52.0159 72.0672 52.2031 71.5272 51.8847L67.5571 49.5551C67.454 49.4944 67.3635 49.4191 67.2879 49.3351L57.6758 38.6127C56.4957 40.8871 55.2204 43.0576 53.8514 45.1168L55.8439 46.2864C56.3831 46.6031 56.5674 47.3055 56.2548 47.8544C55.9423 48.4031 55.2511 48.5903 54.7111 48.2719L44.6203 42.3519C42.4719 41.0911 40.4668 44.6655 42.5987 45.9159L46.105 47.9736C46.2499 48.0583 46.3687 48.1719 46.4593 48.3015C48.055 50.5095 49.1776 52.3135 50.0884 53.7775C52.6564 57.9047 53.2555 58.8679 58.4055 59.1367C59.3612 59.1863 60.4335 59.2071 61.656 59.2071C61.8623 59.2071 62.0552 59.2631 62.2213 59.3607L66.0181 61.5863C66.5574 61.9039 66.7424 62.6063 66.429 63.1551C66.1165 63.7031 65.4261 63.8904 64.8853 63.5728L61.349 61.4983C60.1823 61.4951 59.1699 61.4743 58.2898 61.4287C55.9919 61.3088 53.7711 61.0191 52.0581 59.8447C50.4332 58.7311 49.2996 56.8031 48.1778 55.0007C47.8802 54.5223 47.559 54.0063 47.2048 53.4503C44.9934 55.7584 42.5979 57.8599 40.0307 59.7103C38.4854 60.8239 36.4945 60.8727 34.9019 59.8287C31.9962 57.924 29.3424 55.7407 26.8926 53.2871C26.0534 54.5983 25.189 56.0599 24.3915 57.2175C22.7494 59.5999 21.2749 60.6847 18.3141 61.1695C17.5544 61.2935 16.6947 61.3775 15.7028 61.4295C14.8227 61.4759 13.8095 61.4959 12.6436 61.4991L9.10737 63.5735C8.56812 63.8919 7.87614 63.7039 7.56439 63.1559C7.25186 62.6071 7.43608 61.9047 7.97533 61.5871L11.7722 59.3615C11.9383 59.2631 12.1311 59.2079 12.3374 59.2079C14.189 59.2079 16.3586 59.1671 17.9598 58.9055C20.2664 58.5271 21.2568 57.7711 22.5423 55.9063C23.5783 54.4031 24.5962 52.5967 25.7904 50.8223C26.3037 50.0479 26.8792 49.2095 27.5342 48.3023C27.6247 48.1727 27.7436 48.0592 27.8884 47.9743L31.3948 45.9168C33.5266 44.6664 31.5223 41.0919 29.3731 42.3527L19.2816 48.2728C18.7423 48.5904 18.0504 48.4039 17.7386 47.8551C17.4261 47.3064 17.6103 46.604 18.1495 46.2872L20.1578 45.1087L20.1609 45.1072ZM51.8912 43.9664C56.9224 36.4399 60.4122 27.7239 62.6542 18.6527C62.9408 17.4919 62.3575 16.3279 61.2608 15.8879C53.0429 12.5935 45.698 9.26475 38.9672 3.17035C38.0918 2.37755 36.8275 2.36315 35.9339 3.12475C29.5849 8.53915 21.0977 12.4415 13.3545 15.9039C12.361 16.3479 11.8233 17.3663 12.0005 18.4503C12.7586 23.0815 14.0662 27.7967 15.924 32.3647C17.5725 36.4199 19.6547 40.3511 22.1219 43.9559L28.2442 40.3631C29.9573 39.3583 31.6199 39.7127 32.8267 40.7088C34.9657 42.4728 35.4498 46.188 32.5299 47.9007L29.2291 49.8375C28.8512 50.3639 28.5017 50.8656 28.1758 51.3432C30.5808 53.792 33.2511 56.0103 36.1245 57.8943C36.9487 58.4343 37.9241 58.4151 38.7239 57.8383C41.3249 55.9639 43.7221 53.8407 45.9271 51.4983C45.5713 50.9743 45.1879 50.4207 44.7683 49.8375L41.4674 47.9007C38.5476 46.188 39.0317 42.4735 41.1698 40.7088C42.3767 39.7127 44.0393 39.3583 45.7523 40.3631L51.8912 43.9664ZM44.4172 22.5471L34.9656 32.1519L30.2753 27.3407C29.836 26.8919 29.1212 26.8895 28.6788 27.3359C28.2372 27.7831 28.2348 28.5096 28.6749 28.9583L34.1036 34.5263C34.5783 35.0504 35.3065 35.0583 35.7655 34.5928L46.0184 24.1735C46.4601 23.7239 46.4601 22.9959 46.0184 22.5463C45.5768 22.0975 44.8596 22.0983 44.4172 22.5471Z" fill="#FD4621"/>
</g>
<defs>
<clipPath id="clip0_8055_2123">
<rect width="74" height="64" fill="white"/>
</clipPath>
</defs>
</svg>
