<svg width="64" height="64" viewBox="0 0 64 64" fill="none" xmlns="http://www.w3.org/2000/svg">
<g clip-path="url(#clip0_8055_2128)">
<path d="M63.0596 27.4069C61.6119 17.6134 55.6006 9.00538 46.8065 4.31998C46.1292 3.95952 45.4374 3.62231 44.728 3.30834H44.7251C40.7106 1.5147 36.4312 0.604858 32.001 0.604858C21.9895 0.604858 12.4922 5.45368 6.59676 13.5701C2.67818 18.9451 0.605469 25.317 0.605469 32.0006C0.605469 32.9337 0.654887 33.8581 0.736282 34.7797C1.16942 39.7361 2.7566 44.4571 5.40196 48.652C5.78277 49.2538 6.17234 49.8526 6.59675 50.4311C6.59965 50.434 6.60256 50.434 6.60256 50.4369C7.89618 52.2567 9.47757 53.995 11.3031 55.5968C17.0328 60.6259 24.3815 63.3988 32.0004 63.3988C37.1341 63.3988 42.227 62.1285 46.7331 59.7302C46.736 59.7302 46.736 59.7273 46.736 59.7273C56.6225 54.4831 62.998 44.2855 63.37 33.1487C63.3962 32.7737 63.3962 32.3783 63.3962 32.0033C63.3962 30.451 63.2828 28.9162 63.059 27.4103L63.0596 27.4069ZM26.9926 28.8923C26.3967 28.4941 25.8443 27.997 25.324 27.3749C24.6321 26.5551 23.0158 24.6365 23.4838 22.6075C23.8385 21.061 25.2658 20.1598 26.3239 19.4912C28.1088 18.3575 29.6176 18.0319 30.7542 18.0319C31.164 18.0319 31.5274 18.0755 31.8384 18.1395C33.1989 18.4185 33.8879 19.1191 34.7629 20.0028C35.8093 21.0639 36.9954 22.2645 39.3646 22.7993C39.4111 22.8081 43.9896 23.9534 45.7222 21.4563C46.2861 20.654 46.446 19.6104 46.1815 18.2383C45.385 14.9505 41.4722 13.3401 38.3296 12.0464C36.9953 11.497 34.7569 10.5755 34.5971 10.0988C34.6378 9.92725 34.8093 9.54353 35.0854 9.25284C35.6785 8.6511 36.5128 8.61912 37.8296 8.61331C38.5418 8.6104 39.2831 8.60749 40.036 8.46796C41.6523 8.18598 43.1668 7.29066 44.5505 5.80228C44.7453 5.89531 44.9371 5.98542 45.129 6.08426C45.4429 6.24414 45.7569 6.40403 46.0621 6.57263C46.3703 6.74124 46.6726 6.92147 46.972 7.10171C47.2686 7.27903 47.5622 7.45636 47.85 7.64531C48.1465 7.83717 48.4343 8.03775 48.7221 8.24124C49.0011 8.43601 49.2773 8.63078 49.5477 8.83717C49.8297 9.04938 50.1 9.27031 50.3733 9.49415C50.6349 9.70636 50.8965 9.91856 51.1466 10.1395C51.4111 10.3721 51.6669 10.6133 51.9256 10.8546C52.1669 11.0814 52.4111 11.3081 52.6437 11.5436C52.8937 11.7936 53.132 12.0552 53.3704 12.3169C53.5942 12.5581 53.8181 12.7994 54.0332 13.0494C54.2628 13.3169 54.4809 13.5959 54.7018 13.8721C54.9053 14.1279 55.1146 14.3837 55.3094 14.6454C55.5216 14.9303 55.7192 15.221 55.9198 15.5117C56.1059 15.782 56.2948 16.0495 56.4721 16.3257C56.664 16.6222 56.8384 16.9303 57.0187 17.2327C57.1844 17.5147 57.3559 17.7938 57.5128 18.0815C57.6814 18.3926 57.8355 18.7123 57.9954 19.0292C58.1408 19.3228 58.2948 19.6135 58.4315 19.91C58.5797 20.2356 58.7134 20.5699 58.8501 20.9041C58.9751 21.2036 59.1059 21.5001 59.2192 21.8024C59.3472 22.1454 59.4576 22.5001 59.5739 22.8489C59.6727 23.1512 59.7832 23.4477 59.8733 23.7529C59.9809 24.1192 60.0681 24.4913 60.164 24.8634C60.2396 25.1599 60.3239 25.4535 60.3908 25.7529C60.478 26.1511 60.5419 26.5552 60.6146 26.9564C60.664 27.2384 60.7251 27.5145 60.7658 27.7994C60.8326 28.25 60.8704 28.7064 60.9169 29.1628C60.9402 29.404 60.978 29.6424 60.9954 29.8866C61.0477 30.5872 61.0739 31.2935 61.0739 32.0029C61.0739 32.157 61.0652 32.3285 61.0623 32.4884C59.9431 33.3024 58.7629 33.782 57.5448 33.9157C54.9721 34.218 52.4082 32.9971 51.6669 32.6134C50.9053 32.2297 50.3966 31.8692 49.9896 31.5814C49.3094 31.0989 48.6146 30.6134 47.603 30.846C45.9373 31.2268 45.5478 33 45.135 34.8751C44.8297 36.253 44.4867 37.8169 43.6844 39.4158C41.8297 43.1454 37.5333 46.7675 34.3181 46.035C32.0128 45.4884 30.6524 42.7675 29.8355 41.1396C28.8443 39.1396 28.4257 36.8605 28.6233 34.5699C28.664 34.1803 28.7047 33.8286 28.7978 33.4216C29.1204 31.6571 28.4198 29.8867 26.9954 28.8984L26.9926 28.8923ZM3.01567 29.7732C3.03311 29.529 3.0709 29.2848 3.09416 29.0406C3.14358 28.5522 3.19299 28.0639 3.26567 27.5784C3.30927 27.2906 3.37032 27.0058 3.42265 26.7209C3.50114 26.2878 3.57963 25.8546 3.67846 25.4244C3.74823 25.1221 3.83253 24.8255 3.91102 24.5261C4.01858 24.1192 4.12614 23.7151 4.25405 23.3139C4.34998 23.0116 4.45754 22.7122 4.56218 22.4099C4.69881 22.0233 4.83544 21.6366 4.98951 21.2529C5.1087 20.9535 5.23951 20.657 5.36742 20.3605C5.53021 19.9855 5.70172 19.6163 5.88195 19.2471C6.0244 18.9564 6.17556 18.6657 6.32672 18.3779C6.51858 18.0174 6.71916 17.6628 6.92846 17.3081C7.09416 17.0262 7.26567 16.7442 7.443 16.4651C7.53311 16.3256 7.62905 16.189 7.71916 16.0523C7.9837 16.3779 8.20753 16.7238 8.39067 17.1047C8.72497 17.7936 8.79764 18.3605 8.89649 19.1454C9.01277 20.064 9.15811 21.2122 9.76279 22.8954C10.1611 24.0001 10.4605 24.5146 10.7279 24.9681C10.9576 25.3606 11.1553 25.7007 11.4401 26.5263C11.9692 27.9915 12.8558 30.4391 12.1436 32.7618C11.85 33.6949 11.4518 34.1542 10.9517 34.7385C10.3267 35.4623 9.61741 36.2821 9.1959 37.942C8.84707 39.3605 8.96334 40.3838 9.06509 41.2879C9.10869 41.6687 9.1552 42.0583 9.16102 42.5088C9.20463 44.1541 8.66102 45.8838 7.55053 47.6745C7.48658 47.5786 7.41972 47.4826 7.35867 47.3867C7.19879 47.1309 7.04762 46.8722 6.89646 46.6134C6.68135 46.2442 6.46914 45.8751 6.26856 45.4972C6.12321 45.221 5.98368 44.939 5.84704 44.6599C5.66681 44.2878 5.49239 43.9158 5.32669 43.5379C5.19878 43.2472 5.0796 42.9536 4.96041 42.6599C4.80925 42.2791 4.66972 41.8954 4.536 41.5088C4.43135 41.2093 4.3296 40.9099 4.23658 40.6076C4.11449 40.2094 4.00402 39.8082 3.89937 39.407C3.82089 39.1105 3.73949 38.814 3.66973 38.5117C3.57379 38.0873 3.4953 37.66 3.41682 37.2326C3.3645 36.9448 3.30635 36.6599 3.26275 36.3722C3.19008 35.8954 3.14066 35.4128 3.09415 34.9332C3.07089 34.689 3.0331 34.4448 3.01566 34.1977C2.96043 33.4681 2.93136 32.7326 2.93136 31.9914C2.93136 31.2443 2.96334 30.503 3.01857 29.7675L3.01567 29.7732ZM43.0968 58.8284C42.6811 58.9999 42.2625 59.1685 41.841 59.3197C41.1927 59.5523 40.5357 59.7528 39.8759 59.9389C39.4631 60.0552 39.0532 60.1802 38.6346 60.2761C37.9049 60.4476 37.1636 60.5726 36.4194 60.686C36.059 60.7412 35.7043 60.8197 35.341 60.8604C34.2334 60.9883 33.1171 61.0668 31.9979 61.0668C31.1375 61.0668 30.2799 61.0261 29.4282 60.9505C29.152 60.9272 28.8817 60.8749 28.6055 60.8429C28.0328 60.7761 27.4572 60.7092 26.8903 60.6075C26.5706 60.5493 26.2595 60.4679 25.9427 60.4011C25.4282 60.2906 24.9107 60.186 24.4049 60.0464C24.0735 59.9563 23.7479 59.8429 23.4195 59.7412C22.9369 59.5929 22.4543 59.4447 21.9805 59.2703C21.6491 59.1482 21.3235 59.0057 20.998 58.872C20.5416 58.6831 20.0822 58.497 19.6346 58.2877C19.3061 58.1336 18.9893 57.9621 18.6666 57.7935C18.2334 57.5697 17.8032 57.3459 17.3817 57.0988C17.0619 56.9127 16.7508 56.7092 16.4369 56.5116C16.0328 56.2528 15.6288 55.9941 15.2363 55.715C14.9253 55.4941 14.6229 55.2616 14.3206 55.029C14.088 54.8488 13.8584 54.6627 13.6316 54.4767C14.9224 52.6947 16.3119 51.6511 17.7741 51.3662C19.1374 51.1104 20.0503 51.5988 21.5735 52.4098C23.0445 53.1947 24.8759 54.1685 27.7712 54.8022C30.2915 55.3574 31.8904 55.2615 33.3003 55.1714C34.6288 55.0929 35.7712 55.0202 37.6142 55.4475C39.873 55.9882 41.966 56.9679 43.9718 58.4243C43.6811 58.5551 43.3933 58.7004 43.0997 58.8225L43.0968 58.8284ZM46.2567 57.2877C43.7247 55.2557 41.0706 53.8924 38.1436 53.1918C35.9662 52.6889 34.536 52.7761 33.1552 52.8604C31.7773 52.9476 30.472 53.0261 28.2715 52.5406C25.6871 51.9738 24.0825 51.1221 22.6669 50.3662C20.9692 49.4592 19.5041 48.6802 17.3354 49.0901C15.3412 49.4767 13.5331 50.8081 11.9227 52.9534C10.8296 51.9099 9.83837 50.8197 8.97503 49.6802C10.6727 47.2384 11.5477 44.8139 11.4867 42.4709C11.4779 41.9506 11.4256 41.4884 11.3762 41.0348C11.2803 40.1889 11.2047 39.5233 11.4518 38.5174C11.7367 37.3953 12.1669 36.8982 12.7134 36.2645C13.2832 35.6047 13.9285 34.8576 14.3646 33.468C14.3646 33.4622 14.3646 33.4622 14.3675 33.4593C15.3093 30.3925 14.2163 27.3692 13.6349 25.7644C13.2832 24.7383 13.007 24.2645 12.7367 23.8051C12.5012 23.4011 12.2774 23.0203 11.9547 22.1191C11.4373 20.6773 11.3152 19.715 11.2076 18.8633C11.0943 17.9709 10.9896 17.1279 10.4867 16.0958C10.135 15.372 9.65239 14.7528 9.10296 14.1743C14.5942 7.13366 23.0594 2.93043 31.9986 2.93043C35.5277 2.93043 38.9462 3.59321 42.2051 4.82579C41.3708 5.55836 40.5104 6.02929 39.6237 6.18334C39.0597 6.28799 38.4551 6.2909 37.8184 6.29381C36.3708 6.29962 34.7283 6.30834 33.4114 7.64554C32.8998 8.18334 32.487 8.92465 32.3213 9.62523C31.8911 11.9159 34.5888 13.0264 37.4405 14.2008C40.0946 15.2909 43.3998 16.6514 43.9143 18.7938C44.0335 19.4101 44.0016 19.8578 43.8097 20.1281C43.2516 20.9334 40.9754 20.7938 39.9027 20.5409C38.1673 20.1485 37.3533 19.3258 36.4114 18.3694C35.4463 17.3927 34.3533 16.2822 32.2952 15.8607C30.6935 15.5409 28.1528 15.5758 25.0597 17.538C23.833 18.3113 21.7807 19.6077 21.2109 22.0874C20.4841 25.2502 22.705 27.884 23.5684 28.9101C24.1992 29.663 24.9173 30.3084 25.6789 30.8142C26.3388 31.2735 26.6614 32.1281 26.5132 32.9421C26.4085 33.3869 26.3533 33.8288 26.301 34.3404C26.0626 37.0788 26.5597 39.7851 27.7486 42.1774C28.6789 44.035 30.4114 47.4942 33.7777 48.2937C34.2341 48.4013 34.6993 48.4507 35.1702 48.4507C39.2894 48.4507 43.7112 44.5611 45.7547 40.4507C46.6879 38.596 47.0803 36.8083 47.4001 35.3722C47.5832 34.5379 47.8623 33.2792 48.0599 33.099C48.153 33.128 48.4233 33.3228 48.6413 33.474C49.0861 33.7908 49.6966 34.224 50.6006 34.6804C51.7227 35.2618 54.6704 36.5757 57.7983 36.224C58.8361 36.1077 59.8419 35.7908 60.8129 35.3169C59.7634 44.5032 54.3739 52.7153 46.2551 57.2875L46.2567 57.2877Z" fill="#FD4621"/>
</g>
<defs>
<clipPath id="clip0_8055_2128">
<rect width="64" height="64" fill="white"/>
</clipPath>
</defs>
</svg>
