<svg width="39" height="39" viewBox="0 0 39 39" fill="none" xmlns="http://www.w3.org/2000/svg">
<path fill-rule="evenodd" clip-rule="evenodd" d="M2.99701 10C1.89901 10 1 10.896 1 11.998C1.003 13.1 1.89201 13.99 2.99701 13.997V10Z" fill="#664117"/>
<path fill-rule="evenodd" clip-rule="evenodd" d="M29.0039 10V14.333H32.3539C32.9669 14.333 33.4659 14.817 33.4659 15.417V36H34.6499C36.4969 36 37.9999 34.541 37.9999 32.75V13.25C37.9999 11.452 36.4969 10 34.6499 10H29.0039Z" fill="#664117"/>
<path fill-rule="evenodd" clip-rule="evenodd" d="M22.7942 1.00293C21.9982 3.03293 23.7382 4.99695 25.8922 4.99695C26.2512 4.99695 26.6242 4.94193 26.9982 4.82193V2.00293C26.9982 1.45193 26.5072 1.00995 25.9002 1.00995L22.7942 1.00293Z" fill="#664117"/>
<path fill-rule="evenodd" clip-rule="evenodd" d="M6.07892 1C5.48192 1 5.00391 1.44201 5.00391 1.99301V4.79901C5.38891 4.93501 5.7789 4.99701 6.1539 4.99701C8.2719 4.99701 9.99991 3.02699 9.19891 1.00299C5.02591 0.999991 6.34992 1 6.07892 1Z" fill="#664117"/>
<path fill-rule="evenodd" clip-rule="evenodd" d="M11.559 1C12.28 4.392 9.579 7.45999 6.186 7.45999C5.797 7.45999 5.404 7.41901 5 7.33401V13.996H27V7.349C26.622 7.423 26.252 7.45999 25.885 7.45999C22.519 7.45999 19.803 4.42501 20.513 1.01801L11.559 1Z" fill="#664117"/>
<path fill-rule="evenodd" clip-rule="evenodd" d="M24.998 25.0029C24.446 25.0029 24 25.4519 24 25.9999C24 26.5509 24.446 26.9969 24.998 26.9969C25.551 26.9969 25.997 26.5509 25.997 25.9999C25.997 25.4519 25.551 25.0029 24.998 25.0029Z" fill="#664117"/>
<path fill-rule="evenodd" clip-rule="evenodd" d="M25.0039 23.0239C26.8329 23.0239 28.3199 24.4599 28.3199 26.2299C28.3159 28.0009 26.8289 29.4369 25.0039 29.4369C23.1789 29.4369 21.6919 28.0009 21.6919 26.2299C21.6919 24.4599 23.1789 23.0239 25.0039 23.0239ZM1.00391 16.0039V34.7889C1.00391 36.5599 2.48292 37.9999 4.31592 37.9999H31.2559C31.6619 37.9999 31.9959 37.6799 31.9959 37.2839V17.3259C31.9959 16.9289 31.6619 16.6129 31.2559 16.6129H3.28391C2.46791 16.6129 1.68691 16.3999 1.00391 16.0039Z" fill="#664117"/>
</svg>
