<svg width="41" height="37" viewBox="0 0 41 37" fill="none" xmlns="http://www.w3.org/2000/svg">
<path fill-rule="evenodd" clip-rule="evenodd" d="M30.5729 4.89999C31.2299 4.89999 31.7579 5.44001 31.7459 6.09601V7.724C31.7579 8.38 31.2299 8.923 30.5729 8.923C29.9169 8.923 29.3859 8.38 29.4029 7.724V6.09601C29.3859 5.44001 29.9169 4.89999 30.5729 4.89999ZM30.5729 10.238C31.2099 10.238 31.7319 10.746 31.7459 11.388V13.016C31.7319 13.652 31.2099 14.164 30.5729 14.164C29.9369 14.164 29.4139 13.652 29.4029 13.016V11.388C29.4139 10.746 29.9369 10.238 30.5729 10.238ZM30.5729 15.505C31.2239 15.505 31.7459 16.027 31.7459 16.675V18.308C31.7579 18.964 31.2299 19.504 30.5729 19.504C29.9169 19.504 29.3859 18.964 29.4029 18.308V16.675C29.4029 16.027 29.9259 15.505 30.5729 15.505ZM9.83191 17.624C10.4879 17.624 11.0159 18.163 11.0019 18.82V20.447C10.9909 21.089 10.4679 21.595 9.83191 21.595C9.19291 21.595 8.67291 21.089 8.65591 20.447V18.82C8.64491 18.163 9.17591 17.624 9.83191 17.624ZM30.5729 20.797C31.2239 20.797 31.7459 21.319 31.7459 21.967V23.598C31.7319 24.237 31.2099 24.748 30.5729 24.748C29.9369 24.748 29.4139 24.237 29.4029 23.598V21.967C29.4029 21.322 29.9259 20.797 30.5729 20.797ZM9.83191 22.961C10.4679 22.961 10.9909 23.47 11.0019 24.112V25.739C11.0159 26.396 10.4879 26.935 9.83191 26.935C9.17591 26.935 8.64491 26.396 8.65591 25.739V24.112C8.67291 23.47 9.19291 22.961 9.83191 22.961ZM30.5729 26.083C31.2239 26.083 31.7459 26.612 31.7459 27.259V28.89C31.7319 29.526 31.2099 30.035 30.5729 30.035C29.9369 30.035 29.4139 29.526 29.4029 28.89V27.259C29.4029 26.612 29.9259 26.083 30.5729 26.083ZM9.83191 28.202C10.4879 28.202 11.0159 28.742 11.0019 29.398V31.032C11.0019 31.676 10.4769 32.202 9.83191 32.202C9.18391 32.202 8.66191 31.676 8.65591 31.032V29.398C8.64491 28.742 9.17591 28.202 9.83191 28.202ZM30.5729 31.353C31.2299 31.353 31.7579 31.892 31.7459 32.549V34.182C31.7459 34.824 31.2239 35.352 30.5729 35.352C29.9259 35.352 29.4029 34.824 29.4029 34.182V32.549C29.3859 31.892 29.9169 31.353 30.5729 31.353ZM38.8279 1C38.6829 1 38.5379 1.028 38.3989 1.082L30.4399 4.23801L19.5999 2.52301C20.9669 4.73301 21.2339 7.45699 20.3189 9.89099L26.8859 16.462C28.2269 17.803 28.2269 19.979 26.8859 21.322C26.2159 21.993 25.3349 22.328 24.4549 22.328C23.5739 22.328 22.6969 21.993 22.0229 21.322L15.4559 14.752C14.5069 15.107 13.5079 15.289 12.5019 15.289C12.0019 15.289 11.4969 15.243 10.9989 15.152V15.161C10.9989 15.803 10.4739 16.331 9.82892 16.331C9.18192 16.331 8.65591 15.803 8.65591 15.161V14.357C7.89191 13.959 7.19891 13.451 6.59091 12.846C3.82691 10.082 3.4069 5.858 5.3269 2.642L0.764923 4.349C0.307923 4.52 0.00390625 4.95701 0.00390625 5.44601V34.83C0.00390625 35.474 0.52892 35.997 1.17392 36C1.31592 36 1.45292 35.974 1.58292 35.923L10.0559 32.762L30.3889 35.983C30.4479 35.994 30.5079 35.997 30.5679 35.997C30.7149 35.997 30.8599 35.969 30.9989 35.915L39.2569 32.645C39.7029 32.466 39.9979 32.037 39.9979 31.554V2.173C39.9979 1.787 39.8049 1.42299 39.4839 1.20499H39.4899C39.2909 1.07099 39.0609 1 38.8279 1Z" fill="#664117"/>
<path fill-rule="evenodd" clip-rule="evenodd" d="M19.535 12C19.31 12.294 19.073 12.571 18.817 12.831C18.561 13.088 18.287 13.333 18 13.556L24.045 19.686C24.256 19.894 24.53 19.997 24.803 19.997C25.082 19.997 25.358 19.892 25.572 19.677C25.994 19.249 25.997 18.561 25.583 18.13L19.535 12Z" fill="#664117"/>
<path fill-rule="evenodd" clip-rule="evenodd" d="M12.8014 1.00293C11.1884 1.00293 9.60442 1.61193 8.41642 2.76193C6.00442 5.10493 6.00442 8.89793 8.41642 11.2439C9.60442 12.3879 11.1884 12.9969 12.8014 12.9969C13.6004 12.9969 14.4054 12.8469 15.1724 12.5409C17.4884 11.6149 18.9984 9.42794 18.9984 6.99994C18.9984 4.57494 17.4884 2.38795 15.1724 1.45895C14.4054 1.15295 13.6004 1.00293 12.8014 1.00293Z" fill="#664117"/>
</svg>
