<svg width="41" height="39" viewBox="0 0 41 39" fill="none" xmlns="http://www.w3.org/2000/svg">
<path fill-rule="evenodd" clip-rule="evenodd" d="M33.44 5.25101C33.734 5.25101 34.025 5.367 34.252 5.604C34.696 6.079 34.696 6.84799 34.252 7.31799L29.679 12.161C29.459 12.398 29.164 12.515 28.874 12.515C28.58 12.515 28.285 12.398 28.061 12.161L25.776 9.74001C25.333 9.27001 25.333 8.5 25.776 8.026C26 7.789 26.291 7.672 26.585 7.672C26.876 7.672 27.17 7.789 27.394 8.026L28.87 9.59L32.631 5.604C32.855 5.367 33.149 5.25101 33.44 5.25101ZM9.017 0C4.596 0 1 3.811 1 8.5C1 13.214 4.635 16.996 8.974 16.996H12.574V10.335C12.574 7.35201 14.862 4.92999 17.673 4.92999H17.685C20.488 4.93399 22.777 7.36401 22.777 10.335V16.996H31.971C36.4 16.996 39.996 13.185 39.996 8.5C40 3.815 36.404 0 31.983 0H9.017Z" fill="#664117"/>
<path fill-rule="evenodd" clip-rule="evenodd" d="M17.5807 7C16.0017 7 14.7157 8.317 14.7157 9.933V25.168H14.6917L11.8587 22.75C11.3437 22.304 10.7207 22.092 10.0967 22.092C9.28172 22.092 8.47072 22.46 7.92372 23.172C7.00072 24.37 7.1807 26.105 8.3267 27.087L14.0727 31.996H30.9967V23.38C30.9967 21.572 29.6827 20.054 27.9447 19.829L20.4527 19.036V9.933C20.4527 8.317 19.1747 7 17.5927 7C17.5887 7 17.5847 7 17.5807 7Z" fill="#664117"/>
<path fill-rule="evenodd" clip-rule="evenodd" d="M15.008 34V36.664H15C15 37.405 15.514 38 16.146 38H29.858C30.486 38 30.996 37.405 30.996 36.664V34H15.008Z" fill="#664117"/>
</svg>
