<svg width="248" height="36" viewBox="0 0 248 36" fill="none" xmlns="http://www.w3.org/2000/svg">
<path d="M1.18007 2.16942C6.65559 2.26189 9.86548 4.69439 13.7553 7.67195C17.0101 10.1628 20.5925 11.8013 24.9912 11.9578C29.7543 12.1273 33.7724 10.6455 37.3406 7.97125C40.8864 5.3092 43.905 2.59525 48.8329 2.21971C54.1456 1.81496 57.9316 3.76323 61.7217 6.75702C64.9704 9.32254 68.2252 11.4079 72.7012 11.8605C77.2647 12.3212 81.6268 11.2976 85.2479 8.83994C88.8205 6.41636 91.627 3.27333 96.286 2.42978C101.632 1.46051 106.158 3.0957 110.075 6.14626C113.12 8.51793 116.073 10.8758 120.199 11.6358C124.89 12.4996 129.809 11.7461 133.705 9.28361C137.053 7.16825 139.651 4.10715 143.649 2.85886C148.764 1.25936 154.163 2.41032 158.224 5.39599C161.361 7.70034 164.085 10.2951 168.129 11.3673C172.489 12.5248 177.574 12.0973 181.502 10.0582C185.14 8.16916 187.673 4.97422 191.496 3.33254C196.911 1.00711 203.134 2.22863 207.554 5.54442C211.108 8.20971 214.278 11.0161 219.097 11.7388C224.185 12.5013 229.053 11.3706 233.049 8.55687C237.5 5.42276 240.645 2.27324 246.819 2.16942C248.391 2.14428 248.396 0.00620331 246.819 0.0329698C242.081 0.110836 238.34 1.63328 234.828 4.33101C231.25 7.08228 228.033 9.63238 223.004 9.81975C217.454 10.0258 213.977 7.68087 210.062 4.63437C206.88 2.15563 203.493 0.378499 199.158 0.0808234C194.593 -0.229018 190.436 0.946273 186.888 3.4461C183.299 5.97512 180.44 9.00784 175.624 9.677C170.252 10.4265 165.965 8.60472 162.086 5.55091C158.796 2.96349 155.587 0.706186 151.045 0.18059C146.496 -0.345005 142.075 0.572354 138.419 2.99593C135.105 5.19159 132.451 8.20809 128.331 9.30632C122.935 10.7436 117.828 9.29416 113.73 6.15843C110.696 3.83624 107.861 1.39482 103.83 0.492056C99.3131 -0.521013 94.2731 0.06298 90.367 2.32109C86.9273 4.31154 84.391 7.40996 80.548 8.87968C75.675 10.742 69.9044 9.88708 65.8008 7.04497C62.544 4.78685 59.9061 2.02748 55.8615 0.797031C51.009 -0.67999 45.2689 -0.0903157 41.0248 2.45087C37.1208 4.78929 34.2813 8.37679 29.4958 9.44907C23.4748 10.8004 18.665 8.6761 14.3253 5.24513C10.4192 2.15725 6.60877 0.123813 1.18007 0.0329698C-0.393358 0.00620331 -0.393358 2.14428 1.18007 2.16942Z" fill="#FD4621"/>
<path d="M1.18007 14.1707C6.65559 14.2615 9.86548 16.6964 13.7553 19.6716C17.0101 22.1624 20.5925 23.8025 24.9912 23.9574C29.7543 24.1269 33.7724 22.6475 37.3406 19.9708C40.8864 17.3088 43.905 14.5949 48.8329 14.2193C54.1456 13.8146 57.9316 15.7629 61.7217 18.7566C64.9704 21.3221 68.2252 23.4075 72.7012 23.8601C77.2647 24.3208 81.6268 23.2972 85.2479 20.8395C88.8205 18.416 91.627 15.2729 96.286 14.4294C101.632 13.4601 106.158 15.0969 110.075 18.1459C113.12 20.5175 116.073 22.8754 120.199 23.6354C124.89 24.4992 129.809 23.7457 133.705 21.2832C137.053 19.1679 139.651 16.1068 143.649 14.8585C148.764 13.259 154.163 14.4099 158.224 17.3956C161.361 19.6999 164.085 22.2947 168.129 23.3685C172.489 24.5244 177.574 24.0969 181.502 22.0578C185.14 20.1688 187.673 16.9738 191.496 15.3322C196.911 13.0067 203.134 14.2283 207.554 17.544C211.108 20.2093 214.278 23.0173 219.097 23.7408C224.185 24.5025 229.053 23.3702 233.049 20.5565C237.5 17.4224 240.645 14.2745 246.819 14.1707C248.391 14.1439 248.396 12.0058 246.819 12.0326C242.081 12.1105 238.34 13.6329 234.828 16.3306C231.25 19.0819 228.033 21.632 223.004 21.8193C217.454 22.0254 213.977 19.6821 210.062 16.634C206.88 14.1569 203.493 12.3781 199.158 12.0821C194.593 11.7706 190.436 12.9459 186.888 15.4457C183.299 17.9747 180.44 21.0074 175.624 21.6766C170.252 22.426 165.965 20.6043 162.086 17.5505C158.796 14.9631 155.587 12.7058 151.045 12.1802C146.496 11.6546 142.075 12.572 138.419 14.9956C135.105 17.1928 132.451 20.2077 128.331 21.3059C122.935 22.7448 117.828 21.2954 113.73 18.1597C110.696 15.8375 107.861 13.3944 103.83 12.4917C99.3131 11.4786 94.2731 12.0626 90.367 14.3223C86.9273 16.3136 84.391 19.4096 80.548 20.8793C75.675 22.7432 69.9044 21.8883 65.8008 19.0446C62.544 16.7889 59.9061 14.0271 55.8615 12.7967C51.009 11.3205 45.2689 11.9093 41.0248 14.4505C37.1208 16.7905 34.2813 20.3764 29.4958 21.4487C23.4748 22.8 18.665 20.6757 14.3253 17.2464C10.4192 14.1569 6.60877 12.1235 1.18007 12.0326C-0.393358 12.0058 -0.393358 14.1439 1.18007 14.1707Z" fill="#FD4621"/>
<path d="M1.18007 26.1705C6.65559 26.2614 9.86548 28.6962 13.7553 31.6711C17.0101 34.1626 20.5925 35.8026 24.9912 35.9575C29.7543 36.1262 33.7724 34.6468 37.3406 31.9704C40.8864 29.3101 43.905 26.5963 48.8329 26.2208C54.1456 25.8169 57.9316 27.7626 61.7217 30.7579C64.9704 33.3216 68.2252 35.4084 72.7012 35.861C77.2647 36.32 81.6268 35.2981 85.2479 32.8414C88.8205 30.4156 91.627 27.2728 96.286 26.4293C101.632 25.4601 106.158 27.0968 110.075 30.1471C113.12 32.517 116.073 34.8764 120.199 35.6347C124.89 36.4985 129.809 35.745 133.705 33.2827C137.053 31.1691 139.651 28.1082 143.649 26.8583C148.764 25.2614 154.163 26.4098 158.224 29.3953C161.361 31.7011 164.085 34.294 168.129 35.3679C172.489 36.5252 177.574 36.0962 181.502 34.0572C185.14 32.1683 187.673 28.9752 191.496 27.3336C196.911 25.0067 203.134 26.2297 207.554 29.5437C211.108 32.2088 214.278 35.0167 219.097 35.7401C224.185 36.5017 229.053 35.3695 233.049 32.556C237.5 29.422 240.645 26.2744 246.819 26.1705C248.391 26.1446 248.396 24.0058 246.819 24.0326C242.081 24.1105 238.34 25.6328 234.828 28.3304C231.25 31.0815 228.033 33.6314 223.004 33.8188C217.454 34.0248 213.977 31.6816 210.062 28.6337C206.88 26.1568 203.493 24.3781 199.158 24.0821C194.593 23.7706 190.436 24.9459 186.888 27.4455C183.299 29.976 180.44 33.0069 175.624 33.6776C170.252 34.4254 165.965 32.6046 162.086 29.5526C158.796 26.9629 155.587 24.7058 151.045 24.1802C146.496 23.6547 142.075 24.572 138.419 26.9954C135.105 29.1925 132.451 32.2072 128.331 33.3062C122.935 34.7442 117.828 33.2948 113.73 30.1593C110.696 27.8373 107.861 25.396 103.83 24.4917C99.3131 23.4787 94.2731 24.0642 90.367 26.3222C86.9273 28.3133 84.391 31.4091 80.548 32.8804C75.675 34.7425 69.9044 33.8877 65.8008 31.0442C62.544 28.7886 59.9061 26.027 55.8615 24.7966C51.009 23.3205 45.2689 23.9093 41.0248 26.4504C37.1208 28.7902 34.2813 32.3767 29.4958 33.4497C23.4748 34.7993 18.665 32.6752 14.3253 29.2461C10.4192 26.1568 6.60877 24.1234 1.18007 24.0326C-0.393358 24.0058 -0.393358 26.1446 1.18007 26.1705Z" fill="#FD4621"/>
</svg>
