<svg width="53" height="50" viewBox="0 0 53 50" fill="none" xmlns="http://www.w3.org/2000/svg">
<path opacity="0.2" d="M22.1667 49.75C34.409 49.75 44.3333 39.8256 44.3333 27.5833C44.3333 15.341 34.409 5.41663 22.1667 5.41663C9.92436 5.41663 0 15.341 0 27.5833C0 39.8256 9.92436 49.75 22.1667 49.75Z" fill="#FD4621"/>
<path d="M51.3333 20.8898V22.929C51.3277 32.7453 44.8658 41.3887 35.4517 44.1719C26.0377 46.9552 15.9142 43.2153 10.5711 34.9804C5.22794 26.7455 5.93804 15.9772 12.3163 8.51515C18.6945 1.05309 29.2215 -1.32519 38.1885 2.67003" stroke="#111111" stroke-width="1.5" stroke-linecap="round" stroke-linejoin="round"/>
<path d="M51.332 5.41663L29.7936 26.4166L23.332 20.1229" stroke="#111111" stroke-width="1.5" stroke-linecap="round" stroke-linejoin="round"/>
</svg>
