<svg width="53" height="53" viewBox="0 0 53 53" fill="none" xmlns="http://www.w3.org/2000/svg">
<path opacity="0.2" fill-rule="evenodd" clip-rule="evenodd" d="M46.6667 27.4538C46.6755 30.8756 45.876 34.2512 44.3333 37.3056C40.6024 44.7705 32.9749 49.4875 24.6296 49.4908C21.2077 49.4997 17.8321 48.7002 14.7778 47.1574L0 52.0834L4.92592 37.3056C3.38315 34.2512 2.58367 30.8756 2.59259 27.4538C2.59582 19.1085 7.31284 11.4809 14.7778 7.7501C17.8321 6.20733 21.2077 5.40785 24.6296 5.4167H25.9259C37.115 6.03407 46.0493 14.9684 46.6667 26.1575V27.4538Z" fill="#FF5533"/>
<path fill-rule="evenodd" clip-rule="evenodd" d="M51.3346 22.7871C51.3435 26.209 50.544 29.5846 49.0012 32.639C45.2704 40.1039 37.6429 44.8209 29.2976 44.8241C25.8757 44.8331 22.5001 44.0336 19.4457 42.4908L4.66797 47.4167L9.59389 32.639C8.05112 29.5846 7.25164 26.209 7.26056 22.7871C7.26379 14.4418 11.9808 6.81432 19.4457 3.08348C22.5001 1.54071 25.8757 0.741225 29.2976 0.750073H30.5939C41.783 1.36744 50.7173 10.3017 51.3346 21.4909V22.7871Z" stroke="#111111" stroke-width="1.5" stroke-linecap="round" stroke-linejoin="round"/>
<path d="M19.8359 22.9166H21.0026" stroke="#111111" stroke-width="2" stroke-linecap="round" stroke-linejoin="round"/>
<path d="M28.5859 22.9166H29.7526" stroke="#111111" stroke-width="2" stroke-linecap="round" stroke-linejoin="round"/>
<path d="M37.3359 22.9166H38.5026" stroke="#111111" stroke-width="2" stroke-linecap="round" stroke-linejoin="round"/>
</svg>
