<svg width="53" height="53" viewBox="0 0 53 53" fill="none" xmlns="http://www.w3.org/2000/svg">
<path opacity="0.2" fill-rule="evenodd" clip-rule="evenodd" d="M23.3333 5.41663C36.218 5.41663 46.6667 15.863 46.6667 28.75C46.6667 41.6346 36.218 52.0833 23.3333 52.0833C10.4463 52.0833 0 41.6346 0 28.75C0 15.863 10.4463 5.41663 23.3333 5.41663Z" fill="#FD4621"/>
<path fill-rule="evenodd" clip-rule="evenodd" d="M28.0013 0.75C40.886 0.75 51.3346 11.1963 51.3346 24.0833C51.3346 36.968 40.886 47.4167 28.0013 47.4167C15.1143 47.4167 4.66797 36.968 4.66797 24.0833C4.66797 11.1963 15.1143 0.75 28.0013 0.75Z" stroke="#111111" stroke-width="1.5" stroke-linecap="round" stroke-linejoin="round"/>
<path d="M18.668 28.75C18.668 28.75 22.168 33.4167 28.0013 33.4167C33.8346 33.4167 37.3346 28.75 37.3346 28.75" stroke="#111111" stroke-width="1.5" stroke-linecap="round" stroke-linejoin="round"/>
<path d="M21 17.0834H21.0233" stroke="#111111" stroke-width="2" stroke-linecap="round" stroke-linejoin="round"/>
<path d="M35 17.0834H35.0233" stroke="#111111" stroke-width="2" stroke-linecap="round" stroke-linejoin="round"/>
</svg>
