<svg width="32" height="24" viewBox="0 0 32 24" fill="none" xmlns="http://www.w3.org/2000/svg">
<g clip-path="url(#clip0_7934_4979)">
<path fill-rule="evenodd" clip-rule="evenodd" d="M8.76993 14.7171C9.20833 14.7171 9.6397 14.8871 9.9597 15.2055C10.4423 15.6849 10.585 16.4017 10.3245 17.025C10.0647 17.6484 9.45281 18.057 8.77441 18.057C7.84449 18.057 7.09313 17.3078 7.09313 16.388C7.09313 15.7095 7.5021 15.1018 8.1293 14.843C8.33602 14.7567 8.55425 14.7171 8.76993 14.7171ZM16.0231 14.7171C16.4608 14.7171 16.8928 14.8871 17.2128 15.2055C17.6909 15.6849 17.8381 16.4017 17.5776 17.025C17.3171 17.6484 16.7059 18.057 16.0231 18.057C15.0976 18.057 14.3437 17.3078 14.3437 16.388C14.3437 15.7095 14.7527 15.1018 15.3824 14.843C15.5891 14.7567 15.8074 14.7171 16.0231 14.7171ZM23.2762 14.7171C23.7139 14.7171 24.1453 14.8871 24.4659 15.2055C24.944 15.6849 25.0906 16.4017 24.8307 17.025C24.5703 17.6484 23.9584 18.057 23.2762 18.057C22.3482 18.057 21.5968 17.3078 21.5968 16.388C21.5968 15.7095 22.0058 15.1018 22.6355 14.843C22.8423 14.7567 23.0599 14.7171 23.2762 14.7171ZM0.689297 12.9729V17.7054C0.685457 19.1182 1.24098 20.4778 2.23554 21.4903C2.00642 21.5364 1.77473 21.563 1.54369 21.563C1.04513 21.563 0.642578 21.9632 0.642578 22.4581C0.642578 22.9491 1.04513 23.3513 1.54369 23.3513C2.57793 23.3513 3.57634 23.0438 4.48642 22.4581C4.72194 22.3057 4.94465 22.1396 5.15585 21.9632C5.36897 22.1396 5.59169 22.3057 5.82529 22.4581C6.73729 23.0438 7.73569 23.3513 8.76993 23.3513C9.80865 23.3513 10.8071 23.0438 11.7171 22.4581C11.9527 22.3057 12.1754 22.1396 12.3866 21.9632C12.5997 22.1396 12.8224 22.3057 13.0535 22.4581C13.968 23.0438 14.9664 23.3513 16.0007 23.3513C17.0349 23.3513 18.0378 23.0438 18.9479 22.4581C19.1789 22.3057 19.4061 22.1396 19.6173 21.9632C19.8259 22.1396 20.0531 22.3057 20.2842 22.4581C21.1987 23.0438 22.1971 23.3513 23.2314 23.3513C24.2656 23.3513 25.264 23.0438 26.176 22.4581C26.4096 22.3057 26.6323 22.1396 26.8455 21.9632C27.0567 22.1396 27.2794 22.3057 27.5149 22.4581C28.425 23.0438 29.4234 23.3513 30.4602 23.3513C30.9562 23.3513 31.3607 22.9491 31.3607 22.4581C31.3607 21.9632 30.9562 21.563 30.4602 21.563C29.9795 21.5584 29.5034 21.4592 29.0656 21.2626C29.7191 20.5128 30.1549 19.6001 30.3264 18.6233L31.296 12.9749L0.689297 12.9729Z" fill="#664117"/>
<path fill-rule="evenodd" clip-rule="evenodd" d="M9.89744 7.89279C10.3915 7.89279 10.7928 8.30274 10.7928 8.80998C10.7928 9.31528 10.3915 9.72522 9.89744 9.72522H8.72624C8.2296 9.72522 7.82832 9.31528 7.82832 8.80998C7.82832 8.30274 8.2296 7.89279 8.72624 7.89279H9.89744ZM14.4338 7.89279C14.9304 7.89279 15.3317 8.30274 15.3317 8.80998C15.3317 9.31528 14.9304 9.72522 14.4338 9.72522H13.2626C12.7659 9.72522 12.3672 9.31528 12.3672 8.80998C12.3672 8.30274 12.7659 7.89279 13.2626 7.89279H14.4338ZM23.2843 7.89279C23.781 7.89279 24.1822 8.30274 24.1822 8.80998H24.1803C24.1803 9.31528 23.779 9.72522 23.2843 9.72522H17.7925C17.2978 9.72522 16.8965 9.31528 16.8965 8.80998C16.8965 8.30274 17.2978 7.89279 17.7925 7.89279H23.2843ZM15.2779 0.650635C14.4133 0.650635 13.6997 1.34144 13.651 2.2249L13.4731 5.52847H12.2674L11.8373 2.44415C11.715 1.62685 11.0322 1.02036 10.2232 1.01322H9.04368C8.14576 1.01582 7.4136 1.75853 7.4136 2.68026V5.53106C6.70192 5.581 6.07024 6.02015 5.77072 6.68112L3.91088 10.7916C3.87504 10.8642 3.85328 10.9453 3.83984 11.0271H26.2354C26.2398 10.837 26.1822 10.6489 26.0779 10.4926L23.2952 6.38469C22.9317 5.84825 22.3307 5.52847 21.6901 5.52847H20.8498L18.7083 1.51593C18.4242 0.98404 17.8744 0.650635 17.2779 0.650635H15.2779Z" fill="#664117"/>
</g>
<defs>
<clipPath id="clip0_7934_4979">
<rect width="32" height="24" fill="white"/>
</clipPath>
</defs>
</svg>
