<svg width="32" height="22" viewBox="0 0 32 22" fill="none" xmlns="http://www.w3.org/2000/svg">
<g clip-path="url(#clip0_7934_4995)">
<path fill-rule="evenodd" clip-rule="evenodd" d="M13.4414 8.55542V9.77764H15.9995V8.55542H13.4414Z" fill="#664117"/>
<path fill-rule="evenodd" clip-rule="evenodd" d="M5.12109 8.55542V9.77764H8.31854V8.55542H5.12109Z" fill="#664117"/>
<path fill-rule="evenodd" clip-rule="evenodd" d="M8.68863 6.75947C9.22687 6.75947 9.66208 7.17197 9.66656 7.67675L9.66016 10.7818C9.66016 11.289 9.22496 11.6991 8.68672 11.6991H4.01535C3.47711 11.6991 3.04191 11.289 3.04191 10.7818V7.67675C3.04191 7.17197 3.47711 6.75947 4.01535 6.75947H8.68863ZM16.8806 6.75947C17.4208 6.75947 17.8541 7.17197 17.8586 7.67675L17.8541 10.7818C17.8541 11.289 17.4163 11.6991 16.8806 11.6991H12.2118C11.6755 11.6991 11.2384 11.289 11.2384 10.7818V7.67675C11.2384 7.17197 11.6755 6.75947 12.2118 6.75947H16.8806ZM28.8198 12.9207C28.8243 12.9207 28.8307 12.9207 28.8378 12.9207H29.3856C29.8803 12.9299 30.279 13.31 30.279 13.7756C30.279 14.2419 29.8803 14.622 29.3856 14.6306H28.8378C28.8307 14.6306 28.8243 14.6306 28.8198 14.6306C28.3181 14.6306 27.9053 14.248 27.9053 13.7756C27.9053 13.3033 28.3181 12.9207 28.8198 12.9207ZM7.58465 18.3412L8.73473 19.6796H6.26943L5.12 18.3412H7.58465ZM12.3904 18.3412L13.5405 19.6796H11.0778L9.92768 18.3412H12.3904ZM17.1987 18.3412L18.3488 19.6796H15.8842L14.7341 18.3412H17.1987ZM22.0045 18.3412L23.1546 19.6796H20.6899L19.5398 18.3412H22.0045ZM13.0317 0.613525C12.528 0.613525 12.1222 0.991189 12.1222 1.46786C12.1222 1.93841 12.528 2.31853 13.0317 2.31853H15.2608C15.2838 2.40409 15.3229 2.48353 15.3754 2.55686L16.3283 3.91842H2.92736C1.31008 3.92026 0.00256 5.14919 0 6.66292V12.9207H25.6518C26.1485 12.9299 26.5427 13.31 26.5427 13.7756C26.5427 14.2419 26.1485 14.622 25.6518 14.6306H0V15.5992C0.00256 17.0573 1.22305 18.26 2.77889 18.337L3.93088 19.6796H0.911992C0.407672 19.6796 0 20.0615 0 20.5339C0 21.0063 0.407672 21.3846 0.911992 21.3889H30.1939C30.6957 21.3889 31.1059 21.0063 31.1059 20.5339C31.1059 20.0615 30.6957 19.6796 30.1939 19.6796H25.4982L24.3482 18.3437H26.0224C27.6378 18.3437 29.1539 17.6244 30.1139 16.4065C31.0714 15.1885 31.36 13.6168 30.8838 12.1715L30.7302 11.6991H23.1091C21.3747 11.6966 19.9731 10.3785 19.968 8.75475V3.91842H18.4403C18.4128 3.81942 18.3738 3.72714 18.3142 3.64158L17.3914 2.31853H17.4528C17.9571 2.31853 18.3648 1.93841 18.3648 1.46786C18.3648 0.991189 17.9571 0.613525 17.4528 0.613525H13.0317Z" fill="#664117"/>
<path fill-rule="evenodd" clip-rule="evenodd" d="M21.7617 3.66919V8.53547C21.7617 9.22235 22.3492 9.77786 23.0705 9.77786H30.0817L29.1985 7.05291C28.5451 5.04297 26.5854 3.66919 24.3659 3.66919H21.7617Z" fill="#664117"/>
</g>
<defs>
<clipPath id="clip0_7934_4995">
<rect width="32" height="22" fill="white"/>
</clipPath>
</defs>
</svg>
