<svg width="33" height="22" viewBox="0 0 33 22" fill="none" xmlns="http://www.w3.org/2000/svg">
<path fill-rule="evenodd" clip-rule="evenodd" d="M24.4022 5.07857C24.8211 5.07857 25.2039 5.36112 25.3277 5.79287L25.41 6.08369C25.5555 6.60962 25.2624 7.1555 24.7511 7.30675C24.6613 7.33357 24.5716 7.34594 24.4818 7.34594C24.0629 7.34594 23.6774 7.06337 23.559 6.63162L23.4741 6.33875C23.3258 5.81281 23.6243 5.26488 24.1357 5.11569C24.2254 5.09094 24.3145 5.07857 24.4022 5.07857ZM21.4116 5.95925C21.8305 5.95925 22.2188 6.24181 22.3398 6.67356L22.4248 6.96643C22.5696 7.48756 22.2745 8.03619 21.7631 8.1895C21.6734 8.21425 21.5836 8.22731 21.4966 8.22731C21.077 8.22731 20.6915 7.94406 20.5704 7.51231L20.4881 7.21944C20.3379 6.69625 20.6337 6.15037 21.145 5.99912C21.2348 5.97162 21.3246 5.95925 21.4116 5.95925ZM18.4257 6.83994C18.8453 6.83994 19.2302 7.12319 19.3519 7.55494L19.4341 7.84987C19.5817 8.37306 19.2839 8.91687 18.7725 9.07088C18.6875 9.09562 18.5977 9.108 18.5059 9.108C18.0796 9.108 17.6988 8.81513 17.5798 8.39301L17.4975 8.10012C17.352 7.57694 17.6458 7.03106 18.1571 6.87982C18.2462 6.85231 18.336 6.83994 18.4257 6.83994ZM15.4425 7.7385C15.8546 7.7385 16.2347 8.01144 16.3633 8.43563L16.4462 8.72575C16.5911 9.25444 16.298 9.80032 15.7866 9.95157C15.6996 9.97632 15.6098 9.99075 15.5201 9.99075C15.089 9.99075 14.7109 9.69581 14.5946 9.27643L14.5096 8.9815C14.3715 8.46037 14.6694 7.92688 15.1733 7.77769C15.263 7.75294 15.3528 7.7385 15.4425 7.7385ZM12.4546 8.62126C12.8688 8.62126 13.2495 8.89213 13.3781 9.31838L13.4556 9.60919C13.6059 10.1351 13.3101 10.681 12.7987 10.8322C12.7089 10.8597 12.6192 10.8721 12.5294 10.8721C12.1105 10.8721 11.725 10.5889 11.6039 10.1571L11.5217 9.86219C11.3857 9.34381 11.6787 8.80757 12.1881 8.65838C12.2778 8.63363 12.3669 8.62126 12.4546 8.62126ZM9.46125 9.48475C9.88081 9.48475 10.2637 9.768 10.3874 10.1997L10.4697 10.4899C10.6152 11.0158 10.3221 11.5617 9.80806 11.7129C9.72102 11.7404 9.62856 11.7528 9.54152 11.7528C9.12196 11.7528 8.73707 11.4696 8.61603 11.0378L8.53306 10.7456C8.3855 10.219 8.68132 9.67588 9.19472 9.52188C9.28244 9.49713 9.37217 9.48475 9.46125 9.48475ZM11.8705 0C11.7808 0 11.691 0.0123756 11.6039 0.0371256L8.33247 1.00444C7.62459 1.21275 7.39677 2.12576 7.92241 2.65444L11.4584 6.21706L5.34863 8.01832L4.27762 5.82038C3.88526 5.01119 3.07811 4.51756 2.23219 4.51756C2.05335 4.51756 1.87112 4.54025 1.6916 4.58494C0.465559 4.90738 -0.261367 6.20744 0.0874726 7.45526L1.96835 14.1391C2.30495 15.3306 3.36438 16.1047 4.51494 16.1047C4.7577 16.1047 5.00725 16.0696 5.25205 15.9954L14.2015 13.3629L13.0728 20.1589C13.0218 20.4834 13.1285 20.8161 13.3631 21.0444C13.5331 21.2128 13.7609 21.3098 13.9982 21.3098C14.156 21.3022 14.311 21.2726 14.4586 21.2231L14.9067 21.0939L16.264 20.6917L18.2346 20.1163C18.7603 19.9602 18.8813 19.4961 18.9248 19.3201L20.958 11.3678L30.9941 8.40537C31.9244 8.12762 32.6343 7.35625 32.8451 6.391C33.0559 5.42094 32.7363 4.41582 32.0094 3.76132L30.0802 2.02675C29.5933 1.58262 28.9705 1.34956 28.3354 1.34956C28.0878 1.34956 27.8383 1.38393 27.5962 1.45612L17.7593 4.35669L12.4567 0.20556C12.2874 0.0694347 12.0786 0 11.8705 0Z" fill="#664117"/>
</svg>
