<svg width="33" height="24" viewBox="0 0 33 24" fill="none" xmlns="http://www.w3.org/2000/svg">
<g clip-path="url(#clip0_7934_4985)">
<path fill-rule="evenodd" clip-rule="evenodd" d="M8.11123 3.33325C5.20116 3.33325 2.81842 5.44259 2.69922 8.07659C3.05616 8.01459 3.42251 7.98058 3.78349 7.98058C3.96331 7.98058 4.14247 7.98659 4.31959 8.00592L12.1258 8.66458V3.33325H8.11123Z" fill="#664117"/>
<path fill-rule="evenodd" clip-rule="evenodd" d="M13.6066 0.668701C12.7877 0.668701 12.125 1.30603 12.125 2.08869V3.36537H14.1319V9.16137L23.574 9.99803V5.74936C23.5693 4.43469 22.4607 3.36937 21.0936 3.36537H16.848V2.08869C16.848 1.30603 16.1854 0.668701 15.3691 0.668701H13.6066Z" fill="#664117"/>
<path fill-rule="evenodd" clip-rule="evenodd" d="M18.3115 14.3473C18.8665 14.3473 19.3156 14.7933 19.3156 15.3427C19.3156 15.8967 18.8665 16.342 18.3115 16.342H16.6709C16.118 16.342 15.6688 15.8967 15.6688 15.3427C15.6688 14.7933 16.118 14.3473 16.6709 14.3473H18.3115ZM3.69249 10C1.77176 10 0.14334 11.48 0.0133605 13.4213H2.26745C2.82239 13.4213 3.27157 13.8673 3.27157 14.4187C3.27157 14.9727 2.82239 15.4187 2.26745 15.4187H0.00390625V21.3313H3.23926C3.28977 19.2673 4.99299 17.6173 7.07266 17.6173C9.1557 17.6173 10.8562 19.2673 10.9114 21.3313H20.8006C20.8565 19.27 22.557 17.6267 24.6347 17.6267C26.713 17.6267 28.4109 19.27 28.4715 21.3313H32.3264V17.264H29.7625C28.1475 17.2613 26.8403 15.9633 26.8403 14.364V12.1187L4.03732 10.016C3.92149 10.0067 3.80563 10 3.69249 10Z" fill="#664117"/>
<path fill-rule="evenodd" clip-rule="evenodd" d="M28.9609 12.6687V14.5194C28.9609 14.968 29.3536 15.3294 29.8452 15.3314H32.3263C32.2293 13.9554 31.0622 12.8487 29.5691 12.7227L28.9609 12.6687Z" fill="#664117"/>
<path fill-rule="evenodd" clip-rule="evenodd" d="M7.13882 20C6.48286 20 5.89223 20.4073 5.64439 21.026C5.39184 21.6507 5.52924 22.3667 5.99461 22.8433C6.30441 23.16 6.71857 23.3313 7.13882 23.3313C7.34827 23.3313 7.55775 23.2893 7.75844 23.2047C8.3612 22.9493 8.75516 22.3393 8.75516 21.6653C8.75516 20.7473 8.03117 20 7.13882 20Z" fill="#664117"/>
<path fill-rule="evenodd" clip-rule="evenodd" d="M24.6481 20C23.9941 20 23.4055 20.4073 23.1557 21.026C22.9031 21.6507 23.0425 22.3667 23.5059 22.8433C23.8157 23.16 24.2298 23.3313 24.6501 23.3313C24.8595 23.3313 25.069 23.2893 25.2697 23.2047C25.8745 22.9493 26.2664 22.3393 26.2664 21.6653C26.2664 20.7473 25.5445 20 24.6481 20Z" fill="#664117"/>
</g>
<defs>
<clipPath id="clip0_7934_4985">
<rect width="33" height="24" fill="white"/>
</clipPath>
</defs>
</svg>
