<svg width="50" height="126" viewBox="0 0 50 126" fill="none" xmlns="http://www.w3.org/2000/svg">
<path d="M47.8306 0.599556C47.7381 3.38147 45.3056 5.0123 42.3281 6.98861C39.8372 8.64224 38.1987 10.4623 38.0422 12.6972C37.8727 15.1171 39.3545 17.1585 42.0288 18.9714C44.6908 20.7729 47.4048 22.3066 47.7803 24.8103C48.185 27.5095 46.2368 29.433 43.243 31.3586C40.6775 33.0091 38.5921 34.6628 38.1395 36.9369C37.6788 39.2555 38.7024 41.4717 41.1601 43.3115C43.5836 45.1266 46.7267 46.5524 47.5702 48.9195C48.5395 51.6356 46.9043 53.9353 43.8537 55.925C41.4821 57.4724 39.1242 58.9727 38.3642 61.0689C37.5004 63.4519 38.2539 65.9513 40.7164 67.9307C42.8318 69.6317 45.8929 70.9516 47.1411 72.9828C48.7406 75.5816 47.5897 78.325 44.604 80.3882C42.2997 81.9817 39.7049 83.3657 38.6327 85.4204C37.4752 87.6358 37.9027 90.219 39.9418 92.2149C41.8308 94.0628 45.0258 95.3502 46.6675 97.2924C48.9929 100.043 47.7714 103.205 44.4556 105.451C41.7903 107.257 38.9839 108.867 38.2612 111.316C37.4987 113.9 38.6294 116.374 41.4431 118.404C44.5772 120.666 47.7268 122.263 47.8306 125.4C47.8557 126.199 49.9938 126.201 49.967 125.4C49.8892 122.993 48.3667 121.092 45.669 119.308C42.9177 117.49 40.3676 115.856 40.1803 113.3C39.9742 110.48 42.3191 108.714 45.3656 106.725C47.8444 105.109 49.6215 103.388 49.9192 101.185C50.229 98.8657 49.0537 96.754 46.5539 94.9512C44.0249 93.1278 40.9922 91.6751 40.323 89.2284C39.5735 86.4991 41.3953 84.321 44.4491 82.3501C47.0365 80.6788 49.2938 79.048 49.8194 76.7408C50.345 74.4294 49.4276 72.1834 47.0041 70.326C44.8084 68.642 41.7919 67.2938 40.6937 65.2005C39.2564 62.459 40.7058 59.8644 43.8416 57.7823C46.1638 56.2406 48.6052 54.8001 49.5079 52.7524C50.521 50.4575 49.937 47.8968 47.6789 45.9123C45.6885 44.1647 42.59 42.8761 41.1203 40.9236C39.258 38.4478 40.1129 35.516 42.955 33.4311C45.2131 31.7764 47.9725 30.4362 49.203 28.3812C50.68 25.9158 50.0903 22.9995 47.5491 20.8433C45.2107 18.8598 41.6232 17.4171 40.5509 14.9858C39.1996 11.9267 41.3239 9.48302 44.7549 7.27816C47.8428 5.29362 49.8762 3.35768 49.967 0.599556C49.9938 -0.199849 47.8557 -0.199849 47.8306 0.599556Z" fill="#FD4621"/>
<path d="M29.8293 0.599556C29.7385 3.38147 27.3036 5.0123 24.3285 6.98861C21.8376 8.64224 20.1975 10.4623 20.0426 12.6972C19.8731 15.1171 21.3525 17.1585 24.0292 18.9714C26.6912 20.7729 29.4051 22.3066 29.7807 24.8103C30.1854 27.5095 28.2371 29.433 25.2434 31.3586C22.6779 33.0091 20.5925 34.6628 20.1399 36.9369C19.6792 39.2555 20.7028 41.4717 23.1605 43.3115C25.584 45.1266 28.7271 46.5524 29.5706 48.9195C30.5399 51.6356 28.9031 53.9353 25.8541 55.925C23.4825 57.4724 21.1246 58.9727 20.3646 61.0689C19.5008 63.4519 20.2543 65.9513 22.7168 67.9307C24.8321 69.6317 27.8932 70.9516 29.1415 72.9828C30.741 75.5816 29.5901 78.325 26.6044 80.3882C24.3001 81.9817 21.7054 83.3657 20.6315 85.4204C19.4756 87.6358 19.9031 90.219 21.9422 92.2149C23.8312 94.0628 27.0262 95.3502 28.6678 97.2924C30.9933 100.043 29.7717 103.205 26.456 105.451C23.7907 107.257 20.9827 108.867 20.2592 111.316C19.4975 113.9 20.6298 116.374 23.4435 118.404C26.5776 120.666 29.7255 122.263 29.8293 125.4C29.8561 126.199 31.9942 126.201 31.9674 125.4C31.8895 122.993 30.3671 121.092 27.6694 119.308C24.9181 117.49 22.368 115.856 22.1807 113.3C21.9746 110.48 24.3179 108.714 27.366 106.725C29.8431 105.109 31.6219 103.388 31.9179 101.185C32.2294 98.8657 31.0541 96.754 28.5543 94.9512C26.0253 93.1278 22.9926 91.6751 22.3234 89.2284C21.574 86.4991 23.3957 84.321 26.4495 82.3501C29.0369 80.6788 31.2942 79.048 31.8198 76.7408C32.3454 74.4294 31.428 72.1834 29.0044 70.326C26.8072 68.642 23.7923 67.2938 22.6941 65.2005C21.2552 62.459 22.7046 59.8644 25.8403 57.7823C28.1625 56.2406 30.6056 54.8001 31.5083 52.7524C32.5214 50.4575 31.9374 47.8968 29.6777 45.9123C27.6864 44.1647 24.5904 42.8761 23.1207 40.9236C21.2568 38.4478 22.1117 35.516 24.9554 33.4311C27.2111 31.7764 29.9729 30.4362 31.2033 28.3812C32.6795 25.9158 32.0907 22.9995 29.5495 20.8433C27.2095 18.8598 23.6236 17.4171 22.5513 14.9858C21.2 11.9267 23.3243 9.48302 26.7536 7.27816C29.8431 5.29362 31.8765 3.35768 31.9674 0.599556C31.9942 -0.199849 29.8561 -0.199849 29.8293 0.599556Z" fill="#FD4621"/>
<path d="M9.82946 0.599556C9.73862 3.38147 7.30385 5.0123 4.32891 6.98861C1.83736 8.64224 0.197411 10.4623 0.0424994 12.6972C-0.126199 15.1171 1.35316 17.1585 4.02963 18.9714C6.68988 20.7729 9.40366 22.3066 9.77918 24.8103C10.1831 27.5095 8.23736 29.433 5.24215 31.3586C2.67841 33.0091 0.591583 34.6628 0.139016 36.9369C-0.320039 39.2555 0.701879 41.4717 3.15856 43.3115C5.58441 45.1266 8.72724 46.5524 9.57073 48.9195C10.5399 51.6356 8.90324 53.9353 5.85287 55.925C3.48298 57.4724 1.12363 58.9727 0.365292 61.0689C-0.498478 63.4519 0.254996 65.9513 2.71735 67.9307C4.83095 69.6317 7.89185 70.9516 9.14168 72.9828C10.7386 75.5816 9.5902 78.325 6.60472 80.3882C4.2989 81.9817 1.70597 83.3657 0.632135 85.4204C-0.525236 87.6358 -0.0961918 90.219 1.94279 92.2149C3.83173 94.0628 7.02484 95.3502 8.66641 97.2924C10.9933 100.043 9.77025 103.205 6.4563 105.451C3.79118 107.257 0.98332 108.867 0.259862 111.316C-0.501716 113.9 0.630508 116.374 3.44405 118.404C6.57795 120.666 9.72564 122.263 9.82946 125.4C9.85541 126.199 11.9942 126.201 11.9674 125.4C11.8895 122.993 10.3672 121.092 7.66963 119.308C4.91854 117.49 2.36859 115.856 2.18123 113.3C1.97523 110.48 4.31836 108.714 7.36629 106.725C9.84324 105.109 11.6219 103.388 11.9179 101.185C12.2294 98.8657 11.0541 96.754 8.55448 94.9512C6.024 93.1278 2.99311 91.6751 2.32237 89.2284C1.57458 86.4991 3.39539 84.321 6.44737 82.3501C9.03706 80.6788 11.2942 79.048 11.8198 76.7408C12.3453 74.4294 11.428 72.1834 9.00462 70.326C6.80748 68.642 3.7928 67.2938 2.69382 65.2005C1.25583 62.459 2.70518 59.8644 5.84071 57.7823C8.16275 56.2406 10.604 54.8001 11.5083 52.7524C12.5213 50.4575 11.9358 47.8968 9.6778 45.9123C7.68667 44.1647 4.59088 42.8761 3.11963 40.9236C1.25746 38.4478 2.1123 35.516 4.95585 33.4311C7.21138 31.7764 9.97302 30.4362 11.2034 28.3812C12.6795 25.9158 12.0907 22.9995 9.54965 20.8433C7.20976 18.8598 3.62329 17.4171 2.55027 14.9858C1.20068 11.9267 3.32482 9.48302 6.75395 7.27816C9.84324 5.29362 11.8766 3.35768 11.9674 0.599556C11.9942 -0.199849 9.85542 -0.199849 9.82946 0.599556Z" fill="#FD4621"/>
</svg>
